<svg width="149" height="68" viewBox="0 0 149 68" fill="none" xmlns="http://www.w3.org/2000/svg">
<path d="M21.5876 4.60698V4.94108L21.8843 5.08957L22.181 4.94108V4.60698L21.8843 4.4585L21.5876 4.60698ZM26.224 24.3189V25.1356L26.9287 25.5439L27.6334 25.1356V24.3189L26.9287 23.9105L26.224 24.3189ZM20.957 11.6973V11.1405L21.4392 10.8435L21.9214 11.1405V11.6973L21.4392 11.9943L20.957 11.6973ZM38.3899 45.0331V46.4066L39.5768 47.0748L40.7637 46.4066V45.0331L39.5768 44.3649L38.3899 45.0331ZM35.2371 37.9799V36.7548L36.2757 36.1609L37.3142 36.7548V37.9799L36.2757 38.5738L35.2371 37.9799ZM30.4895 29.8872V30.9266L31.3797 31.4463L32.2698 30.9266V29.8872L31.3797 29.3675L30.4895 29.8872ZM22.5519 18.3793V17.6369L23.1825 17.2657L23.8131 17.6369V18.3793L23.1825 18.7505L22.5519 18.3793ZM38.3899 53.4227V53.831L38.7237 54.0166L39.0575 53.831V53.4227L38.7237 53.2371L38.3899 53.4227Z" fill="#6F7689"/>
<path d="M35.7193 59.2138V58.9539L35.9419 58.8425L36.1644 58.9539V59.2138L35.9419 59.3251L35.7193 59.2138Z" fill="#6F7689"/>
<path d="M13.9839 12.667V13.0011L14.2806 13.1496L14.5773 13.0011V12.667L14.2806 12.5186L13.9839 12.667ZM26.8545 57.0652V57.3993L27.1512 57.5478L27.448 57.3993V57.0652L27.1512 56.9167L26.8545 57.0652ZM25.5934 51.831V51.1999L26.1498 50.8658L26.7061 51.1999V51.831L26.1498 52.1651L25.5934 51.831ZM22.3294 44.8149V45.7801L23.1825 46.2626L24.0356 45.7801V44.8149L23.1825 44.3323L22.3294 44.8149ZM18.5832 39.9147V38.8011L19.5475 38.2442L20.5119 38.8011V39.9147L19.5475 40.4716L18.5832 39.9147ZM15.282 32.5645V33.8638L16.3948 34.4949L17.5075 33.8638V32.5645L16.3948 31.9335L15.282 32.5645ZM13.242 26.7364V25.9197L13.9468 25.5113L14.6515 25.9197V26.7364L13.9468 27.1447L13.242 26.7364ZM12.9082 18.7551V19.3119L13.3904 19.6089L13.8726 19.3119V18.7551L13.3904 18.4581L12.9082 18.7551Z" fill="#6F7689"/>
<path d="M4.78497 26.774V27.1081L5.08169 27.2566L5.37842 27.1081V26.774L5.08169 26.6255L4.78497 26.774ZM4.33984 32.2269V32.7837L4.82205 33.0807L5.30423 32.7837V32.2269L4.82205 31.9299L4.33984 32.2269ZM4.59951 38.9831V38.1664L5.30425 37.7581L6.00897 38.1664V38.9831L5.30425 39.3915L4.59951 38.9831ZM5.93478 43.4378V44.6628L6.97333 45.2568L8.01188 44.6628V43.4378L6.97333 42.8438L5.93478 43.4378ZM8.97627 49.4887V48.4493L9.86646 47.9296L10.7566 48.4493V49.4887L9.86646 50.0084L8.97627 49.4887ZM12.7967 53.2009V54.0176L13.5014 54.426L14.2061 54.0176V53.2009L13.5014 52.7926L12.7967 53.2009ZM16.8767 57.6225V57.0657L17.3589 56.7687L17.841 57.0657V57.6225L17.3589 57.9195L16.8767 57.6225ZM20.4374 60.9264V61.1863L20.66 61.2976L20.8825 61.1863V60.9264L20.66 60.815L20.4374 60.9264Z" fill="#6F7689"/>
<path d="M27.707 2.00884V2.34294L28.0038 2.49143L28.3005 2.34294V2.00884L28.0038 1.86035L27.707 2.00884ZM29.3019 7.72973V8.28656L29.7841 8.58354L30.2663 8.28656V7.72973L29.7841 7.43275L29.3019 7.72973ZM31.9354 13.9622V12.9228L32.8256 12.4031L33.7158 12.9228V13.9622L32.8256 14.4819L31.9354 13.9622ZM36.646 18.1199V19.4934L37.8329 20.1616L39.0198 19.4934V18.1199L37.8329 17.4517L36.646 18.1199ZM42.2839 24.6905V23.7996L43.0628 23.3541L43.8417 23.7996V24.6905L43.0628 25.136L42.2839 24.6905ZM46.5494 28.5883V28.9596L46.8832 29.1452L47.217 28.9596V28.5883L46.8832 28.4027L46.5494 28.5883Z" fill="#6F7689"/>
<path d="M25.1488 0.00406704C24.8892 -0.0330552 24.6666 0.189678 24.6296 0.449534C22.4041 10.2869 23.2943 17.6742 35.5344 30.2958C52.5963 47.8917 38.3533 61.3671 30.898 66.193C30.7867 66.2672 30.6012 66.49 30.7125 66.7869C30.8238 67.121 31.1576 67.121 31.2689 67.121C48.3308 62.9633 59.3098 42.6946 42.5075 27.6601C33.2347 19.3447 26.1874 14.3704 25.5939 0.5609C25.5939 0.263923 25.4085 0.0411893 25.1488 0.00406704Z" fill="#6F7689"/>
<path d="M20.7349 1.49339C20.5123 1.3449 20.2156 1.45627 20.0672 1.679C12.8715 13.0013 14.3181 24.8804 21.1799 34.2352C33.3829 50.8288 29.6738 61.6273 26.8178 66.6017C26.7436 66.7131 26.6694 67.01 26.892 67.1956C27.1145 67.4184 27.4113 67.307 27.5225 67.2328C35.7939 60.5136 40.1335 46.9681 28.932 32.0079C22.812 23.841 15.8759 17.0105 20.9574 2.12447C21.0316 1.93886 20.9574 1.64188 20.7349 1.49339Z" fill="#6F7689"/>
<path d="M15.0959 5.91061C14.8733 5.76212 14.5766 5.87348 14.4282 6.05909C6.00854 18.0867 5.19254 30.8155 8.82746 40.7312C13.946 52.9445 23.7381 58.8428 24.4058 66.7499C24.4429 66.9355 24.517 67.2696 24.888 67.2696C25.2589 67.2696 25.3702 66.9726 25.4072 66.8241C26.8909 54.7594 19.4727 46.7781 15.7635 40.0961C11.2384 31.1868 8.45655 21.4277 15.3184 6.50456C15.3555 6.31895 15.2813 6.02197 15.0959 5.91061Z" fill="#6F7689"/>
<path d="M22.0692 67.1109C22.0897 67.2291 21.9908 67.3318 21.8721 67.3141C12.8682 65.9684 0 59.1797 0 41.9564C0 37.1676 1.11274 32.4902 2.41093 28.4068C2.48511 28.1469 2.74474 27.9613 3.00438 28.0355C3.22693 28.0727 3.41238 28.2954 3.37529 28.5553C2.00292 37.9472 2.89311 48.7085 11.3128 55.5019C17.2452 60.2736 21.3562 63.0081 22.0692 67.1109Z" fill="#6F7689"/>
<path d="M37.4613 13.4838C32.9526 8.42541 30.7964 3.83082 30.2939 1.27372C30.2805 1.20563 30.3458 1.15114 30.4107 1.17557C37.554 3.86294 44.3862 14.3748 48.2178 25.3629C48.2549 25.4371 48.2549 25.7341 47.9581 25.8083C47.7356 25.8826 47.5501 25.697 47.513 25.6227C45.5101 21.3537 41.6155 18.124 37.4613 13.4838Z" fill="#6F7689"/>
<path d="M80.451 20.9821H79.1157V13.1865H76.0742V11.9243H83.5296V13.1865H80.4881V20.9821H80.451Z" fill="#6F7689"/>
<path d="M90.9855 20.9822H89.6502V17.2329C89.6502 16.5647 89.5389 16.0821 89.3163 15.7851C89.1309 15.4881 88.8341 15.3768 88.4632 15.3768C88.2778 15.3768 88.0552 15.4139 87.8698 15.4881C87.6472 15.5624 87.4618 15.6737 87.2763 15.8222C87.0909 15.9707 86.9425 16.1563 86.7941 16.3419C86.6829 16.5275 86.5716 16.7132 86.4974 16.9359V20.9822H85.1621V11.7017H86.4974V15.1169C86.6829 14.8942 86.9054 14.7086 87.165 14.5601C87.6472 14.2631 88.1665 14.1146 88.7229 14.1146C89.1309 14.1146 89.4647 14.1888 89.7614 14.3373C90.0582 14.4858 90.2807 14.7086 90.4662 14.9684C90.6516 15.2283 90.7629 15.5252 90.8371 15.8965C90.9113 16.2306 90.9483 16.6389 90.9483 17.0473V20.9822H90.9855Z" fill="#6F7689"/>
<path d="M95.8811 21.1308C95.3989 21.1308 94.9168 21.0566 94.5088 20.871C94.1008 20.6854 93.7298 20.4255 93.4331 20.0914C93.1364 19.7573 92.8767 19.3861 92.7284 18.9778C92.58 18.5694 92.4688 18.0868 92.4688 17.6042C92.4688 17.1216 92.5429 16.6762 92.7284 16.2678C92.9138 15.8595 93.1364 15.4883 93.4331 15.1542C93.7298 14.8201 94.1008 14.5602 94.5088 14.4117C94.9168 14.2261 95.3619 14.1147 95.844 14.1147C96.3262 14.1147 96.8084 14.2261 97.2164 14.4117C97.6244 14.5973 97.9953 14.8572 98.292 15.1542C98.5888 15.4883 98.8113 15.8595 98.9968 16.2678C99.1452 16.6762 99.2564 17.1216 99.2564 17.6042V17.7898C99.2564 17.9012 99.2564 17.9383 99.2193 18.0126L99.1452 18.1982H93.8782C93.9153 18.4209 93.9895 18.6065 94.0636 18.7921C94.1749 19.052 94.3604 19.2747 94.5458 19.4603C94.7313 19.646 94.9538 19.7944 95.1764 19.9058C95.5473 20.0543 96.0295 20.0914 96.4746 19.9801C96.66 19.9429 96.8084 19.8687 96.9568 19.7573C97.1051 19.6831 97.2535 19.5717 97.3648 19.4603C97.476 19.349 97.5502 19.2005 97.6244 19.052L97.6986 18.8664L98.8855 19.2005L98.7742 19.4603C98.663 19.7202 98.5146 19.9429 98.3291 20.1657C98.1437 20.3513 97.9212 20.5369 97.6615 20.6854C97.4019 20.8339 97.1051 20.9452 96.8084 21.0195C96.5488 21.0566 96.2149 21.1308 95.8811 21.1308ZM93.8782 17.0103H97.9211C97.884 16.8247 97.8099 16.6391 97.7357 16.4534C97.6244 16.1936 97.4761 15.9709 97.2906 15.7852C97.1051 15.5996 96.8826 15.4511 96.66 15.3769C96.1778 15.1913 95.6215 15.1913 95.1393 15.3769C94.8797 15.4883 94.6942 15.6368 94.5088 15.7852C94.3233 15.9709 94.1749 16.1936 94.0636 16.4163C93.9524 16.6391 93.9153 16.8247 93.8782 17.0103Z" fill="#6F7689"/>
<path d="M66.6902 38.7636C65.7629 38.7636 64.8727 38.5409 64.0938 38.1325C63.3149 37.7242 62.6473 37.1673 62.0538 36.5363C61.4974 35.8681 61.0524 35.1256 60.7185 34.2718C60.4218 33.418 60.2734 32.5642 60.2734 31.6733C60.2734 30.8566 60.4218 30.0399 60.6814 29.2232C60.9782 28.4065 61.4233 27.6641 61.9425 27.033C62.4989 26.4019 63.2036 25.8451 63.9826 25.4739C64.7986 25.0655 65.7258 24.8428 66.7644 24.8428C67.9884 24.8428 69.064 25.1397 69.9171 25.6966C70.8073 26.2534 71.475 26.9959 71.883 27.8868L71.9942 28.1095L70.5106 29.0376L70.3622 28.7777C70.1768 28.3694 69.9171 28.0353 69.6575 27.7754C69.3608 27.4785 69.0641 27.2557 68.7673 27.1072C68.4335 26.9216 68.0997 26.8103 67.7659 26.736C67.395 26.6618 67.0611 26.6246 66.7273 26.6246C65.9855 26.6246 65.3178 26.7731 64.7615 27.0701C64.2051 27.3671 63.6858 27.7754 63.3149 28.258C62.944 28.7406 62.6473 29.2974 62.4247 29.9285C62.2393 30.5596 62.128 31.1907 62.128 31.8217C62.128 32.5271 62.2393 33.1953 62.4989 33.8263C62.7585 34.4574 63.0924 35.0514 63.5004 35.534C63.9084 36.0166 64.4277 36.3878 64.984 36.6848C65.8371 37.0931 66.8386 37.2045 67.8771 36.9817C68.248 36.9075 68.5819 36.759 68.9528 36.5734C69.2866 36.3878 69.6204 36.1279 69.9171 35.8681C70.2139 35.5711 70.4364 35.237 70.6219 34.8287L70.7332 34.5688L72.291 35.3855L72.1797 35.6082C71.9572 36.1279 71.6233 36.6105 71.2153 37.0189C70.8073 37.4272 70.3623 37.7242 69.8801 38.0212C69.3979 38.281 68.8786 38.5037 68.3222 38.6522C67.7659 38.6894 67.2095 38.7636 66.6902 38.7636Z" fill="#6F7689"/>
<path d="M78.3374 38.8386C77.5956 38.8386 76.9279 38.6901 76.2974 38.4303C75.6668 38.1333 75.1475 37.7621 74.7025 37.2795C74.2574 36.7969 73.9235 36.2401 73.6639 35.609C73.4042 34.9779 73.293 34.3097 73.293 33.6044C73.293 32.8991 73.4042 32.1937 73.6639 31.5627C73.9235 30.9316 74.2944 30.3747 74.7025 29.8922C75.1475 29.4096 75.7039 29.0012 76.2974 28.7414C76.9279 28.4444 77.5956 28.2959 78.3374 28.2959C79.0792 28.2959 79.7469 28.4444 80.3774 28.7414C81.008 29.0383 81.5272 29.4096 81.9723 29.8922C82.4174 30.3747 82.7883 30.9316 83.0109 31.5627C83.2705 32.1937 83.4189 32.8619 83.4189 33.6044C83.4189 34.3097 83.3076 34.9779 83.048 35.609C82.7883 36.2401 82.4545 36.7969 81.9723 37.2795C81.5272 37.7621 81.008 38.1333 80.3774 38.4303C79.7839 38.6901 79.0792 38.8386 78.3374 38.8386ZM78.3374 29.9293C77.8923 29.9293 77.4843 30.0406 77.1134 30.2263C76.7054 30.4119 76.3715 30.6717 76.0748 31.0058C75.7781 31.3399 75.5555 31.7483 75.3701 32.1937C75.1846 32.6392 75.1104 33.1218 75.1104 33.6044C75.1104 34.1241 75.1846 34.6067 75.3701 35.015C75.5555 35.4234 75.7781 35.8317 76.0748 36.1658C76.3715 36.4628 76.7054 36.7226 77.1134 36.9083C77.8923 37.2795 78.8567 37.2795 79.5985 36.9083C80.0065 36.7226 80.3403 36.4628 80.637 36.1287C80.9338 35.7946 81.1563 35.4234 81.3418 34.9779C81.5272 34.5324 81.6014 34.0498 81.6014 33.5673C81.6014 33.0847 81.5272 32.6021 81.3418 32.1566C81.1563 31.7111 80.9338 31.3028 80.637 31.0058C80.3403 30.6717 80.0065 30.4119 79.5985 30.2263C79.1905 30.0406 78.7825 29.9293 78.3374 29.9293Z" fill="#6F7689"/>
<path d="M99.8872 38.6525H98.0698V32.9728C98.0698 31.8963 97.9214 31.1167 97.5875 30.6341C97.2908 30.1887 96.8457 29.9659 96.2152 29.9659C95.8814 29.9659 95.5476 30.0402 95.2508 30.1515C94.9541 30.2629 94.6944 30.4485 94.4348 30.6712C94.1752 30.894 93.9526 31.191 93.7672 31.4879C93.5817 31.7849 93.4333 32.119 93.3221 32.4902V38.6154H91.5046V32.9728C91.5046 31.8963 91.3562 31.0796 91.0224 30.6341C90.7257 30.1887 90.2806 29.9659 89.65 29.9659C88.9824 29.9659 88.426 30.1887 87.8697 30.6712C87.3504 31.1167 86.9795 31.7478 86.7569 32.5274V38.6896H84.9395V28.4439H86.6456V29.9659C86.9795 29.5576 87.3504 29.2235 87.7584 28.9265C88.426 28.481 89.2049 28.2583 90.058 28.2583C90.9482 28.2583 91.653 28.5182 92.2093 29.0379C92.5802 29.372 92.877 29.8174 93.0254 30.3371C93.9526 28.9636 95.1395 28.2954 96.6603 28.2954C97.2537 28.2954 97.7359 28.4068 98.181 28.6295C98.589 28.8523 98.9599 29.1864 99.1825 29.5947C99.4421 29.9659 99.6276 30.4485 99.7018 31.0053C99.813 31.5251 99.8872 32.119 99.8872 32.7501V38.6525Z" fill="#6F7689"/>
<path d="M116.95 38.6525H115.132V32.9728C115.132 31.8963 114.984 31.1167 114.65 30.6341C114.353 30.1887 113.908 29.9659 113.278 29.9659C112.944 29.9659 112.61 30.0402 112.313 30.1515C112.017 30.2629 111.757 30.4485 111.497 30.6712C111.238 30.894 111.015 31.191 110.83 31.4879C110.644 31.7849 110.496 32.119 110.385 32.4902V38.6154H108.567V32.9728C108.567 31.8963 108.419 31.0796 108.085 30.6341C107.788 30.1887 107.343 29.9659 106.713 29.9659C106.045 29.9659 105.489 30.1887 104.932 30.6712C104.413 31.1167 104.042 31.7478 103.819 32.5274V38.6896H102.002V28.4439H103.708V29.9659C104.042 29.5576 104.413 29.2235 104.821 28.9265C105.489 28.481 106.267 28.2583 107.121 28.2583C108.011 28.2583 108.715 28.5182 109.272 29.0379C109.643 29.372 109.939 29.8174 110.088 30.3371C111.015 28.9636 112.202 28.2954 113.723 28.2954C114.316 28.2954 114.798 28.4068 115.243 28.6295C115.651 28.8523 116.022 29.1864 116.245 29.5947C116.505 29.9659 116.69 30.4485 116.764 31.0053C116.876 31.5251 116.95 32.119 116.95 32.7501V38.6525Z" fill="#6F7689"/>
<path d="M123.441 38.8386C122.699 38.8386 122.031 38.6901 121.401 38.4303C120.77 38.1333 120.251 37.7621 119.806 37.2795C119.361 36.7969 119.027 36.2401 118.767 35.609C118.508 34.9779 118.396 34.3097 118.396 33.6044C118.396 32.8991 118.508 32.1937 118.767 31.5627C119.027 30.9316 119.398 30.3747 119.806 29.8922C120.251 29.4096 120.807 29.0012 121.401 28.7414C122.031 28.4444 122.699 28.2959 123.441 28.2959C124.183 28.2959 124.85 28.4444 125.481 28.7414C126.111 29.0383 126.631 29.4096 127.076 29.8922C127.521 30.3747 127.892 30.9316 128.114 31.5627C128.374 32.1937 128.522 32.8619 128.522 33.6044C128.522 34.3097 128.411 34.9779 128.151 35.609C127.892 36.2401 127.558 36.7969 127.076 37.2795C126.631 37.7621 126.111 38.1333 125.481 38.4303C124.887 38.6901 124.183 38.8386 123.441 38.8386ZM123.441 29.9293C122.996 29.9293 122.588 30.0406 122.217 30.2263C121.809 30.4119 121.475 30.6717 121.178 31.0058C120.882 31.3399 120.659 31.7483 120.474 32.1937C120.288 32.6392 120.214 33.1218 120.214 33.6044C120.214 34.1241 120.288 34.6067 120.474 35.015C120.659 35.4234 120.882 35.8317 121.178 36.1658C121.475 36.4628 121.809 36.7226 122.217 36.9083C122.996 37.2795 123.96 37.2795 124.702 36.9083C125.11 36.7226 125.444 36.4628 125.741 36.1287C126.037 35.7946 126.26 35.4234 126.445 34.9779C126.631 34.5324 126.705 34.0498 126.705 33.5673C126.705 33.0847 126.631 32.6021 126.445 32.1566C126.26 31.7111 126.037 31.3028 125.741 31.0058C125.444 30.6717 125.11 30.4119 124.702 30.2263C124.294 30.0406 123.886 29.9293 123.441 29.9293Z" fill="#6F7689"/>
<path d="M138.759 38.6525H136.942V32.9728C136.942 31.8963 136.794 31.0796 136.46 30.6341C136.163 30.1887 135.755 29.9659 135.125 29.9659C134.791 29.9659 134.457 30.0402 134.123 30.1515C133.789 30.2629 133.455 30.4485 133.159 30.6712C132.862 30.894 132.602 31.191 132.38 31.4879C132.157 31.7849 132.009 32.119 131.898 32.4531V38.6154H130.08V28.4439H131.786V30.0402C132.12 29.6318 132.565 29.2606 133.047 28.9636C133.826 28.5182 134.679 28.2583 135.607 28.2583C136.2 28.2583 136.682 28.3697 137.09 28.5924C137.498 28.8151 137.832 29.1121 138.092 29.5205C138.314 29.8917 138.5 30.3743 138.611 30.9311C138.722 31.4508 138.759 32.0819 138.759 32.713V38.6525Z" fill="#6F7689"/>
<path d="M144.396 38.8381C143.617 38.8381 142.838 38.6896 142.097 38.4669C141.355 38.2071 140.687 37.8358 140.131 37.3161L139.945 37.1676L140.835 35.8684L141.058 36.054C141.577 36.4623 142.097 36.7964 142.653 37.0191C143.172 37.2419 143.766 37.3161 144.359 37.3161C145.064 37.3161 145.657 37.1676 146.065 36.9078C146.473 36.6479 146.659 36.2767 146.659 35.7941C146.659 35.5714 146.622 35.4229 146.51 35.2744C146.399 35.1259 146.251 34.9774 146.028 34.8661C145.806 34.7547 145.546 34.6433 145.175 34.532C144.804 34.4206 144.396 34.3092 143.914 34.1979C143.358 34.0494 142.838 33.938 142.43 33.7895C141.985 33.641 141.651 33.4925 141.355 33.3069C141.058 33.1213 140.835 32.8615 140.65 32.5645C140.502 32.2675 140.427 31.8963 140.427 31.4508C140.427 30.9311 140.539 30.4485 140.724 30.0402C140.947 29.6318 141.243 29.2977 141.577 29.0379C141.948 28.778 142.356 28.5553 142.801 28.4439C143.284 28.2954 143.766 28.2583 144.285 28.2583C145.064 28.2583 145.769 28.4068 146.399 28.6666C147.03 28.9265 147.549 29.2606 147.957 29.6689L148.142 29.8546L147.178 31.0425L146.956 30.8197C146.622 30.4856 146.214 30.2258 145.732 30.0402C145.249 29.8546 144.767 29.7803 144.248 29.7803C143.951 29.7803 143.654 29.8174 143.395 29.8917C143.135 29.9659 142.913 30.0402 142.727 30.1515C142.542 30.2629 142.43 30.4114 142.319 30.6341C142.208 30.8197 142.171 31.0425 142.171 31.3023C142.171 31.5251 142.208 31.6735 142.282 31.7849C142.356 31.8963 142.467 32.0076 142.616 32.119C142.801 32.2304 143.024 32.3046 143.284 32.416C143.58 32.4902 143.951 32.6016 144.359 32.6758C144.99 32.8243 145.546 32.9728 146.028 33.1213C146.51 33.2698 146.918 33.4554 147.252 33.6781C147.623 33.9009 147.883 34.1607 148.068 34.4948C148.254 34.8289 148.328 35.2002 148.328 35.6827C148.328 36.6479 147.957 37.4646 147.215 38.0214C146.585 38.5783 145.583 38.8381 144.396 38.8381Z" fill="#6F7689"/>
<path d="M104.968 57.0653C102.854 57.0653 101.036 56.3971 99.5155 55.0978L99.3301 54.9493L100.294 53.3902L100.554 53.6501C100.777 53.8728 101.036 54.0955 101.333 54.3183C101.63 54.541 102.001 54.7266 102.372 54.8751C102.742 55.0236 103.188 55.135 103.633 55.2463C104.078 55.3206 104.523 55.3577 105.005 55.3577C106.006 55.3577 106.785 55.1721 107.305 54.838C107.824 54.5039 108.084 54.0213 108.084 53.3531C108.084 53.019 108.009 52.722 107.861 52.4993C107.713 52.2394 107.49 52.0538 107.23 51.8682C106.897 51.6826 106.526 51.497 106.044 51.3485C105.561 51.2 104.968 51.0515 104.337 50.903C103.633 50.7545 103.002 50.5689 102.483 50.3833C101.926 50.1977 101.481 49.975 101.073 49.7151C100.665 49.4181 100.369 49.084 100.183 48.7128C99.9977 48.3045 99.8864 47.8219 99.8864 47.265C99.8864 46.634 99.9977 46.04 100.257 45.5574C100.517 45.0377 100.888 44.6294 101.333 44.2953C101.778 43.9612 102.297 43.7013 102.891 43.5528C103.484 43.3672 104.152 43.293 104.857 43.293C105.784 43.293 106.6 43.4415 107.305 43.7013C108.009 43.9612 108.677 44.3695 109.27 44.8521L109.456 45.0006L108.492 46.5597L108.232 46.2627C107.898 45.8915 107.416 45.5574 106.86 45.3347C106.266 45.112 105.598 44.9635 104.857 44.9635C103.781 44.9635 102.965 45.1491 102.483 45.5574C102.001 45.9286 101.778 46.4484 101.778 47.1166C101.778 47.4507 101.852 47.7476 101.964 47.9704C102.075 48.156 102.26 48.3416 102.52 48.4901C102.78 48.6757 103.15 48.8242 103.596 48.9355C104.041 49.084 104.597 49.1954 105.228 49.3439C105.932 49.4924 106.6 49.678 107.156 49.8636C107.75 50.0492 108.269 50.3091 108.677 50.606C109.085 50.903 109.456 51.2742 109.678 51.6826C109.901 52.1281 110.012 52.6478 110.012 53.2788C110.012 53.9099 109.901 54.5039 109.641 54.9493C109.382 55.4319 109.011 55.8403 108.566 56.1373C108.121 56.4342 107.601 56.6941 106.971 56.8426C106.34 56.9911 105.673 57.0653 104.968 57.0653Z" fill="#6F7689"/>
<path d="M114.092 57.0652C113.795 57.0652 113.499 57.0281 113.239 56.9538C112.942 56.8796 112.72 56.7311 112.497 56.5826C112.274 56.397 112.089 56.1743 111.978 55.9144C111.866 55.6546 111.792 55.3205 111.792 54.9864V48.4157H110.457V46.8937H111.792V43.627H113.61V46.8566H115.835V48.3786H113.61V54.578C113.61 54.8379 113.721 55.0235 113.869 55.1348C114.055 55.2462 114.24 55.3205 114.5 55.3205C114.834 55.3205 115.093 55.2833 115.353 55.172C115.687 55.0235 115.798 54.9492 115.835 54.9492L116.132 54.7636L116.651 56.3228L116.429 56.4341C116.355 56.4712 116.243 56.5084 116.095 56.5826C115.947 56.6569 115.798 56.694 115.576 56.7682C115.39 56.8425 115.168 56.8796 114.908 56.9538C114.611 57.0652 114.352 57.0652 114.092 57.0652Z" fill="#6F7689"/>
<path d="M121.028 57.1398C120.545 57.1398 120.063 57.0656 119.655 56.9171C119.247 56.7315 118.876 56.5088 118.542 56.2118C118.246 55.9148 117.986 55.5807 117.801 55.1724C117.615 54.764 117.541 54.3557 117.541 53.8731C117.541 53.4276 117.652 52.9822 117.875 52.5738C118.097 52.2026 118.394 51.8314 118.802 51.5715C119.173 51.3116 119.655 51.0889 120.174 50.9404C121.102 50.6806 122.289 50.6434 123.439 50.8291C123.809 50.9033 124.143 50.9776 124.477 51.0889V50.6806C124.477 49.901 124.255 49.3071 123.847 48.8616C123.401 48.4161 122.808 48.1934 122.029 48.1934C121.584 48.1934 121.102 48.2676 120.62 48.4532C120.137 48.6389 119.618 48.8987 119.099 49.2699L118.839 49.4555L118.134 48.1563L118.357 48.0078C119.655 47.154 120.916 46.7085 122.14 46.7085C123.439 46.7085 124.44 47.0797 125.182 47.785C125.924 48.4904 126.295 49.4927 126.295 50.7548V55.061C126.295 55.2837 126.369 55.2837 126.48 55.2837H126.777V56.88L126.554 56.9171C126.332 56.9542 126.146 56.9913 126.035 56.9913C125.664 56.9913 125.33 56.88 125.108 56.6944C124.885 56.4716 124.737 56.2118 124.737 55.8406V55.7663C124.366 56.1375 123.921 56.4345 123.401 56.6573C122.585 56.9914 121.844 57.1398 121.028 57.1398ZM122.029 52.0912C121.213 52.0912 120.508 52.2768 120.026 52.6109C119.544 52.9079 119.321 53.3162 119.321 53.836C119.321 54.0958 119.358 54.3185 119.47 54.5413C119.581 54.764 119.729 54.9496 119.878 55.1352C120.063 55.2837 120.286 55.4322 120.508 55.5065C120.768 55.6178 121.028 55.6549 121.324 55.6549C121.955 55.6549 122.511 55.5436 122.993 55.3208C123.513 55.0981 123.884 54.8011 124.143 54.4299L124.18 54.3928C124.255 54.3185 124.329 54.2072 124.366 54.1329C124.403 54.0216 124.44 53.9473 124.44 53.8731V52.4996C124.106 52.3882 123.735 52.2768 123.364 52.2026C122.919 52.1283 122.474 52.0912 122.029 52.0912Z" fill="#6F7689"/>
<path d="M133.269 57.1398C132.527 57.1398 131.822 56.9913 131.192 56.7315C130.561 56.4345 130.005 56.0633 129.56 55.5807C129.115 55.0981 128.744 54.5413 128.484 53.9102C128.225 53.2791 128.113 52.6109 128.113 51.8685C128.113 51.1632 128.225 50.495 128.484 49.8639C128.744 49.2328 129.078 48.676 129.523 48.2305C129.968 47.7479 130.524 47.3767 131.155 47.1168C131.785 46.857 132.49 46.7085 133.232 46.7085C134.196 46.7085 135.049 46.9312 135.754 47.3767C136.459 47.785 137.015 48.379 137.386 49.1214L137.534 49.4184L135.791 49.9753L135.68 49.7896C135.42 49.3442 135.086 49.0101 134.641 48.7502C134.196 48.4904 133.714 48.379 133.158 48.379C132.713 48.379 132.267 48.4532 131.897 48.6389C131.526 48.8245 131.155 49.0843 130.858 49.3813C130.561 49.6783 130.339 50.0495 130.153 50.495C130.005 50.9033 129.931 51.3859 129.931 51.9056C129.931 52.3882 130.005 52.8708 130.19 53.3163C130.376 53.7617 130.598 54.1329 130.895 54.467C131.192 54.764 131.526 55.0239 131.934 55.2466C132.564 55.5436 133.306 55.5807 134.011 55.3951C134.308 55.3208 134.567 55.2095 134.79 55.061C135.012 54.9125 135.235 54.764 135.383 54.5784C135.532 54.4299 135.643 54.2443 135.717 54.0587L135.791 53.7988L137.572 54.3186L137.46 54.5784C137.312 54.9496 137.089 55.2837 136.83 55.6178C136.533 55.9148 136.236 56.1747 135.828 56.4345C135.457 56.6572 135.049 56.8429 134.567 56.9542C134.196 57.0656 133.751 57.1398 133.269 57.1398Z" fill="#6F7689"/>
<path d="M148.068 56.954H146.028L142.578 52.2024L140.835 53.7986V56.954H139.018V43.0332H140.835V51.7569L145.879 46.8939H148.105L143.839 51.0887L148.068 56.954Z" fill="#6F7689"/>
</svg>
