<svg width="49" height="49" viewBox="0 0 49 49" fill="none" xmlns="http://www.w3.org/2000/svg">
<circle cx="24.5" cy="24.5" r="23.5" stroke="#A569FF" stroke-width="2"/>
<path d="M24.6491 37C24.912 36.9897 25.2159 36.8815 25.4075 36.7012L31.6576 30.8188C32.0159 30.4203 32.1636 29.6558 31.7494 29.2103C31.3414 28.7715 30.5505 28.7846 30.141 29.2216L25.7521 33.3576L25.7521 13.103C25.7521 12.4939 25.2582 12 24.6491 12C24.04 12 23.5461 12.4939 23.5461 13.103L23.5461 33.3576L19.1572 29.2216C18.7802 28.8451 17.9611 28.7756 17.5487 29.2103C17.1361 29.6448 17.2679 30.4364 17.6408 30.8188L23.891 36.7012C24.1049 36.9025 24.3559 37.0005 24.6493 37L24.6491 37Z" fill="#A569FF"/>
</svg>
