<svg width="100" height="83" viewBox="0 0 100 83" fill="none" xmlns="http://www.w3.org/2000/svg">
<path d="M8.38425 0C3.76035 0 0 3.77926 0 8.38574V58.149C0 62.7562 3.76035 66.5247 8.38425 66.5247H36.6746L28.3512 79.5704L18.6302 79.5719C18.1707 79.5697 17.7297 79.751 17.4049 80.0739C17.0794 80.3968 16.8977 80.8353 16.9001 81.2921C16.9031 82.2394 17.6781 83.003 18.6301 83H81.3697C82.3163 82.9962 83.0828 82.234 83.0867 81.2921C83.0882 80.8376 82.9081 80.4014 82.5864 80.0785C82.2647 79.7556 81.8268 79.5735 81.3696 79.572H71.6356L63.3223 66.5263H91.6027C96.2266 66.5263 100 62.757 100 58.1505V8.38729C100 3.78002 96.2266 0.00155129 91.6027 0.00155129L8.38425 0ZM8.38425 3.42803H91.6022C94.3658 3.42803 96.5516 5.60884 96.5516 8.38574V58.149C96.5516 60.9259 94.365 63.0967 91.6022 63.0967L39.8092 63.0975H39.7353H8.38524C5.62161 63.0975 3.44886 60.9266 3.44886 58.1497V8.38651C3.44886 5.60961 5.62142 3.42879 8.38524 3.42879L8.38425 3.42803ZM32.1687 16.2197C31.7131 16.2174 31.2752 16.3941 30.9496 16.7124C30.6225 17.0323 30.4378 17.4684 30.4347 17.9245C30.4324 18.3805 30.6133 18.819 30.9365 19.1427L34.162 22.3633L30.9365 25.5838V25.5831C30.2716 26.2557 30.2777 27.3354 30.9496 28.0003C31.6223 28.6653 32.7082 28.6653 33.3809 28.0003L36.5933 24.7935L39.8057 28.0003C40.4776 28.6653 41.5643 28.6653 42.2362 28.0003C42.9088 27.3354 42.915 26.2557 42.25 25.5831L39.0246 22.3625L42.25 19.1419V19.1427C42.5733 18.819 42.7541 18.3806 42.7518 17.9245C42.7488 17.4684 42.5633 17.0323 42.2362 16.7124C41.9107 16.3934 41.4712 16.2166 41.014 16.2197C40.56 16.2235 40.1259 16.4048 39.8058 16.7254L36.5933 19.9355L33.3779 16.7254C33.0578 16.4048 32.6229 16.2235 32.1689 16.2197H32.1687ZM58.9715 16.2197C58.5143 16.2166 58.0749 16.3934 57.7493 16.7124C57.4222 17.0323 57.2368 17.4684 57.2345 17.9245C57.2322 18.3805 57.4123 18.819 57.7363 19.1427L60.9617 22.3633L57.7363 25.5838V25.5831C57.0713 26.2557 57.0767 27.3354 57.7493 28.0003C58.422 28.6653 59.5079 28.6653 60.1806 28.0003L63.393 24.7935L66.6084 28.0003C67.2803 28.6653 68.367 28.6653 69.0389 28.0003C69.7108 27.3346 69.7154 26.2549 69.0496 25.5831L65.8274 22.3625L69.0528 19.1419V19.1427C69.3768 18.819 69.5569 18.3806 69.5546 17.9245C69.5515 17.4684 69.3668 17.0323 69.0397 16.7124C68.7172 16.3964 68.2832 16.2197 67.8307 16.2197C67.372 16.2197 66.9317 16.4018 66.6085 16.7254L63.3931 19.9362L60.1807 16.7254C59.8605 16.4048 59.4256 16.2235 58.9715 16.2197ZM50.0017 39.6008C44.1096 39.6008 38.6068 42.6486 35.3413 47.6758C34.8264 48.4693 35.0535 49.5276 35.85 50.0426C36.2348 50.2912 36.7035 50.3777 37.1522 50.2821C37.6009 50.1864 37.9926 49.9171 38.2405 49.533C40.8963 45.4438 45.3025 43.0181 50.0016 43.0181C54.701 43.0181 59.1038 45.4438 61.7591 49.533H61.7599C62.2763 50.3265 63.3414 50.5545 64.1403 50.0426C64.9368 49.5276 65.1639 48.4694 64.6482 47.6759C61.3828 42.6486 55.8938 39.6008 50.0017 39.6008ZM40.7624 66.5255H59.2377L67.551 79.5712L32.4398 79.572L40.7624 66.5255Z" fill="#F05548"/>
</svg>
