<svg width="73" height="43" viewBox="0 0 73 43" fill="none" xmlns="http://www.w3.org/2000/svg">
<path d="M34.3621 42.5792C34.28 42.4889 34.2119 42.4145 34.1432 42.34C33.4513 41.5774 32.6336 40.939 31.7259 40.4526C30.9824 40.049 30.1658 39.7977 29.3239 39.7135C28.5518 39.6432 27.7736 39.7337 27.0383 39.9794C26.0453 40.3044 25.0548 40.6346 24.0542 40.945C22.5732 41.4175 21.0668 41.8059 19.5421 42.1085C18.5749 42.2979 17.598 42.4331 16.6158 42.5137C15.8654 42.5725 15.1122 42.5872 14.3601 42.5576C12.7221 42.494 11.1336 42.1893 9.61901 41.5398C8.37302 41.0052 7.23155 40.2543 6.2475 39.3216C3.77739 37.0022 2.04902 34.2185 1.02484 30.9921C0.650613 29.8093 0.380918 28.596 0.218861 27.3661C0.0180558 25.874 -0.0447633 24.3665 0.0312014 22.8629C0.152669 20.4239 0.619359 18.0144 1.41734 15.7064C2.51976 12.5257 4.35818 9.83298 6.84229 7.57343C8.69699 5.87131 10.8513 4.52798 13.196 3.61159C14.3792 3.14802 15.609 2.81339 16.8639 2.6135C18.1405 2.41028 19.4364 2.35733 20.7253 2.45574C21.5484 2.51935 22.3576 2.66185 23.1674 2.8107C24.5554 3.06515 25.9435 3.32597 27.3334 3.57788C28.1031 3.71719 28.8729 3.85523 29.6464 3.97419C30.5306 4.11096 31.4187 4.21401 32.3182 4.18729C33.2177 4.16057 34.0593 3.91312 34.8048 3.38704C34.8684 3.3406 34.939 3.29925 35.0147 3.24963C35.0784 3.2948 35.1375 3.33169 35.1903 3.37686C35.5809 3.70256 35.9664 4.03462 36.3621 4.35396C36.4274 4.40026 36.4802 4.46203 36.5159 4.53374C36.5515 4.60545 36.5688 4.68487 36.5663 4.7649C36.5663 5.28335 36.5847 5.8018 36.5949 6.32025C36.6339 8.36351 36.6727 10.407 36.7113 12.4507C36.7393 13.9774 36.7656 15.5024 36.7902 17.0257C36.7902 17.1345 36.8099 17.2465 36.7635 17.375C36.3016 17.2522 35.8557 17.1243 35.4142 16.9825C35.3684 16.8782 35.3284 16.7853 35.287 16.693C34.2056 14.2815 32.9009 12.0016 31.2794 9.90932C30.4772 8.85688 29.5647 7.89337 28.5573 7.03526C27.7304 6.3387 26.8334 5.74455 25.8353 5.31389C24.9505 4.91976 23.9959 4.70609 23.0274 4.68539C21.1916 4.66121 19.6076 5.29289 18.2762 6.55753C17.6688 7.14511 17.1413 7.81007 16.7074 8.53527C16.0573 9.59952 15.5751 10.7395 15.1871 11.9208C14.7509 13.2754 14.4195 14.6616 14.196 16.0671C14.0096 17.1911 13.8779 18.3215 13.792 19.457C13.7 20.623 13.6678 21.7929 13.6954 22.9621C13.7144 23.6619 13.7329 24.3655 13.78 25.0652C13.9326 27.3324 14.2679 29.5703 14.9352 31.7491C15.2315 32.7432 15.6229 33.7065 16.1038 34.6257C16.4743 35.3392 16.9297 36.0054 17.46 36.6098C18.112 37.34 18.8709 37.9208 19.7774 38.307C20.7832 38.7357 21.8061 38.8006 22.8449 38.4717C24.5726 37.924 25.8869 36.8604 26.7202 35.2427C27.3926 33.9374 27.4836 32.5614 27.1089 31.1505C27.0356 30.865 26.9423 30.585 26.8296 30.3127C26.2959 29.0512 25.6114 27.8782 24.7126 26.8375C24.389 26.4577 24.0229 26.1162 23.6216 25.8197C23.1916 25.5016 22.731 25.2471 22.203 25.1415C22.1752 25.1336 22.1484 25.1227 22.1229 25.1091C22.1159 25.0976 22.1082 25.09 22.1082 25.0824C22.1072 25.0721 22.1097 25.0618 22.1152 25.0531C22.1566 24.9952 22.1979 24.9367 22.2424 24.8814L23.5465 23.2274C23.939 23.209 24.3239 23.1867 24.7094 23.1727C26.1089 23.1231 27.5141 23.0773 28.9168 23.0277C30.5932 22.9679 32.2696 22.9068 33.946 22.8445C34.6273 22.8196 35.308 22.7955 35.9887 22.763C36.0484 22.7555 36.1091 22.7645 36.1641 22.7889C36.2192 22.8133 36.2665 22.8524 36.301 22.9017C36.661 23.3686 37.0287 23.8298 37.3926 24.2936C37.4115 24.321 37.4285 24.3497 37.4435 24.3794C37.3354 24.8076 37.2221 25.2395 37.1178 25.6733C36.751 27.195 36.4516 28.7302 36.2196 30.279C36.0287 31.5366 35.8913 32.7993 35.8264 34.069C35.7519 35.3182 35.77 36.5712 35.8805 37.8178C35.9486 38.5963 36.0795 39.3681 36.2717 40.1257C36.2832 40.1818 36.2915 40.2385 36.2965 40.2955C36.0472 40.6377 34.5612 42.3967 34.3621 42.5792Z" fill="white"/>
<path d="M58.952 42.5989C58.7929 42.2038 58.6307 41.7992 58.466 41.3959C58.4265 41.3005 58.4628 41.2191 58.4914 41.1319C58.6632 40.6109 58.8368 40.0906 59.0003 39.567C59.5684 37.7532 60.0078 35.9014 60.3152 34.0257C60.4647 33.1135 60.5735 32.1949 60.653 31.2725C60.7547 30.0973 60.7885 28.9172 60.7541 27.7381C60.7032 26.0371 60.5149 24.3526 60.0894 22.7006C60.021 22.3954 59.9291 22.096 59.8146 21.8049C59.7299 21.8138 59.7357 21.8685 59.728 21.9188C59.4049 23.977 58.9743 26.0169 58.438 28.0301C57.3839 31.9894 55.9749 35.8164 54.1123 39.4684C53.7478 40.1828 53.3419 40.8768 52.9526 41.5791C52.9042 41.6663 52.8444 41.7471 52.7821 41.8431C52.2662 41.6873 51.7706 41.5136 51.2757 41.3476C50.5639 36.1179 48.7376 31.3189 46.0289 26.8393C45.2369 25.5282 44.4526 24.4086 44.1841 24.1879C44.1584 24.2858 44.1507 24.3875 44.1612 24.4881C44.1568 25.3934 44.1498 26.2979 44.1523 27.2032C44.1595 29.9173 44.1693 32.6315 44.1816 35.3457C44.1816 35.7121 44.2038 36.0779 44.2121 36.4436C44.2331 37.5607 44.6122 38.6415 45.2935 39.527C45.9793 40.4386 46.861 41.1129 47.8718 41.6262C47.9526 41.6676 48.0327 41.7108 48.1129 41.7534C48.1199 41.7573 48.1218 41.7706 48.1256 41.7782C48.1295 41.798 48.1295 41.8183 48.1256 41.838C47.9984 42.0925 47.8711 42.347 47.7439 42.5931C47.5086 42.6275 37.929 42.6358 37.5601 42.602C37.5745 42.5551 37.593 42.5096 37.6154 42.4659C37.8062 42.1644 37.9971 41.8654 38.1841 41.5632C38.2355 41.4757 38.3129 41.4063 38.4055 41.3648C40.1186 40.5855 41.1555 39.235 41.6778 37.4538C41.8533 36.8546 41.922 36.2394 41.9551 35.6192C42.0348 34.1472 42.1141 32.6752 42.193 31.2032C42.2445 30.2184 42.2954 29.2311 42.3387 28.2483C42.3921 27.0291 42.4405 25.8098 42.4837 24.5906C42.5153 24.0015 42.5094 23.411 42.4659 22.8227C42.353 21.5004 41.916 20.2262 41.1937 19.1128C41.1389 19.0276 41.0817 18.9436 41.0143 18.8412C41.2159 18.4156 41.4195 17.9856 41.6294 17.5441C41.7108 17.5371 41.7903 17.525 41.8699 17.5244C42.3474 17.5206 42.8253 17.5187 43.3037 17.5187H49.8292C50.5105 17.5187 51.1918 17.5142 51.8731 17.5123H52.1708C52.2217 17.5721 52.2637 17.6154 52.298 17.6643C52.5525 18.0187 52.8069 18.3749 53.0614 18.7279C53.1317 18.8152 53.1713 18.9232 53.174 19.0352C53.1841 20.2973 53.5219 21.4837 54.0219 22.63C54.6287 23.9981 55.4237 25.2746 56.3839 26.4226C56.41 26.4538 56.4367 26.4862 56.4647 26.5136C56.4803 26.5278 56.4971 26.5405 56.5149 26.5518C56.611 26.5371 56.6294 26.4468 56.6676 26.3813C57.1038 25.6228 57.4457 24.8137 57.6854 23.9722C57.9759 22.9753 58.1697 21.9528 58.2643 20.9188C58.3338 20.2308 58.3659 19.5396 58.3604 18.8482C58.3604 18.7986 58.368 18.7489 58.3724 18.6917C58.431 18.6478 58.4869 18.6045 58.5436 18.5645C58.973 18.2553 59.4042 17.95 59.8298 17.6363C59.9425 17.5495 60.082 17.5045 60.2242 17.5091C60.702 17.5167 61.1784 17.5167 61.6574 17.5174L68.6129 17.5269L70.4736 17.5307C70.5544 17.5307 70.6352 17.5307 70.7052 17.5307C70.8655 17.7127 71.4424 18.6904 71.5837 19.0187C71.5697 19.0543 71.5544 19.1026 71.5328 19.1459C71.0703 20.1045 70.7828 21.1179 70.5849 22.1612C70.3669 23.3617 70.2393 24.577 70.2033 25.7967C70.1638 26.8647 70.1746 27.9328 70.2287 28.9983C70.277 29.9525 70.3559 30.9067 70.445 31.8565C70.5347 32.7871 70.6396 33.7172 70.7739 34.6421C70.9437 35.8081 71.1384 36.971 71.3426 38.1313C71.5576 39.352 71.8178 40.5639 72.1059 41.7655C71.9743 41.9564 71.6536 42.2617 71.2274 42.609C70.758 42.6415 59.2051 42.6307 58.952 42.5989Z" fill="white"/>
<path d="M55.258 14.9732C55.2408 14.963 55.1944 14.9509 55.1759 14.9217C55.1391 14.8611 55.1081 14.7972 55.083 14.7308C54.8063 14.0756 54.5455 13.4134 54.251 12.7665C53.4456 10.9967 52.1587 9.74036 50.2923 9.12077C50.0032 9.02582 49.7193 8.91562 49.4418 8.79062C49.2007 8.68184 48.9596 8.57497 48.7185 8.46682C48.6894 8.45738 48.664 8.43892 48.6461 8.4141C48.6281 8.38929 48.6185 8.35941 48.6187 8.32878C48.6192 8.29823 48.6292 8.26859 48.6474 8.24398C48.6655 8.21937 48.6908 8.20099 48.7198 8.19138C49.0639 8.04125 49.4005 7.87331 49.7713 7.78934C51.7268 7.3555 53.5245 5.90193 54.3063 3.7817C54.5385 3.1532 54.828 2.54633 55.0913 1.92928C55.1025 1.90111 55.1164 1.87406 55.1327 1.84849C55.146 1.82993 55.1636 1.81488 55.184 1.80462C55.2044 1.79436 55.2269 1.78919 55.2498 1.78957C55.2726 1.78995 55.295 1.79585 55.315 1.80677C55.3351 1.8177 55.3522 1.83332 55.3649 1.85231C55.3858 1.88716 55.4037 1.92377 55.4183 1.96172C55.7039 2.61312 55.9984 3.26071 56.272 3.9172C57.0818 5.86186 58.4851 7.14239 60.5118 7.72954C60.9431 7.85677 61.3432 8.05652 61.7567 8.22509C61.7843 8.23814 61.8102 8.2546 61.8337 8.27407C61.8498 8.28649 61.8628 8.30244 61.8718 8.3207C61.8808 8.33895 61.8855 8.35902 61.8855 8.37935C61.8855 8.39969 61.8808 8.41976 61.8718 8.43801C61.8628 8.45627 61.8498 8.47221 61.8337 8.48463C61.8078 8.50068 61.7805 8.51451 61.7523 8.52598C61.3017 8.7367 60.8393 8.92128 60.3674 9.07878C58.3148 9.73655 56.9183 11.0796 56.1778 13.1081C56.0697 13.4032 55.938 13.6901 55.8133 13.9789C55.6886 14.2677 55.5589 14.5546 55.4278 14.8415C55.417 14.8786 55.3947 14.9112 55.3642 14.9349C55.3337 14.9585 55.2966 14.9719 55.258 14.9732Z" fill="white"/>
<path d="M42.3955 4.26401C42.4448 4.22169 42.4976 4.1836 42.5533 4.15014C42.792 4.03809 43.0408 3.94884 43.2963 3.8836C44.4114 3.58525 45.2562 2.9294 45.8364 1.93257C45.9393 1.74586 46.0311 1.55319 46.1112 1.3556C46.2842 0.954836 46.4509 0.551528 46.6201 0.150128C46.6468 0.0865142 46.6659 0.0108143 46.7734 0C46.81 0.041116 46.842 0.0861268 46.8688 0.134224C47.0476 0.53308 47.232 0.928756 47.3962 1.33334C47.9222 2.63359 48.8504 3.4841 50.1951 3.8836C50.4566 3.96184 50.7041 4.08143 50.9585 4.18321C50.9858 4.19597 51.0117 4.21176 51.0355 4.23029C51.0449 4.23845 51.0525 4.24845 51.0579 4.25967C51.0634 4.27089 51.0664 4.28309 51.067 4.29553C51.0675 4.30798 51.0655 4.3204 51.0611 4.33204C51.0566 4.34368 51.0499 4.3543 51.0412 4.36324C51.009 4.3887 50.9737 4.41007 50.9362 4.42686C50.6633 4.53627 50.3943 4.65777 50.115 4.7481C48.7575 5.18831 47.8376 6.07317 47.344 7.41287C47.2079 7.78373 47.0323 8.1406 46.8739 8.5032C46.8618 8.52992 46.8427 8.56681 46.8192 8.57317C46.8023 8.58024 46.7841 8.58388 46.7657 8.58388C46.7474 8.58388 46.7292 8.58024 46.7123 8.57317C46.6826 8.54639 46.6606 8.51212 46.6487 8.47394C46.4765 8.07275 46.3048 7.67135 46.1334 7.26974C45.6194 6.06808 44.7721 5.21439 43.5208 4.79454C43.1729 4.67749 42.8433 4.52164 42.51 4.37278C42.4744 4.3537 42.4451 4.31108 42.3955 4.26401Z" fill="white"/>
<path d="M44.9921 8.71631C45.0361 8.76328 45.0751 8.81466 45.1085 8.86962C45.2466 9.17496 45.3853 9.4803 45.5131 9.78947C45.9143 10.7606 46.6155 11.4029 47.6168 11.7163C47.8197 11.7799 48.0163 11.8633 48.2135 11.9428C48.2722 11.974 48.3279 12.0104 48.3802 12.0516C48.3375 12.0899 48.291 12.1238 48.2415 12.1527C48.0258 12.2411 47.8121 12.3365 47.5901 12.4072C46.5665 12.7379 45.8674 13.404 45.4826 14.4091C45.3706 14.703 45.2358 14.9873 45.1092 15.2755C45.0908 15.3083 45.0695 15.3394 45.0456 15.3684C44.9514 15.3779 44.9355 15.3086 44.9126 15.257C44.7854 14.9689 44.6581 14.6807 44.5398 14.39C44.1365 13.4161 43.4527 12.7437 42.4406 12.411C42.181 12.3257 41.9317 12.2004 41.6836 12.0929C41.669 12.0865 41.662 12.0605 41.6416 12.0293C41.6632 12.0064 41.6836 11.9657 41.7141 11.9555C41.8906 11.8785 42.0713 11.8118 42.2555 11.7558C43.3433 11.4657 44.0914 10.7977 44.5137 9.75702C44.6314 9.46504 44.7574 9.17687 44.8827 8.88807C44.9153 8.82844 44.9519 8.77106 44.9921 8.71631Z" fill="white"/>
</svg>
