<svg width="302" height="429" viewBox="0 0 302 429" fill="none" xmlns="http://www.w3.org/2000/svg">
<rect x="0.0419922" y="0.980408" width="301" height="427.374" rx="18.5231" fill="#23242F"/>
<path d="M19.0513 32.1848C19.0513 31.2308 19.2643 30.3788 19.6903 29.6286C20.1256 28.8691 20.7137 28.281 21.4547 27.8642C22.2048 27.4382 23.043 27.2252 23.9692 27.2252C25.0528 27.2252 26.0021 27.503 26.8171 28.0587C27.6321 28.6144 28.2017 29.3831 28.5258 30.3649H26.2892C26.0669 29.9018 25.752 29.5545 25.3445 29.3229C24.9463 29.0914 24.4832 28.9756 23.9553 28.9756C23.3903 28.9756 22.8856 29.1099 22.441 29.3785C22.0057 29.6378 21.663 30.0083 21.413 30.4899C21.1722 30.9715 21.0518 31.5364 21.0518 32.1848C21.0518 32.8238 21.1722 33.3888 21.413 33.8796C21.663 34.3612 22.0057 34.7363 22.441 35.0049C22.8856 35.2642 23.3903 35.3939 23.9553 35.3939C24.4832 35.3939 24.9463 35.2781 25.3445 35.0466C25.752 34.8058 26.0669 34.4538 26.2892 33.9908H28.5258C28.2017 34.9817 27.6321 35.7551 26.8171 36.3108C26.0113 36.8572 25.062 37.1304 23.9692 37.1304C23.043 37.1304 22.2048 36.922 21.4547 36.5053C20.7137 36.0792 20.1256 35.4911 19.6903 34.7409C19.2643 33.9908 19.0513 33.1387 19.0513 32.1848ZM33.6046 37.1721C32.8636 37.1721 32.1968 37.01 31.6041 36.6859C31.0113 36.3524 30.5436 35.8847 30.201 35.2827C29.8675 34.6807 29.7008 33.9861 29.7008 33.1989C29.7008 32.4117 29.8722 31.717 30.2148 31.115C30.5668 30.513 31.0438 30.05 31.6458 29.7258C32.2478 29.3924 32.9192 29.2257 33.6601 29.2257C34.4011 29.2257 35.0725 29.3924 35.6745 29.7258C36.2765 30.05 36.7489 30.513 37.0915 31.115C37.4435 31.717 37.6194 32.4117 37.6194 33.1989C37.6194 33.9861 37.4388 34.6807 37.0776 35.2827C36.7257 35.8847 36.2441 36.3524 35.6328 36.6859C35.0308 37.01 34.3548 37.1721 33.6046 37.1721ZM33.6046 35.4772C33.9565 35.4772 34.2853 35.3939 34.5909 35.2272C34.9058 35.0512 35.1559 34.7919 35.3411 34.4492C35.5263 34.1065 35.619 33.6898 35.619 33.1989C35.619 32.4672 35.4245 31.9069 35.0355 31.5179C34.6558 31.1197 34.188 30.9206 33.6324 30.9206C33.0767 30.9206 32.609 31.1197 32.2292 31.5179C31.8588 31.9069 31.6735 32.4672 31.6735 33.1989C31.6735 33.9306 31.8541 34.4955 32.2153 34.8938C32.5858 35.2827 33.0489 35.4772 33.6046 35.4772ZM43.3111 29.2396C44.228 29.2396 44.9689 29.5313 45.5338 30.1148C46.0988 30.689 46.3813 31.4948 46.3813 32.5321V37.0471H44.4363V32.796C44.4363 32.1848 44.2835 31.717 43.9779 31.3929C43.6723 31.0595 43.2555 30.8928 42.7276 30.8928C42.1904 30.8928 41.7644 31.0595 41.4495 31.3929C41.1439 31.717 40.991 32.1848 40.991 32.796V37.0471H39.0461V29.3507H40.991V30.3093C41.2504 29.9759 41.5792 29.7166 41.9774 29.5313C42.3849 29.3368 42.8295 29.2396 43.3111 29.2396ZM52.4957 29.2396C53.4126 29.2396 54.1535 29.5313 54.7185 30.1148C55.2834 30.689 55.5659 31.4948 55.5659 32.5321V37.0471H53.621V32.796C53.621 32.1848 53.4682 31.717 53.1626 31.3929C52.8569 31.0595 52.4402 30.8928 51.9122 30.8928C51.3751 30.8928 50.949 31.0595 50.6342 31.3929C50.3285 31.717 50.1757 32.1848 50.1757 32.796V37.0471H48.2308V29.3507H50.1757V30.3093C50.435 29.9759 50.7638 29.7166 51.1621 29.5313C51.5696 29.3368 52.0141 29.2396 52.4957 29.2396ZM64.57 33.0322C64.57 33.31 64.5515 33.5601 64.5144 33.7824H58.888C58.9343 34.3381 59.1288 34.7734 59.4715 35.0882C59.8142 35.4031 60.2356 35.5606 60.7357 35.5606C61.4581 35.5606 61.9721 35.2503 62.2778 34.6298H64.3755C64.1532 35.3707 63.7272 35.982 63.0974 36.4636C62.4676 36.9359 61.6943 37.1721 60.7774 37.1721C60.0365 37.1721 59.3696 37.01 58.7769 36.6859C58.1934 36.3524 57.735 35.8847 57.4016 35.2827C57.0774 34.6807 56.9153 33.9861 56.9153 33.1989C56.9153 32.4024 57.0774 31.7032 57.4016 31.1012C57.7257 30.4992 58.1795 30.0361 58.763 29.7119C59.3465 29.3878 60.0179 29.2257 60.7774 29.2257C61.509 29.2257 62.162 29.3831 62.7362 29.698C63.3197 30.0129 63.7689 30.4621 64.0838 31.0456C64.4079 31.6198 64.57 32.282 64.57 33.0322ZM62.5556 32.4765C62.5463 31.9764 62.3657 31.5781 62.0138 31.2818C61.6619 30.9761 61.2312 30.8233 60.7218 30.8233C60.2402 30.8233 59.8327 30.9715 59.4993 31.2679C59.1751 31.555 58.976 31.9578 58.9019 32.4765H62.5556ZM65.4895 33.1989C65.4895 32.4024 65.6516 31.7078 65.9757 31.115C66.2999 30.513 66.749 30.05 67.3233 29.7258C67.8975 29.3924 68.555 29.2257 69.296 29.2257C70.2499 29.2257 71.0371 29.4665 71.6577 29.9481C72.2874 30.4204 72.7088 31.0873 72.9219 31.9486H70.8241C70.713 31.6152 70.5231 31.3558 70.2545 31.1706C69.9952 30.9761 69.6711 30.8789 69.2821 30.8789C68.7264 30.8789 68.2865 31.0826 67.9623 31.4901C67.6382 31.8884 67.4761 32.458 67.4761 33.1989C67.4761 33.9306 67.6382 34.5001 67.9623 34.9076C68.2865 35.3059 68.7264 35.505 69.2821 35.505C70.0693 35.505 70.5833 35.1531 70.8241 34.4492H72.9219C72.7088 35.2827 72.2874 35.9449 71.6577 36.4358C71.0279 36.9267 70.2406 37.1721 69.296 37.1721C68.555 37.1721 67.8975 37.01 67.3233 36.6859C66.749 36.3524 66.2999 35.8894 65.9757 35.2966C65.6516 34.6946 65.4895 33.9954 65.4895 33.1989ZM76.6111 30.9483V34.6715C76.6111 34.9308 76.6713 35.1207 76.7917 35.2411C76.9214 35.3522 77.1344 35.4078 77.4308 35.4078H78.3338V37.0471H77.1113C75.472 37.0471 74.6523 36.2506 74.6523 34.6576V30.9483H73.7354V29.3507H74.6523V27.4475H76.6111V29.3507H78.3338V30.9483H76.6111ZM96.0045 27.3502L93.2955 37.0471H91.0032L89.1834 30.1426L87.2801 37.0471L85.0018 37.061L82.39 27.3502H84.4739L86.1826 34.8799L88.1553 27.3502H90.3225L92.1841 34.8382L93.9067 27.3502H96.0045ZM96.7743 33.1711C96.7743 32.3931 96.9271 31.7032 97.2327 31.1012C97.5476 30.4992 97.969 30.0361 98.4969 29.7119C99.0341 29.3878 99.6315 29.2257 100.289 29.2257C100.863 29.2257 101.363 29.3415 101.789 29.573C102.225 29.8045 102.572 30.0963 102.831 30.4482V29.3507H104.79V37.0471H102.831V35.9218C102.581 36.283 102.234 36.584 101.789 36.8248C101.354 37.0563 100.849 37.1721 100.275 37.1721C99.6269 37.1721 99.0341 37.0054 98.4969 36.672C97.969 36.3386 97.5476 35.8708 97.2327 35.2688C96.9271 34.6576 96.7743 33.9583 96.7743 33.1711ZM102.831 33.1989C102.831 32.7266 102.739 32.3237 102.554 31.9903C102.368 31.6476 102.118 31.3883 101.803 31.2123C101.488 31.0271 101.15 30.9344 100.789 30.9344C100.428 30.9344 100.095 31.0224 99.7889 31.1984C99.4833 31.3744 99.2332 31.6337 99.0387 31.9764C98.8535 32.3098 98.7609 32.708 98.7609 33.1711C98.7609 33.6342 98.8535 34.0417 99.0387 34.3936C99.2332 34.7363 99.4833 35.0003 99.7889 35.1855C100.104 35.3707 100.437 35.4633 100.789 35.4633C101.15 35.4633 101.488 35.3754 101.803 35.1994C102.118 35.0142 102.368 34.7548 102.554 34.4214C102.739 34.0787 102.831 33.6712 102.831 33.1989ZM108.635 26.7668V37.0471H106.69V26.7668H108.635ZM112.501 26.7668V37.0471H110.556V26.7668H112.501ZM121.577 33.0322C121.577 33.31 121.559 33.5601 121.522 33.7824H115.895C115.942 34.3381 116.136 34.7734 116.479 35.0882C116.821 35.4031 117.243 35.5606 117.743 35.5606C118.465 35.5606 118.979 35.2503 119.285 34.6298H121.383C121.161 35.3707 120.734 35.982 120.105 36.4636C119.475 36.9359 118.702 37.1721 117.785 37.1721C117.044 37.1721 116.377 37.01 115.784 36.6859C115.201 36.3524 114.742 35.8847 114.409 35.2827C114.085 34.6807 113.923 33.9861 113.923 33.1989C113.923 32.4024 114.085 31.7032 114.409 31.1012C114.733 30.4992 115.187 30.0361 115.77 29.7119C116.354 29.3878 117.025 29.2257 117.785 29.2257C118.516 29.2257 119.169 29.3831 119.743 29.698C120.327 30.0129 120.776 30.4621 121.091 31.0456C121.415 31.6198 121.577 32.282 121.577 33.0322ZM119.563 32.4765C119.554 31.9764 119.373 31.5781 119.021 31.2818C118.669 30.9761 118.238 30.8233 117.729 30.8233C117.248 30.8233 116.84 30.9715 116.507 31.2679C116.182 31.555 115.983 31.9578 115.909 32.4765H119.563ZM125.261 30.9483V34.6715C125.261 34.9308 125.322 35.1207 125.442 35.2411C125.572 35.3522 125.785 35.4078 126.081 35.4078H126.984V37.0471H125.761C124.122 37.0471 123.303 36.2506 123.303 34.6576V30.9483H122.386V29.3507H123.303V27.4475H125.261V29.3507H126.984V30.9483H125.261Z" fill="white"/>
<path d="M269.398 28.1881L277.116 35.9061" stroke="white" stroke-width="1.15769" stroke-linecap="round" stroke-linejoin="round"/>
<path d="M269.398 35.9061L277.116 28.1881" stroke="white" stroke-width="1.15769" stroke-linecap="round" stroke-linejoin="round"/>
<rect x="18.5651" y="63.1138" width="263.954" height="62.6974" rx="12.3487" fill="#2C2D3A"/>
<path d="M45.578 91.6701H34.7728C34.3635 91.6701 33.9708 91.5075 33.6814 91.218C33.3919 90.9286 33.2292 90.5359 33.2292 90.1265V79.3214C33.2292 78.912 33.3919 78.5194 33.6814 78.2299C33.9708 77.9405 34.3635 77.7778 34.7728 77.7778H45.578C45.9874 77.7778 46.38 77.9405 46.6694 78.2299C46.9589 78.5194 47.1216 78.912 47.1216 79.3214V90.1265C47.1216 90.5359 46.9589 90.9286 46.6694 91.218C46.38 91.5075 45.9874 91.6701 45.578 91.6701Z" fill="#0177FB" stroke="#0177FB" stroke-width="1.15769" stroke-linecap="round" stroke-linejoin="round"/>
<path d="M37.6377 85.1608L39.3302 86.8534L43.0248 83.158" stroke="white" stroke-width="1.15769" stroke-linecap="round" stroke-linejoin="round"/>
<path d="M57.4265 80.9313V88.4625H56.4432V80.9313H57.4265ZM64.9219 82.4332C65.3685 82.4332 65.7719 82.5304 66.1321 82.7249C66.4923 82.9122 66.7732 83.1968 66.9749 83.5785C67.1838 83.9603 67.2883 84.4249 67.2883 84.9724V88.4625H66.3158V85.1129C66.3158 84.5222 66.1681 84.072 65.8728 83.7622C65.5774 83.4453 65.1741 83.2868 64.6626 83.2868C64.144 83.2868 63.7298 83.4489 63.42 83.773C63.1175 84.0972 62.9662 84.569 62.9662 85.1885V88.4625H61.9829V80.4667H62.9662V83.3841C63.1607 83.0815 63.4272 82.8474 63.7658 82.6817C64.1116 82.516 64.4969 82.4332 64.9219 82.4332ZM68.527 85.4802C68.527 84.8752 68.6495 84.3457 68.8944 83.8919C69.1393 83.4309 69.4743 83.0743 69.8993 82.8222C70.3315 82.5701 70.8105 82.444 71.3364 82.444C71.855 82.444 72.3052 82.5557 72.687 82.779C73.0688 83.0023 73.3533 83.2832 73.5406 83.6218V82.5413H74.5347V88.4625H73.5406V87.3603C73.3461 87.7061 73.0544 87.9942 72.6654 88.2248C72.2836 88.4481 71.837 88.5597 71.3256 88.5597C70.7997 88.5597 70.3243 88.43 69.8993 88.1707C69.4743 87.9114 69.1393 87.5476 68.8944 87.0794C68.6495 86.6112 68.527 86.0781 68.527 85.4802ZM73.5406 85.4911C73.5406 85.0444 73.4506 84.6555 73.2705 84.3241C73.0904 83.9927 72.8455 83.7406 72.5358 83.5677C72.2332 83.3877 71.8982 83.2976 71.5309 83.2976C71.1635 83.2976 70.8285 83.3841 70.526 83.5569C70.2235 83.7298 69.9821 83.9819 69.8021 84.3133C69.622 84.6447 69.5319 85.0336 69.5319 85.4802C69.5319 85.9341 69.622 86.3303 69.8021 86.6688C69.9821 87.0002 70.2235 87.2559 70.526 87.436C70.8285 87.6089 71.1635 87.6953 71.5309 87.6953C71.8982 87.6953 72.2332 87.6089 72.5358 87.436C72.8455 87.2559 73.0904 87.0002 73.2705 86.6688C73.4506 86.3303 73.5406 85.9377 73.5406 85.4911ZM78.4006 87.5548L80.2374 82.5413H81.2855L78.9624 88.4625H77.8171L75.494 82.5413H76.5529L78.4006 87.5548ZM87.6557 85.275C87.6557 85.4622 87.6449 85.6603 87.6233 85.8692H82.8906C82.9266 86.4527 83.1247 86.9101 83.4849 87.2415C83.8523 87.5656 84.2953 87.7277 84.8139 87.7277C85.2389 87.7277 85.5919 87.6305 85.8728 87.436C86.161 87.2343 86.3627 86.9678 86.4779 86.6364H87.5368C87.3783 87.2055 87.0614 87.6701 86.586 88.0303C86.1105 88.3832 85.5199 88.5597 84.8139 88.5597C84.2521 88.5597 83.7478 88.4336 83.3012 88.1815C82.8618 87.9294 82.516 87.5728 82.2639 87.1118C82.0118 86.6436 81.8857 86.1033 81.8857 85.4911C81.8857 84.8788 82.0082 84.3421 82.2531 83.8811C82.498 83.4201 82.8402 83.0671 83.2796 82.8222C83.7262 82.5701 84.2376 82.444 84.8139 82.444C85.3758 82.444 85.8728 82.5665 86.305 82.8114C86.7372 83.0563 87.0686 83.3949 87.2991 83.8271C87.5368 84.2521 87.6557 84.7347 87.6557 85.275ZM86.64 85.0697C86.64 84.6951 86.5571 84.3745 86.3915 84.108C86.2258 83.8343 85.9989 83.629 85.7107 83.4921C85.4298 83.348 85.1165 83.276 84.7707 83.276C84.2737 83.276 83.8487 83.4345 83.4957 83.7514C83.1499 84.0684 82.9518 84.5078 82.9014 85.0697H86.64ZM92.8175 83.5029C92.9904 83.1643 93.2353 82.9014 93.5522 82.7141C93.8764 82.5268 94.269 82.4332 94.73 82.4332V83.4489H94.4707C93.3685 83.4489 92.8175 84.0468 92.8175 85.2425V88.4625H91.8342V82.5413H92.8175V83.5029ZM101.268 85.275C101.268 85.4622 101.257 85.6603 101.235 85.8692H96.5025C96.5386 86.4527 96.7366 86.9101 97.0968 87.2415C97.4642 87.5656 97.9072 87.7277 98.4258 87.7277C98.8509 87.7277 99.2038 87.6305 99.4848 87.436C99.7729 87.2343 99.9746 86.9678 100.09 86.6364H101.149C100.99 87.2055 100.673 87.6701 100.198 88.0303C99.7225 88.3832 99.1318 88.5597 98.4258 88.5597C97.864 88.5597 97.3597 88.4336 96.9131 88.1815C96.4737 87.9294 96.128 87.5728 95.8758 87.1118C95.6237 86.6436 95.4977 86.1033 95.4977 85.4911C95.4977 84.8788 95.6201 84.3421 95.865 83.8811C96.11 83.4201 96.4521 83.0671 96.8915 82.8222C97.3381 82.5701 97.8496 82.444 98.4258 82.444C98.9877 82.444 99.4848 82.5665 99.917 82.8114C100.349 83.0563 100.681 83.3949 100.911 83.8271C101.149 84.2521 101.268 84.7347 101.268 85.275ZM100.252 85.0697C100.252 84.6951 100.169 84.3745 100.003 84.108C99.8377 83.8343 99.6108 83.629 99.3227 83.4921C99.0417 83.348 98.7284 83.276 98.3826 83.276C97.8856 83.276 97.4606 83.4345 97.1076 83.7514C96.7619 84.0684 96.5638 84.5078 96.5133 85.0697H100.252ZM102.198 85.4802C102.198 84.8752 102.321 84.3457 102.565 83.8919C102.81 83.4309 103.145 83.0743 103.57 82.8222C104.003 82.5701 104.482 82.444 105.007 82.444C105.526 82.444 105.976 82.5557 106.358 82.779C106.74 83.0023 107.024 83.2832 107.212 83.6218V82.5413H108.206V88.4625H107.212V87.3603C107.017 87.7061 106.725 87.9942 106.336 88.2248C105.955 88.4481 105.508 88.5597 104.997 88.5597C104.471 88.5597 103.995 88.43 103.57 88.1707C103.145 87.9114 102.81 87.5476 102.565 87.0794C102.321 86.6112 102.198 86.0781 102.198 85.4802ZM107.212 85.4911C107.212 85.0444 107.122 84.6555 106.942 84.3241C106.761 83.9927 106.517 83.7406 106.207 83.5677C105.904 83.3877 105.569 83.2976 105.202 83.2976C104.835 83.2976 104.5 83.3841 104.197 83.5569C103.895 83.7298 103.653 83.9819 103.473 84.3133C103.293 84.6447 103.203 85.0336 103.203 85.4802C103.203 85.9341 103.293 86.3303 103.473 86.6688C103.653 87.0002 103.895 87.2559 104.197 87.436C104.5 87.6089 104.835 87.6953 105.202 87.6953C105.569 87.6953 105.904 87.6089 106.207 87.436C106.517 87.2559 106.761 87.0002 106.942 86.6688C107.122 86.3303 107.212 85.9377 107.212 85.4911ZM109.5 85.4802C109.5 84.8752 109.622 84.3457 109.867 83.8919C110.112 83.4309 110.447 83.0743 110.872 82.8222C111.304 82.5701 111.787 82.444 112.32 82.444C112.781 82.444 113.21 82.5521 113.606 82.7682C114.002 82.9771 114.305 83.2544 114.514 83.6002V80.4667H115.508V88.4625H114.514V87.3495C114.319 87.7025 114.031 87.9942 113.649 88.2248C113.267 88.4481 112.821 88.5597 112.309 88.5597C111.783 88.5597 111.304 88.43 110.872 88.1707C110.447 87.9114 110.112 87.5476 109.867 87.0794C109.622 86.6112 109.5 86.0781 109.5 85.4802ZM114.514 85.4911C114.514 85.0444 114.424 84.6555 114.243 84.3241C114.063 83.9927 113.818 83.7406 113.509 83.5677C113.206 83.3877 112.871 83.2976 112.504 83.2976C112.136 83.2976 111.802 83.3841 111.499 83.5569C111.196 83.7298 110.955 83.9819 110.775 84.3133C110.595 84.6447 110.505 85.0336 110.505 85.4802C110.505 85.9341 110.595 86.3303 110.775 86.6688C110.955 87.0002 111.196 87.2559 111.499 87.436C111.802 87.6089 112.136 87.6953 112.504 87.6953C112.871 87.6953 113.206 87.6089 113.509 87.436C113.818 87.2559 114.063 87.0002 114.243 86.6688C114.424 86.3303 114.514 85.9377 114.514 85.4911ZM118.185 87.101L116.975 90.0076H116.316L117.104 87.101H118.185ZM127.443 82.5413V88.4625H126.46V87.5872C126.273 87.8898 126.01 88.1275 125.671 88.3004C125.34 88.4661 124.973 88.5489 124.569 88.5489C124.108 88.5489 123.694 88.4553 123.327 88.268C122.959 88.0735 122.667 87.7853 122.451 87.4036C122.242 87.0218 122.138 86.5572 122.138 86.0097V82.5413H123.11V85.88C123.11 86.4635 123.258 86.9137 123.553 87.2307C123.849 87.5404 124.252 87.6953 124.764 87.6953C125.289 87.6953 125.704 87.5332 126.006 87.2091C126.309 86.8849 126.46 86.4131 126.46 85.7936V82.5413H127.443ZM131.988 82.4332C132.709 82.4332 133.292 82.6529 133.739 83.0923C134.185 83.5245 134.409 84.1512 134.409 84.9724V88.4625H133.436V85.1129C133.436 84.5222 133.289 84.072 132.993 83.7622C132.698 83.4453 132.295 83.2868 131.783 83.2868C131.264 83.2868 130.85 83.4489 130.541 83.773C130.238 84.0972 130.087 84.569 130.087 85.1885V88.4625H129.103V82.5413H130.087V83.3841C130.281 83.0815 130.544 82.8474 130.876 82.6817C131.214 82.516 131.585 82.4332 131.988 82.4332ZM135.648 85.4802C135.648 84.8752 135.77 84.3457 136.015 83.8919C136.26 83.4309 136.595 83.0743 137.02 82.8222C137.452 82.5701 137.935 82.444 138.468 82.444C138.929 82.444 139.357 82.5521 139.754 82.7682C140.15 82.9771 140.452 83.2544 140.661 83.6002V80.4667H141.655V88.4625H140.661V87.3495C140.467 87.7025 140.179 87.9942 139.797 88.2248C139.415 88.4481 138.968 88.5597 138.457 88.5597C137.931 88.5597 137.452 88.43 137.02 88.1707C136.595 87.9114 136.26 87.5476 136.015 87.0794C135.77 86.6112 135.648 86.0781 135.648 85.4802ZM140.661 85.4911C140.661 85.0444 140.571 84.6555 140.391 84.3241C140.211 83.9927 139.966 83.7406 139.656 83.5677C139.354 83.3877 139.019 83.2976 138.651 83.2976C138.284 83.2976 137.949 83.3841 137.647 83.5569C137.344 83.7298 137.103 83.9819 136.923 84.3133C136.742 84.6447 136.652 85.0336 136.652 85.4802C136.652 85.9341 136.742 86.3303 136.923 86.6688C137.103 87.0002 137.344 87.2559 137.647 87.436C137.949 87.6089 138.284 87.6953 138.651 87.6953C139.019 87.6953 139.354 87.6089 139.656 87.436C139.966 87.2559 140.211 87.0002 140.391 86.6688C140.571 86.3303 140.661 85.9377 140.661 85.4911ZM148.719 85.275C148.719 85.4622 148.709 85.6603 148.687 85.8692H143.954C143.99 86.4527 144.188 86.9101 144.549 87.2415C144.916 87.5656 145.359 87.7277 145.878 87.7277C146.303 87.7277 146.656 87.6305 146.937 87.436C147.225 87.2343 147.426 86.9678 147.542 86.6364H148.601C148.442 87.2055 148.125 87.6701 147.65 88.0303C147.174 88.3832 146.584 88.5597 145.878 88.5597C145.316 88.5597 144.812 88.4336 144.365 88.1815C143.926 87.9294 143.58 87.5728 143.328 87.1118C143.076 86.6436 142.949 86.1033 142.949 85.4911C142.949 84.8788 143.072 84.3421 143.317 83.8811C143.562 83.4201 143.904 83.0671 144.343 82.8222C144.79 82.5701 145.301 82.444 145.878 82.444C146.44 82.444 146.937 82.5665 147.369 82.8114C147.801 83.0563 148.132 83.3949 148.363 83.8271C148.601 84.2521 148.719 84.7347 148.719 85.275ZM147.704 85.0697C147.704 84.6951 147.621 84.3745 147.455 84.108C147.29 83.8343 147.063 83.629 146.774 83.4921C146.494 83.348 146.18 83.276 145.834 83.276C145.337 83.276 144.912 83.4345 144.559 83.7514C144.214 84.0684 144.016 84.5078 143.965 85.0697H147.704ZM151.001 83.5029C151.173 83.1643 151.418 82.9014 151.735 82.7141C152.059 82.5268 152.452 82.4332 152.913 82.4332V83.4489H152.654C151.552 83.4489 151.001 84.0468 151.001 85.2425V88.4625H150.017V82.5413H151.001V83.5029ZM156.144 88.5597C155.69 88.5597 155.284 88.4841 154.923 88.3328C154.563 88.1743 154.279 87.9582 154.07 87.6845C153.861 87.4036 153.746 87.083 153.724 86.7228H154.74C154.768 87.0182 154.905 87.2595 155.15 87.4468C155.402 87.6341 155.73 87.7277 156.134 87.7277C156.508 87.7277 156.803 87.6449 157.02 87.4792C157.236 87.3135 157.344 87.1046 157.344 86.8525C157.344 86.5932 157.228 86.4023 156.998 86.2798C156.767 86.1502 156.411 86.0241 155.928 85.9016C155.489 85.7864 155.129 85.6711 154.848 85.5559C154.574 85.4334 154.336 85.2569 154.135 85.0264C153.94 84.7887 153.843 84.479 153.843 84.0972C153.843 83.7946 153.933 83.5173 154.113 83.2652C154.293 83.0131 154.549 82.815 154.88 82.6709C155.211 82.5196 155.59 82.444 156.015 82.444C156.67 82.444 157.2 82.6097 157.603 82.941C158.006 83.2724 158.223 83.7262 158.251 84.3025H157.268C157.246 83.9927 157.12 83.7442 156.89 83.5569C156.667 83.3696 156.364 83.276 155.982 83.276C155.629 83.276 155.348 83.3516 155.139 83.5029C154.931 83.6542 154.826 83.8523 154.826 84.0972C154.826 84.2917 154.887 84.4538 155.01 84.5834C155.139 84.7059 155.298 84.8067 155.485 84.886C155.68 84.958 155.946 85.0408 156.285 85.1345C156.71 85.2497 157.056 85.365 157.322 85.4802C157.589 85.5883 157.816 85.754 158.003 85.9773C158.197 86.2006 158.298 86.4923 158.305 86.8525C158.305 87.1767 158.215 87.4684 158.035 87.7277C157.855 87.987 157.599 88.1923 157.268 88.3436C156.944 88.4877 156.569 88.5597 156.144 88.5597ZM160.893 83.3516V86.8417C160.893 87.1298 160.954 87.3351 161.076 87.4576C161.199 87.5728 161.411 87.6305 161.714 87.6305H162.438V88.4625H161.552C161.004 88.4625 160.594 88.3364 160.32 88.0843C160.046 87.8322 159.909 87.418 159.909 86.8417V83.3516H159.142V82.5413H159.909V81.0501H160.893V82.5413H162.438V83.3516H160.893ZM163.262 85.4802C163.262 84.8752 163.384 84.3457 163.629 83.8919C163.874 83.4309 164.209 83.0743 164.634 82.8222C165.066 82.5701 165.545 82.444 166.071 82.444C166.59 82.444 167.04 82.5557 167.422 82.779C167.804 83.0023 168.088 83.2832 168.275 83.6218V82.5413H169.27V88.4625H168.275V87.3603C168.081 87.7061 167.789 87.9942 167.4 88.2248C167.018 88.4481 166.572 88.5597 166.06 88.5597C165.535 88.5597 165.059 88.43 164.634 88.1707C164.209 87.9114 163.874 87.5476 163.629 87.0794C163.384 86.6112 163.262 86.0781 163.262 85.4802ZM168.275 85.4911C168.275 85.0444 168.185 84.6555 168.005 84.3241C167.825 83.9927 167.58 83.7406 167.271 83.5677C166.968 83.3877 166.633 83.2976 166.266 83.2976C165.898 83.2976 165.563 83.3841 165.261 83.5569C164.958 83.7298 164.717 83.9819 164.537 84.3133C164.357 84.6447 164.267 85.0336 164.267 85.4802C164.267 85.9341 164.357 86.3303 164.537 86.6688C164.717 87.0002 164.958 87.2559 165.261 87.436C165.563 87.6089 165.898 87.6953 166.266 87.6953C166.633 87.6953 166.968 87.6089 167.271 87.436C167.58 87.2559 167.825 87.0002 168.005 86.6688C168.185 86.3303 168.275 85.9377 168.275 85.4911ZM173.816 82.4332C174.536 82.4332 175.12 82.6529 175.567 83.0923C176.013 83.5245 176.236 84.1512 176.236 84.9724V88.4625H175.264V85.1129C175.264 84.5222 175.116 84.072 174.821 83.7622C174.526 83.4453 174.122 83.2868 173.611 83.2868C173.092 83.2868 172.678 83.4489 172.368 83.773C172.066 84.0972 171.914 84.569 171.914 85.1885V88.4625H170.931V82.5413H171.914V83.3841C172.109 83.0815 172.372 82.8474 172.703 82.6817C173.042 82.516 173.413 82.4332 173.816 82.4332ZM177.475 85.4802C177.475 84.8752 177.598 84.3457 177.843 83.8919C178.088 83.4309 178.422 83.0743 178.847 82.8222C179.28 82.5701 179.762 82.444 180.295 82.444C180.756 82.444 181.185 82.5521 181.581 82.7682C181.977 82.9771 182.28 83.2544 182.489 83.6002V80.4667H183.483V88.4625H182.489V87.3495C182.294 87.7025 182.006 87.9942 181.624 88.2248C181.243 88.4481 180.796 88.5597 180.285 88.5597C179.759 88.5597 179.28 88.43 178.847 88.1707C178.422 87.9114 178.088 87.5476 177.843 87.0794C177.598 86.6112 177.475 86.0781 177.475 85.4802ZM182.489 85.4911C182.489 85.0444 182.399 84.6555 182.219 84.3241C182.039 83.9927 181.794 83.7406 181.484 83.5677C181.181 83.3877 180.846 83.2976 180.479 83.2976C180.112 83.2976 179.777 83.3841 179.474 83.5569C179.172 83.7298 178.93 83.9819 178.75 84.3133C178.57 84.6447 178.48 85.0336 178.48 85.4802C178.48 85.9341 178.57 86.3303 178.75 86.6688C178.93 87.0002 179.172 87.2559 179.474 87.436C179.777 87.6089 180.112 87.6953 180.479 87.6953C180.846 87.6953 181.181 87.6089 181.484 87.436C181.794 87.2559 182.039 87.0002 182.219 86.6688C182.399 86.3303 182.489 85.9377 182.489 85.4911ZM186.16 87.101L184.95 90.0076H184.291L185.08 87.101H186.16ZM189.8 85.4802C189.8 84.8752 189.922 84.3457 190.167 83.8919C190.412 83.4309 190.747 83.0743 191.172 82.8222C191.604 82.5701 192.083 82.444 192.609 82.444C193.128 82.444 193.578 82.5557 193.96 82.779C194.342 83.0023 194.626 83.2832 194.813 83.6218V82.5413H195.807V88.4625H194.813V87.3603C194.619 87.7061 194.327 87.9942 193.938 88.2248C193.556 88.4481 193.11 88.5597 192.598 88.5597C192.073 88.5597 191.597 88.43 191.172 88.1707C190.747 87.9114 190.412 87.5476 190.167 87.0794C189.922 86.6112 189.8 86.0781 189.8 85.4802ZM194.813 85.4911C194.813 85.0444 194.723 84.6555 194.543 84.3241C194.363 83.9927 194.118 83.7406 193.809 83.5677C193.506 83.3877 193.171 83.2976 192.804 83.2976C192.436 83.2976 192.101 83.3841 191.799 83.5569C191.496 83.7298 191.255 83.9819 191.075 84.3133C190.895 84.6447 190.805 85.0336 190.805 85.4802C190.805 85.9341 190.895 86.3303 191.075 86.6688C191.255 87.0002 191.496 87.2559 191.799 87.436C192.101 87.6089 192.436 87.6953 192.804 87.6953C193.171 87.6953 193.506 87.6089 193.809 87.436C194.118 87.2559 194.363 87.0002 194.543 86.6688C194.723 86.3303 194.813 85.9377 194.813 85.4911ZM200.354 82.4332C201.074 82.4332 201.658 82.6529 202.105 83.0923C202.551 83.5245 202.774 84.1512 202.774 84.9724V88.4625H201.802V85.1129C201.802 84.5222 201.654 84.072 201.359 83.7622C201.064 83.4453 200.66 83.2868 200.149 83.2868C199.63 83.2868 199.216 83.4489 198.906 83.773C198.604 84.0972 198.452 84.569 198.452 85.1885V88.4625H197.469V82.5413H198.452V83.3841C198.647 83.0815 198.91 82.8474 199.241 82.6817C199.58 82.516 199.951 82.4332 200.354 82.4332ZM204.013 85.4802C204.013 84.8752 204.136 84.3457 204.381 83.8919C204.626 83.4309 204.96 83.0743 205.385 82.8222C205.818 82.5701 206.3 82.444 206.833 82.444C207.294 82.444 207.723 82.5521 208.119 82.7682C208.515 82.9771 208.818 83.2544 209.027 83.6002V80.4667H210.021V88.4625H209.027V87.3495C208.832 87.7025 208.544 87.9942 208.162 88.2248C207.781 88.4481 207.334 88.5597 206.823 88.5597C206.297 88.5597 205.818 88.43 205.385 88.1707C204.96 87.9114 204.626 87.5476 204.381 87.0794C204.136 86.6112 204.013 86.0781 204.013 85.4802ZM209.027 85.4911C209.027 85.0444 208.937 84.6555 208.757 84.3241C208.577 83.9927 208.332 83.7406 208.022 83.5677C207.719 83.3877 207.384 83.2976 207.017 83.2976C206.65 83.2976 206.315 83.3841 206.012 83.5569C205.71 83.7298 205.468 83.9819 205.288 84.3133C205.108 84.6447 205.018 85.0336 205.018 85.4802C205.018 85.9341 205.108 86.3303 205.288 86.6688C205.468 87.0002 205.71 87.2559 206.012 87.436C206.315 87.6089 206.65 87.6953 207.017 87.6953C207.384 87.6953 207.719 87.6089 208.022 87.436C208.332 87.2559 208.577 87.0002 208.757 86.6688C208.937 86.3303 209.027 85.9377 209.027 85.4911ZM214.196 85.4802C214.196 84.8752 214.318 84.3457 214.563 83.8919C214.808 83.4309 215.143 83.0743 215.568 82.8222C216 82.5701 216.479 82.444 217.005 82.444C217.524 82.444 217.974 82.5557 218.356 82.779C218.738 83.0023 219.022 83.2832 219.209 83.6218V82.5413H220.203V88.4625H219.209V87.3603C219.015 87.7061 218.723 87.9942 218.334 88.2248C217.952 88.4481 217.506 88.5597 216.994 88.5597C216.468 88.5597 215.993 88.43 215.568 88.1707C215.143 87.9114 214.808 87.5476 214.563 87.0794C214.318 86.6112 214.196 86.0781 214.196 85.4802ZM219.209 85.4911C219.209 85.0444 219.119 84.6555 218.939 84.3241C218.759 83.9927 218.514 83.7406 218.204 83.5677C217.902 83.3877 217.567 83.2976 217.2 83.2976C216.832 83.2976 216.497 83.3841 216.195 83.5569C215.892 83.7298 215.651 83.9819 215.471 84.3133C215.291 84.6447 215.201 85.0336 215.201 85.4802C215.201 85.9341 215.291 86.3303 215.471 86.6688C215.651 87.0002 215.892 87.2559 216.195 87.436C216.497 87.6089 216.832 87.6953 217.2 87.6953C217.567 87.6953 217.902 87.6089 218.204 87.436C218.514 87.2559 218.759 87.0002 218.939 86.6688C219.119 86.3303 219.209 85.9377 219.209 85.4911ZM224.307 82.444C224.818 82.444 225.265 82.5557 225.647 82.779C226.036 83.0023 226.324 83.2832 226.511 83.6218V82.5413H227.505V88.5921C227.505 89.1324 227.39 89.6114 227.16 90.0292C226.929 90.4542 226.598 90.7856 226.166 91.0233C225.741 91.261 225.243 91.3798 224.674 91.3798C223.896 91.3798 223.248 91.1962 222.729 90.8288C222.211 90.4614 221.905 89.9608 221.811 89.3269H222.783C222.892 89.687 223.115 89.9752 223.453 90.1913C223.792 90.4146 224.199 90.5262 224.674 90.5262C225.215 90.5262 225.654 90.357 225.993 90.0184C226.338 89.6798 226.511 89.2044 226.511 88.5921V87.3495C226.317 87.6953 226.029 87.9834 225.647 88.2139C225.265 88.4445 224.818 88.5597 224.307 88.5597C223.781 88.5597 223.302 88.43 222.87 88.1707C222.445 87.9114 222.11 87.5476 221.865 87.0794C221.62 86.6112 221.498 86.0781 221.498 85.4802C221.498 84.8752 221.62 84.3457 221.865 83.8919C222.11 83.4309 222.445 83.0743 222.87 82.8222C223.302 82.5701 223.781 82.444 224.307 82.444ZM226.511 85.4911C226.511 85.0444 226.421 84.6555 226.241 84.3241C226.061 83.9927 225.816 83.7406 225.506 83.5677C225.204 83.3877 224.869 83.2976 224.502 83.2976C224.134 83.2976 223.799 83.3841 223.497 83.5569C223.194 83.7298 222.953 83.9819 222.773 84.3133C222.593 84.6447 222.503 85.0336 222.503 85.4802C222.503 85.9341 222.593 86.3303 222.773 86.6688C222.953 87.0002 223.194 87.2559 223.497 87.436C223.799 87.6089 224.134 87.6953 224.502 87.6953C224.869 87.6953 225.204 87.6089 225.506 87.436C225.816 87.2559 226.061 87.0002 226.241 86.6688C226.421 86.3303 226.511 85.9377 226.511 85.4911ZM230.15 83.5029C230.323 83.1643 230.568 82.9014 230.885 82.7141C231.209 82.5268 231.602 82.4332 232.063 82.4332V83.4489H231.803C230.701 83.4489 230.15 84.0468 230.15 85.2425V88.4625H229.167V82.5413H230.15V83.5029ZM238.6 85.275C238.6 85.4622 238.59 85.6603 238.568 85.8692H233.835C233.871 86.4527 234.069 86.9101 234.43 87.2415C234.797 87.5656 235.24 87.7277 235.759 87.7277C236.184 87.7277 236.537 87.6305 236.818 87.436C237.106 87.2343 237.307 86.9678 237.423 86.6364H238.482C238.323 87.2055 238.006 87.6701 237.531 88.0303C237.055 88.3832 236.465 88.5597 235.759 88.5597C235.197 88.5597 234.693 88.4336 234.246 88.1815C233.806 87.9294 233.461 87.5728 233.209 87.1118C232.956 86.6436 232.83 86.1033 232.83 85.4911C232.83 84.8788 232.953 84.3421 233.198 83.8811C233.443 83.4201 233.785 83.0671 234.224 82.8222C234.671 82.5701 235.182 82.444 235.759 82.444C236.32 82.444 236.818 82.5665 237.25 82.8114C237.682 83.0563 238.013 83.3949 238.244 83.8271C238.482 84.2521 238.6 84.7347 238.6 85.275ZM237.585 85.0697C237.585 84.6951 237.502 84.3745 237.336 84.108C237.17 83.8343 236.944 83.629 236.655 83.4921C236.375 83.348 236.061 83.276 235.715 83.276C235.218 83.276 234.793 83.4345 234.44 83.7514C234.095 84.0684 233.897 84.5078 233.846 85.0697H237.585ZM245.301 85.275C245.301 85.4622 245.29 85.6603 245.268 85.8692H240.536C240.572 86.4527 240.77 86.9101 241.13 87.2415C241.497 87.5656 241.94 87.7277 242.459 87.7277C242.884 87.7277 243.237 87.6305 243.518 87.436C243.806 87.2343 244.008 86.9678 244.123 86.6364H245.182C245.023 87.2055 244.707 87.6701 244.231 88.0303C243.756 88.3832 243.165 88.5597 242.459 88.5597C241.897 88.5597 241.393 88.4336 240.946 88.1815C240.507 87.9294 240.161 87.5728 239.909 87.1118C239.657 86.6436 239.531 86.1033 239.531 85.4911C239.531 84.8788 239.653 84.3421 239.898 83.8811C240.143 83.4201 240.485 83.0671 240.925 82.8222C241.371 82.5701 241.883 82.444 242.459 82.444C243.021 82.444 243.518 82.5665 243.95 82.8114C244.382 83.0563 244.714 83.3949 244.944 83.8271C245.182 84.2521 245.301 84.7347 245.301 85.275ZM244.285 85.0697C244.285 84.6951 244.202 84.3745 244.037 84.108C243.871 83.8343 243.644 83.629 243.356 83.4921C243.075 83.348 242.762 83.276 242.416 83.276C241.919 83.276 241.494 83.4345 241.141 83.7514C240.795 84.0684 240.597 84.5078 240.547 85.0697H244.285ZM250.679 83.3516V86.8417C250.679 87.1298 250.74 87.3351 250.862 87.4576C250.985 87.5728 251.197 87.6305 251.5 87.6305H252.224V88.4625H251.338C250.79 88.4625 250.38 88.3364 250.106 88.0843C249.832 87.8322 249.695 87.418 249.695 86.8417V83.3516H248.928V82.5413H249.695V81.0501H250.679V82.5413H252.224V83.3516H250.679ZM255.998 88.5597C255.443 88.5597 254.939 88.4336 254.485 88.1815C254.038 87.9294 253.685 87.5728 253.426 87.1118C253.174 86.6436 253.048 86.1033 253.048 85.4911C253.048 84.886 253.177 84.3529 253.437 83.8919C253.703 83.4237 254.064 83.0671 254.517 82.8222C254.971 82.5701 255.479 82.444 256.041 82.444C256.603 82.444 257.111 82.5701 257.564 82.8222C258.018 83.0671 258.375 83.4201 258.634 83.8811C258.901 84.3421 259.034 84.8788 259.034 85.4911C259.034 86.1033 258.897 86.6436 258.623 87.1118C258.357 87.5728 257.993 87.9294 257.532 88.1815C257.071 88.4336 256.559 88.5597 255.998 88.5597ZM255.998 87.6953C256.351 87.6953 256.682 87.6125 256.992 87.4468C257.301 87.2811 257.55 87.0326 257.737 86.7012C257.932 86.3699 258.029 85.9665 258.029 85.4911C258.029 85.0156 257.935 84.6122 257.748 84.2809C257.561 83.9495 257.316 83.7046 257.013 83.5461C256.711 83.3805 256.383 83.2976 256.03 83.2976C255.67 83.2976 255.339 83.3805 255.036 83.5461C254.741 83.7046 254.503 83.9495 254.323 84.2809C254.143 84.6122 254.053 85.0156 254.053 85.4911C254.053 85.9737 254.139 86.3807 254.312 86.712C254.492 87.0434 254.73 87.2919 255.025 87.4576C255.321 87.6161 255.645 87.6953 255.998 87.6953ZM57.6426 102.352V105.842C57.6426 106.13 57.7038 106.335 57.8263 106.458C57.9487 106.573 58.1612 106.63 58.4638 106.63H59.1877V107.462H58.3017C57.7542 107.462 57.3436 107.336 57.0699 107.084C56.7962 106.832 56.6593 106.418 56.6593 105.842V102.352H55.8921V101.541H56.6593V100.05H57.6426V101.541H59.1877V102.352H57.6426ZM63.318 101.433C63.7647 101.433 64.1681 101.53 64.5282 101.725C64.8884 101.912 65.1693 102.197 65.371 102.579C65.5799 102.96 65.6844 103.425 65.6844 103.972V107.462H64.7119V104.113C64.7119 103.522 64.5642 103.072 64.2689 102.762C63.9736 102.445 63.5702 102.287 63.0587 102.287C62.5401 102.287 62.1259 102.449 61.8161 102.773C61.5136 103.097 61.3623 103.569 61.3623 104.189V107.462H60.3791V99.4667H61.3623V102.384C61.5568 102.082 61.8233 101.847 62.1619 101.682C62.5077 101.516 62.893 101.433 63.318 101.433ZM72.6931 104.275C72.6931 104.462 72.6823 104.66 72.6607 104.869H67.928C67.9641 105.453 68.1622 105.91 68.5223 106.241C68.8897 106.566 69.3327 106.728 69.8514 106.728C70.2764 106.728 70.6293 106.63 70.9103 106.436C71.1984 106.234 71.4001 105.968 71.5153 105.636H72.5742C72.4158 106.205 72.0988 106.67 71.6234 107.03C71.148 107.383 70.5573 107.56 69.8514 107.56C69.2895 107.56 68.7852 107.434 68.3386 107.182C67.8992 106.929 67.5535 106.573 67.3013 106.112C67.0492 105.644 66.9232 105.103 66.9232 104.491C66.9232 103.879 67.0456 103.342 67.2905 102.881C67.5355 102.42 67.8776 102.067 68.317 101.822C68.7636 101.57 69.2751 101.444 69.8514 101.444C70.4132 101.444 70.9103 101.566 71.3425 101.811C71.7747 102.056 72.106 102.395 72.3365 102.827C72.5742 103.252 72.6931 103.735 72.6931 104.275ZM71.6774 104.07C71.6774 103.695 71.5946 103.375 71.4289 103.108C71.2632 102.834 71.0363 102.629 70.7482 102.492C70.4672 102.348 70.1539 102.276 69.8081 102.276C69.3111 102.276 68.8861 102.434 68.5331 102.751C68.1874 103.068 67.9893 103.508 67.9388 104.07H71.6774Z" fill="white"/>
<path d="M81.507 99.9313V100.731H79.4541V107.462H78.4708V100.731H76.407V99.9313H81.507ZM88.12 104.275C88.12 104.462 88.1091 104.66 88.0875 104.869H83.3549C83.3909 105.453 83.589 105.91 83.9492 106.241C84.3165 106.566 84.7596 106.728 85.2782 106.728C85.7032 106.728 86.0562 106.63 86.3371 106.436C86.6252 106.234 86.8269 105.968 86.9422 105.636H88.0011C87.8426 106.205 87.5257 106.67 87.0502 107.03C86.5748 107.383 85.9841 107.56 85.2782 107.56C84.7163 107.56 84.2121 107.434 83.7655 107.182C83.3261 106.929 82.9803 106.573 82.7282 106.112C82.4761 105.644 82.35 105.103 82.35 104.491C82.35 103.879 82.4725 103.342 82.7174 102.881C82.9623 102.42 83.3045 102.067 83.7439 101.822C84.1905 101.57 84.7019 101.444 85.2782 101.444C85.8401 101.444 86.3371 101.566 86.7693 101.811C87.2015 102.056 87.5329 102.395 87.7634 102.827C88.0011 103.252 88.12 103.735 88.12 104.275ZM87.1043 104.07C87.1043 103.695 87.0214 103.375 86.8558 103.108C86.6901 102.834 86.4632 102.629 86.175 102.492C85.8941 102.348 85.5807 102.276 85.235 102.276C84.7379 102.276 84.3129 102.434 83.96 102.751C83.6142 103.068 83.4161 103.508 83.3657 104.07H87.1043ZM90.4011 102.503C90.574 102.164 90.8189 101.901 91.1358 101.714C91.46 101.527 91.8526 101.433 92.3136 101.433V102.449H92.0543C90.9522 102.449 90.4011 103.047 90.4011 104.243V107.462H89.4178V101.541H90.4011V102.503ZM100.569 101.433C101.03 101.433 101.441 101.53 101.801 101.725C102.161 101.912 102.446 102.197 102.655 102.579C102.864 102.96 102.968 103.425 102.968 103.972V107.462H101.996V104.113C101.996 103.522 101.848 103.072 101.553 102.762C101.264 102.445 100.872 102.287 100.375 102.287C99.8633 102.287 99.4563 102.452 99.1538 102.784C98.8512 103.108 98.6999 103.58 98.6999 104.199V107.462H97.7275V104.113C97.7275 103.522 97.5798 103.072 97.2845 102.762C96.9963 102.445 96.6038 102.287 96.1067 102.287C95.5953 102.287 95.1883 102.452 94.8857 102.784C94.5832 103.108 94.4319 103.58 94.4319 104.199V107.462H93.4487V101.541H94.4319V102.395C94.6264 102.085 94.8857 101.847 95.2099 101.682C95.5412 101.516 95.905 101.433 96.3012 101.433C96.7982 101.433 97.2377 101.545 97.6194 101.768C98.0012 101.991 98.2858 102.319 98.473 102.751C98.6387 102.334 98.9124 102.009 99.2942 101.779C99.676 101.548 100.101 101.433 100.569 101.433ZM106.677 107.56C106.223 107.56 105.816 107.484 105.456 107.333C105.096 107.174 104.811 106.958 104.603 106.684C104.394 106.404 104.278 106.083 104.257 105.723H105.272C105.301 106.018 105.438 106.259 105.683 106.447C105.935 106.634 106.263 106.728 106.666 106.728C107.041 106.728 107.336 106.645 107.552 106.479C107.768 106.314 107.876 106.105 107.876 105.852C107.876 105.593 107.761 105.402 107.531 105.28C107.3 105.15 106.944 105.024 106.461 104.902C106.022 104.786 105.661 104.671 105.38 104.556C105.107 104.433 104.869 104.257 104.667 104.026C104.473 103.789 104.376 103.479 104.376 103.097C104.376 102.795 104.466 102.517 104.646 102.265C104.826 102.013 105.082 101.815 105.413 101.671C105.744 101.52 106.122 101.444 106.547 101.444C107.203 101.444 107.732 101.61 108.136 101.941C108.539 102.272 108.755 102.726 108.784 103.302H107.801C107.779 102.993 107.653 102.744 107.423 102.557C107.199 102.37 106.897 102.276 106.515 102.276C106.162 102.276 105.881 102.352 105.672 102.503C105.463 102.654 105.359 102.852 105.359 103.097C105.359 103.292 105.42 103.454 105.543 103.583C105.672 103.706 105.831 103.807 106.018 103.886C106.212 103.958 106.479 104.041 106.818 104.134C107.243 104.25 107.588 104.365 107.855 104.48C108.121 104.588 108.348 104.754 108.536 104.977C108.73 105.201 108.831 105.492 108.838 105.852C108.838 106.177 108.748 106.468 108.568 106.728C108.388 106.987 108.132 107.192 107.801 107.344C107.477 107.488 107.102 107.56 106.677 107.56ZM115.689 107.56C115.135 107.56 114.63 107.434 114.177 107.182C113.73 106.929 113.377 106.573 113.118 106.112C112.865 105.644 112.739 105.103 112.739 104.491C112.739 103.886 112.869 103.353 113.128 102.892C113.395 102.424 113.755 102.067 114.209 101.822C114.663 101.57 115.171 101.444 115.732 101.444C116.294 101.444 116.802 101.57 117.256 101.822C117.71 102.067 118.066 102.42 118.326 102.881C118.592 103.342 118.725 103.879 118.725 104.491C118.725 105.103 118.589 105.644 118.315 106.112C118.048 106.573 117.685 106.929 117.224 107.182C116.763 107.434 116.251 107.56 115.689 107.56ZM115.689 106.695C116.042 106.695 116.374 106.612 116.683 106.447C116.993 106.281 117.242 106.033 117.429 105.701C117.623 105.37 117.721 104.966 117.721 104.491C117.721 104.016 117.627 103.612 117.44 103.281C117.252 102.95 117.007 102.705 116.705 102.546C116.402 102.38 116.075 102.298 115.722 102.298C115.361 102.298 115.03 102.38 114.728 102.546C114.432 102.705 114.195 102.95 114.014 103.281C113.834 103.612 113.744 104.016 113.744 104.491C113.744 104.974 113.831 105.381 114.004 105.712C114.184 106.043 114.421 106.292 114.717 106.458C115.012 106.616 115.336 106.695 115.689 106.695ZM122.428 102.352H121.185V107.462H120.202V102.352H119.435V101.541H120.202V101.12C120.202 100.457 120.371 99.9745 120.71 99.672C121.056 99.3622 121.607 99.2073 122.363 99.2073V100.029C121.931 100.029 121.625 100.115 121.445 100.288C121.272 100.454 121.185 100.731 121.185 101.12V101.541H122.428V102.352ZM128.843 107.538C128.346 107.538 127.899 107.452 127.503 107.279C127.114 107.099 126.808 106.854 126.585 106.544C126.361 106.227 126.246 105.863 126.239 105.453H127.287C127.323 105.806 127.467 106.105 127.719 106.35C127.978 106.587 128.353 106.706 128.843 106.706C129.311 106.706 129.678 106.591 129.945 106.36C130.219 106.123 130.356 105.82 130.356 105.453C130.356 105.165 130.276 104.93 130.118 104.75C129.959 104.57 129.761 104.433 129.524 104.34C129.286 104.246 128.965 104.145 128.562 104.037C128.065 103.908 127.665 103.778 127.363 103.648C127.067 103.519 126.812 103.317 126.595 103.043C126.387 102.762 126.282 102.388 126.282 101.919C126.282 101.509 126.387 101.145 126.595 100.828C126.804 100.511 127.096 100.266 127.471 100.093C127.852 99.9205 128.288 99.834 128.778 99.834C129.484 99.834 130.06 100.011 130.507 100.363C130.961 100.716 131.216 101.185 131.274 101.768H130.194C130.157 101.48 130.006 101.228 129.74 101.012C129.473 100.788 129.12 100.677 128.681 100.677C128.27 100.677 127.935 100.785 127.676 101.001C127.417 101.21 127.287 101.505 127.287 101.887C127.287 102.161 127.363 102.384 127.514 102.557C127.672 102.73 127.863 102.863 128.087 102.957C128.317 103.043 128.638 103.144 129.048 103.259C129.545 103.396 129.945 103.533 130.248 103.67C130.55 103.8 130.809 104.005 131.026 104.286C131.242 104.559 131.35 104.934 131.35 105.409C131.35 105.777 131.252 106.123 131.058 106.447C130.863 106.771 130.575 107.034 130.194 107.236C129.812 107.437 129.362 107.538 128.843 107.538ZM138.199 104.275C138.199 104.462 138.188 104.66 138.167 104.869H133.434C133.47 105.453 133.668 105.91 134.028 106.241C134.396 106.566 134.839 106.728 135.357 106.728C135.782 106.728 136.135 106.63 136.416 106.436C136.704 106.234 136.906 105.968 137.021 105.636H138.08C137.922 106.205 137.605 106.67 137.129 107.03C136.654 107.383 136.063 107.56 135.357 107.56C134.796 107.56 134.291 107.434 133.845 107.182C133.405 106.929 133.06 106.573 132.807 106.112C132.555 105.644 132.429 105.103 132.429 104.491C132.429 103.879 132.552 103.342 132.797 102.881C133.042 102.42 133.384 102.067 133.823 101.822C134.27 101.57 134.781 101.444 135.357 101.444C135.919 101.444 136.416 101.566 136.849 101.811C137.281 102.056 137.612 102.395 137.843 102.827C138.08 103.252 138.199 103.735 138.199 104.275ZM137.184 104.07C137.184 103.695 137.101 103.375 136.935 103.108C136.769 102.834 136.542 102.629 136.254 102.492C135.973 102.348 135.66 102.276 135.314 102.276C134.817 102.276 134.392 102.434 134.039 102.751C133.693 103.068 133.495 103.508 133.445 104.07H137.184ZM140.48 102.503C140.653 102.164 140.898 101.901 141.215 101.714C141.539 101.527 141.932 101.433 142.393 101.433V102.449H142.134C141.031 102.449 140.48 103.047 140.48 104.243V107.462H139.497V101.541H140.48V102.503ZM145.732 106.555L147.569 101.541H148.617L146.294 107.462H145.149L142.826 101.541H143.884L145.732 106.555ZM150.093 100.58C149.905 100.58 149.747 100.515 149.617 100.385C149.487 100.255 149.423 100.097 149.423 99.9097C149.423 99.7224 149.487 99.5639 149.617 99.4343C149.747 99.3046 149.905 99.2398 150.093 99.2398C150.273 99.2398 150.424 99.3046 150.546 99.4343C150.676 99.5639 150.741 99.7224 150.741 99.9097C150.741 100.097 150.676 100.255 150.546 100.385C150.424 100.515 150.273 100.58 150.093 100.58ZM150.568 101.541V107.462H149.585V101.541H150.568ZM151.876 104.491C151.876 103.879 151.999 103.346 152.244 102.892C152.489 102.431 152.827 102.074 153.259 101.822C153.699 101.57 154.199 101.444 154.761 101.444C155.489 101.444 156.087 101.62 156.555 101.973C157.03 102.326 157.344 102.816 157.495 103.443H156.436C156.335 103.083 156.137 102.798 155.842 102.589C155.554 102.38 155.194 102.276 154.761 102.276C154.199 102.276 153.746 102.47 153.4 102.859C153.054 103.241 152.881 103.785 152.881 104.491C152.881 105.204 153.054 105.755 153.4 106.144C153.746 106.533 154.199 106.728 154.761 106.728C155.194 106.728 155.554 106.627 155.842 106.425C156.13 106.223 156.328 105.935 156.436 105.561H157.495C157.337 106.166 157.02 106.652 156.544 107.019C156.069 107.38 155.474 107.56 154.761 107.56C154.199 107.56 153.699 107.434 153.259 107.182C152.827 106.929 152.489 106.573 152.244 106.112C151.999 105.651 151.876 105.111 151.876 104.491ZM164.21 104.275C164.21 104.462 164.199 104.66 164.177 104.869H159.445C159.481 105.453 159.679 105.91 160.039 106.241C160.406 106.566 160.849 106.728 161.368 106.728C161.793 106.728 162.146 106.63 162.427 106.436C162.715 106.234 162.917 105.968 163.032 105.636H164.091C163.932 106.205 163.615 106.67 163.14 107.03C162.664 107.383 162.074 107.56 161.368 107.56C160.806 107.56 160.302 107.434 159.855 107.182C159.416 106.929 159.07 106.573 158.818 106.112C158.566 105.644 158.44 105.103 158.44 104.491C158.44 103.879 158.562 103.342 158.807 102.881C159.052 102.42 159.394 102.067 159.834 101.822C160.28 101.57 160.792 101.444 161.368 101.444C161.93 101.444 162.427 101.566 162.859 101.811C163.291 102.056 163.623 102.395 163.853 102.827C164.091 103.252 164.21 103.735 164.21 104.275ZM163.194 104.07C163.194 103.695 163.111 103.375 162.945 103.108C162.78 102.834 162.553 102.629 162.265 102.492C161.984 102.348 161.67 102.276 161.325 102.276C160.828 102.276 160.403 102.434 160.05 102.751C159.704 103.068 159.506 103.508 159.455 104.07H163.194ZM165.821 107.527C165.634 107.527 165.475 107.462 165.345 107.333C165.216 107.203 165.151 107.045 165.151 106.857C165.151 106.67 165.216 106.512 165.345 106.382C165.475 106.252 165.634 106.187 165.821 106.187C166.001 106.187 166.152 106.252 166.275 106.382C166.404 106.512 166.469 106.67 166.469 106.857C166.469 107.045 166.404 107.203 166.275 107.333C166.152 107.462 166.001 107.527 165.821 107.527Z" fill="#0177FB"/>
<path d="M76.0397 108.543H166.945V109.083H76.0397V108.543Z" fill="#0177FB"/>
<rect x="18.5651" y="144.334" width="263.954" height="55.5692" rx="12.3487" fill="#2C2D3A"/>
<path d="M57.94 177.072L56.3805 182.143L53.3191 181.338L57.94 177.072Z" fill="#E4761B" stroke="#E4761B" stroke-width="0.146939"/>
<path d="M53.3191 181.338L56.2719 177.447L57.94 177.072L53.3191 181.338Z" fill="#E4761B" stroke="#E4761B" stroke-width="0.146939"/>
<path d="M55.6454 173.25L57.9399 177.072L56.2717 177.447L55.6454 173.25ZM55.6454 173.25L57.1218 172.266L57.9399 177.072L55.6454 173.25Z" fill="#F6851B" stroke="#F6851B" stroke-width="0.146939"/>
<path d="M53.7665 170.361L58.0103 168.689L57.7994 169.605L53.7665 170.361ZM57.6652 170.705L53.7665 170.361L57.7994 169.605L57.6652 170.705Z" fill="#763D16" stroke="#763D16" stroke-width="0.146939"/>
<path d="M57.6651 170.705L57.1219 172.266L53.7665 170.361L57.6651 170.705ZM58.5152 169.077L57.7994 169.605L58.0103 168.689L58.5152 169.077ZM57.6651 170.705L57.7994 169.605L58.3682 170.06L57.6651 170.705Z" fill="#763D16" stroke="#763D16" stroke-width="0.146939"/>
<path d="M50.0277 180.102L51.0887 180.428L53.3192 181.338L50.0277 180.102Z" fill="#E2761B" stroke="#E2761B" stroke-width="0.146939"/>
<path d="M57.122 172.266L57.6652 170.705L58.1318 171.049L57.122 172.266ZM57.122 172.266L52.7184 170.871L53.7666 170.361L57.122 172.266Z" fill="#763D16" stroke="#763D16" stroke-width="0.146939"/>
<path d="M54.8147 165.573L53.7666 170.361L52.7184 170.871L54.8147 165.573Z" fill="#763D16" stroke="#763D16" stroke-width="0.146939"/>
<path d="M58.0103 168.689L53.7665 170.361L54.8146 165.573L58.0103 168.689Z" fill="#763D16" stroke="#763D16" stroke-width="0.146939"/>
<path d="M54.8146 165.574L59.2437 165.082L58.0102 168.689L54.8146 165.574Z" fill="#763D16" stroke="#763D16" stroke-width="0.146939"/>
<path d="M57.122 172.266L55.6456 173.25L52.7184 170.871L57.122 172.266Z" fill="#F6851B" stroke="#F6851B" stroke-width="0.146939"/>
<path d="M59.052 161.634L59.2437 165.082L54.8146 165.574L59.052 161.634Z" fill="#763D16" stroke="#763D16" stroke-width="0.146939"/>
<path d="M59.052 161.634L50.2001 167.823L50.0851 163.625L59.052 161.634Z" fill="#E2761B" stroke="#E2761B" stroke-width="0.146939"/>
<path d="M43.5022 163.121L50.0852 163.625L50.2002 167.823L43.5022 163.121Z" fill="#F6851B" stroke="#F6851B" stroke-width="0.146939"/>
<path d="M52.7184 170.871L50.2002 167.823L54.8147 165.573L52.7184 170.871Z" fill="#763D16" stroke="#763D16" stroke-width="0.146939"/>
<path d="M52.7183 170.871L55.6455 173.25L51.5359 173.686L52.7183 170.871Z" fill="#E4761B" stroke="#E4761B" stroke-width="0.146939"/>
<path d="M51.536 173.686L50.2002 167.823L52.7184 170.871L51.536 173.686Z" fill="#E4761B" stroke="#E4761B" stroke-width="0.146939"/>
<path d="M54.8147 165.574L50.2002 167.823L59.0521 161.634L54.8147 165.574Z" fill="#763D16" stroke="#763D16" stroke-width="0.146939"/>
<path d="M43.5596 181.239L45.6495 183.335L42.8054 180.846L43.5596 181.239Z" fill="#C0AD9E" stroke="#C0AD9E" stroke-width="0.146939"/>
<path d="M53.3191 181.338L54.3097 177.718L56.2719 177.447L53.3191 181.338Z" fill="#CD6116" stroke="#CD6116" stroke-width="0.146939"/>
<path d="M35.0847 171.154L38.7022 167.497L35.5513 170.718L35.0847 171.154Z" fill="#E2761B" stroke="#E2761B" stroke-width="0.146939"/>
<path d="M56.272 177.447L54.3098 177.718L55.6456 173.25L56.272 177.447ZM50.2002 167.823L46.6787 167.712L43.5022 163.121L50.2002 167.823Z" fill="#F6851B" stroke="#F6851B" stroke-width="0.146939"/>
<path d="M55.6456 173.25L54.3098 177.718L54.2012 175.536L55.6456 173.25Z" fill="#E4751F" stroke="#E4751F" stroke-width="0.146939"/>
<path d="M51.5359 173.686L55.6455 173.25L54.201 175.536L51.5359 173.686Z" fill="#CD6116" stroke="#CD6116" stroke-width="0.146939"/>
<path d="M46.6785 167.712L50.2001 167.823L51.5358 173.686L46.6785 167.712Z" fill="#F6851B" stroke="#F6851B" stroke-width="0.146939"/>
<path d="M46.6785 167.712L37.1747 159.256L43.5021 163.121L46.6785 167.712ZM43.4957 182.524L35.2382 184.982L33.5892 178.928L43.4957 182.524Z" fill="#E4761B" stroke="#E4761B" stroke-width="0.146939"/>
<path d="M36.3119 172.666L39.4308 170.312L42.0449 170.896L36.3119 172.666Z" fill="#763D16" stroke="#763D16" stroke-width="0.146939"/>
<path d="M42.0448 170.896L39.4308 170.312L40.8305 164.756L42.0448 170.896Z" fill="#763D16" stroke="#763D16" stroke-width="0.146939"/>
<path d="M35.5513 170.718L39.4308 170.312L36.3118 172.666L35.5513 170.718Z" fill="#763D16" stroke="#763D16" stroke-width="0.146939"/>
<path d="M54.2011 175.536L52.5905 174.755L51.5359 173.686L54.2011 175.536Z" fill="#CD6116" stroke="#CD6116" stroke-width="0.146939"/>
<path d="M35.5514 170.718L35.2766 169.322L39.4309 170.312L35.5514 170.718Z" fill="#763D16" stroke="#763D16" stroke-width="0.146939"/>
<path d="M52.2583 176.513L52.5906 174.755L54.2012 175.536L52.2583 176.513Z" fill="#233447" stroke="#233447" stroke-width="0.146939"/>
<path d="M54.3099 177.718L52.2583 176.513L54.2012 175.536L54.3099 177.718Z" fill="#F6851B" stroke="#F6851B" stroke-width="0.146939"/>
<path d="M39.4308 170.312L35.2765 169.322L34.9377 168.149L39.4308 170.312ZM40.8305 164.756L39.4308 170.312L34.9377 168.149L40.8305 164.756ZM40.8305 164.756L46.6785 167.712L42.0448 170.896L40.8305 164.756Z" fill="#763D16" stroke="#763D16" stroke-width="0.146939"/>
<path d="M42.0448 170.896L46.6785 167.712L48.7428 173.778L42.0448 170.896ZM48.7428 173.778L42.3388 173.649L42.0448 170.896L48.7428 173.778Z" fill="#E4761B" stroke="#E4761B" stroke-width="0.146939"/>
<path d="M36.3119 172.666L42.0449 170.896L42.3389 173.649L36.3119 172.666ZM51.5359 173.686L48.7429 173.778L46.6785 167.712L51.5359 173.686Z" fill="#F6851B" stroke="#F6851B" stroke-width="0.146939"/>
<path d="M52.5905 174.755L52.2581 176.513L51.5359 173.686L52.5905 174.755Z" fill="#CD6116" stroke="#CD6116" stroke-width="0.146939"/>
<path d="M37.1749 159.256L46.6787 167.712L40.8307 164.756L37.1749 159.256Z" fill="#763D16" stroke="#763D16" stroke-width="0.146939"/>
<path d="M33.5892 178.928L41.6039 178.609L43.4957 182.524L33.5892 178.928Z" fill="#E4761B" stroke="#E4761B" stroke-width="0.146939"/>
<path d="M43.4958 182.524L41.604 178.609L45.541 178.424L43.4958 182.524Z" fill="#CD6116" stroke="#CD6116" stroke-width="0.146939"/>
<path d="M52.2581 176.513L54.3097 177.718L55.441 180.28L52.2581 176.513ZM42.3389 173.649L33.5892 178.928L36.3119 172.666L42.3389 173.649ZM41.6039 178.609L33.5892 178.928L42.3389 173.649L41.6039 178.609ZM51.5359 173.686L52.06 175.517L49.5291 175.659L51.5359 173.686ZM49.5291 175.659L48.7429 173.778L51.5359 173.686L49.5291 175.659Z" fill="#F6851B" stroke="#F6851B" stroke-width="0.146939"/>
<path d="M45.6495 183.335L43.4956 182.524L50.9862 183.734L45.6495 183.335Z" fill="#C0AD9E" stroke="#C0AD9E" stroke-width="0.146939"/>
<path d="M36.3118 172.666L35.0847 171.154L35.5513 170.718L36.3118 172.666Z" fill="#763D16" stroke="#763D16" stroke-width="0.146939"/>
<path d="M51.8362 182.837L50.9862 183.734L43.4956 182.524L51.8362 182.837Z" fill="#D7C1B3" stroke="#D7C1B3" stroke-width="0.146939"/>
<path d="M52.2389 180.637L43.4956 182.524L45.5408 178.424L52.2389 180.637Z" fill="#E4761B" stroke="#E4761B" stroke-width="0.146939"/>
<path d="M43.4956 182.524L52.2389 180.637L51.8362 182.837L43.4956 182.524Z" fill="#D7C1B3" stroke="#D7C1B3" stroke-width="0.146939"/>
<path d="M34.9376 168.149L34.65 163.422L40.8304 164.756L34.9376 168.149ZM35.5512 170.718L34.7012 169.888L35.2764 169.322L35.5512 170.718Z" fill="#763D16" stroke="#763D16" stroke-width="0.146939"/>
<path d="M47.3113 174.995L48.7429 173.778L48.5384 176.753L47.3113 174.995Z" fill="#CD6116" stroke="#CD6116" stroke-width="0.146939"/>
<path d="M48.7429 173.778L47.3112 174.995L45.2277 176.034L48.7429 173.778Z" fill="#CD6116" stroke="#CD6116" stroke-width="0.146939"/>
<path d="M55.4412 180.281L55.0513 180.004L52.2583 176.513L55.4412 180.281Z" fill="#F6851B" stroke="#F6851B" stroke-width="0.146939"/>
<path d="M45.2278 176.034L42.339 173.649L48.743 173.778L45.2278 176.034Z" fill="#CD6116" stroke="#CD6116" stroke-width="0.146939"/>
<path d="M48.5385 176.753L48.743 173.778L49.5291 175.659L48.5385 176.753Z" fill="#E4751F" stroke="#E4751F" stroke-width="0.146939"/>
<path d="M34.42 168.616L34.9377 168.149L35.2765 169.322L34.42 168.616Z" fill="#763D16" stroke="#763D16" stroke-width="0.146939"/>
<path d="M48.5383 176.753L45.2277 176.034L47.3112 174.995L48.5383 176.753Z" fill="#233447" stroke="#233447" stroke-width="0.146939"/>
<path d="M40.8304 164.756L34.65 163.422L37.1746 159.256L40.8304 164.756Z" fill="#763D16" stroke="#763D16" stroke-width="0.146939"/>
<path d="M50.9861 183.734L51.3376 184.656L45.6494 183.335L50.9861 183.734Z" fill="#C0AD9E" stroke="#C0AD9E" stroke-width="0.146939"/>
<path d="M45.5408 178.424L45.2277 176.034L48.5383 176.753L45.5408 178.424Z" fill="#F6851B" stroke="#F6851B" stroke-width="0.146939"/>
<path d="M42.339 173.649L45.2278 176.034L45.541 178.424L42.339 173.649Z" fill="#E4751F" stroke="#E4751F" stroke-width="0.146939"/>
<path d="M49.5292 175.659L52.0601 175.517L55.0512 180.004L49.5292 175.659ZM42.339 173.649L45.541 178.424L41.604 178.609L42.339 173.649Z" fill="#F6851B" stroke="#F6851B" stroke-width="0.146939"/>
<path d="M49.5291 175.659L52.6736 180.262L48.5385 176.753L49.5291 175.659Z" fill="#E4751F" stroke="#E4751F" stroke-width="0.146939"/>
<path d="M48.5385 176.753L52.6736 180.262L52.239 180.637L48.5385 176.753Z" fill="#F6851B" stroke="#F6851B" stroke-width="0.146939"/>
<path d="M52.2389 180.637L45.5409 178.424L48.5384 176.753L52.2389 180.637ZM55.0511 180.004L52.6735 180.262L49.529 175.659L55.0511 180.004Z" fill="#F6851B" stroke="#F6851B" stroke-width="0.146939"/>
<path d="M55.6776 182.167L54.655 184.14L51.338 184.656L55.6776 182.167ZM51.338 184.656L50.9865 183.734L51.8365 182.837L51.338 184.656Z" fill="#C0AD9E" stroke="#C0AD9E" stroke-width="0.146939"/>
<path d="M51.8363 182.837L52.4626 182.598L51.3378 184.656L51.8363 182.837ZM51.3378 184.656L52.4626 182.598L55.6774 182.167L51.3378 184.656Z" fill="#C0AD9E" stroke="#C0AD9E" stroke-width="0.146939"/>
<path d="M55.0511 180.004L55.8372 180.465L53.4469 180.741L55.0511 180.004Z" fill="#161616" stroke="#161616" stroke-width="0.146939"/>
<path d="M53.4469 180.741L52.6736 180.262L55.0511 180.004L53.4469 180.741ZM53.1721 181.104L56.0801 180.766L55.6775 182.167L53.1721 181.104Z" fill="#161616" stroke="#161616" stroke-width="0.146939"/>
<path d="M55.6775 182.167L52.4626 182.597L53.1721 181.104L55.6775 182.167ZM52.4626 182.597L51.8363 182.837L52.239 180.637L52.4626 182.597ZM52.239 180.637L52.6736 180.262L53.4469 180.741L52.239 180.637ZM55.8372 180.465L56.0801 180.766L53.1721 181.104L55.8372 180.465Z" fill="#161616" stroke="#161616" stroke-width="0.146939"/>
<path d="M53.172 181.104L53.4468 180.741L55.8372 180.465L53.172 181.104ZM52.2389 180.637L53.172 181.104L52.4626 182.598L52.2389 180.637Z" fill="#161616" stroke="#161616" stroke-width="0.146939"/>
<path d="M53.4468 180.741L53.172 181.104L52.2389 180.637L53.4468 180.741Z" fill="#161616" stroke="#161616" stroke-width="0.146939"/>
<path d="M83.1025 168.077V175.619H81.5898V170.713L79.5693 175.619H78.4239L76.3925 170.713V175.619H74.8798V168.077H76.5978L78.9966 173.685L81.3953 168.077H83.1025ZM90.1628 172.496C90.1628 172.712 90.1484 172.907 90.1195 173.08H85.7435C85.7795 173.512 85.9307 173.85 86.1973 174.095C86.4638 174.34 86.7916 174.463 87.1805 174.463C87.7424 174.463 88.1422 174.221 88.3799 173.739H90.0115C89.8386 174.315 89.5072 174.79 89.0174 175.165C88.5276 175.532 87.9261 175.716 87.213 175.716C86.6367 175.716 86.118 175.59 85.657 175.338C85.2032 175.079 84.8466 174.715 84.5873 174.247C84.3352 173.778 84.2091 173.238 84.2091 172.626C84.2091 172.006 84.3352 171.462 84.5873 170.994C84.8394 170.526 85.1924 170.166 85.6462 169.914C86.1 169.662 86.6223 169.536 87.213 169.536C87.782 169.536 88.2899 169.658 88.7365 169.903C89.1903 170.148 89.5397 170.497 89.7846 170.951C90.0367 171.398 90.1628 171.913 90.1628 172.496ZM88.596 172.064C88.5888 171.675 88.4483 171.365 88.1746 171.135C87.9009 170.897 87.5659 170.778 87.1697 170.778C86.7952 170.778 86.4782 170.893 86.2189 171.124C85.9668 171.347 85.8119 171.661 85.7543 172.064H88.596ZM93.0281 170.875V173.771C93.0281 173.973 93.075 174.121 93.1686 174.214C93.2695 174.301 93.4351 174.344 93.6656 174.344H94.368V175.619H93.4171C92.1421 175.619 91.5046 174.999 91.5046 173.76V170.875H90.7915V169.633H91.5046V168.152H93.0281V169.633H94.368V170.875H93.0281ZM95.067 172.604C95.067 171.999 95.1859 171.462 95.4236 170.994C95.6685 170.526 95.9963 170.166 96.4069 169.914C96.8247 169.662 97.2893 169.536 97.8007 169.536C98.2473 169.536 98.6363 169.626 98.9677 169.806C99.3062 169.986 99.5764 170.213 99.7781 170.486V169.633H101.302V175.619H99.7781V174.744C99.5836 175.025 99.3134 175.259 98.9677 175.446C98.6291 175.626 98.2365 175.716 97.7899 175.716C97.2857 175.716 96.8247 175.586 96.4069 175.327C95.9963 175.068 95.6685 174.704 95.4236 174.236C95.1859 173.76 95.067 173.216 95.067 172.604ZM99.7781 172.626C99.7781 172.258 99.706 171.945 99.562 171.686C99.4179 171.419 99.2234 171.218 98.9785 171.081C98.7336 170.937 98.4706 170.865 98.1897 170.865C97.9088 170.865 97.6494 170.933 97.4117 171.07C97.174 171.207 96.9795 171.408 96.8283 171.675C96.6842 171.934 96.6122 172.244 96.6122 172.604C96.6122 172.964 96.6842 173.281 96.8283 173.555C96.9795 173.822 97.174 174.027 97.4117 174.171C97.6566 174.315 97.916 174.387 98.1897 174.387C98.4706 174.387 98.7336 174.319 98.9785 174.182C99.2234 174.038 99.4179 173.836 99.562 173.577C99.706 173.31 99.7781 172.993 99.7781 172.626ZM113.576 168.077V175.619H112.064V170.713L110.043 175.619H108.898L106.866 170.713V175.619H105.354V168.077H107.072L109.47 173.685L111.869 168.077H113.576ZM114.683 172.604C114.683 171.999 114.802 171.462 115.04 170.994C115.284 170.526 115.612 170.166 116.023 169.914C116.441 169.662 116.905 169.536 117.417 169.536C117.863 169.536 118.252 169.626 118.584 169.806C118.922 169.986 119.192 170.213 119.394 170.486V169.633H120.918V175.619H119.394V174.744C119.2 175.025 118.929 175.259 118.584 175.446C118.245 175.626 117.852 175.716 117.406 175.716C116.902 175.716 116.441 175.586 116.023 175.327C115.612 175.068 115.284 174.704 115.04 174.236C114.802 173.76 114.683 173.216 114.683 172.604ZM119.394 172.626C119.394 172.258 119.322 171.945 119.178 171.686C119.034 171.419 118.839 171.218 118.594 171.081C118.35 170.937 118.087 170.865 117.806 170.865C117.525 170.865 117.265 170.933 117.028 171.07C116.79 171.207 116.595 171.408 116.444 171.675C116.3 171.934 116.228 172.244 116.228 172.604C116.228 172.964 116.3 173.281 116.444 173.555C116.595 173.822 116.79 174.027 117.028 174.171C117.273 174.315 117.532 174.387 117.806 174.387C118.087 174.387 118.35 174.319 118.594 174.182C118.839 174.038 119.034 173.836 119.178 173.577C119.322 173.31 119.394 172.993 119.394 172.626ZM124.686 175.716C124.196 175.716 123.756 175.63 123.367 175.457C122.978 175.277 122.669 175.035 122.438 174.733C122.215 174.43 122.092 174.095 122.071 173.728H123.594C123.623 173.958 123.735 174.149 123.929 174.301C124.131 174.452 124.38 174.528 124.675 174.528C124.963 174.528 125.186 174.47 125.345 174.355C125.51 174.239 125.593 174.092 125.593 173.912C125.593 173.717 125.492 173.573 125.291 173.479C125.096 173.379 124.783 173.271 124.351 173.155C123.904 173.047 123.537 172.936 123.249 172.82C122.968 172.705 122.723 172.529 122.514 172.291C122.312 172.053 122.211 171.733 122.211 171.329C122.211 170.998 122.305 170.695 122.492 170.422C122.687 170.148 122.96 169.932 123.313 169.773C123.674 169.615 124.095 169.536 124.578 169.536C125.291 169.536 125.86 169.716 126.285 170.076C126.71 170.429 126.944 170.908 126.987 171.513H125.539C125.518 171.275 125.417 171.088 125.237 170.951C125.064 170.807 124.83 170.735 124.534 170.735C124.261 170.735 124.048 170.785 123.897 170.886C123.753 170.987 123.681 171.128 123.681 171.308C123.681 171.509 123.782 171.664 123.983 171.772C124.185 171.873 124.498 171.978 124.923 172.086C125.356 172.194 125.712 172.305 125.993 172.421C126.274 172.536 126.515 172.716 126.717 172.961C126.926 173.198 127.034 173.515 127.041 173.912C127.041 174.257 126.944 174.567 126.749 174.841C126.562 175.115 126.288 175.331 125.928 175.489C125.575 175.64 125.161 175.716 124.686 175.716ZM131.827 175.619L129.796 173.069V175.619H128.283V167.623H129.796V172.172L131.805 169.633H133.772L131.135 172.637L133.794 175.619H131.827Z" fill="white"/>
<rect x="18.5651" y="212.252" width="263.954" height="55.5692" rx="12.3487" fill="#2C2D3A"/>
<path d="M41.3534 237.984L46.3497 232.988L51.3484 237.986L54.2555 235.079L46.3497 227.174L38.4465 235.077L41.3535 237.984L41.3534 237.984ZM33.4865 240.037L36.3936 237.129L39.3006 240.036L36.3934 242.943L33.4865 240.037ZM41.3534 242.09L46.3497 247.086L51.3483 242.088L54.2569 244.993L54.2555 244.995L46.3497 252.9L38.4465 244.997L38.4424 244.993L41.3537 242.09L41.3534 242.09ZM53.3988 240.038L56.306 237.131L59.2129 240.038L56.3059 242.945L53.3988 240.038Z" fill="#F3BA2F"/>
<path d="M49.2982 240.035H49.2995L46.3498 237.085L44.1695 239.265L43.919 239.516L43.4024 240.032L43.3983 240.036L43.4024 240.041L46.3498 242.988L49.2997 240.038L49.3011 240.037L49.2984 240.035" fill="#F3BA2F"/>
<path d="M79.1587 239.669C79.5837 239.748 79.933 239.96 80.2068 240.306C80.4805 240.652 80.6174 241.048 80.6174 241.495C80.6174 241.898 80.5165 242.255 80.3148 242.564C80.1203 242.867 79.8358 243.105 79.4612 243.277C79.0866 243.45 78.6436 243.537 78.1322 243.537H74.8798V235.995H77.9917C78.5032 235.995 78.9426 236.078 79.3099 236.243C79.6845 236.409 79.9654 236.64 80.1527 236.935C80.3472 237.23 80.4445 237.565 80.4445 237.94C80.4445 238.379 80.3256 238.747 80.0879 239.042C79.8574 239.337 79.5476 239.546 79.1587 239.669ZM76.3925 239.107H77.7756C78.1358 239.107 78.4131 239.027 78.6076 238.869C78.8021 238.703 78.8993 238.469 78.8993 238.167C78.8993 237.864 78.8021 237.63 78.6076 237.464C78.4131 237.299 78.1358 237.216 77.7756 237.216H76.3925V239.107ZM77.9161 242.305C78.2834 242.305 78.568 242.219 78.7697 242.046C78.9786 241.873 79.083 241.628 79.083 241.311C79.083 240.987 78.975 240.735 78.7589 240.555C78.5428 240.367 78.251 240.274 77.8837 240.274H76.3925V242.305H77.9161ZM82.5901 236.838C82.3236 236.838 82.1003 236.755 81.9202 236.589C81.7473 236.416 81.6609 236.204 81.6609 235.952C81.6609 235.699 81.7473 235.491 81.9202 235.325C82.1003 235.152 82.3236 235.066 82.5901 235.066C82.8567 235.066 83.0764 235.152 83.2492 235.325C83.4293 235.491 83.5194 235.699 83.5194 235.952C83.5194 236.204 83.4293 236.416 83.2492 236.589C83.0764 236.755 82.8567 236.838 82.5901 236.838ZM83.3357 237.551V243.537H81.823V237.551H83.3357ZM88.1474 237.464C88.8606 237.464 89.4368 237.691 89.8763 238.145C90.3157 238.592 90.5354 239.218 90.5354 240.025V243.537H89.0226V240.23C89.0226 239.755 88.9038 239.391 88.6661 239.139C88.4284 238.88 88.1042 238.75 87.6936 238.75C87.2758 238.75 86.9445 238.88 86.6995 239.139C86.4618 239.391 86.343 239.755 86.343 240.23V243.537H84.8303V237.551H86.343V238.296C86.5447 238.037 86.8004 237.835 87.1101 237.691C87.4271 237.54 87.7729 237.464 88.1474 237.464ZM91.5849 240.522C91.5849 239.917 91.7038 239.38 91.9415 238.912C92.1864 238.444 92.5141 238.084 92.9247 237.832C93.3425 237.58 93.8072 237.454 94.3186 237.454C94.7652 237.454 95.1542 237.544 95.4855 237.724C95.8241 237.904 96.0942 238.131 96.2959 238.404V237.551H97.8195V243.537H96.2959V242.662C96.1014 242.943 95.8313 243.177 95.4855 243.364C95.147 243.544 94.7544 243.634 94.3078 243.634C93.8036 243.634 93.3425 243.504 92.9247 243.245C92.5141 242.986 92.1864 242.622 91.9415 242.154C91.7038 241.678 91.5849 241.134 91.5849 240.522ZM96.2959 240.544C96.2959 240.176 96.2239 239.863 96.0798 239.604C95.9358 239.337 95.7413 239.136 95.4964 238.999C95.2514 238.855 94.9885 238.783 94.7076 238.783C94.4266 238.783 94.1673 238.851 93.9296 238.988C93.6919 239.125 93.4974 239.326 93.3461 239.593C93.2021 239.852 93.13 240.162 93.13 240.522C93.13 240.882 93.2021 241.199 93.3461 241.473C93.4974 241.74 93.6919 241.945 93.9296 242.089C94.1745 242.233 94.4339 242.305 94.7076 242.305C94.9885 242.305 95.2514 242.237 95.4964 242.1C95.7413 241.956 95.9358 241.754 96.0798 241.495C96.2239 241.228 96.2959 240.911 96.2959 240.544ZM102.614 237.464C103.327 237.464 103.903 237.691 104.343 238.145C104.782 238.592 105.002 239.218 105.002 240.025V243.537H103.489V240.23C103.489 239.755 103.37 239.391 103.133 239.139C102.895 238.88 102.571 238.75 102.16 238.75C101.742 238.75 101.411 238.88 101.166 239.139C100.928 239.391 100.81 239.755 100.81 240.23V243.537H99.2969V237.551H100.81V238.296C101.011 238.037 101.267 237.835 101.577 237.691C101.894 237.54 102.239 237.464 102.614 237.464ZM106.052 240.544C106.052 239.924 106.178 239.384 106.43 238.923C106.682 238.455 107.031 238.095 107.478 237.843C107.924 237.583 108.436 237.454 109.012 237.454C109.754 237.454 110.366 237.641 110.849 238.015C111.339 238.383 111.667 238.901 111.832 239.571H110.201C110.114 239.312 109.967 239.11 109.758 238.966C109.556 238.815 109.304 238.739 109.001 238.739C108.569 238.739 108.227 238.898 107.975 239.215C107.723 239.524 107.597 239.968 107.597 240.544C107.597 241.113 107.723 241.556 107.975 241.873C108.227 242.183 108.569 242.337 109.001 242.337C109.614 242.337 110.013 242.064 110.201 241.516H111.832C111.667 242.165 111.339 242.68 110.849 243.061C110.359 243.443 109.747 243.634 109.012 243.634C108.436 243.634 107.924 243.508 107.478 243.256C107.031 242.997 106.682 242.636 106.43 242.175C106.178 241.707 106.052 241.163 106.052 240.544ZM118.505 240.414C118.505 240.63 118.491 240.825 118.462 240.998H114.086C114.122 241.43 114.273 241.768 114.54 242.013C114.806 242.258 115.134 242.381 115.523 242.381C116.085 242.381 116.485 242.139 116.722 241.657H118.354C118.181 242.233 117.85 242.708 117.36 243.083C116.87 243.45 116.268 243.634 115.555 243.634C114.979 243.634 114.46 243.508 113.999 243.256C113.546 242.997 113.189 242.633 112.93 242.165C112.678 241.696 112.551 241.156 112.551 240.544C112.551 239.924 112.678 239.38 112.93 238.912C113.182 238.444 113.535 238.084 113.989 237.832C114.442 237.58 114.965 237.454 115.555 237.454C116.124 237.454 116.632 237.576 117.079 237.821C117.533 238.066 117.882 238.415 118.127 238.869C118.379 239.316 118.505 239.831 118.505 240.414ZM116.938 239.982C116.931 239.593 116.791 239.283 116.517 239.053C116.243 238.815 115.908 238.696 115.512 238.696C115.138 238.696 114.821 238.811 114.561 239.042C114.309 239.265 114.154 239.579 114.097 239.982H116.938ZM121.817 239.755C121.817 239.013 121.982 238.35 122.314 237.767C122.652 237.176 123.11 236.719 123.686 236.395C124.269 236.063 124.921 235.898 125.642 235.898C126.484 235.898 127.223 236.114 127.857 236.546C128.491 236.978 128.934 237.576 129.186 238.34H127.446C127.273 237.979 127.028 237.709 126.711 237.529C126.402 237.349 126.041 237.259 125.631 237.259C125.191 237.259 124.799 237.363 124.453 237.572C124.114 237.774 123.848 238.062 123.653 238.437C123.466 238.811 123.372 239.251 123.372 239.755C123.372 240.252 123.466 240.691 123.653 241.073C123.848 241.448 124.114 241.74 124.453 241.948C124.799 242.15 125.191 242.251 125.631 242.251C126.041 242.251 126.402 242.161 126.711 241.981C127.028 241.794 127.273 241.52 127.446 241.16H129.186C128.934 241.93 128.491 242.532 127.857 242.964C127.23 243.389 126.492 243.602 125.642 243.602C124.921 243.602 124.269 243.44 123.686 243.115C123.11 242.784 122.652 242.327 122.314 241.743C121.982 241.16 121.817 240.497 121.817 239.755ZM133.849 237.464C134.303 237.464 134.706 237.565 135.059 237.767C135.412 237.961 135.686 238.253 135.88 238.642C136.082 239.024 136.183 239.485 136.183 240.025V243.537H134.67V240.23C134.67 239.755 134.551 239.391 134.314 239.139C134.076 238.88 133.752 238.75 133.341 238.75C132.923 238.75 132.592 238.88 132.347 239.139C132.109 239.391 131.99 239.755 131.99 240.23V243.537H130.478V235.541H131.99V238.296C132.185 238.037 132.444 237.835 132.768 237.691C133.093 237.54 133.453 237.464 133.849 237.464ZM137.232 240.522C137.232 239.917 137.351 239.38 137.589 238.912C137.834 238.444 138.162 238.084 138.572 237.832C138.99 237.58 139.455 237.454 139.966 237.454C140.413 237.454 140.802 237.544 141.133 237.724C141.472 237.904 141.742 238.131 141.943 238.404V237.551H143.467V243.537H141.943V242.662C141.749 242.943 141.479 243.177 141.133 243.364C140.794 243.544 140.402 243.634 139.955 243.634C139.451 243.634 138.99 243.504 138.572 243.245C138.162 242.986 137.834 242.622 137.589 242.154C137.351 241.678 137.232 241.134 137.232 240.522ZM141.943 240.544C141.943 240.176 141.871 239.863 141.727 239.604C141.583 239.337 141.389 239.136 141.144 238.999C140.899 238.855 140.636 238.783 140.355 238.783C140.074 238.783 139.815 238.851 139.577 238.988C139.339 239.125 139.145 239.326 138.994 239.593C138.85 239.852 138.777 240.162 138.777 240.522C138.777 240.882 138.85 241.199 138.994 241.473C139.145 241.74 139.339 241.945 139.577 242.089C139.822 242.233 140.081 242.305 140.355 242.305C140.636 242.305 140.899 242.237 141.144 242.1C141.389 241.956 141.583 241.754 141.727 241.495C141.871 241.228 141.943 240.911 141.943 240.544ZM145.711 236.838C145.445 236.838 145.222 236.755 145.042 236.589C144.869 236.416 144.782 236.204 144.782 235.952C144.782 235.699 144.869 235.491 145.042 235.325C145.222 235.152 145.445 235.066 145.711 235.066C145.978 235.066 146.198 235.152 146.371 235.325C146.551 235.491 146.641 235.699 146.641 235.952C146.641 236.204 146.551 236.416 146.371 236.589C146.198 236.755 145.978 236.838 145.711 236.838ZM146.457 237.551V243.537H144.944V237.551H146.457ZM151.269 237.464C151.982 237.464 152.558 237.691 152.998 238.145C153.437 238.592 153.657 239.218 153.657 240.025V243.537H152.144V240.23C152.144 239.755 152.025 239.391 151.787 239.139C151.55 238.88 151.226 238.75 150.815 238.75C150.397 238.75 150.066 238.88 149.821 239.139C149.583 239.391 149.464 239.755 149.464 240.23V243.537H147.952V237.551H149.464V238.296C149.666 238.037 149.922 237.835 150.232 237.691C150.548 237.54 150.894 237.464 151.269 237.464ZM167.751 235.995L165.644 243.537H163.861L162.446 238.167L160.965 243.537L159.193 243.548L157.162 235.995H158.783L160.112 241.851L161.646 235.995H163.332L164.78 241.819L166.12 235.995H167.751ZM168.35 240.522C168.35 239.917 168.469 239.38 168.706 238.912C168.951 238.444 169.279 238.084 169.69 237.832C170.107 237.58 170.572 237.454 171.084 237.454C171.53 237.454 171.919 237.544 172.25 237.724C172.589 237.904 172.859 238.131 173.061 238.404V237.551H174.584V243.537H173.061V242.662C172.866 242.943 172.596 243.177 172.25 243.364C171.912 243.544 171.519 243.634 171.073 243.634C170.569 243.634 170.107 243.504 169.69 243.245C169.279 242.986 168.951 242.622 168.706 242.154C168.469 241.678 168.35 241.134 168.35 240.522ZM173.061 240.544C173.061 240.176 172.989 239.863 172.845 239.604C172.701 239.337 172.506 239.136 172.261 238.999C172.016 238.855 171.753 238.783 171.473 238.783C171.192 238.783 170.932 238.851 170.695 238.988C170.457 239.125 170.262 239.326 170.111 239.593C169.967 239.852 169.895 240.162 169.895 240.522C169.895 240.882 169.967 241.199 170.111 241.473C170.262 241.74 170.457 241.945 170.695 242.089C170.939 242.233 171.199 242.305 171.473 242.305C171.753 242.305 172.016 242.237 172.261 242.1C172.506 241.956 172.701 241.754 172.845 241.495C172.989 241.228 173.061 240.911 173.061 240.544ZM177.575 235.541V243.537H176.062V235.541H177.575ZM180.582 235.541V243.537H179.069V235.541H180.582ZM187.641 240.414C187.641 240.63 187.627 240.825 187.598 240.998H183.222C183.258 241.43 183.409 241.768 183.676 242.013C183.942 242.258 184.27 242.381 184.659 242.381C185.221 242.381 185.62 242.139 185.858 241.657H187.49C187.317 242.233 186.986 242.708 186.496 243.083C186.006 243.45 185.404 243.634 184.691 243.634C184.115 243.634 183.596 243.508 183.135 243.256C182.681 242.997 182.325 242.633 182.066 242.165C181.813 241.696 181.687 241.156 181.687 240.544C181.687 239.924 181.813 239.38 182.066 238.912C182.318 238.444 182.671 238.084 183.125 237.832C183.578 237.58 184.101 237.454 184.691 237.454C185.26 237.454 185.768 237.576 186.215 237.821C186.669 238.066 187.018 238.415 187.263 238.869C187.515 239.316 187.641 239.831 187.641 240.414ZM186.074 239.982C186.067 239.593 185.927 239.283 185.653 239.053C185.379 238.815 185.044 238.696 184.648 238.696C184.273 238.696 183.957 238.811 183.697 239.042C183.445 239.265 183.29 239.579 183.233 239.982H186.074ZM190.506 238.793V241.689C190.506 241.891 190.553 242.038 190.647 242.132C190.748 242.219 190.913 242.262 191.144 242.262H191.846V243.537H190.895C189.62 243.537 188.983 242.917 188.983 241.678V238.793H188.27V237.551H188.983V236.07H190.506V237.551H191.846V238.793H190.506Z" fill="white"/>
<rect x="18.5651" y="280.17" width="263.954" height="55.5692" rx="12.3487" fill="#2C2D3A"/>
<g clip-path="url(#clip0_1748_6103)">
<path d="M61.7856 307.955C61.7856 299.43 54.8747 292.519 46.3497 292.519C37.8247 292.519 30.9138 299.43 30.9138 307.955C30.9138 316.48 37.8247 323.391 46.3497 323.391C54.8747 323.391 61.7856 316.48 61.7856 307.955Z" fill="url(#paint0_radial_1748_6103)"/>
<path d="M41.1166 303.645C44.0068 300.816 48.6927 300.816 51.5829 303.645L51.9308 303.986C52.0753 304.127 52.0753 304.357 51.9308 304.498L50.7409 305.663C50.6686 305.734 50.5515 305.734 50.4792 305.663L50.0005 305.195C47.9843 303.221 44.7153 303.221 42.699 305.195L42.1864 305.697C42.1141 305.767 41.997 305.767 41.9247 305.697L40.7348 304.532C40.5903 304.39 40.5903 304.161 40.7348 304.019L41.1166 303.645ZM54.0437 306.055L55.1027 307.092C55.2472 307.233 55.2472 307.462 55.1027 307.604L50.3276 312.279C50.1831 312.421 49.9488 312.421 49.8043 312.279C49.8043 312.279 49.8043 312.279 49.8043 312.279L46.4152 308.961C46.3791 308.926 46.3205 308.926 46.2844 308.961C46.2844 308.961 46.2844 308.961 46.2844 308.961L42.8954 312.279C42.7508 312.421 42.5165 312.421 42.372 312.279C42.372 312.279 42.372 312.279 42.372 312.279L37.5968 307.604C37.4523 307.462 37.4523 307.233 37.5968 307.092L38.6558 306.055C38.8003 305.913 39.0346 305.913 39.1791 306.055L42.5682 309.373C42.6044 309.408 42.6629 309.408 42.6991 309.373C42.6991 309.373 42.6991 309.373 42.6991 309.373L46.088 306.055C46.2325 305.913 46.4668 305.913 46.6114 306.055C46.6114 306.055 46.6114 306.055 46.6114 306.055L50.0005 309.373C50.0366 309.408 50.0952 309.408 50.1313 309.373L53.5204 306.055C53.6649 305.913 53.8992 305.913 54.0437 306.055Z" fill="white"/>
</g>
<path d="M84.961 303.913L82.854 311.455H81.0712L79.6557 306.085L78.1754 311.455L76.4034 311.466L74.372 303.913H75.9928L77.3218 309.769L78.8561 303.913H80.5417L81.9896 309.737L83.3294 303.913H84.961ZM85.5598 308.44C85.5598 307.835 85.6786 307.298 85.9163 306.83C86.1613 306.362 86.489 306.002 86.8996 305.75C87.3174 305.497 87.782 305.371 88.2935 305.371C88.7401 305.371 89.1291 305.461 89.4604 305.642C89.799 305.822 90.0691 306.049 90.2708 306.322V305.469H91.7943V311.455H90.2708V310.579C90.0763 310.86 89.8062 311.095 89.4604 311.282C89.1219 311.462 88.7293 311.552 88.2827 311.552C87.7784 311.552 87.3174 311.422 86.8996 311.163C86.489 310.904 86.1613 310.54 85.9163 310.072C85.6786 309.596 85.5598 309.052 85.5598 308.44ZM90.2708 308.462C90.2708 308.094 90.1988 307.781 90.0547 307.522C89.9106 307.255 89.7161 307.053 89.4712 306.917C89.2263 306.772 88.9634 306.7 88.6825 306.7C88.4015 306.7 88.1422 306.769 87.9045 306.906C87.6668 307.043 87.4723 307.244 87.321 307.511C87.1769 307.77 87.1049 308.08 87.1049 308.44C87.1049 308.8 87.1769 309.117 87.321 309.391C87.4723 309.657 87.6668 309.863 87.9045 310.007C88.1494 310.151 88.4087 310.223 88.6825 310.223C88.9634 310.223 89.2263 310.154 89.4712 310.018C89.7161 309.874 89.9106 309.672 90.0547 309.413C90.1988 309.146 90.2708 308.829 90.2708 308.462ZM94.7845 303.459V311.455H93.2718V303.459H94.7845ZM97.7918 303.459V311.455H96.279V303.459H97.7918ZM104.851 308.332C104.851 308.548 104.837 308.743 104.808 308.916H100.432C100.468 309.348 100.619 309.686 100.885 309.931C101.152 310.176 101.48 310.299 101.869 310.299C102.431 310.299 102.83 310.057 103.068 309.575H104.7C104.527 310.151 104.195 310.626 103.706 311.001C103.216 311.368 102.614 311.552 101.901 311.552C101.325 311.552 100.806 311.426 100.345 311.174C99.8914 310.914 99.5349 310.551 99.2755 310.082C99.0234 309.614 98.8974 309.074 98.8974 308.462C98.8974 307.842 99.0234 307.298 99.2755 306.83C99.5277 306.362 99.8806 306.002 100.334 305.75C100.788 305.497 101.31 305.371 101.901 305.371C102.47 305.371 102.978 305.494 103.425 305.739C103.879 305.984 104.228 306.333 104.473 306.787C104.725 307.234 104.851 307.749 104.851 308.332ZM103.284 307.9C103.277 307.511 103.137 307.201 102.863 306.971C102.589 306.733 102.254 306.614 101.858 306.614C101.483 306.614 101.166 306.729 100.907 306.96C100.655 307.183 100.5 307.496 100.442 307.9H103.284ZM107.716 306.711V309.607C107.716 309.809 107.763 309.956 107.857 310.05C107.958 310.136 108.123 310.18 108.354 310.18H109.056V311.455H108.105C106.83 311.455 106.193 310.835 106.193 309.596V306.711H105.48V305.469H106.193V303.988H107.716V305.469H109.056V306.711H107.716ZM109.777 307.673C109.777 306.931 109.943 306.268 110.274 305.685C110.612 305.094 111.07 304.637 111.646 304.313C112.23 303.981 112.882 303.815 113.602 303.815C114.445 303.815 115.183 304.032 115.817 304.464C116.451 304.896 116.894 305.494 117.146 306.257H115.406C115.233 305.897 114.989 305.627 114.672 305.447C114.362 305.267 114.002 305.177 113.591 305.177C113.152 305.177 112.759 305.281 112.413 305.49C112.075 305.692 111.808 305.98 111.614 306.355C111.426 306.729 111.333 307.169 111.333 307.673C111.333 308.17 111.426 308.609 111.614 308.991C111.808 309.366 112.075 309.657 112.413 309.866C112.759 310.068 113.152 310.169 113.591 310.169C114.002 310.169 114.362 310.079 114.672 309.899C114.989 309.711 115.233 309.438 115.406 309.078H117.146C116.894 309.848 116.451 310.45 115.817 310.882C115.19 311.307 114.452 311.52 113.602 311.52C112.882 311.52 112.23 311.357 111.646 311.033C111.07 310.702 110.612 310.245 110.274 309.661C109.943 309.078 109.777 308.415 109.777 307.673ZM121.096 311.552C120.52 311.552 120.001 311.426 119.54 311.174C119.079 310.914 118.715 310.551 118.449 310.082C118.189 309.614 118.06 309.074 118.06 308.462C118.06 307.849 118.193 307.309 118.46 306.841C118.733 306.373 119.104 306.013 119.573 305.76C120.041 305.501 120.563 305.371 121.139 305.371C121.716 305.371 122.238 305.501 122.706 305.76C123.174 306.013 123.542 306.373 123.808 306.841C124.082 307.309 124.219 307.849 124.219 308.462C124.219 309.074 124.078 309.614 123.797 310.082C123.524 310.551 123.149 310.914 122.674 311.174C122.205 311.426 121.68 311.552 121.096 311.552ZM121.096 310.234C121.37 310.234 121.626 310.169 121.863 310.039C122.108 309.902 122.303 309.701 122.447 309.434C122.591 309.168 122.663 308.843 122.663 308.462C122.663 307.893 122.512 307.457 122.209 307.154C121.914 306.845 121.55 306.69 121.118 306.69C120.685 306.69 120.322 306.845 120.026 307.154C119.738 307.457 119.594 307.893 119.594 308.462C119.594 309.031 119.735 309.47 120.016 309.78C120.304 310.082 120.664 310.234 121.096 310.234ZM128.646 305.382C129.359 305.382 129.935 305.609 130.374 306.063C130.814 306.51 131.033 307.136 131.033 307.943V311.455H129.521V308.148C129.521 307.673 129.402 307.309 129.164 307.057C128.926 306.798 128.602 306.668 128.192 306.668C127.774 306.668 127.443 306.798 127.198 307.057C126.96 307.309 126.841 307.673 126.841 308.148V311.455H125.328V305.469H126.841V306.214C127.043 305.955 127.299 305.753 127.608 305.609C127.925 305.458 128.271 305.382 128.646 305.382ZM135.789 305.382C136.502 305.382 137.079 305.609 137.518 306.063C137.957 306.51 138.177 307.136 138.177 307.943V311.455H136.664V308.148C136.664 307.673 136.546 307.309 136.308 307.057C136.07 306.798 135.746 306.668 135.335 306.668C134.918 306.668 134.586 306.798 134.341 307.057C134.104 307.309 133.985 307.673 133.985 308.148V311.455H132.472V305.469H133.985V306.214C134.186 305.955 134.442 305.753 134.752 305.609C135.069 305.458 135.415 305.382 135.789 305.382ZM145.18 308.332C145.18 308.548 145.166 308.743 145.137 308.916H140.761C140.797 309.348 140.948 309.686 141.215 309.931C141.481 310.176 141.809 310.299 142.198 310.299C142.76 310.299 143.16 310.057 143.397 309.575H145.029C144.856 310.151 144.525 310.626 144.035 311.001C143.545 311.368 142.944 311.552 142.23 311.552C141.654 311.552 141.136 311.426 140.675 311.174C140.221 310.914 139.864 310.551 139.605 310.082C139.353 309.614 139.227 309.074 139.227 308.462C139.227 307.842 139.353 307.298 139.605 306.83C139.857 306.362 140.21 306.002 140.664 305.75C141.118 305.497 141.64 305.371 142.23 305.371C142.8 305.371 143.307 305.494 143.754 305.739C144.208 305.984 144.557 306.333 144.802 306.787C145.054 307.234 145.18 307.749 145.18 308.332ZM143.614 307.9C143.606 307.511 143.466 307.201 143.192 306.971C142.918 306.733 142.583 306.614 142.187 306.614C141.813 306.614 141.496 306.729 141.236 306.96C140.984 307.183 140.829 307.496 140.772 307.9H143.614ZM145.895 308.462C145.895 307.842 146.022 307.302 146.274 306.841C146.526 306.373 146.875 306.013 147.322 305.76C147.768 305.501 148.28 305.371 148.856 305.371C149.598 305.371 150.21 305.559 150.693 305.933C151.183 306.301 151.511 306.819 151.676 307.489H150.045C149.958 307.23 149.81 307.028 149.602 306.884C149.4 306.733 149.148 306.657 148.845 306.657C148.413 306.657 148.071 306.816 147.819 307.133C147.567 307.442 147.441 307.885 147.441 308.462C147.441 309.031 147.567 309.474 147.819 309.791C148.071 310.1 148.413 310.255 148.845 310.255C149.458 310.255 149.857 309.982 150.045 309.434H151.676C151.511 310.082 151.183 310.598 150.693 310.979C150.203 311.361 149.591 311.552 148.856 311.552C148.28 311.552 147.768 311.426 147.322 311.174C146.875 310.914 146.526 310.554 146.274 310.093C146.022 309.625 145.895 309.081 145.895 308.462ZM154.546 306.711V309.607C154.546 309.809 154.592 309.956 154.686 310.05C154.787 310.136 154.953 310.18 155.183 310.18H155.885V311.455H154.935C153.66 311.455 153.022 310.835 153.022 309.596V306.711H152.309V305.469H153.022V303.988H154.546V305.469H155.885V306.711H154.546Z" fill="white"/>
<rect x="18.5651" y="348.088" width="263.954" height="55.5692" rx="12.3487" fill="#2C2D3A"/>
<path d="M37.6128 377.795L38.2324 377.527L45.8644 374.204L54.1161 377.795L51.0182 384.202L43.4425 385.272L37.7395 379.118L37.6128 377.795Z" fill="#133444"/>
<path d="M52.4123 373.852C51.0464 372.204 49.1172 371.148 47.005 370.867L46.8642 370.853C46.2024 370.768 45.5406 370.768 44.8788 370.853L44.738 370.867C42.6258 371.148 40.6966 372.219 39.3307 373.852L38.9928 374.415L38.4154 375.359L37.993 376.049C37.993 376.063 37.9789 376.091 37.9648 376.105V376.119L38.8801 376.668L44.7239 380.132L45.8504 380.794V372.528L44.7239 373.035V371.796L45.8504 371.289L46.9769 371.796L52.7221 374.415L52.4123 373.852Z" fill="#C42370"/>
<path d="M54.3696 379.85C54.3556 382.568 53.1305 385.131 51.0324 386.849C50.2297 387.511 49.3285 388.003 48.3428 388.341C47.5402 388.609 46.7094 388.736 45.8645 388.736C41.1614 388.736 37.3453 384.553 37.3453 379.85C37.3453 379.16 37.4298 378.47 37.5988 377.794L45.8504 382.681L54.1021 377.794C54.2852 378.47 54.3837 379.16 54.3696 379.85Z" fill="#1C4D6B"/>
<path d="M44.8789 370.852L45.8645 371.289L44.738 371.81V370.782L44.8789 370.852Z" fill="black"/>
<path d="M44.738 373.049L45.8645 372.528V380.808L44.738 380.132V373.049Z" fill="black"/>
<path d="M45.8645 372.528V380.808L53.7782 376.133L45.8645 372.528Z" fill="#1D4259"/>
<path d="M45.8645 363.009V372.528L53.7782 376.133L45.8645 363.009Z" fill="#4B6B9A"/>
<path d="M45.8645 372.528V380.794L44.738 380.132L37.9649 376.133H37.9508H37.9649C37.9649 376.119 37.979 376.091 37.993 376.077L38.9787 374.429L44.7239 371.824V373.049L45.8645 372.528Z" fill="#343535"/>
<path d="M45.8645 372.528V380.808L44.738 380.132L37.9648 376.133L37.9789 376.119L44.738 373.049L45.8645 372.528Z" fill="#3E5578"/>
<path d="M45.8645 363.009V372.528L37.9648 376.133L45.8645 363.009Z" fill="#6DB2D8"/>
<path d="M42.6681 388.06C42.7807 388.116 42.9075 388.159 43.0201 388.201C42.9075 388.159 42.7948 388.102 42.6681 388.06Z" fill="#335F8A"/>
<path d="M43.0203 388.201C43.1329 388.243 43.2596 388.3 43.3864 388.328C43.2737 388.3 43.147 388.257 43.0203 388.201Z" fill="#335F8A"/>
<path d="M43.7101 388.426C43.8087 388.454 43.8931 388.482 43.9917 388.496C43.8931 388.482 43.7946 388.454 43.7101 388.426Z" fill="#335F8A"/>
<path d="M37.6131 377.794L45.8647 382.681C45.7521 383.427 45.5549 384.145 45.2733 384.849C44.6115 386.454 43.2878 388.144 40.6969 386.849C38.5988 385.131 37.3737 382.568 37.3596 379.85C37.3596 379.16 37.4441 378.47 37.6131 377.794Z" fill="#6DB2D8"/>
<path d="M51.0323 386.849L51.0042 386.863C50.9619 386.891 50.9197 386.934 50.8774 386.962L50.8633 386.976C50.8211 387.018 50.7648 387.046 50.7225 387.089C50.6662 387.131 50.624 387.173 50.5676 387.201C50.5113 387.229 50.455 387.272 50.4127 387.314C50.3564 387.356 50.3142 387.37 50.2719 387.412L50.2438 387.427C50.1874 387.455 50.1452 387.483 50.103 387.525C50.103 387.525 50.0889 387.525 50.0889 387.539C50.0325 387.567 49.9903 387.595 49.934 387.638C49.8777 387.666 49.8213 387.694 49.765 387.736C49.7087 387.764 49.6524 387.793 49.596 387.821L49.4271 387.905C49.3707 387.933 49.3144 387.962 49.2581 387.99C49.2017 388.018 49.1454 388.046 49.0891 388.074C48.9764 388.131 48.8497 388.173 48.7371 388.215C48.6244 388.257 48.4977 388.3 48.371 388.342C48.3287 388.356 48.2724 388.37 48.2301 388.384L48.0612 388.44C47.9626 388.469 47.8781 388.497 47.7795 388.511C47.7514 388.525 47.7091 388.525 47.6669 388.539L47.6106 388.553L47.4557 388.581C47.3993 388.595 47.3712 388.595 47.3149 388.609C47.2726 388.623 47.2304 388.623 47.1881 388.637C47.1459 388.637 47.0896 388.652 47.0473 388.666C47.0191 388.666 47.0051 388.666 46.9769 388.68L46.8643 388.694H46.8079C46.7657 388.694 46.7234 388.708 46.6953 388.708C46.653 388.708 46.5967 388.722 46.5545 388.722C46.5122 388.722 46.4841 388.722 46.4418 388.722C46.3996 388.722 46.3714 388.722 46.3432 388.722C46.301 388.722 46.2588 388.722 46.2306 388.722C46.2024 388.722 46.1179 388.722 46.0757 388.722H45.7377C45.6814 388.722 45.6251 388.722 45.5829 388.722C45.5406 388.722 45.4984 388.722 45.4702 388.722C45.442 388.722 45.3998 388.722 45.3716 388.722C45.3435 388.722 45.3012 388.722 45.259 388.722C45.2167 388.722 45.1604 388.708 45.1182 388.708C45.0759 388.708 45.0337 388.708 45.0055 388.694H44.9492C44.921 388.694 44.8788 388.68 44.8365 388.68C44.8084 388.68 44.7943 388.68 44.7661 388.666C44.7239 388.666 44.6676 388.652 44.6253 388.637C44.5831 388.637 44.5408 388.623 44.4986 388.609C44.4563 388.609 44.4 388.595 44.3578 388.581C44.3155 388.567 44.2592 388.553 44.2029 388.553L44.1466 388.539C44.1043 388.539 44.0621 388.525 44.0339 388.525C43.9353 388.497 43.8368 388.469 43.7523 388.454L43.5833 388.398C43.527 388.384 43.4847 388.37 43.4425 388.356C43.3158 388.314 43.2031 388.271 43.0764 388.229C42.9496 388.187 42.837 388.131 42.7243 388.088C42.668 388.06 42.6117 388.032 42.5554 388.004L42.3864 387.919L42.2174 387.835C42.1611 387.807 42.1048 387.779 42.0484 387.75C41.9921 387.722 41.9358 387.694 41.8795 387.652C41.8231 387.624 41.7809 387.595 41.7246 387.553L41.7105 387.539C41.6542 387.511 41.6119 387.483 41.5697 387.441L41.5415 387.427C41.4993 387.398 41.4429 387.37 41.4007 387.328C41.3585 387.3 41.2881 387.258 41.2458 387.215C41.1895 387.173 41.1332 387.145 41.0909 387.103L40.9501 386.99L40.936 386.976C40.8938 386.948 40.8515 386.905 40.8093 386.877L40.7811 386.863C43.358 388.145 44.6957 386.455 45.3576 384.864C45.6392 384.174 45.8363 383.441 45.949 382.695C46.0616 383.441 46.2588 384.16 46.5404 384.864C47.1177 386.441 48.4554 388.131 51.0323 386.849Z" fill="#529BBA"/>
<path d="M47.7513 388.51C47.8499 388.482 47.9485 388.454 48.033 388.44C47.9485 388.454 47.8499 388.482 47.7513 388.51Z" fill="#335F8A"/>
<path d="M48.343 388.328C48.4697 388.286 48.5824 388.243 48.7091 388.201C48.5965 388.257 48.4697 388.3 48.343 388.328Z" fill="#335F8A"/>
<path d="M48.7091 388.201C48.8217 388.159 48.9485 388.102 49.0611 388.06C48.9485 388.102 48.8358 388.159 48.7091 388.201Z" fill="#335F8A"/>
<path d="M54.3696 379.85C54.3556 382.568 53.1305 385.131 51.0324 386.849C48.4555 388.13 47.1177 386.44 46.4559 384.849C46.1743 384.159 45.9772 383.427 45.8645 382.681L54.1162 377.794C54.2852 378.47 54.3696 379.16 54.3696 379.85Z" fill="#4B6B9A"/>
<path d="M80.3796 374.165C80.3796 374.568 80.2824 374.946 80.0879 375.299C79.9006 375.652 79.6017 375.937 79.1911 376.153C78.7877 376.369 78.2762 376.477 77.6567 376.477H76.3925V379.373H74.8798V371.831H77.6567C78.2402 371.831 78.7373 371.932 79.1479 372.133C79.5585 372.335 79.8646 372.612 80.0663 372.965C80.2752 373.318 80.3796 373.718 80.3796 374.165ZM77.5919 375.256C78.0097 375.256 78.3195 375.162 78.5212 374.975C78.7229 374.781 78.8237 374.51 78.8237 374.165C78.8237 373.43 78.4131 373.063 77.5919 373.063H76.3925V375.256H77.5919ZM84.1117 379.47C83.5354 379.47 83.0168 379.344 82.5558 379.092C82.0948 378.833 81.731 378.469 81.4645 378.001C81.2051 377.532 81.0755 376.992 81.0755 376.38C81.0755 375.767 81.2087 375.227 81.4753 374.759C81.749 374.291 82.12 373.931 82.5882 373.679C83.0564 373.419 83.5787 373.29 84.1549 373.29C84.7312 373.29 85.2535 373.419 85.7217 373.679C86.1899 373.931 86.5573 374.291 86.8238 374.759C87.0975 375.227 87.2344 375.767 87.2344 376.38C87.2344 376.992 87.0939 377.532 86.813 378.001C86.5393 378.469 86.1647 378.833 85.6893 379.092C85.221 379.344 84.6952 379.47 84.1117 379.47ZM84.1117 378.152C84.3854 378.152 84.6412 378.087 84.8789 377.957C85.1238 377.82 85.3183 377.619 85.4624 377.352C85.6064 377.086 85.6785 376.762 85.6785 376.38C85.6785 375.811 85.5272 375.375 85.2246 375.072C84.9293 374.763 84.5655 374.608 84.1333 374.608C83.7011 374.608 83.3373 374.763 83.042 375.072C82.7539 375.375 82.6098 375.811 82.6098 376.38C82.6098 376.949 82.7503 377.388 83.0312 377.698C83.3193 378.001 83.6795 378.152 84.1117 378.152ZM89.8568 374.316C90.0512 373.999 90.3034 373.751 90.6131 373.57C90.9301 373.39 91.2902 373.3 91.6936 373.3V374.889H91.2938C90.8184 374.889 90.4582 375 90.2133 375.224C89.9756 375.447 89.8568 375.836 89.8568 376.391V379.373H88.344V373.387H89.8568V374.316ZM94.4737 374.629V377.525C94.4737 377.727 94.5206 377.874 94.6142 377.968C94.7151 378.055 94.8807 378.098 95.1113 378.098H95.8136V379.373H94.8627C93.5877 379.373 92.9502 378.753 92.9502 377.514V374.629H92.2371V373.387H92.9502V371.906H94.4737V373.387H95.8136V374.629H94.4737ZM97.6688 372.674C97.4022 372.674 97.1789 372.591 96.9989 372.425C96.826 372.252 96.7395 372.04 96.7395 371.788C96.7395 371.535 96.826 371.327 96.9989 371.161C97.1789 370.988 97.4022 370.902 97.6688 370.902C97.9353 370.902 98.155 370.988 98.3279 371.161C98.508 371.327 98.598 371.535 98.598 371.788C98.598 372.04 98.508 372.252 98.3279 372.425C98.155 372.591 97.9353 372.674 97.6688 372.674ZM98.4143 373.387V379.373H96.9016V373.387H98.4143ZM102.2 379.47C101.71 379.47 101.27 379.384 100.881 379.211C100.492 379.031 100.183 378.789 99.9521 378.487C99.7288 378.184 99.6064 377.849 99.5847 377.482H101.108C101.137 377.712 101.249 377.903 101.443 378.055C101.645 378.206 101.893 378.281 102.189 378.281C102.477 378.281 102.7 378.224 102.859 378.109C103.024 377.993 103.107 377.846 103.107 377.666C103.107 377.471 103.006 377.327 102.805 377.233C102.61 377.133 102.297 377.024 101.865 376.909C101.418 376.801 101.051 376.69 100.763 376.574C100.482 376.459 100.237 376.283 100.028 376.045C99.8261 375.807 99.7252 375.487 99.7252 375.083C99.7252 374.752 99.8189 374.449 100.006 374.176C100.201 373.902 100.474 373.686 100.827 373.527C101.188 373.369 101.609 373.29 102.092 373.29C102.805 373.29 103.374 373.47 103.799 373.83C104.224 374.183 104.458 374.662 104.501 375.267H103.053C103.032 375.029 102.931 374.842 102.751 374.705C102.578 374.561 102.344 374.489 102.048 374.489C101.775 374.489 101.562 374.539 101.411 374.64C101.267 374.741 101.195 374.881 101.195 375.062C101.195 375.263 101.296 375.418 101.497 375.526C101.699 375.627 102.012 375.731 102.437 375.84C102.87 375.948 103.226 376.059 103.507 376.174C103.788 376.29 104.029 376.47 104.231 376.715C104.44 376.952 104.548 377.269 104.555 377.666C104.555 378.011 104.458 378.321 104.263 378.595C104.076 378.869 103.802 379.085 103.442 379.243C103.089 379.394 102.675 379.47 102.2 379.47Z" fill="white"/>
<defs>
<radialGradient id="paint0_radial_1748_6103" cx="0" cy="0" r="1" gradientUnits="userSpaceOnUse" gradientTransform="translate(30.9138 307.955) scale(30.8718)">
<stop stop-color="#5D9DF6"/>
<stop offset="1" stop-color="#006FFF"/>
</radialGradient>
<clipPath id="clip0_1748_6103">
<rect width="30.8718" height="30.8718" fill="white" transform="translate(30.9138 292.519)"/>
</clipPath>
</defs>
</svg>
