<svg width="86" height="86" viewBox="0 0 86 86" fill="none" xmlns="http://www.w3.org/2000/svg">
<path d="M29.0984 58.2918C29.3483 58.6513 29.7239 58.9019 30.1616 58.9641C30.2398 58.9794 30.3179 58.9794 30.3961 58.9794C30.7556 58.9794 31.0998 58.8545 31.3811 58.6353L66.8451 29.8012C67.5173 29.2539 67.6116 28.2689 67.0797 27.5967C66.5331 26.9252 65.5634 26.8156 64.8912 27.3628L30.7407 55.1336L21.4216 41.295C20.9371 40.576 19.9675 40.3883 19.2478 40.8727C18.5288 41.3572 18.341 42.3268 18.8255 43.0465L29.0984 58.2918Z" fill="#00BF76"/>
<path d="M43 86C66.7052 86 86 66.7034 86 43C86 19.2966 66.7034 0 43 0C19.2966 0 0 19.2966 0 43C0 66.7034 19.2966 86 43 86ZM43 3.12555C64.9843 3.12555 82.8727 21.0139 82.8727 42.9982C82.8727 64.9825 64.9843 82.8709 43 82.8709C21.0157 82.8709 3.12734 64.9825 3.12734 42.9982C3.12734 21.0139 21.0157 3.12555 43 3.12555Z" fill="#00BF76"/>
</svg>
