<svg width="153" height="71" viewBox="0 0 153 71" fill="none" xmlns="http://www.w3.org/2000/svg">
<g clip-path="url(#clip0_895_4059)">
<path d="M61.2666 36.3175V35.5614C61.2666 35.3416 61.3392 35.1592 61.4848 35.0145C61.63 34.8697 61.813 34.7973 62.034 34.7973H72.2885C72.5095 34.7973 72.6926 34.8697 72.8382 35.0145C72.9834 35.1592 73.0565 35.3416 73.0565 35.5614V36.3175C73.0565 36.5374 72.9834 36.7197 72.8382 36.8645C72.6926 37.004 72.5095 37.0737 72.2885 37.0737H68.6845V45.5922C68.6845 45.8013 68.6092 45.9783 68.4581 46.123C68.3129 46.2625 68.1348 46.3322 67.9248 46.3322H66.3977C66.1877 46.3322 66.0074 46.2625 65.8562 46.123C65.7111 45.9783 65.638 45.8013 65.638 45.5922V37.0737H62.034C61.813 37.0737 61.63 37.004 61.4848 36.8645C61.3392 36.7197 61.2666 36.5374 61.2666 36.3175ZM86.4136 45.9863C86.4136 46.2169 86.2762 46.3322 86.0013 46.3322H84.0624C83.8574 46.3322 83.6315 46.2598 83.3835 46.115C83.1411 45.9648 82.9553 45.7852 82.8261 45.5761L81.4524 43.4364C80.8867 42.5569 80.2023 42.1172 79.3997 42.1172H77.4279V45.5761C77.4279 45.7852 77.3525 45.9648 77.2019 46.115C77.0562 46.2598 76.8787 46.3322 76.6681 46.3322H75.1493C74.9393 46.3322 74.7584 46.2598 74.6078 46.115C74.4572 45.9648 74.3813 45.7852 74.3813 45.5761V35.5614C74.3813 35.3523 74.4544 35.1727 74.5995 35.0225C74.7452 34.8723 74.9228 34.7973 75.1328 34.7973H81.7998C83.0333 34.7973 84.0432 35.1271 84.8298 35.7866C85.622 36.4462 86.0178 37.3365 86.0178 38.4572C86.0178 40.0178 85.0025 40.9964 82.9712 41.3932C83.2945 41.5112 83.5935 41.715 83.8684 42.0046C84.1432 42.2888 84.4582 42.7044 84.8139 43.2514L86.2844 45.5761C86.3707 45.7263 86.4136 45.863 86.4136 45.9863ZM77.4279 39.8408H80.8702C81.4254 39.8408 81.9125 39.7309 82.333 39.511C82.7585 39.2911 82.9712 38.9399 82.9712 38.4572C82.9712 37.9746 82.7585 37.6234 82.333 37.4035C81.9125 37.1836 81.4254 37.0737 80.8702 37.0737H77.4279V39.8408ZM87.6015 41.7713V35.5614C87.6015 35.3523 87.6741 35.1727 87.8198 35.0225C87.9704 34.8723 88.1562 34.7973 88.3772 34.7973H89.8884C90.0929 34.7973 90.271 34.8723 90.4216 35.0225C90.5728 35.1727 90.6481 35.3523 90.6481 35.5614V41.7874C90.6481 42.5757 90.8201 43.1629 91.1654 43.549C91.5155 43.9351 92.0543 44.1282 92.7816 44.1282H94.0739C94.8012 44.1282 95.3378 43.9351 95.6824 43.549C96.0326 43.1629 96.2074 42.5757 96.2074 41.7874V35.5614C96.2074 35.3523 96.28 35.1727 96.4257 35.0225C96.5763 34.8723 96.7571 34.7973 96.9671 34.7973H98.4701C98.6911 34.7973 98.8769 34.8723 99.0275 35.0225C99.1787 35.1727 99.254 35.3523 99.254 35.5614V41.7713C99.254 43.2407 98.8202 44.3802 97.9528 45.19C97.0859 45.9943 95.8199 46.3965 94.1548 46.3965H92.7007C91.0307 46.3965 89.7619 45.9943 88.8945 45.19C88.0325 44.3802 87.6015 43.2407 87.6015 41.7713ZM100.741 43.3801C100.741 43.0637 100.835 42.8385 101.024 42.7044C101.212 42.565 101.395 42.4953 101.573 42.4953H102.535C103.02 42.4953 103.388 42.758 103.642 43.2836C103.895 43.8091 104.463 44.0719 105.347 44.0719L108.175 44.1282C109.123 44.1282 109.598 43.8198 109.598 43.2032C109.598 42.7366 109.018 42.3693 107.86 42.1011C107.343 41.9778 106.772 41.8571 106.147 41.7391C105.522 41.6158 104.9 41.463 104.28 41.2806C103.666 41.0983 103.1 40.8838 102.583 40.6372C102.066 40.3905 101.646 40.0526 101.323 39.6236C101.005 39.1892 100.846 38.6798 100.846 38.0953C100.846 37.0174 101.231 36.1888 102.001 35.6097C102.772 35.0252 104.097 34.7329 105.977 34.7329L108.03 34.7812C109.134 34.7812 110.128 35.0654 111.011 35.6338C111.9 36.1969 112.344 36.9021 112.344 37.7494C112.344 38.0658 112.25 38.2936 112.062 38.4331C111.873 38.5725 111.693 38.6422 111.52 38.6422H110.559C110.074 38.6422 109.705 38.3794 109.452 37.854C109.198 37.323 108.631 37.0576 107.747 37.0576L105.315 37.0093C104.366 37.0093 103.893 37.3177 103.893 37.9344C103.893 38.2722 104.191 38.5484 104.789 38.7629C105.393 38.9774 106.12 39.1678 106.971 39.334C107.827 39.4949 108.687 39.6906 109.549 39.9212C110.411 40.1518 111.141 40.5326 111.739 41.0634C112.342 41.589 112.644 42.2459 112.644 43.0342C112.644 44.1121 112.256 44.9433 111.48 45.5278C110.71 46.107 109.387 46.3965 107.512 46.3965L105.064 46.3483C103.96 46.3483 102.963 46.0667 102.074 45.5037C101.185 44.9353 100.741 44.2274 100.741 43.3801ZM113.064 36.3175V35.5614C113.064 35.3416 113.137 35.1592 113.282 35.0145C113.427 34.8697 113.61 34.7973 113.831 34.7973H124.086C124.307 34.7973 124.49 34.8697 124.636 35.0145C124.781 35.1592 124.854 35.3416 124.854 35.5614V36.3175C124.854 36.5374 124.781 36.7197 124.636 36.8645C124.49 37.004 124.307 37.0737 124.086 37.0737H120.482V45.5922C120.482 45.8013 120.407 45.9783 120.256 46.123C120.11 46.2625 119.932 46.3322 119.722 46.3322H118.195C117.985 46.3322 117.805 46.2625 117.654 46.123C117.509 45.9783 117.435 45.8013 117.435 45.5922V37.0737H113.831C113.61 37.0737 113.427 37.004 113.282 36.8645C113.137 36.7197 113.064 36.5374 113.064 36.3175ZM126.179 45.56V35.5453C126.179 35.3362 126.255 35.1592 126.405 35.0145C126.556 34.8697 126.737 34.7973 126.947 34.7973H136.264C136.474 34.7973 136.651 34.8723 136.797 35.0225C136.948 35.1727 137.023 35.3523 137.023 35.5614V36.3175C137.023 36.5267 136.948 36.7063 136.797 36.8565C136.651 37.0013 136.474 37.0737 136.264 37.0737H129.225V39.4145H135.286C135.496 39.4145 135.674 39.4895 135.819 39.6397C135.97 39.7845 136.046 39.9614 136.046 40.1706V40.9267C136.046 41.1358 135.97 41.3155 135.819 41.4656C135.674 41.6104 135.496 41.6828 135.286 41.6828H129.225V44.0558H136.247C136.452 44.0558 136.627 44.1282 136.773 44.273C136.918 44.4178 136.991 44.5947 136.991 44.8039V45.5761C136.991 45.7852 136.915 45.9648 136.765 46.115C136.614 46.2598 136.433 46.3322 136.223 46.3322H126.947C126.737 46.3322 126.556 46.2598 126.405 46.115C126.255 45.9648 126.179 45.7799 126.179 45.56ZM138.51 45.5922V35.5775C138.51 35.3577 138.585 35.1727 138.737 35.0225C138.887 34.8723 139.068 34.7973 139.278 34.7973H143.795C146.133 34.7973 147.833 35.2638 148.894 36.1969C149.961 37.1246 150.494 38.5832 150.494 40.5728C150.494 42.5569 149.961 44.0129 148.894 44.9406C147.833 45.8684 146.133 46.3322 143.795 46.3322H139.278C139.068 46.3322 138.887 46.2625 138.737 46.123C138.585 45.9783 138.51 45.8013 138.51 45.5922ZM141.557 44.0558H143.706C145.155 44.0558 146.141 43.793 146.664 43.2675C147.186 42.742 147.447 41.8437 147.447 40.5728C147.447 39.2965 147.186 38.3955 146.664 37.87C146.141 37.3391 145.155 37.0737 143.706 37.0737H141.557V44.0558Z" fill="#6F7689"/>
<path d="M63.2671 63.2751C63.2671 62.9587 63.3611 62.7335 63.5496 62.5994C63.7382 62.46 63.9213 62.3903 64.0994 62.3903H65.0608C65.5457 62.3903 65.9145 62.6531 66.168 63.1786C66.4214 63.7042 66.9893 63.9669 67.8732 63.9669L70.7015 64.0232C71.6492 64.0232 72.1237 63.7149 72.1237 63.0982C72.1237 62.6316 71.5442 62.2643 70.386 61.9961C69.8687 61.8728 69.2981 61.7521 68.6731 61.6342C68.048 61.5108 67.4257 61.358 66.8062 61.1757C66.1922 60.9934 65.6265 60.7789 65.1092 60.5322C64.5925 60.2855 64.1719 59.9476 63.8487 59.5186C63.531 59.0842 63.3721 58.5748 63.3721 57.9903C63.3721 56.9124 63.7574 56.0839 64.5276 55.5047C65.2978 54.9202 66.6231 54.6279 68.5032 54.6279L70.5558 54.6762C71.6602 54.6762 72.6541 54.9604 73.5375 55.5289C74.4264 56.092 74.8712 56.7971 74.8712 57.6444C74.8712 57.9608 74.7766 58.1887 74.5881 58.3281C74.3995 58.4676 74.2192 58.5373 74.0466 58.5373H73.0851C72.6003 58.5373 72.2314 58.2745 71.978 57.749C71.7246 57.2181 71.1567 56.9526 70.2727 56.9526L67.8408 56.9043C66.8925 56.9043 66.4186 57.2127 66.4186 57.8294C66.4186 58.1673 66.7177 58.4434 67.3152 58.658C67.9188 58.8724 68.6461 59.0628 69.4971 59.229C70.3535 59.3899 71.2128 59.5856 72.0747 59.8162C72.9367 60.0468 73.6667 60.4276 74.2648 60.9585C74.8684 61.484 75.1697 62.1409 75.1697 62.9292C75.1697 64.0071 74.7821 64.8383 74.0064 65.4229C73.2357 66.002 71.9131 66.2916 70.0386 66.2916L67.5901 66.2434C66.4857 66.2434 65.4891 65.9618 64.6002 65.3987C63.7113 64.8303 63.2671 64.1224 63.2671 63.2751ZM76.8265 65.455V55.4404C76.8265 55.2312 76.9018 55.0543 77.0525 54.9095C77.2036 54.7647 77.3839 54.6923 77.5939 54.6923H86.9111C87.1211 54.6923 87.2993 54.7674 87.4444 54.9175C87.5956 55.0677 87.6709 55.2473 87.6709 55.4565V56.2126C87.6709 56.4217 87.5956 56.6014 87.4444 56.7515C87.2993 56.8963 87.1211 56.9687 86.9111 56.9687H79.8731V59.3095H85.9332C86.1437 59.3095 86.3213 59.3845 86.467 59.5347C86.6176 59.6795 86.6929 59.8565 86.6929 60.0656V60.8218C86.6929 61.0309 86.6176 61.2106 86.467 61.3607C86.3213 61.5054 86.1437 61.5778 85.9332 61.5778H79.8731V63.9508H86.8952C87.0997 63.9508 87.2751 64.0232 87.4202 64.168C87.5659 64.3128 87.6384 64.4897 87.6384 64.6989V65.4711C87.6384 65.6803 87.5631 65.8599 87.4119 66.0101C87.2613 66.1549 87.081 66.2273 86.871 66.2273H77.5939C77.3839 66.2273 77.2036 66.1549 77.0525 66.0101C76.9018 65.8599 76.8265 65.6749 76.8265 65.455ZM89.1579 65.455V55.4404C89.1579 55.2312 89.2332 55.0543 89.3838 54.9095C89.535 54.7647 89.7153 54.6923 89.9253 54.6923H99.2425C99.4525 54.6923 99.6301 54.7674 99.7757 54.9175C99.9264 55.0677 100.002 55.2473 100.002 55.4565V56.2126C100.002 56.4217 99.9264 56.6014 99.7757 56.7515C99.6301 56.8963 99.4525 56.9687 99.2425 56.9687H92.2039V59.3095H98.2645C98.4745 59.3095 98.6526 59.3845 98.7978 59.5347C98.9489 59.6795 99.0243 59.8565 99.0243 60.0656V60.8218C99.0243 61.0309 98.9489 61.2106 98.7978 61.3607C98.6526 61.5054 98.4745 61.5778 98.2645 61.5778H92.2039V63.9508H99.226C99.4311 63.9508 99.6059 64.0232 99.7515 64.168C99.8967 64.3128 99.9698 64.4897 99.9698 64.6989V65.4711C99.9698 65.6803 99.8945 65.8599 99.7433 66.0101C99.5927 66.1549 99.4124 66.2273 99.2018 66.2273H89.9253C89.7153 66.2273 89.535 66.1549 89.3838 66.0101C89.2332 65.8599 89.1579 65.6749 89.1579 65.455ZM101.489 65.4872V55.4726C101.489 55.2527 101.565 55.0677 101.715 54.9175C101.866 54.7674 102.047 54.6923 102.257 54.6923H106.774C109.112 54.6923 110.811 55.1588 111.872 56.092C112.939 57.0196 113.473 58.4783 113.473 60.4678C113.473 62.452 112.939 63.9079 111.872 64.8356C110.811 65.7634 109.112 66.2273 106.774 66.2273H102.257C102.047 66.2273 101.866 66.1575 101.715 66.0181C101.565 65.8733 101.489 65.6964 101.489 65.4872ZM104.535 63.9508H106.685C108.134 63.9508 109.12 63.6881 109.642 63.1625C110.165 62.637 110.426 61.7387 110.426 60.4678C110.426 59.1915 110.165 58.2906 109.642 57.7651C109.12 57.2342 108.134 56.9687 106.685 56.9687H104.535V63.9508Z" fill="#6F7689"/>
<path d="M32.7393 63.9826L41.5358 53.6288C41.8264 55.904 41.4913 61.2542 32.7393 63.9826ZM24.9221 61.5831V29.2338C21.944 31.5108 11.1967 41.6758 24.9221 61.5831ZM26.3187 29.2338V61.5831C40.0432 41.6758 29.2959 31.5108 26.3187 29.2338ZM24.9221 22.3212V0.000488281C24.0179 0.498166 22.2957 1.5988 20.1067 3.72263V16.6344C20.1059 16.9155 20.161 17.194 20.2689 17.4537C20.3768 17.7134 20.5353 17.9492 20.7351 18.1475L24.9221 22.3212ZM49.4184 39.9087C48.3448 35.9612 47.2057 32.3922 46.03 29.1634V45.1021L49.7928 41.3504C49.6759 40.8771 49.552 40.3977 49.4184 39.9087ZM44.6334 41.4983V25.5239C42.2297 19.5796 39.7246 14.9543 37.3522 11.3705V33.6755C37.3533 33.952 37.41 34.2254 37.5191 34.4795C37.6283 34.7336 37.7877 34.9632 37.9877 35.1547L44.6334 41.4983ZM31.6718 63.0846L40.6315 52.5412C38.6179 52.556 32.8021 53.4469 31.6718 63.0846ZM31.0538 7.5953V3.64607C28.9032 1.57183 27.2133 0.492076 26.3187 0.000488281V12.9906L30.5755 8.74642C30.7278 8.59572 30.8485 8.41634 30.9305 8.21874C31.0127 8.02108 31.0546 7.8092 31.0538 7.5953ZM11.902 34.4804V26.7942L7.79966 22.7049C7.30331 23.8325 6.80867 25.014 6.31579 26.2496V40.9258L11.2823 35.9743C11.4796 35.7792 11.6359 35.547 11.7424 35.2911C11.8487 35.0353 11.903 34.7608 11.902 34.4838V34.4804ZM10.7245 52.7248L19.7759 63.1421C18.4762 53.7088 12.8822 52.7413 10.7245 52.7283V52.7248ZM18.6333 63.953L9.69806 53.6732C9.42485 55.8395 9.6841 61.3603 18.6333 63.9563V63.953ZM50.1673 42.9435L46.0143 47.0824C45.938 48.0009 45.5758 48.8727 44.9782 49.576L42.6844 52.2732C42.8921 52.9902 43.5799 55.9555 41.8622 59.1025C40.1942 62.1582 36.8486 64.3635 31.9188 65.6593L31.2206 65.842L31.1786 65.807L28.6344 68.8019C28.4949 69.1653 28.2906 69.5002 28.0312 69.7913C28.417 69.8236 28.8167 69.8553 29.2112 69.8871C29.6416 69.9341 30.3721 69.9992 31.3113 70.0249C31.5252 70.0348 31.6971 70.0381 31.8097 70.0348C38.9111 70.1185 55.6103 67.7507 50.1673 42.947V42.9435ZM22.4703 68.3696L20.2359 65.7977L19.5786 65.6407C14.6192 64.4631 11.2221 62.3349 9.48252 59.3198C7.54046 55.9544 8.42898 52.7335 8.53634 52.3776L8.54678 52.3437L6.12559 49.5595C5.34776 48.6641 4.91951 47.5194 4.91928 46.335V29.97C3.84656 32.9847 2.80613 36.2875 1.8207 39.9087C-5.76251 67.7841 12.334 70.1607 19.6022 70.0397L19.6746 70.0348C19.8824 70.0348 20.0814 70.0249 20.2699 70.0173C21.0022 69.9943 21.7329 69.9336 22.459 69.8356V69.8225L23.1843 69.7678C22.8347 69.3683 22.5896 68.8895 22.4703 68.3729V68.3696ZM28.6727 66.6109L30.1138 64.9145L30.1626 64.213C30.5196 59.1562 32.0637 55.4734 34.7529 53.2677C36.4249 51.8997 38.5199 51.15 40.683 51.1456C40.9522 51.1437 41.2212 51.1583 41.4886 51.1891L41.7504 51.2231L43.9151 48.6764C44.3797 48.1288 44.6348 47.435 44.6351 46.7178V43.4221L37.0223 36.1674C36.6858 35.8456 36.418 35.4594 36.2347 35.032C36.0514 34.6046 35.9565 34.1447 35.9557 33.6799V9.35547C34.875 7.85769 33.7044 6.42644 32.4504 5.0695V7.59267C32.4513 7.98946 32.3736 8.38252 32.2213 8.74916C32.0691 9.11574 31.8455 9.44866 31.5635 9.72873L26.3187 14.9569V27.5311L26.3745 27.5668C26.6651 27.7486 28.197 28.7562 29.8658 30.6825C30.834 31.7983 31.6698 33.0216 32.357 34.3281C33.204 35.9415 33.8117 37.6689 34.1611 39.4563C34.7974 42.6955 34.6132 46.1906 33.6156 49.844C32.4477 54.1178 30.1426 58.668 26.7647 63.3703L26.3475 63.9514H26.3187V64.5183C26.8577 64.6393 27.3569 64.8948 27.7689 65.2614C28.1809 65.6286 28.492 66.0943 28.6727 66.6147V66.6109ZM9.58284 51.4101L9.67014 51.3971C10.0041 51.351 10.3411 51.3292 10.6783 51.3318C12.851 51.3349 14.9556 52.0878 16.6345 53.4626C19.2661 55.6239 20.8355 59.2196 21.3007 64.1511L21.3679 64.862L21.3138 64.909L22.6371 66.4325C22.8364 65.9542 23.1482 65.5307 23.5462 65.1974C23.9442 64.8642 24.4167 64.6316 24.9239 64.5183V63.9514H24.8942L24.477 63.3703C21.0991 58.6719 18.7939 54.1178 17.6261 49.844C16.6284 46.1897 16.4442 42.6955 17.0805 39.4563C17.4299 37.6689 18.0376 35.9415 18.8847 34.3281C19.5718 33.0216 20.4077 31.7983 21.3758 30.6825C23.0447 28.7562 24.5765 27.7486 24.8672 27.5668L24.9239 27.5311V24.2866L19.7497 19.1289C19.4195 18.8019 19.1577 18.4128 18.9795 17.9841C18.8014 17.5554 18.7104 17.0958 18.7118 16.6318V5.15477C17.0604 6.94104 15.2205 9.26759 13.3002 12.2771V34.4838C13.3014 34.9437 13.2112 35.3992 13.0347 35.8241C12.8582 36.2489 12.599 36.6348 12.2721 36.9592L6.31579 42.8939V46.3368C6.31596 47.1862 6.62303 48.0072 7.18083 48.6494L9.58284 51.4101ZM11.902 14.5715C10.7446 16.5639 9.57064 18.8114 8.41061 21.3423L11.902 24.8226V14.5715ZM27.9622 67.4421C27.9579 67.395 27.9526 67.3491 27.9456 67.3026C27.8939 66.96 27.7656 66.6328 27.5703 66.3455C27.4858 66.2207 27.3897 66.1042 27.2831 65.9974C27.0409 65.7561 26.7488 65.5695 26.4269 65.4519C26.3178 65.4119 26.2057 65.3802 26.0918 65.3572C26.0534 65.3495 26.0141 65.3424 25.9757 65.3364C25.8967 65.3244 25.8171 65.3162 25.7373 65.3129C25.6972 65.3129 25.6571 65.3129 25.6169 65.3129C25.3403 65.3129 25.0658 65.361 24.806 65.4557C24.7342 65.4809 24.6637 65.5099 24.5948 65.5427C24.5258 65.5755 24.4596 65.6122 24.3941 65.6516C24.3286 65.6905 24.2666 65.7331 24.2064 65.7775C24.1457 65.824 24.0874 65.8732 24.0318 65.9252C23.977 65.9745 23.9248 66.0265 23.8756 66.0812C23.8502 66.1091 23.8258 66.137 23.8014 66.1682C23.777 66.1994 23.735 66.2552 23.7045 66.2951C23.6739 66.3351 23.653 66.3685 23.6285 66.4068C23.6041 66.4451 23.5849 66.4768 23.564 66.5135C23.5231 66.5863 23.4861 66.6607 23.4531 66.7373C23.4369 66.7756 23.4211 66.8144 23.406 66.8549C23.3642 66.9698 23.3312 67.088 23.3074 67.2079C23.3012 67.2402 23.2952 67.2725 23.2908 67.3047C23.2787 67.383 23.2705 67.4618 23.2664 67.5411C23.2664 67.5811 23.2664 67.621 23.2664 67.6621C23.2664 67.7031 23.2664 67.7431 23.2664 67.783C23.284 68.1442 23.3859 68.496 23.564 68.8107C23.5849 68.8473 23.6058 68.8829 23.6285 68.9174C23.6512 68.9524 23.6774 68.9924 23.7045 69.029C23.7316 69.0657 23.7673 69.116 23.8014 69.156C23.8355 69.1959 23.8502 69.2134 23.8756 69.243C23.9248 69.2977 23.977 69.3497 24.0318 69.3989C24.0874 69.4509 24.1457 69.5002 24.2064 69.5467C24.2666 69.591 24.3295 69.6337 24.3941 69.6725L24.4028 69.678C24.4647 69.7152 24.5294 69.7492 24.5948 69.7814C24.6637 69.8143 24.7342 69.8433 24.806 69.8684C25.0658 69.9631 25.3403 70.0113 25.6169 70.0113C25.6571 70.0113 25.6972 70.0113 25.7373 70.0113C25.8171 70.008 25.8967 69.9998 25.9757 69.9877C26.0141 69.9817 26.0534 69.9746 26.0918 69.9669C26.2057 69.944 26.3178 69.9122 26.4269 69.8723C26.4927 69.8477 26.5572 69.8208 26.6207 69.7913C26.6835 69.7617 26.7446 69.7295 26.8049 69.6939C26.8485 69.6687 26.8921 69.6413 26.934 69.6134C27.1253 69.4854 27.2965 69.3294 27.442 69.151C27.4874 69.0952 27.5293 69.0383 27.5703 68.977C27.8096 68.6224 27.9478 68.2104 27.9701 67.7841C27.9701 67.7436 27.9701 67.7037 27.9701 67.6632C27.9701 67.6221 27.9701 67.5822 27.9701 67.5422C27.9701 67.5017 27.9692 67.4777 27.9622 67.4454V67.4421Z" fill="#6F7689"/>
</g>
<defs>
<clipPath id="clip0_895_4059">
<rect width="152.822" height="70.0436" fill="white"/>
</clipPath>
</defs>
</svg>
