<svg width="156" height="39" viewBox="0 0 156 39" fill="none" xmlns="http://www.w3.org/2000/svg">
<g opacity="0.6" clip-path="url(#clip0_2121_7707)">
<path fill-rule="evenodd" clip-rule="evenodd" d="M16.0795 2.2473L14.1108 0.104078C17.0744 -0.287695 24.8941 0.214696 32.4639 5.35843C32.5624 6.06887 32.5412 6.77704 32.5412 6.77704L32.7392 6.88697C33.1008 7.38327 33.516 8.31549 33.7638 9.46979C34.0108 10.6209 34.0798 11.9408 33.7941 13.1977C33.5053 14.4688 32.9565 15.519 32.419 16.2872C31.8688 17.0734 31.3648 17.5171 31.2052 17.6128L31.1547 17.6431C30.2201 17.8174 28.9292 18.5028 28.4048 20.2279C26.8703 21.1835 24.2776 22.2299 20.7531 22.2299C17.6294 22.2299 14.4494 21.3258 12.0655 19.5843C9.69606 17.8533 8.11118 15.2988 8.11118 11.9328C8.11118 9.26268 9.30788 7.17405 10.8366 5.6308C12.3774 4.07534 14.4842 2.81711 15.6903 2.4041L15.9891 2.3018L15.9713 2.28655L16.0795 2.2473ZM29.1082 6.44703C28.5123 7.11351 27.9551 7.43328 27.796 7.51999C24.3159 6.72522 23.0622 4.79228 23.0622 4.79228C26.3447 4.77053 29.3075 5.60879 31.4751 7.0268C31.4751 7.0268 30.3017 6.61855 29.1082 6.44703Z" fill="#6F7689"/>
<path d="M12.9425 2.61182C5.56061 4.37405 0 11.1304 0 19.2579C0 29.7972 8.90853 38.5057 19.8977 38.5057C28.1037 38.5057 34.9343 33.4884 38.5059 26.7755C33.8598 27.8774 28.3322 25.9851 28.059 21.8046C28.0674 21.772 28.0757 21.739 28.0841 21.7058C26.3502 22.5882 23.8761 23.3609 20.7542 23.3609C17.4315 23.3609 14.0076 22.4028 11.3994 20.4975C8.77686 18.5816 6.98116 15.7049 6.98116 11.9326C6.98116 8.89195 8.35265 6.532 10.0341 4.83459L10.0346 4.83398C10.8189 4.04978 11.8328 3.30168 12.7647 2.72113C12.8243 2.68405 12.8835 2.6476 12.9425 2.61182Z" fill="#6F7689"/>
<path d="M7.16064 11.9325C7.16064 8.95104 8.50422 6.63439 10.1612 4.96156C11.12 4.00277 12.4346 3.09287 13.5143 2.48584C12.4346 3.09287 11.12 4.00277 10.1612 4.96156C8.50422 6.63439 7.16064 8.95104 7.16064 11.9325Z" fill="#6F7689"/>
<path d="M32.6806 17.779C33.0201 17.9179 33.2276 18.1004 33.3363 18.2155C33.5972 18.492 34.2496 19.3217 33.4667 20.6353C35.0976 20.3587 37.6452 18.6994 37.8377 14.4821C37.9657 11.6786 36.5 9.63284 34.5663 8.1123C34.683 8.46438 34.7861 8.84049 34.8703 9.23247C35.143 10.5034 35.2281 11.9944 34.8976 13.4484C34.5705 14.8881 33.9511 16.0713 33.3464 16.9357C33.1223 17.2559 32.8954 17.5391 32.6806 17.779Z" fill="#6F7689"/>
<path d="M110.964 9.87939C113.783 9.87939 115.554 10.6765 117.232 12.1065L115.414 14.2867C114.156 13.2083 112.898 12.5519 110.847 12.5519C107.865 12.5519 105.558 15.1774 105.558 18.3188L105.56 18.5141C105.624 21.8139 107.821 24.2263 111.104 24.2263C112.666 24.2263 114.04 23.7341 115.042 22.9839V19.9363L117.814 17.4045V24.2966C116.183 25.6798 113.9 26.852 111.011 26.852C105.908 26.852 102.553 23.1948 102.553 18.4126L102.554 18.2161C102.628 13.6868 106.078 9.87939 110.964 9.87939ZM129.416 9.87939C134.427 9.87939 137.922 13.7006 137.922 18.3188L137.92 18.5136C137.845 23.0436 134.326 26.852 129.371 26.852C124.361 26.852 120.865 23.0308 120.865 18.4126L120.867 18.2177C120.942 13.6876 124.461 9.87939 129.416 9.87939ZM57.1863 10.0435L64.3627 26.5706L61.4454 26.5705L55.8116 13.4896L50.219 26.5705L47.3537 26.5706L54.5302 10.0435H57.1863ZM94.1497 10.0435L101.326 26.5706L98.4092 26.5705L92.7754 13.4896L87.1824 26.5705L84.3171 26.5706L91.4936 10.0435H94.1497ZM143.67 10.1608L152.407 21.507V10.1608H155.227V26.5706H152.827L143.833 14.8962V26.5706H141.014V10.1608H143.67ZM129.371 12.5519C126.132 12.5519 123.872 15.1306 123.872 18.3188L123.873 18.506C123.939 21.6306 126.203 24.1795 129.416 24.1795C132.656 24.1795 134.915 21.6008 134.915 18.4126L134.915 18.2254C134.849 15.1008 132.584 12.5519 129.371 12.5519Z" fill="#6F7689"/>
<path d="M75.1044 9.87939C77.1588 9.87939 78.7696 10.499 79.8202 11.5474C80.6839 12.4768 81.1742 13.6921 81.1742 15.1456L81.1735 15.2823C81.1398 17.9103 79.6083 19.5136 77.4456 20.2002L77.2988 20.2451L81.7111 26.5598H78.3026L74.2873 20.7455L72.1796 20.745L73.6587 18.1476L74.8942 18.1482C76.902 18.1482 78.1962 17.124 78.254 15.4761L78.256 15.3602L78.2554 15.2489C78.2267 13.4791 76.9935 12.5483 74.871 12.5483H70.6921L70.6917 17.7046L70.6894 17.7042V21.4241L70.6917 21.4228L70.6921 26.5598H67.8206V9.87939H75.1044Z" fill="#6F7689"/>
</g>
<defs>
<clipPath id="clip0_2121_7707">
<rect width="155.857" height="38.5059" fill="white"/>
</clipPath>
</defs>
</svg>
