<svg width="148" height="38" viewBox="0 0 148 38" fill="none" xmlns="http://www.w3.org/2000/svg">
<g opacity="0.6">
<path fill-rule="evenodd" clip-rule="evenodd" d="M19 34.2C27.3947 34.2 34.2 27.3947 34.2 19C34.2 10.6053 27.3947 3.8 19 3.8C10.6053 3.8 3.8 10.6053 3.8 19C3.8 27.3947 10.6053 34.2 19 34.2ZM19 38C29.4934 38 38 29.4934 38 19C38 8.50659 29.4934 0 19 0C8.50659 0 0 8.50659 0 19C0 29.4934 8.50659 38 19 38Z" fill="#6F7689"/>
<path d="M19.38 11.5437C14.8424 11.5437 11.1638 15.2223 11.1638 19.7599H7.31248C7.31248 13.0952 12.7153 7.69238 19.38 7.69238V11.5437Z" fill="#6F7689"/>
<path d="M54.662 20.0125C56.1517 20.0125 57.0971 20.7719 57.1544 21.9813H61.4229C61.2224 19.1125 58.6154 16.7219 54.5188 16.7219C50.3075 16.7219 47.5 19.675 47.5 23.2188C47.5 26.7625 50.1356 29.6875 54.5188 29.6875C58.3576 29.6875 60.9073 27.55 61.337 24.7938H57.1544C57.0111 25.9188 55.9798 26.4813 54.662 26.4813C52.6566 26.4813 52.0837 24.6812 52.0837 23.2469C52.0837 21.8406 52.7139 20.0125 54.662 20.0125Z" fill="#6F7689"/>
<path d="M68.3202 29.6438V8.3125H64.023V29.6438H68.3202Z" fill="#6F7689"/>
<path d="M78.8779 20.125C79.5368 20.125 80.167 20.3219 80.5968 20.8281H80.6541V17.0031C80.3103 16.8344 79.7373 16.7219 79.3649 16.7219C77.7893 16.7219 76.7006 17.5938 76.0417 18.5219V17.0031H71.7445V29.6438H76.0417V23.2188C76.0417 21.7281 77.2736 20.125 78.8779 20.125Z" fill="#6F7689"/>
<path d="M82.4262 27.2406C82.4262 28.5906 83.5435 29.6875 84.9472 29.6875C86.3223 29.6875 87.4683 28.5906 87.4683 27.2406C87.4683 25.8625 86.3223 24.7656 84.9472 24.7656C83.5435 24.7656 82.4262 25.8625 82.4262 27.2406Z" fill="#6F7689"/>
<path d="M95.6981 8.3125C93.4062 8.3125 91.6301 9.71875 91.6301 12.7844V17.0031H89.8252V20.2656H91.6301V29.6438H95.9273V20.2656H98.878V17.0031H95.9273V13.2906C95.9273 12.0812 96.1564 11.6031 97.0445 11.6031H98.878V8.3125H95.6981Z" fill="#6F7689"/>
<path d="M100.805 24.0625C100.805 27.4094 102.181 29.6875 105.561 29.6875C107.223 29.6875 108.569 28.9563 109.429 27.8875V29.6438H113.726V17.0031H109.429V23.2188C109.429 24.8781 108.369 26.3125 107.022 26.3125C105.676 26.3125 105.103 25.4969 105.103 24.0625V17.0031H100.805V24.0625Z" fill="#6F7689"/>
<path d="M130.071 22.375C130.071 19 128.696 16.7219 125.315 16.7219C123.654 16.7219 122.307 17.4531 121.448 18.5219V17.0031H117.151V29.6438H121.448V23.2188C121.448 21.5313 122.508 20.125 123.854 20.125C125.201 20.125 125.774 20.9125 125.774 22.375V29.6438H130.071V22.375Z" fill="#6F7689"/>
<path d="M142.953 23.2188C142.953 24.85 141.664 26.3125 139.945 26.3125C138.226 26.3125 136.937 24.85 136.937 23.2188C136.937 21.5875 138.226 20.125 139.945 20.125C141.664 20.125 142.953 21.5875 142.953 23.2188ZM147.25 8.3125H142.953V18.5219C141.836 17.1719 140.231 16.7219 138.627 16.7219C135.046 16.7219 132.353 19.7875 132.353 23.2188C132.353 26.65 135.046 29.6875 138.627 29.6875C140.231 29.6875 142.093 29.1813 142.953 27.9156V29.6438H147.25V8.3125Z" fill="#6F7689"/>
</g>
</svg>
