<svg width="146" height="66" viewBox="0 0 146 66" fill="none" xmlns="http://www.w3.org/2000/svg">
<g opacity="0.6">
<path d="M92.5499 47.5388V42.4594H80.0381V36.0514H91.3641V31.2455H80.0381V24.9156H92.5499V19.8362H74.3955V47.5388H92.5499Z" fill="#6F7689"/>
<path d="M121.025 47.5388V19.8362H115.383V38.1613L103.321 19.8362H96.288V47.5388H101.93V27.8851L115.096 47.5388H121.025Z" fill="#6F7689"/>
<path d="M145.591 26.4395C144.937 23.3135 142.238 19.25 135.206 19.25C129.727 19.25 125.106 23.001 125.106 27.9242C125.106 32.105 128.091 34.9573 132.711 35.856L136.759 36.6376C139.008 37.0674 140.276 38.3177 140.276 39.9197C140.276 41.8733 138.599 43.319 135.573 43.319C131.485 43.319 129.481 40.8574 129.236 38.1223L124.002 39.4508C124.452 43.3972 127.846 48.125 135.532 48.125C142.279 48.125 146 43.827 146 39.568C146 35.6606 143.179 32.3785 137.905 31.4017L133.856 30.6593C131.73 30.2686 130.708 29.0573 130.708 27.5336C130.708 25.6971 132.507 24.0169 135.247 24.0169C138.926 24.0169 140.234 26.4004 140.521 27.9242L145.591 26.4395Z" fill="#6F7689"/>
<path d="M7.73617 15.5726C8.35402 14.4231 9.24572 13.443 10.3326 12.719L28.5729 0L9.88348 30.8598C9.88348 30.8598 8.25053 28.104 7.61366 26.7098C6.82003 24.9567 6.41979 23.0515 6.44094 21.1277C6.46211 19.2038 6.90418 17.3079 7.73617 15.5726ZM0.208157 36.8606C0.414102 39.8116 1.24909 42.6848 2.65721 45.2874C4.06534 47.8901 6.0141 50.1625 8.373 51.952L28.5484 66C28.5484 66 15.9255 47.8347 5.27853 29.7591C4.20063 27.8494 3.47599 25.7615 3.13933 23.5953C2.99029 22.6144 2.99029 21.6166 3.13933 20.6357C2.86172 21.1494 2.32284 22.2012 2.32284 22.2012C1.24328 24.3998 0.508055 26.7508 0.142831 29.1721C-0.0673804 31.7317 -0.0455189 34.3049 0.208157 36.8606ZM51.6466 39.3064C50.9935 37.9123 49.3768 35.1566 49.3768 35.1566L30.7202 66L48.9605 53.2892C50.0474 52.5651 50.939 51.5852 51.5568 50.4356C52.3888 48.7003 52.8308 46.8043 52.852 44.8806C52.8733 42.9566 52.473 41.0515 51.6794 39.2983L51.6466 39.3064ZM59.0522 29.1477C58.8462 26.1965 58.0112 23.3234 56.603 20.7207C55.1949 18.118 53.2461 15.8458 50.8873 14.0561L30.7447 0C30.7447 0 43.3594 18.1653 54.0145 36.2409C55.0896 38.1512 55.8114 40.239 56.1454 42.4047C56.2946 43.3857 56.2946 44.3834 56.1454 45.3643C56.423 44.8507 56.962 43.7988 56.962 43.7988C58.0416 41.6003 58.7768 39.2492 59.142 36.8279C59.3548 34.2686 59.3358 31.6954 59.0848 29.1394L59.0522 29.1477Z" fill="#6F7689"/>
</g>
</svg>
