<svg width="64" height="29" viewBox="0 0 64 29" fill="none" xmlns="http://www.w3.org/2000/svg">
<path d="M40.5698 20.8883V18.6564H35.0852V15.8408H40.05V13.7291H35.0852V10.9477H40.5698V8.71589H32.6117V20.8883H40.5698Z" fill="white"/>
<path d="M53.0522 20.8883V8.71589H50.5787V16.7679L45.2913 8.71589H42.2084V20.8883H44.6818V12.2526L50.4532 20.8883H53.0522Z" fill="white"/>
<path d="M63.8207 11.6173C63.534 10.2438 62.3509 8.45833 59.2682 8.45833C56.8664 8.45833 54.8411 10.1065 54.8411 12.2697C54.8411 14.1067 56.1495 15.36 58.1748 15.7549L59.9491 16.0983C60.9348 16.2872 61.4907 16.8366 61.4907 17.5405C61.4907 18.3989 60.7555 19.0341 59.4294 19.0341C57.6371 19.0341 56.7589 17.9525 56.6513 16.7507L54.3572 17.3344C54.5543 19.0685 56.0419 21.1458 59.4113 21.1458C62.369 21.1458 64 19.2573 64 17.3859C64 15.6691 62.7632 14.2269 60.4513 13.7977L58.6767 13.4715C57.7447 13.2998 57.2966 12.7676 57.2966 12.0981C57.2966 11.2912 58.0852 10.5529 59.2863 10.5529C60.8992 10.5529 61.4726 11.6002 61.5982 12.2697L63.8207 11.6173Z" fill="white"/>
<path d="M3.3912 6.84249C3.66204 6.33741 4.05292 5.90677 4.52936 5.58863L12.5251 0L4.33248 13.5596C4.33248 13.5596 3.61667 12.3487 3.33749 11.7361C2.9896 10.9658 2.81416 10.1287 2.82343 9.28338C2.8327 8.43803 3.02649 7.60501 3.3912 6.84249ZM0.0912467 16.1963C0.181524 17.493 0.547548 18.7554 1.1648 19.899C1.78207 21.0426 2.63632 22.0411 3.67035 22.8274L12.5144 29C12.5144 29 6.98103 21.0183 2.31387 13.076C1.84137 12.2369 1.52372 11.3194 1.37614 10.3676C1.31081 9.93661 1.31081 9.49823 1.37614 9.06721C1.25445 9.29293 1.01823 9.75506 1.01823 9.75506C0.545 10.7211 0.222709 11.7541 0.0626109 12.8181C-0.0295366 13.9427 -0.0199535 15.0734 0.0912467 16.1963ZM22.6396 17.271C22.3533 16.6584 21.6446 15.4476 21.6446 15.4476L13.4664 29L21.4621 23.415C21.9386 23.0968 22.3294 22.6662 22.6003 22.1611C22.965 21.3986 23.1587 20.5655 23.168 19.7202C23.1773 18.8749 23.0018 18.0378 22.654 17.2674L22.6396 17.271ZM25.8859 12.8073C25.7956 11.5106 25.4295 10.2482 24.8123 9.10455C24.195 7.96092 23.3408 6.96254 22.3068 6.17615L13.4771 0C13.4771 0 19.0068 7.98171 23.6776 15.924C24.1488 16.7634 24.4653 17.6808 24.6117 18.6324C24.6771 19.0634 24.6771 19.5018 24.6117 19.9328C24.7334 19.7071 24.9696 19.2449 24.9696 19.2449C25.4429 18.2789 25.7652 17.2459 25.9252 16.1819C26.0186 15.0574 26.0102 13.9268 25.9002 12.8037L25.8859 12.8073Z" fill="white"/>
</svg>
