<svg width="151" height="51" viewBox="0 0 151 51" fill="none" xmlns="http://www.w3.org/2000/svg">
<g clip-path="url(#clip0_895_4073)">
<path d="M13.1384 11.6223C8.70627 9.16095 4.48283 6.80959 3.1408 3.03443H5.22433V0.432129H0C0 7.41011 6.01376 10.7511 11.8414 13.9793C14.0603 15.2142 16.2256 16.4181 18.0074 17.7883H17.9821V20.3878H20.6577C21.2499 21.1677 21.6959 22.0484 21.9743 22.9872H15.6081V25.6008H22.2534C22.2136 26.4955 22.0141 27.3759 21.6642 28.2003H18.1005V30.7998H19.9444C18.5488 32.3222 16.6372 33.6022 14.5396 34.8343C15.4164 35.3221 16.3186 35.8295 17.218 36.3652C21.4471 33.7094 24.9629 30.5065 24.9629 25.1807C24.9629 18.1915 18.9519 14.8505 13.1384 11.6223Z" fill="#6F7689"/>
<path d="M13.0255 3.0316V0.432129H10.4232H7.82373V3.0316H10.4232H13.0255Z" fill="#6F7689"/>
<path d="M7.82408 3.03125H5.22461V5.63073H7.82408V3.03125Z" fill="#6F7689"/>
<path d="M10.4232 5.63428H7.82373V8.23375H10.4232V5.63428Z" fill="#6F7689"/>
<path d="M13.0062 20.3877V22.9872H10.418V25.5867H13.0203V22.9872H15.6056V20.3877H13.0062Z" fill="#6F7689"/>
<path d="M13.0062 17.7856H10.4067V20.3851H13.0062V17.7856Z" fill="#6F7689"/>
<path d="M15.6053 28.189H13.0059V30.7884H15.6053V28.189Z" fill="#6F7689"/>
<path d="M7.81871 45.3784H5.21924V47.9779H7.81871V45.3784Z" fill="#6F7689"/>
<path d="M5.21569 47.9814H2.61621V50.5809H5.21569V47.9814Z" fill="#6F7689"/>
<path d="M15.5013 45.3788H13.0203V42.7793H10.418V45.3788H13.0062V47.9811H15.6056V45.3788H18.1008V42.7793H15.5013V45.3788Z" fill="#6F7689"/>
<path d="M13.1386 36.36C11.3821 35.3845 9.65944 34.4259 8.13697 33.3912H10.4263V30.7889H13.0201V28.1894H10.4263V25.6012H7.82402V28.2007H10.4207V30.8001H7.82402V33.1882V30.7889H5.02719C4.30899 30.0281 3.72806 29.1486 3.31018 28.1894H5.21891V25.6012H2.70683C2.70683 25.4602 2.70683 25.3192 2.70683 25.1811C2.7042 24.4429 2.80672 23.7081 3.01132 22.9989H5.21891V20.3994H4.3308C5.74049 18.4991 7.95935 16.9795 10.432 15.5275C9.55512 15.0426 8.65292 14.5351 7.75353 13.9966C3.51035 16.6524 0.00585938 19.8553 0.00585938 25.1811C0.00585938 32.1591 6.01961 35.5001 11.8473 38.7142C14.2015 40.0252 16.4993 41.3024 18.3319 42.7769H18.1148V45.3792H20.8383C21.3958 46.1648 21.8047 47.0458 22.045 47.9787H15.5012V50.5782H24.9433C24.9433 50.3582 24.9631 50.1355 24.9631 49.9071C24.9631 42.9292 18.9521 39.591 13.1386 36.36Z" fill="#6F7689"/>
<path d="M10.4261 40.2619C9.54927 39.7769 8.64707 39.2695 7.74768 38.731C3.5045 41.3868 0 44.5925 0 49.9183C0 50.1467 2.0649e-06 50.3694 0.0197378 50.5893H2.72917C2.71225 50.3694 2.70098 50.1467 2.70098 49.9183C2.70662 45.4439 6.1801 42.7458 10.4261 40.2619Z" fill="#6F7689"/>
<path d="M13.0257 5.6339H15.5068V8.23337H17.4268C16.5331 8.87619 15.5604 9.488 14.5398 10.0857C15.4166 10.5735 16.3188 11.0781 17.2182 11.6166C21.4473 8.9636 24.963 5.75795 24.963 0.432129H19.7528V3.0457H21.8251C21.4792 3.99544 20.9665 4.87576 20.311 5.64518H15.6139V3.0457H18.1063V0.443409H15.5068V3.0457H13.0116V5.64518H10.4263V8.24465H13.0257V5.6339Z" fill="#6F7689"/>
<path d="M10.4232 20.3877H7.82373V22.9872H10.4232V20.3877Z" fill="#6F7689"/>
<path d="M7.81871 20.3877H5.21924V22.9872H7.81871V20.3877Z" fill="#6F7689"/>
<path d="M7.81787 47.9814V50.5809H10.4173H13.0196V47.9814H10.4173H7.81787Z" fill="#6F7689"/>
</g>
<g clip-path="url(#clip1_895_4073)">
<path d="M55.7011 0.0263672V4.44338H37.248V0.0263672H55.7011Z" fill="#6F7689"/>
<path d="M37.2642 19.6235H55.7008V24.0406H37.2642V19.6235Z" fill="#6F7689"/>
<path d="M37.2642 9.77881H50.4281V14.2221H37.2642V9.77881Z" fill="#6F7689"/>
<path d="M97.624 9.33933V4.90918H108.179V9.33933H97.624Z" fill="#6F7689"/>
<path d="M63.5234 19.5874H74.0657V24.0405H63.5234V19.5874Z" fill="#6F7689"/>
<path d="M89.7793 9.80518H100.328V14.2517H89.7793V9.80518Z" fill="#6F7689"/>
<path d="M81.8647 9.33292V4.9126H92.4234V9.33292H81.8647Z" fill="#6F7689"/>
<path d="M89.8347 4.44933H81.9141V0.0224609H89.8347V4.44933Z" fill="#6F7689"/>
<path d="M108.183 4.48933C105.653 4.48933 103.179 4.48933 100.702 4.46964C100.6 4.44615 100.506 4.39703 100.428 4.32697C100.351 4.25691 100.292 4.1682 100.259 4.06927C100.226 2.75664 100.239 1.41448 100.239 0.0263672H108.183V4.48933Z" fill="#6F7689"/>
<path d="M87.1966 24.0734H81.9106V19.6235H87.1966V24.0734Z" fill="#6F7689"/>
<path d="M74.0229 0.00634766H79.3187V4.43979H74.0229V0.00634766Z" fill="#6F7689"/>
<path d="M102.871 14.7012H108.17V19.1379H102.871V14.7012Z" fill="#6F7689"/>
<path d="M97.7031 14.731V19.148H92.3745V14.731H97.7031Z" fill="#6F7689"/>
<path d="M58.2935 0H63.5892V4.44327H58.2935V0Z" fill="#6F7689"/>
<path d="M74.0132 9.77881H79.3122V14.2221H74.0132V9.77881Z" fill="#6F7689"/>
<path d="M87.2035 14.2516H81.9077V9.82471H87.2035V14.2516Z" fill="#6F7689"/>
<path d="M102.861 9.7959H108.183V14.2851C106.543 14.2851 104.902 14.2851 103.239 14.2687C103.149 14.2376 103.069 14.1842 103.006 14.1136C102.943 14.043 102.899 13.9575 102.878 13.8651C102.851 12.5393 102.861 11.2135 102.861 9.7959Z" fill="#6F7689"/>
<path d="M63.5664 9.81201V14.2487H58.2739V9.81201H63.5664Z" fill="#6F7689"/>
<path d="M66.1938 14.7178V19.1282H60.8652V14.7178H66.1938Z" fill="#6F7689"/>
<path d="M76.6642 19.1677H71.3979V14.7212H76.6642V19.1677Z" fill="#6F7689"/>
<path d="M87.1738 14.7012V19.1346H81.8813V14.7012H87.1738Z" fill="#6F7689"/>
<path d="M63.5626 9.34923H58.2505V4.92236H63.5626V9.34923Z" fill="#6F7689"/>
<path d="M102.864 19.6235H108.196V24.0964C106.539 24.0964 104.915 24.0964 103.274 24.0799C103.183 24.0597 103.098 24.0161 103.027 23.9535C102.957 23.8908 102.905 23.8112 102.874 23.7222C102.854 22.3669 102.864 21.0149 102.864 19.6235Z" fill="#6F7689"/>
<path d="M79.3085 4.92578V9.33296H74.0259V4.92578H79.3085Z" fill="#6F7689"/>
<path d="M42.5208 4.93213V9.34259H37.248V4.93213H42.5208Z" fill="#6F7689"/>
<path d="M37.2676 14.7012H42.5174V19.1444H37.2676V14.7012Z" fill="#6F7689"/>
<path d="M89.6675 40.5607V36.1338H108.127V40.5607H89.6675Z" fill="#6F7689"/>
<path d="M108.15 45.9355V50.3624H89.6934V45.9355H108.15Z" fill="#6F7689"/>
<path d="M108.143 26.3281V30.7452H89.7065V26.3281H108.143Z" fill="#6F7689"/>
<path d="M147.609 30.781H131.81V26.3213H147.609V30.781Z" fill="#6F7689"/>
<path d="M60.8193 30.7452V26.3281H76.6213V30.7452H60.8193Z" fill="#6F7689"/>
<path d="M60.7705 40.541V36.1338H76.6052V40.541H60.7705Z" fill="#6F7689"/>
<path d="M42.3106 26.3184H58.1748V30.8174H52.925C49.68 30.8174 46.435 30.7846 43.1899 30.8174C42.4418 30.8174 42.2614 30.591 42.2942 29.892C42.3499 28.7369 42.3106 27.5686 42.3106 26.3184Z" fill="#6F7689"/>
<path d="M126.616 26.3247V30.7417H110.801V26.3247H126.616Z" fill="#6F7689"/>
<path d="M42.3106 45.9229H58.1748V50.4219H52.925C49.68 50.4219 46.435 50.3891 43.1899 50.4219C42.4418 50.4219 42.2614 50.1955 42.2942 49.4965C42.3499 48.3414 42.3106 47.1895 42.3106 45.9229Z" fill="#6F7689"/>
<path d="M147.596 36.1431V40.5601H131.768V36.1431H147.596Z" fill="#6F7689"/>
<path d="M110.663 36.127H126.514V40.626H123.935C119.818 40.626 115.7 40.5965 111.582 40.626C110.798 40.626 110.617 40.3799 110.65 39.6415C110.703 38.4996 110.663 37.3444 110.663 36.127Z" fill="#6F7689"/>
<path d="M87.1508 26.3447V30.7552H81.8223V26.3447H87.1508Z" fill="#6F7689"/>
<path d="M39.7056 41.0259H45.021V45.456H39.7056V41.0259Z" fill="#6F7689"/>
<path d="M136.974 35.6705H131.643V31.2305H136.961L136.974 35.6705Z" fill="#6F7689"/>
<path d="M144.768 35.6474V31.2271H150.067V35.6474H144.768Z" fill="#6F7689"/>
<path d="M39.7383 40.5571V36.1499H45.0603V40.5571H39.7383Z" fill="#6F7689"/>
<path d="M81.7993 40.5568V36.1299H87.0951V40.5568H81.7993Z" fill="#6F7689"/>
<path d="M129.074 35.6704H123.801V31.2402H129.074V35.6704Z" fill="#6F7689"/>
<path d="M115.939 35.6772H110.689V31.2339H115.939V35.6772Z" fill="#6F7689"/>
<path d="M136.985 50.3659H131.699V45.9521H136.985V50.3659Z" fill="#6F7689"/>
<path d="M89.6445 35.6541V31.2437H94.9731V35.6541H89.6445Z" fill="#6F7689"/>
<path d="M115.986 50.4079C114.345 50.4079 112.737 50.4079 111.136 50.385C111.026 50.3519 110.927 50.2906 110.848 50.2071C110.769 50.1236 110.713 50.0209 110.686 49.9091C110.65 48.6129 110.667 47.3101 110.667 45.9482H115.986V50.4079Z" fill="#6F7689"/>
<path d="M87.1147 45.9355V50.3591H81.8223V45.9355H87.1147Z" fill="#6F7689"/>
<path d="M60.6982 45.466V41.0522H66.0202V45.466H60.6982Z" fill="#6F7689"/>
<path d="M79.1019 45.4762H73.8521V41.0493H79.1019V45.4762Z" fill="#6F7689"/>
<path d="M79.2465 45.9424V50.3496H73.9639V45.9424H79.2465Z" fill="#6F7689"/>
<path d="M131.643 41.0229H136.935V45.44H131.643V41.0229Z" fill="#6F7689"/>
<path d="M150.034 45.4795H144.768V41.0396H150.017L150.034 45.4795Z" fill="#6F7689"/>
<path d="M66.0202 31.2339V35.7034C64.337 35.7034 62.6833 35.7034 61.0296 35.6837C60.9082 35.6837 60.6851 35.4179 60.6818 35.2702C60.6555 33.9576 60.6654 32.622 60.6654 31.2372L66.0202 31.2339Z" fill="#6F7689"/>
<path d="M45.0211 35.7031C43.3543 35.7031 41.7761 35.7032 40.1979 35.6835C40.024 35.6835 39.7123 35.4045 39.709 35.2503C39.6696 33.9377 39.686 32.602 39.686 31.2271H45.0211V35.7031Z" fill="#6F7689"/>
<path d="M115.893 41.0459V45.4596H110.621V41.0459H115.893Z" fill="#6F7689"/>
<path d="M102.769 41.0229H108.018V45.4596H102.769V41.0229Z" fill="#6F7689"/>
<path d="M60.79 50.362V45.9482H66.0398V50.362H60.79Z" fill="#6F7689"/>
<path d="M87.0193 41.0361V45.4663H81.7695V41.0361H87.0193Z" fill="#6F7689"/>
<path d="M79.1644 35.664H73.9146V31.2339H79.1644V35.664Z" fill="#6F7689"/>
<path d="M87.0819 31.2271C87.0819 32.602 87.0819 33.9278 87.0622 35.2503C87.0363 35.3514 86.9851 35.4443 86.9133 35.5201C86.8415 35.5959 86.7516 35.6521 86.6521 35.6835C85.0509 35.713 83.4464 35.7031 81.7861 35.7031V31.2271H87.0819Z" fill="#6F7689"/>
<path d="M150.142 50.3691H144.892V45.939H150.142V50.3691Z" fill="#6F7689"/>
</g>
<defs>
<clipPath id="clip0_895_4073">
<rect width="24.9629" height="50.1485" fill="white" transform="translate(0 0.432129)"/>
</clipPath>
<clipPath id="clip1_895_4073">
<rect width="112.891" height="50.4283" fill="white" transform="translate(37.248)"/>
</clipPath>
</defs>
</svg>
