<svg width="151" height="37" viewBox="0 0 151 37" fill="none" xmlns="http://www.w3.org/2000/svg">
<path d="M62.5262 4.1377C62.5814 4.14939 62.6373 4.15811 62.6935 4.16382C66.2536 4.34197 69.3235 5.67866 71.917 8.12104C71.9764 8.18042 72.0405 8.2398 72.0885 8.28434L70.0913 10.2831C70.0088 10.2065 69.905 10.1121 69.8024 10.0159C68.5956 8.89678 67.1616 8.05153 65.5985 7.53791C64.922 7.31803 64.2269 7.16041 63.5218 7.06701C62.7829 6.97483 62.037 6.95197 61.2938 6.99872C60.4896 7.04492 59.6933 7.18279 58.9204 7.40964C58.2596 7.59716 57.6173 7.84482 57.0015 8.14954C56.1564 8.56033 55.3688 9.08041 54.659 9.69644C54.3849 9.93397 54.1143 10.1834 53.858 10.4429C53.3469 10.9646 52.8897 11.5365 52.4933 12.1501C52.1124 12.7338 51.786 13.3514 51.5184 13.9951C51.1756 14.8075 50.9326 15.6585 50.7945 16.5295C50.7351 16.8988 50.6943 17.2708 50.6723 17.6441C50.6432 18.0893 50.6373 18.5356 50.6545 18.9814C50.6915 19.7528 50.8098 20.5181 51.0076 21.2646C51.6053 23.56 52.9024 25.612 54.7187 27.1358C56.5351 28.6595 58.7805 29.5794 61.1431 29.7676C61.6919 29.8074 62.2427 29.8114 62.792 29.7794C63.6817 29.7269 64.5616 29.5658 65.4122 29.2996C65.9964 29.1203 66.565 28.8933 67.1121 28.6209C68.9174 27.7236 70.4542 26.3655 71.5676 24.6839C72.1924 23.7424 72.6725 22.7123 72.9916 21.6281C73.0207 21.5295 73.0509 21.4303 73.0836 21.3062C72.7062 21.3021 72.3526 21.3062 71.9989 21.3062H59.1928L62.0948 18.4018H76.2817V18.602C76.2034 22.0728 75.0446 25.134 72.7703 27.7569C70.7404 30.0953 68.1908 31.5918 65.1755 32.2913C64.3839 32.4688 63.5789 32.5793 62.7688 32.6215C62.091 32.6611 61.411 32.6466 60.7355 32.5781C57.6263 32.2699 54.8886 31.0936 52.5586 29.0057C50.2932 26.9778 48.8365 24.463 48.1571 21.4992C47.9626 20.6555 47.8521 19.7946 47.8272 18.9292C47.7186 15.1531 48.8881 11.8229 51.3701 8.97911C53.3744 6.68103 55.8896 5.20657 58.8563 4.50646C59.5826 4.33916 60.3208 4.22837 61.0642 4.17511C61.1727 4.16679 61.2825 4.17036 61.3917 4.16382C61.4475 4.15789 61.5026 4.14898 61.5578 4.1377H62.5262Z" fill="#6F7689"/>
<path d="M150.16 32.6411H147.323V21.314H138.772V32.615C138.66 32.6476 136.133 32.6571 135.939 32.628V15.6103H138.765V18.3668C138.884 18.3989 147.045 18.4108 147.321 18.3805V9.93341C147.36 9.92589 147.4 9.92074 147.44 9.91797H150.088C150.112 9.91797 150.135 9.92213 150.159 9.9245L150.16 32.6411Z" fill="#6F7689"/>
<path d="M121.667 21.2999H110.338L107.441 18.3996H118.397C118.002 17.2739 117.374 16.2443 116.554 15.3783C115.241 13.9941 113.641 13.1277 111.761 12.8088C109.9 12.4911 107.986 12.7981 106.317 13.6819C104.648 14.5658 103.318 15.977 102.534 17.6958C101.75 19.4146 101.556 21.3447 101.982 23.1855C102.407 25.0264 103.429 26.6747 104.888 27.874C106.582 29.26 108.538 29.9126 110.721 29.8129C112.905 29.7131 114.77 28.8681 116.333 27.3681L118.3 29.3372C115.493 32.2903 110.162 33.9019 105.229 31.4263C99.6257 28.6056 97.3686 21.7737 100.185 16.1651C101.346 13.8554 103.26 12.0111 105.61 10.9366C107.96 9.86206 110.605 9.62157 113.11 10.2548C118.865 11.7239 121.771 16.9121 121.667 21.2999Z" fill="#6F7689"/>
<path d="M87.7102 26.8875L97.4951 9.92624H100.737C100.74 9.93037 100.743 9.93474 100.745 9.93931C100.745 9.94346 100.75 9.9494 100.745 9.95296C100.739 9.97071 100.731 9.98797 100.722 10.0046L87.6687 32.6351H84.8438V9.95118C84.8466 9.94596 84.8502 9.94116 84.8544 9.93693C84.8577 9.93372 84.8618 9.93147 84.8663 9.9304C84.8845 9.92541 84.9032 9.92223 84.9221 9.9209H87.5992C87.6232 9.92321 87.647 9.92698 87.6704 9.93218V26.8816L87.7102 26.8875Z" fill="#6F7689"/>
<path d="M127.38 32.6338H124.539V12.6885C124.346 12.6779 124.162 12.685 123.98 12.6838C123.797 12.6826 123.6 12.6838 123.41 12.6838H121.175L119.566 9.92432H138.758V12.682H127.38V32.6338Z" fill="#6F7689"/>
<path d="M81.9704 32.6343H79.1484V15.6089H81.9567L81.9639 15.616C81.9639 15.6196 81.9722 15.6231 81.9722 15.6267C81.9745 21.2696 81.9765 26.9126 81.9781 32.5559C81.9775 32.5785 81.9734 32.6016 81.9704 32.6343Z" fill="#6F7689"/>
<path d="M80.5617 9.91797C80.9348 9.9208 81.2916 10.0715 81.5539 10.337C81.8163 10.6026 81.9628 10.9614 81.9614 11.3348C81.96 11.7082 81.8107 12.0659 81.5464 12.3294C81.2821 12.593 80.9241 12.7409 80.551 12.7409C80.1779 12.7409 79.82 12.593 79.5556 12.3294C79.2913 12.0659 79.142 11.7082 79.1406 11.3348C79.1392 10.9614 79.2857 10.6026 79.5481 10.337C79.8104 10.0715 80.1672 9.9208 80.5403 9.91797H80.5617Z" fill="#6F7689"/>
<path d="M36.6752 18.7928C36.6392 19.3082 36.6266 19.827 36.5635 20.3387C35.8945 25.7721 33.3604 30.1259 28.9121 33.314C25.5892 35.6962 21.8388 36.808 17.7539 36.6666C13.0302 36.5041 8.95771 34.7459 5.54281 31.4767C5.51139 31.4465 5.51215 31.3261 5.54281 31.294C9.80206 27.0276 14.0653 22.7656 18.3324 18.5079C18.4334 18.4155 18.5639 18.3622 18.7006 18.3574C24.6927 18.35 30.6846 18.3479 36.6765 18.3511L36.6752 18.7928Z" fill="#6F7689"/>
<path d="M18.784 0C19.2878 0.0382671 19.7926 0.0605684 20.2946 0.114801C23.2341 0.43344 25.9413 1.40389 28.4162 3.02614C28.433 3.03875 28.4491 3.05229 28.4644 3.06669L26.8998 4.62804C26.5593 4.96788 26.221 5.31 25.8763 5.64553C25.8546 5.65963 25.8297 5.66817 25.8038 5.67043C25.778 5.67268 25.752 5.66857 25.7281 5.65846C23.2364 4.22492 20.5544 3.5656 17.682 3.68048C11.2553 3.93948 5.6528 8.49124 4.11184 14.7328C3.15802 18.6001 3.68865 22.274 5.6528 25.7416C5.67155 25.7745 5.67256 25.8473 5.65001 25.8683C4.79739 26.7272 3.9418 27.584 3.08327 28.4385C3.0749 28.4469 3.06451 28.4537 3.045 28.4694C2.96417 28.3442 2.88282 28.2231 2.80629 28.0994C0.688077 24.6752 -0.24699 20.9534 0.0555766 16.9361C0.686303 8.585 6.90183 1.74331 15.1725 0.290424C16.0087 0.143692 16.864 0.106438 17.7101 0.0185L17.8829 0L18.784 0Z" fill="#6F7689"/>
<path d="M28.0801 11.0708C28.0815 10.3081 28.3472 9.56956 28.8319 8.98077C29.3166 8.39197 29.9904 7.98935 30.7385 7.84144C31.4866 7.69353 32.2629 7.80946 32.9352 8.16951C33.6074 8.52956 34.1342 9.11146 34.4257 9.81619C34.7172 10.5209 34.7556 11.3049 34.5342 12.0347C34.3128 12.7645 33.8453 13.395 33.2114 13.819C32.5774 14.2429 31.8162 14.434 31.0572 14.3598C30.2982 14.2856 29.5884 13.9506 29.0486 13.4119C28.7412 13.1046 28.4974 12.7396 28.3312 12.3378C28.165 11.9361 28.0797 11.5055 28.0801 11.0708Z" fill="#6F7689"/>
</svg>
