<svg width="148" height="29" viewBox="0 0 148 29" fill="none" xmlns="http://www.w3.org/2000/svg">
<path d="M125.058 0.617676H120.426V23.5946C120.425 24.1981 120.545 24.7958 120.778 25.3535C121.01 25.9113 121.351 26.418 121.782 26.8449C122.212 27.2718 122.722 27.6105 123.285 27.8415C123.847 28.0726 124.449 28.1915 125.058 28.1915H129.467L129.928 23.5946H125.058V0.617676Z" fill="#6F7689"/>
<path d="M42.5879 0C41.7512 -7.02065e-08 40.9228 0.163486 40.1499 0.481118C39.377 0.798751 38.6748 1.26431 38.0833 1.85119C37.4918 2.43807 37.0227 3.13478 36.7028 3.90152C36.3829 4.66826 36.2184 5.49001 36.2188 6.31982V28.1923H40.8508V20.7239H42.5879C44.2773 20.7239 45.8976 20.0584 47.0924 18.8738C48.2873 17.6892 48.9589 16.0824 48.9596 14.4067V6.31982C48.9596 4.6437 48.2883 3.03623 47.0934 1.85103C45.8984 0.665836 44.2778 0 42.5879 0V0ZM44.3275 16.4882C44.3275 16.7146 44.2825 16.9389 44.195 17.1481C44.1076 17.3573 43.9794 17.5473 43.8178 17.7074C43.6563 17.8674 43.4645 17.9942 43.2534 18.0807C43.0424 18.1671 42.8162 18.2114 42.5879 18.2111H40.8508V4.64112C40.8465 4.21182 41.0008 3.79581 41.2847 3.47167C41.5685 3.14754 41.9622 2.93772 42.3914 2.88186C42.6347 2.85442 42.8811 2.87825 43.1145 2.95176C43.3478 3.02528 43.5629 3.14684 43.7457 3.30848C43.9285 3.47013 44.0748 3.66822 44.175 3.8898C44.2753 4.11139 44.3272 4.35147 44.3275 4.59434V16.4882Z" fill="#6F7689"/>
<path d="M81.378 0.618238V24.6866C81.3801 24.9377 81.2818 25.1793 81.1045 25.3586C80.9271 25.5379 80.6854 25.6401 80.4322 25.6428C80.1909 25.6428 79.9584 25.5523 79.7815 25.3894C79.6047 25.2265 79.4964 25.0033 79.4786 24.7645L76.9687 4.44859C76.7067 1.2575 74.6421 0.0439453 72.4283 0.0439453C68.9333 0.0439453 67.2617 2.33852 67.2617 5.171V28.1921H71.9645V4.09777C71.9642 3.97312 71.9887 3.84963 72.0366 3.7344C72.0846 3.61917 72.155 3.51447 72.2439 3.42632C72.3327 3.33818 72.4383 3.26833 72.5545 3.22078C72.6706 3.17324 72.7951 3.14894 72.9208 3.14928C73.1635 3.1473 73.398 3.23696 73.5765 3.40006C73.7551 3.56316 73.8644 3.78751 73.8823 4.02761L76.3896 24.2968C76.6936 28.0258 79.0882 28.7638 80.9222 28.7638C84.4879 28.7638 86.0913 26.4692 86.0913 23.6367V0.618238H81.378Z" fill="#6F7689"/>
<path d="M62.618 4.6175C62.4921 3.3658 61.9022 2.20502 60.9627 1.36006C60.0232 0.515093 58.8009 0.0460993 57.5327 0.0439453C56.2631 0.0441681 55.0388 0.512295 54.0977 1.35745C53.1565 2.2026 52.5655 3.36447 52.4395 4.6175L50.0605 28.1921H54.6952L55.4472 20.7237H59.6181L60.3701 28.1921H65.0048L62.618 4.6175ZM55.738 18.2108L56.4952 4.15754C56.5308 3.90977 56.6553 3.68306 56.8459 3.51904C57.0365 3.35503 57.2803 3.26473 57.5327 3.26473C57.785 3.26473 58.0288 3.35503 58.2194 3.51904C58.41 3.68306 58.5346 3.90977 58.5702 4.15754L59.3273 18.2212L55.738 18.2108Z" fill="#6F7689"/>
<path d="M115.914 4.6175C115.788 3.36491 115.198 2.20341 114.257 1.35832C113.316 0.513229 112.093 0.0448124 110.824 0.0439455C109.554 0.0435846 108.329 0.511511 107.388 1.35677C106.447 2.20203 105.856 3.36424 105.73 4.6175L103.352 28.1921H107.986L108.728 20.7237H112.92L113.672 28.1921H118.291L115.914 4.6175ZM109.026 18.2108L109.776 4.15754C109.776 3.88187 109.886 3.61748 110.083 3.42255C110.279 3.22761 110.546 3.1181 110.824 3.1181C111.102 3.1181 111.368 3.22761 111.565 3.42255C111.761 3.61748 111.872 3.88187 111.872 4.15754L112.629 18.2212L109.026 18.2108Z" fill="#6F7689"/>
<path d="M144.961 4.6175C144.836 3.36424 144.245 2.20203 143.304 1.35677C142.362 0.511511 141.138 0.0435846 139.868 0.0439455C138.598 0.0441683 137.374 0.512295 136.433 1.35745C135.492 2.2026 134.901 3.36447 134.775 4.6175L132.398 28.1921H137.023L137.775 20.7237H141.946L142.697 28.1921H147.332L144.961 4.6175ZM138.071 18.2108L138.83 4.15754C138.866 3.90977 138.991 3.68306 139.181 3.51904C139.372 3.35503 139.616 3.26473 139.868 3.26473C140.12 3.26473 140.364 3.35503 140.555 3.51904C140.745 3.68306 140.87 3.90977 140.905 4.15754L141.663 18.2212L138.071 18.2108Z" fill="#6F7689"/>
<path d="M98.592 0.617676L96.703 24.7847C96.684 25.0214 96.5758 25.2423 96.4001 25.4036C96.2244 25.5649 95.994 25.6547 95.7546 25.6553C95.5152 25.6547 95.2848 25.5649 95.1091 25.4036C94.9334 25.2423 94.8252 25.0214 94.8062 24.7847L92.9172 0.617676H88.293L90.6509 24.1923C90.777 25.4453 91.368 26.6072 92.3091 27.4523C93.2503 28.2975 94.4745 28.7656 95.7441 28.7658C97.0137 28.7656 98.2379 28.2975 99.1791 27.4523C100.12 26.6072 100.711 25.4453 100.837 24.1923L103.227 0.617676H98.592Z" fill="#6F7689"/>
<path d="M14.3574 0.166016C11.5177 0.166016 8.7419 1.0012 6.38084 2.56595C4.01979 4.1307 2.17957 6.35475 1.0929 8.95684C0.00622085 11.5589 -0.278103 14.4222 0.275879 17.1846C0.829861 19.9469 2.19727 22.4843 4.20518 24.4759C6.21309 26.4674 8.77133 27.8237 11.5564 28.3731C14.3414 28.9226 17.2282 28.6406 19.8517 27.5628C22.4752 26.485 24.7175 24.6597 26.2951 22.3179C27.8727 19.9761 28.7147 17.2229 28.7147 14.4064C28.7106 10.6309 27.1966 7.01118 24.505 4.34148C21.8133 1.67179 18.1639 0.170143 14.3574 0.166016ZM14.3574 27.7684C11.6923 27.7684 9.08702 26.9845 6.8711 25.5159C4.65518 24.0473 2.92813 21.9598 1.90836 19.5176C0.888591 17.0754 0.621905 14.3881 1.14203 11.7955C1.66216 9.20297 2.94573 6.82162 4.83043 4.95264C6.71512 3.08367 9.11628 1.81101 11.7302 1.29563C14.3442 0.780245 17.0535 1.04528 19.5156 2.05722C21.9777 3.06915 24.0819 4.78254 25.5622 6.98068C27.0425 9.17883 27.8323 11.763 27.8318 14.4064C27.8276 17.9494 26.4066 21.3461 23.8805 23.8511C21.3544 26.3562 17.9295 27.765 14.3574 27.7684ZM14.3574 2.59831C12.0033 2.59831 9.70206 3.29069 7.74471 4.5879C5.78736 5.8851 4.2618 7.72886 3.36093 9.88603C2.46006 12.0432 2.22435 14.4169 2.68361 16.7069C3.14287 18.997 4.27647 21.1005 5.94106 22.7515C7.60564 24.4026 9.72646 25.5269 12.0353 25.9824C14.3442 26.438 16.7374 26.2042 18.9122 25.3106C21.0871 24.4171 22.946 22.904 24.2539 20.9626C25.5618 19.0212 26.2598 16.7387 26.2598 14.4038C26.2571 11.2736 25.0022 8.27246 22.7706 6.0591C20.5391 3.84574 17.5132 2.60107 14.3574 2.59831ZM19.089 14.105C19.089 15.0829 18.6973 16.0208 18.0001 16.7124C17.3029 17.4039 16.3573 17.7924 15.3713 17.7924H14.3233V20.5261H16.1782C16.1782 21.7371 15.1879 22.2204 13.9618 22.2204H9.45805C9.45805 21.0121 10.4432 20.5287 11.6614 20.5235V17.7898H9.45805C9.45805 16.5814 10.4536 16.0747 11.6745 16.0721V10.3058C11.6715 9.80024 11.7723 9.29937 11.9707 8.8337C12.1692 8.36804 12.4611 7.94733 12.8288 7.59721C13.1965 7.2471 13.6322 6.97492 14.1094 6.79725C14.5866 6.61958 15.0953 6.54014 15.6045 6.56379C16.5475 6.6207 17.433 7.0323 18.0806 7.71462C18.7281 8.39694 19.0887 9.29859 19.089 10.2356V14.105ZM16.3983 9.45604V15.0716C16.3983 15.3446 16.2901 15.6067 16.0969 15.8012C15.9038 15.9957 15.6413 16.107 15.366 16.1111H14.3443V9.48463C14.3391 9.22622 14.4296 8.9749 14.5985 8.77812C14.7675 8.58135 15.0032 8.45275 15.2613 8.4166C15.4062 8.40434 15.5521 8.42213 15.6897 8.46885C15.8273 8.51556 15.9536 8.59018 16.0606 8.68795C16.1675 8.78572 16.2528 8.90451 16.3109 9.03675C16.3691 9.16898 16.3988 9.31178 16.3983 9.45604Z" fill="#6F7689"/>
</svg>
