<svg width="193" height="71" viewBox="0 0 193 71" fill="none" xmlns="http://www.w3.org/2000/svg">
<path d="M71.7563 29.0462C71.7563 34.1765 74.6006 37.4287 80.0265 38.6655L85.1022 39.8565C87.7277 40.4519 88.8216 41.7803 88.8216 44.0249C88.8216 46.819 86.4587 48.5138 82.7395 48.5138C79.1513 48.5138 76.9634 46.819 76.9197 43.979H71.3187C71.45 49.9797 75.9133 53.7817 82.7395 53.7817C89.7844 53.7817 94.4226 49.7506 94.4226 43.521C94.4226 38.5281 91.7534 35.5965 86.2837 34.3597L81.2516 33.2145C78.5824 32.5733 77.3572 31.2449 77.3572 28.8629C77.3572 26.0687 79.5888 24.3281 83.0457 24.3281C86.1962 24.3281 88.1654 26.0229 88.2966 28.9087H93.8975C93.7225 22.8622 89.6094 19.1062 83.1332 19.1062C76.3946 19.1062 71.7563 23.1829 71.7563 29.0462ZM104.287 53.1861H109.8L116.758 28.8171L123.584 53.1861H129.01L138.724 19.7017H133.035L127.872 37.4287C127.391 39.1235 126.953 40.9101 126.341 44.0249C125.816 41.1849 125.335 39.261 124.809 37.3829L119.864 19.7017H113.695L108.663 37.3829C108.094 39.3068 107.612 41.0474 107.087 44.0249C106.606 41.0933 106.125 39.2152 105.643 37.3829L100.568 19.7017H94.7478L104.287 53.1861ZM140.801 53.1861L143.382 45.4449H155.328L157.909 53.1861H163.817L152.265 19.7017H146.533L134.981 53.1861H140.801ZM148.677 29.6874C148.983 28.7713 149.246 27.7635 149.377 27.1222C149.464 27.8094 149.77 28.8171 150.033 29.6874L153.709 40.4978H145.044L148.677 29.6874ZM178.823 24.6487C182.673 24.6487 185.911 26.481 186.917 30.4203H192.825C191.906 23.5952 186.261 19.1519 178.954 19.1519C169.328 19.1519 162.982 26.3894 162.982 36.5585C162.982 46.8649 169.24 53.6901 178.21 53.6901C182.542 53.6901 186.174 51.9035 187.925 49.3384L188.274 53.1861H193V34.3597H178.122V39.5358H187.793V39.6733C187.793 45.0326 184.423 48.239 178.866 48.239C172.959 48.239 168.846 44.1622 168.846 36.6958C168.846 29.4585 172.478 24.6487 178.823 24.6487Z" fill="white"/>
<path d="M7.87712 28.7245C8.55291 30.2244 10.2255 33.1889 10.2255 33.1889L29.5616 0L10.6901 13.6825C9.56562 14.4614 8.64306 15.5157 8.00382 16.7523C7.14433 18.618 6.68768 20.656 6.66578 22.7239C6.6439 24.7918 7.05731 26.8398 7.87712 28.7245Z" fill="white"/>
<path d="M0.215357 39.6529C0.428427 42.8276 1.29231 45.9184 2.74916 48.7183C4.20601 51.5182 6.2222 53.9626 8.66272 55.8878L29.5361 71C29.5361 71 16.4766 51.4585 5.46118 32.0136C4.34598 29.9592 3.59627 27.7131 3.24796 25.3828C3.09377 24.3276 3.09377 23.2542 3.24796 22.199C2.96076 22.7516 2.40322 23.883 2.40322 23.883C1.28631 26.2481 0.525635 28.7772 0.147778 31.382C-0.0697128 34.1355 -0.0470945 36.9038 0.215357 39.6529Z" fill="white"/>
<path d="M53.4675 42.2754C52.7918 40.7755 51.1192 37.8109 51.1192 37.8109L31.7832 70.9998L50.6545 57.3261C51.7791 56.5473 52.7016 55.4929 53.3409 54.2563C54.2017 52.3896 54.6589 50.3499 54.6809 48.2803C54.7027 46.2108 54.2886 44.1613 53.4675 42.2754Z" fill="white"/>
<path d="M61.1293 31.3471C60.9162 28.1723 60.0524 25.0816 58.5956 22.2817C57.1388 19.4818 55.1225 17.0374 52.6819 15.1122L31.8085 0C31.8085 0 44.8597 19.5415 55.8836 38.9864C56.9958 41.0414 57.7426 43.2874 58.0883 45.6172C58.2425 46.6724 58.2425 47.7458 58.0883 48.801C58.3755 48.2485 58.933 47.117 58.933 47.117C60.05 44.7519 60.8106 42.2228 61.1885 39.6179C61.4088 36.8647 61.389 34.0965 61.1293 31.3471Z" fill="white"/>
<path d="M8.00382 16.7523C8.64306 15.5157 9.56562 14.4614 10.6901 13.6825L29.5616 0L10.2255 33.1977C10.2255 33.1977 8.53601 30.233 7.87711 28.7333C7.05604 26.8473 6.64194 24.7978 6.66382 22.7283C6.68572 20.6587 7.14305 18.6191 8.00382 16.7523ZM0.215357 39.6529C0.428427 42.8276 1.29231 45.9184 2.74916 48.7183C4.20601 51.5182 6.2222 53.9626 8.66272 55.8878L29.5361 71C29.5361 71 16.4766 51.4585 5.46118 32.0136C4.34598 29.9592 3.59627 27.7131 3.24796 25.3828C3.09377 24.3276 3.09377 23.2542 3.24796 22.199C2.96076 22.7516 2.40322 23.883 2.40322 23.883C1.28631 26.2481 0.525635 28.7772 0.147778 31.382C-0.0697128 34.1355 -0.0470945 36.9038 0.215357 39.6529ZM53.4338 42.2842C52.7579 40.7844 51.0854 37.8199 51.0854 37.8199L31.7832 70.9998L50.6545 57.3261C51.7791 56.5473 52.7016 55.4929 53.3409 54.2563C54.2017 52.3896 54.6589 50.3499 54.6809 48.2803C54.7027 46.2108 54.2886 44.1613 53.4675 42.2754L53.4338 42.2842ZM61.0955 31.3557C60.8824 28.1811 60.0186 25.0904 58.5617 22.2905C57.1049 19.4906 55.0887 17.0462 52.6482 15.121L31.8085 0C31.8085 0 44.8597 19.5415 55.8836 38.9864C56.9958 41.0414 57.7426 43.2874 58.0883 45.6172C58.2425 46.6724 58.2425 47.7458 58.0883 48.801C58.3755 48.2485 58.933 47.117 58.933 47.117C60.05 44.7519 60.8106 42.2228 61.1885 39.6179C61.4088 36.8647 61.389 34.0965 61.1293 31.3471L61.0955 31.3557Z" fill="white"/>
</svg>
