<svg width="150" height="49" viewBox="0 0 150 49" fill="none" xmlns="http://www.w3.org/2000/svg">
<mask id="mask0_2121_7683" style="mask-type:alpha" maskUnits="userSpaceOnUse" x="0" y="0" width="50" height="49">
<path d="M24.63 49C38.161 49 49.13 38.031 49.13 24.5C49.13 10.969 38.161 0 24.63 0C11.099 0 0.130005 10.969 0.130005 24.5C0.130005 38.031 11.099 49 24.63 49Z" fill="white"/>
</mask>
<g mask="url(#mask0_2121_7683)">
<path d="M-0.849945 -0.97998H50.1101V49.98H-0.849945V-0.97998Z" fill="#6F7689"/>
</g>
<mask id="mask1_2121_7683" style="mask-type:alpha" maskUnits="userSpaceOnUse" x="12" y="7" width="26" height="14">
<path d="M37.4931 7.65625L12.0743 15.1466V20.2125L37.4931 12.7217V7.65625Z" fill="white"/>
</mask>
<g mask="url(#mask1_2121_7683)">
<path d="M11.0803 6.67529H38.4848V21.1934H11.0803V6.67529Z" fill="#051425"/>
</g>
<mask id="mask2_2121_7683" style="mask-type:alpha" maskUnits="userSpaceOnUse" x="22" y="18" width="16" height="11">
<path d="M22.4871 22.7402V28.1751L37.1865 23.5038L37.1871 18.0688L22.4871 22.7402Z" fill="white"/>
</mask>
<g mask="url(#mask2_2121_7683)">
<path d="M21.5204 17.0581H38.1546V29.1856H21.5204V17.0581Z" fill="#051425"/>
</g>
<mask id="mask3_2121_7683" style="mask-type:alpha" maskUnits="userSpaceOnUse" x="22" y="28" width="16" height="11">
<path d="M22.4871 32.8457V38.2811L37.1865 33.6092L37.1871 28.1748L22.4871 32.8457Z" fill="white"/>
</mask>
<g mask="url(#mask3_2121_7683)">
<path d="M21.5204 27.1646H38.1546V39.2921H21.5204V27.1646Z" fill="#051425"/>
</g>
<mask id="mask4_2121_7683" style="mask-type:alpha" maskUnits="userSpaceOnUse" x="12" y="24" width="6" height="18">
<path d="M12.0743 41.0376L17.2806 39.567V24.1938L12.0751 25.6645L12.0743 41.0376Z" fill="white"/>
</mask>
<g mask="url(#mask4_2121_7683)">
<path d="M11.0728 23.2144H18.2815V42.0168H11.0728V23.2144Z" fill="#051425"/>
</g>
<path d="M68.8966 5.9446L67.1032 14.5H69.4258L71.2192 5.9446H74.365L74.7766 4.0042H66.0154L65.6038 5.9446H68.8966ZM74.3944 11.4277C74.3944 11.1043 74.4385 10.7613 74.5267 10.3987C74.6149 10.0263 74.7472 9.6833 74.9236 9.3697C75.1 9.0561 75.3254 8.7964 75.5998 8.5906C75.884 8.375 76.2172 8.2672 76.5994 8.2672C77.158 8.2672 77.55 8.4191 77.7754 8.7229C78.0106 9.0267 78.1282 9.4334 78.1282 9.943C78.1282 10.2664 78.0841 10.6143 77.9959 10.9867C77.9077 11.3591 77.7705 11.707 77.5843 12.0304C77.4079 12.344 77.1776 12.6086 76.8934 12.8242C76.619 13.03 76.2858 13.1329 75.8938 13.1329C75.6488 13.1329 75.4332 13.0888 75.247 13.0006C75.0608 12.9026 74.904 12.7752 74.7766 12.6184C74.6492 12.4616 74.5512 12.2803 74.4826 12.0745C74.4238 11.8687 74.3944 11.6531 74.3944 11.4277ZM72.307 11.4277C72.307 12.5155 72.6206 13.3338 73.2478 13.8826C73.8848 14.4216 74.7325 14.6911 75.7909 14.6911C76.4867 14.6911 77.1041 14.5686 77.6431 14.3236C78.1919 14.0786 78.6574 13.7405 79.0396 13.3093C79.4218 12.8781 79.7109 12.3734 79.9069 11.7952C80.1127 11.2072 80.2156 10.58 80.2156 9.9136C80.2156 9.3648 80.1274 8.8895 79.951 8.4877C79.7844 8.0859 79.5443 7.7527 79.2307 7.4881C78.9171 7.2235 78.5398 7.0275 78.0988 6.9001C77.6676 6.7629 77.1923 6.6943 76.6729 6.6943C75.9967 6.6943 75.3891 6.8217 74.8501 7.0765C74.3111 7.3215 73.8505 7.6596 73.4683 8.0908C73.0959 8.522 72.8068 9.0267 72.601 9.6049C72.405 10.1733 72.307 10.7809 72.307 11.4277ZM82.9024 4.0042L80.7121 14.5H82.7848L83.2993 12.0304L84.3871 11.1043L85.6366 14.5H87.9298L85.9747 9.7813L89.3851 6.9001H86.8126L83.8138 9.7372L83.7844 9.7078L84.9898 4.0042H82.9024ZM94.9073 9.8842H91.4234C91.5018 9.6686 91.5949 9.4628 91.7027 9.2668C91.8203 9.0708 91.9624 8.8993 92.129 8.7523C92.2956 8.6053 92.4916 8.4877 92.717 8.3995C92.9424 8.3113 93.2021 8.2672 93.4961 8.2672C93.7999 8.2672 94.0449 8.3162 94.2311 8.4142C94.4173 8.5024 94.5594 8.6249 94.6574 8.7817C94.7554 8.9385 94.8191 9.1149 94.8485 9.3109C94.8877 9.4971 94.9073 9.6882 94.9073 9.8842ZM91.2029 11.2072H96.8036C96.882 10.7858 96.9212 10.3889 96.9212 10.0165C96.9212 9.4677 96.833 8.9875 96.6566 8.5759C96.49 8.1545 96.2499 7.8066 95.9363 7.5322C95.6325 7.248 95.2601 7.0373 94.8191 6.9001C94.3879 6.7629 93.9077 6.6943 93.3785 6.6943C92.7317 6.6943 92.1486 6.8266 91.6292 7.0912C91.1098 7.346 90.6688 7.6939 90.3062 8.1349C89.9534 8.5661 89.679 9.0659 89.483 9.6343C89.287 10.1929 89.189 10.776 89.189 11.3836C89.189 11.9324 89.2674 12.4126 89.4242 12.8242C89.5908 13.2358 89.8211 13.5837 90.1151 13.8679C90.4091 14.1423 90.7619 14.3481 91.1735 14.4853C91.5949 14.6225 92.0604 14.6911 92.57 14.6911C93.1188 14.6911 93.599 14.6372 94.0106 14.5294C94.432 14.4216 94.7995 14.2599 95.1131 14.0443C95.4267 13.8189 95.6962 13.5445 95.9216 13.2211C96.147 12.8977 96.343 12.5204 96.5096 12.0892H94.4222C94.3438 12.2068 94.2556 12.3293 94.1576 12.4567C94.0694 12.5841 93.9616 12.6968 93.8342 12.7948C93.7166 12.8928 93.5745 12.9761 93.4079 13.0447C93.2511 13.1035 93.0698 13.1329 92.864 13.1329C92.2956 13.1329 91.8742 12.9957 91.5998 12.7213C91.3254 12.4469 91.1882 12.0892 91.1882 11.6482V11.4571C91.1882 11.4179 91.1882 11.3787 91.1882 11.3395C91.1882 11.3003 91.1931 11.2562 91.2029 11.2072ZM98.8942 6.9001L97.3213 14.5H99.394L100.247 10.4575C100.305 10.1929 100.389 9.9332 100.497 9.6784C100.614 9.4236 100.756 9.1982 100.923 9.0022C101.099 8.8062 101.305 8.6494 101.54 8.5318C101.785 8.4044 102.065 8.3407 102.378 8.3407C102.623 8.3407 102.849 8.4142 103.054 8.5612C103.27 8.7082 103.378 8.8944 103.378 9.1198C103.378 9.2276 103.358 9.3795 103.319 9.5755C103.29 9.7715 103.265 9.9283 103.245 10.0459L102.319 14.5H104.407L105.348 10.0459C105.357 9.9773 105.372 9.8891 105.392 9.7813C105.421 9.6637 105.446 9.5412 105.465 9.4138C105.495 9.2864 105.519 9.1639 105.539 9.0463C105.558 8.9189 105.568 8.816 105.568 8.7376C105.568 7.3754 104.828 6.6943 103.348 6.6943C102.251 6.6943 101.364 7.1157 100.688 7.9585H100.658L100.893 6.9001H98.8942ZM66.9562 19.0042L64.7659 29.5H72.8509L73.2625 27.5596H67.4707L68.0146 24.9871H73.2919L73.6741 23.1937H68.3968L68.8672 20.9446H74.5708L74.9677 19.0042H66.9562ZM76.026 21.9001L74.4531 29.5H76.5258L77.3784 25.4575C77.4372 25.1929 77.5205 24.9332 77.6283 24.6784C77.7459 24.4236 77.888 24.1982 78.0546 24.0022C78.231 23.8062 78.4368 23.6494 78.672 23.5318C78.917 23.4044 79.1963 23.3407 79.5099 23.3407C79.7549 23.3407 79.9803 23.4142 80.1861 23.5612C80.4017 23.7082 80.5095 23.8944 80.5095 24.1198C80.5095 24.2276 80.4899 24.3795 80.4507 24.5755C80.4213 24.7715 80.3968 24.9283 80.3772 25.0459L79.4511 29.5H81.5385L82.4793 25.0459C82.4891 24.9773 82.5038 24.8891 82.5234 24.7813C82.5528 24.6637 82.5773 24.5412 82.5969 24.4138C82.6263 24.2864 82.6508 24.1639 82.6704 24.0463C82.69 23.9189 82.6998 23.816 82.6998 23.7376C82.6998 22.3754 81.9599 21.6943 80.4801 21.6943C79.3825 21.6943 78.4956 22.1157 77.8194 22.9585H77.79L78.0252 21.9001H76.026ZM90.7602 29.1031L92.2743 21.9001H90.2751L90.0399 23.0614H90.0105C89.7949 22.5616 89.4862 22.2088 89.0844 22.003C88.6826 21.7972 88.2171 21.6943 87.6879 21.6943C87.0803 21.6943 86.5364 21.8315 86.0562 22.1059C85.5858 22.3705 85.184 22.7233 84.8508 23.1643C84.5274 23.5955 84.2775 24.0855 84.1011 24.6343C83.9345 25.1733 83.8512 25.7221 83.8512 26.2807C83.8512 26.7511 83.9198 27.1774 84.057 27.5596C84.1942 27.932 84.3853 28.2554 84.6303 28.5298C84.8851 28.8042 85.1938 29.0149 85.5564 29.1619C85.919 29.3089 86.3257 29.3824 86.7765 29.3824C87.6291 29.3824 88.3249 29.0247 88.8639 28.3093L88.8933 28.3387C88.7855 28.7013 88.6777 29.0443 88.5699 29.3677C88.4621 29.6911 88.3298 29.9704 88.173 30.2056C88.0162 30.4408 87.8251 30.627 87.5997 30.7642C87.3841 30.9014 87.1097 30.97 86.7765 30.97C86.6099 30.97 86.4433 30.9504 86.2767 30.9112C86.1101 30.872 85.9582 30.8083 85.821 30.7201C85.6936 30.6319 85.5907 30.5192 85.5123 30.382C85.4339 30.2448 85.3996 30.0782 85.4094 29.8822H83.3367C83.3367 30.3428 83.4298 30.7299 83.616 31.0435C83.812 31.3571 84.0619 31.6119 84.3657 31.8079C84.6793 32.0039 85.0272 32.146 85.4094 32.2342C85.8014 32.3224 86.1885 32.3665 86.5707 32.3665C87.1979 32.3665 87.7418 32.3028 88.2024 32.1754C88.6728 32.048 89.0746 31.852 89.4078 31.5874C89.7508 31.3228 90.0301 30.9847 90.2457 30.5731C90.4613 30.1615 90.6328 29.6715 90.7602 29.1031ZM88.0701 23.2672C88.5797 23.2672 88.957 23.424 89.202 23.7376C89.447 24.0414 89.5695 24.4334 89.5695 24.9136C89.5695 25.237 89.5205 25.5702 89.4225 25.9132C89.3343 26.2562 89.1971 26.5698 89.0109 26.854C88.8345 27.1284 88.6042 27.3587 88.32 27.5449C88.0456 27.7213 87.7222 27.8095 87.3498 27.8095C87.1048 27.8095 86.8941 27.7654 86.7177 27.6772C86.5413 27.589 86.3943 27.4665 86.2767 27.3097C86.1591 27.1529 86.0709 26.9765 86.0121 26.7805C85.9631 26.5747 85.9386 26.3591 85.9386 26.1337C85.9386 25.8299 85.9827 25.5114 86.0709 25.1782C86.1689 24.8352 86.3061 24.5265 86.4825 24.2521C86.6589 23.9679 86.8794 23.7327 87.144 23.5465C87.4086 23.3603 87.7173 23.2672 88.0701 23.2672ZM96.3657 20.7241L96.7479 19.0042H94.6458L94.2636 20.7241H96.3657ZM94.0284 21.9001L92.4261 29.5H94.5135L96.1305 21.9001H94.0284ZM97.8032 21.9001L96.2303 29.5H98.303L99.1556 25.4575C99.2144 25.1929 99.2977 24.9332 99.4055 24.6784C99.5231 24.4236 99.6652 24.1982 99.8318 24.0022C100.008 23.8062 100.214 23.6494 100.449 23.5318C100.694 23.4044 100.974 23.3407 101.287 23.3407C101.532 23.3407 101.758 23.4142 101.963 23.5612C102.179 23.7082 102.287 23.8944 102.287 24.1198C102.287 24.2276 102.267 24.3795 102.228 24.5755C102.199 24.7715 102.174 24.9283 102.154 25.0459L101.228 29.5H103.316L104.257 25.0459C104.266 24.9773 104.281 24.8891 104.301 24.7813C104.33 24.6637 104.355 24.5412 104.374 24.4138C104.404 24.2864 104.428 24.1639 104.448 24.0463C104.467 23.9189 104.477 23.816 104.477 23.7376C104.477 22.3754 103.737 21.6943 102.257 21.6943C101.16 21.6943 100.273 22.1157 99.5966 22.9585H99.5672L99.8024 21.9001H97.8032ZM111.244 24.8842H107.76C107.838 24.6686 107.931 24.4628 108.039 24.2668C108.157 24.0708 108.299 23.8993 108.466 23.7523C108.632 23.6053 108.828 23.4877 109.054 23.3995C109.279 23.3113 109.539 23.2672 109.833 23.2672C110.136 23.2672 110.381 23.3162 110.568 23.4142C110.754 23.5024 110.896 23.6249 110.994 23.7817C111.092 23.9385 111.156 24.1149 111.185 24.3109C111.224 24.4971 111.244 24.6882 111.244 24.8842ZM107.539 26.2072H113.14C113.219 25.7858 113.258 25.3889 113.258 25.0165C113.258 24.4677 113.17 23.9875 112.993 23.5759C112.827 23.1545 112.586 22.8066 112.273 22.5322C111.969 22.248 111.597 22.0373 111.156 21.9001C110.724 21.7629 110.244 21.6943 109.715 21.6943C109.068 21.6943 108.485 21.8266 107.966 22.0912C107.446 22.346 107.005 22.6939 106.643 23.1349C106.29 23.5661 106.016 24.0659 105.82 24.6343C105.624 25.1929 105.526 25.776 105.526 26.3836C105.526 26.9324 105.604 27.4126 105.761 27.8242C105.927 28.2358 106.158 28.5837 106.452 28.8679C106.746 29.1423 107.098 29.3481 107.51 29.4853C107.931 29.6225 108.397 29.6911 108.907 29.6911C109.455 29.6911 109.936 29.6372 110.347 29.5294C110.769 29.4216 111.136 29.2599 111.45 29.0443C111.763 28.8189 112.033 28.5445 112.258 28.2211C112.484 27.8977 112.68 27.5204 112.846 27.0892H110.759C110.68 27.2068 110.592 27.3293 110.494 27.4567C110.406 27.5841 110.298 27.6968 110.171 27.7948C110.053 27.8928 109.911 27.9761 109.744 28.0447C109.588 28.1035 109.406 28.1329 109.201 28.1329C108.632 28.1329 108.211 27.9957 107.936 27.7213C107.662 27.4469 107.525 27.0892 107.525 26.6482V26.4571C107.525 26.4179 107.525 26.3787 107.525 26.3395C107.525 26.3003 107.53 26.2562 107.539 26.2072ZM119.685 24.8842H116.201C116.279 24.6686 116.372 24.4628 116.48 24.2668C116.598 24.0708 116.74 23.8993 116.907 23.7523C117.073 23.6053 117.269 23.4877 117.495 23.3995C117.72 23.3113 117.98 23.2672 118.274 23.2672C118.577 23.2672 118.822 23.3162 119.009 23.4142C119.195 23.5024 119.337 23.6249 119.435 23.7817C119.533 23.9385 119.597 24.1149 119.626 24.3109C119.665 24.4971 119.685 24.6882 119.685 24.8842ZM115.98 26.2072H121.581C121.66 25.7858 121.699 25.3889 121.699 25.0165C121.699 24.4677 121.611 23.9875 121.434 23.5759C121.268 23.1545 121.027 22.8066 120.714 22.5322C120.41 22.248 120.038 22.0373 119.597 21.9001C119.165 21.7629 118.685 21.6943 118.156 21.6943C117.509 21.6943 116.926 21.8266 116.407 22.0912C115.887 22.346 115.446 22.6939 115.084 23.1349C114.731 23.5661 114.457 24.0659 114.261 24.6343C114.065 25.1929 113.967 25.776 113.967 26.3836C113.967 26.9324 114.045 27.4126 114.202 27.8242C114.368 28.2358 114.599 28.5837 114.893 28.8679C115.187 29.1423 115.539 29.3481 115.951 29.4853C116.372 29.6225 116.838 29.6911 117.348 29.6911C117.896 29.6911 118.377 29.6372 118.788 29.5294C119.21 29.4216 119.577 29.2599 119.891 29.0443C120.204 28.8189 120.474 28.5445 120.699 28.2211C120.925 27.8977 121.121 27.5204 121.287 27.0892H119.2C119.121 27.2068 119.033 27.3293 118.935 27.4567C118.847 27.5841 118.739 27.6968 118.612 27.7948C118.494 27.8928 118.352 27.9761 118.185 28.0447C118.029 28.1035 117.847 28.1329 117.642 28.1329C117.073 28.1329 116.652 27.9957 116.377 27.7213C116.103 27.4469 115.966 27.0892 115.966 26.6482V26.4571C115.966 26.4179 115.966 26.3787 115.966 26.3395C115.966 26.3003 115.971 26.2562 115.98 26.2072ZM123.672 21.9001L122.099 29.5H124.172L124.877 26.1337C124.946 25.8103 125.034 25.5016 125.142 25.2076C125.259 24.9038 125.411 24.6343 125.597 24.3991C125.793 24.1639 126.029 23.9777 126.303 23.8405C126.587 23.7033 126.93 23.6347 127.332 23.6347C127.479 23.6347 127.626 23.6494 127.773 23.6788C127.92 23.7082 128.067 23.7376 128.214 23.767L128.64 21.7384C128.425 21.709 128.209 21.6943 127.994 21.6943C127.435 21.6943 126.916 21.8315 126.435 22.1059C125.965 22.3705 125.612 22.7674 125.377 23.2966L125.348 23.2672L125.656 21.9001H123.672ZM131.752 20.7241L132.134 19.0042H130.032L129.65 20.7241H131.752ZM129.415 21.9001L127.812 29.5H129.9L131.517 21.9001H129.415ZM133.189 21.9001L131.617 29.5H133.689L134.542 25.4575C134.601 25.1929 134.684 24.9332 134.792 24.6784C134.909 24.4236 135.051 24.1982 135.218 24.0022C135.394 23.8062 135.6 23.6494 135.835 23.5318C136.08 23.4044 136.36 23.3407 136.673 23.3407C136.918 23.3407 137.144 23.4142 137.35 23.5612C137.565 23.7082 137.673 23.8944 137.673 24.1198C137.673 24.2276 137.653 24.3795 137.614 24.5755C137.585 24.7715 137.56 24.9283 137.541 25.0459L136.615 29.5H138.702L139.643 25.0459C139.653 24.9773 139.667 24.8891 139.687 24.7813C139.716 24.6637 139.741 24.5412 139.76 24.4138C139.79 24.2864 139.814 24.1639 139.834 24.0463C139.853 23.9189 139.863 23.816 139.863 23.7376C139.863 22.3754 139.123 21.6943 137.644 21.6943C136.546 21.6943 135.659 22.1157 134.983 22.9585H134.953L135.189 21.9001H133.189ZM147.924 29.1031L149.438 21.9001H147.439L147.203 23.0614H147.174C146.958 22.5616 146.65 22.2088 146.248 22.003C145.846 21.7972 145.381 21.6943 144.851 21.6943C144.244 21.6943 143.7 21.8315 143.22 22.1059C142.749 22.3705 142.347 22.7233 142.014 23.1643C141.691 23.5955 141.441 24.0855 141.265 24.6343C141.098 25.1733 141.015 25.7221 141.015 26.2807C141.015 26.7511 141.083 27.1774 141.22 27.5596C141.358 27.932 141.549 28.2554 141.794 28.5298C142.049 28.8042 142.357 29.0149 142.72 29.1619C143.082 29.3089 143.489 29.3824 143.94 29.3824C144.793 29.3824 145.488 29.0247 146.027 28.3093L146.057 28.3387C145.949 28.7013 145.841 29.0443 145.733 29.3677C145.626 29.6911 145.493 29.9704 145.336 30.2056C145.18 30.4408 144.989 30.627 144.763 30.7642C144.548 30.9014 144.273 30.97 143.94 30.97C143.773 30.97 143.607 30.9504 143.44 30.9112C143.274 30.872 143.122 30.8083 142.984 30.7201C142.857 30.6319 142.754 30.5192 142.676 30.382C142.597 30.2448 142.563 30.0782 142.573 29.8822H140.5C140.5 30.3428 140.593 30.7299 140.779 31.0435C140.975 31.3571 141.225 31.6119 141.529 31.8079C141.843 32.0039 142.191 32.146 142.573 32.2342C142.965 32.3224 143.352 32.3665 143.734 32.3665C144.361 32.3665 144.905 32.3028 145.366 32.1754C145.836 32.048 146.238 31.852 146.571 31.5874C146.914 31.3228 147.194 30.9847 147.409 30.5731C147.625 30.1615 147.796 29.6715 147.924 29.1031ZM145.234 23.2672C145.743 23.2672 146.12 23.424 146.365 23.7376C146.61 24.0414 146.733 24.4334 146.733 24.9136C146.733 25.237 146.684 25.5702 146.586 25.9132C146.498 26.2562 146.361 26.5698 146.174 26.854C145.998 27.1284 145.768 27.3587 145.483 27.5449C145.209 27.7213 144.886 27.8095 144.513 27.8095C144.268 27.8095 144.058 27.7654 143.881 27.6772C143.705 27.589 143.558 27.4665 143.44 27.3097C143.323 27.1529 143.234 26.9765 143.176 26.7805C143.127 26.5747 143.102 26.3591 143.102 26.1337C143.102 25.8299 143.146 25.5114 143.234 25.1782C143.332 24.8352 143.47 24.5265 143.646 24.2521C143.822 23.9679 144.043 23.7327 144.307 23.5465C144.572 23.3603 144.881 23.2672 145.234 23.2672ZM70.3225 35.0042L64.0162 45.5H65.5597L67.3972 42.3395H71.8219L72.307 45.5H73.7476L71.8513 35.0042H70.3225ZM68.0293 41.1635L70.837 36.239H70.8664L71.6455 41.1635H68.0293ZM80.73 40.3109H81.9795C81.9501 39.4191 81.6806 38.7674 81.171 38.3558C80.6712 37.9344 79.9901 37.7237 79.1277 37.7237C78.4515 37.7237 77.8488 37.856 77.3196 38.1206C76.8002 38.3754 76.3592 38.7233 75.9966 39.1643C75.6438 39.5955 75.3743 40.0904 75.1881 40.649C75.0117 41.2076 74.9235 41.7907 74.9235 42.3983C74.9235 43.4371 75.1832 44.2407 75.7026 44.8091C76.2318 45.3775 77.0158 45.6617 78.0546 45.6617C78.9464 45.6617 79.6912 45.4363 80.289 44.9855C80.8868 44.5347 81.2984 43.8781 81.5238 43.0157H80.2743C80.0979 43.4861 79.8186 43.8634 79.4364 44.1476C79.0542 44.4318 78.5936 44.5739 78.0546 44.5739C77.7018 44.5739 77.4029 44.5151 77.1579 44.3975C76.9227 44.2799 76.7316 44.1231 76.5846 43.9271C76.4376 43.7311 76.3298 43.5008 76.2612 43.2362C76.2024 42.9716 76.173 42.6923 76.173 42.3983C76.173 41.9867 76.2367 41.5702 76.3641 41.1488C76.4915 40.7176 76.6777 40.3305 76.9227 39.9875C77.1775 39.6445 77.4862 39.3652 77.8488 39.1496C78.2212 38.934 78.6475 38.8262 79.1277 38.8262C79.6275 38.8262 80.0195 38.9585 80.3037 39.2231C80.5879 39.4779 80.73 39.8405 80.73 40.3109ZM83.2894 40.1933H84.5389C84.5781 39.9483 84.6614 39.7425 84.7888 39.5759C84.9162 39.3995 85.073 39.2574 85.2592 39.1496C85.4454 39.032 85.6512 38.9487 85.8766 38.8997C86.1118 38.8507 86.347 38.8262 86.5822 38.8262C86.7488 38.8262 86.9203 38.8409 87.0967 38.8703C87.2829 38.8997 87.4495 38.9536 87.5965 39.032C87.7435 39.1006 87.866 39.1986 87.964 39.326C88.062 39.4534 88.111 39.62 88.111 39.8258C88.111 40.0806 88.0718 40.2815 87.9934 40.4285C87.9248 40.5755 87.8121 40.6882 87.6553 40.7666C87.4985 40.845 87.2976 40.9038 87.0526 40.943C86.8174 40.9724 86.5332 41.0018 86.2 41.0312C85.7786 41.0704 85.3425 41.1194 84.8917 41.1782C84.4409 41.237 84.0293 41.3497 83.6569 41.5163C83.2845 41.6731 82.9758 41.9083 82.7308 42.2219C82.4956 42.5355 82.378 42.9716 82.378 43.5302C82.378 43.9222 82.4368 44.2554 82.5544 44.5298C82.6818 44.7944 82.8484 45.0149 83.0542 45.1913C83.26 45.3579 83.5001 45.4755 83.7745 45.5441C84.0587 45.6225 84.3625 45.6617 84.6859 45.6617C85.3327 45.6617 85.8521 45.5686 86.2441 45.3824C86.6361 45.1962 86.9644 44.9267 87.229 44.5739L87.2584 44.6033C87.2192 44.9365 87.2878 45.1962 87.4642 45.3824C87.6406 45.5686 87.9003 45.6617 88.2433 45.6617C88.3511 45.6617 88.4785 45.6421 88.6255 45.6029C88.7823 45.5735 88.9097 45.5392 89.0077 45.5L89.1988 44.5739C89.14 44.5935 89.0714 44.618 88.993 44.6474C88.9244 44.667 88.8607 44.6768 88.8019 44.6768C88.6941 44.6768 88.6059 44.6425 88.5373 44.5739C88.4687 44.5053 88.4344 44.3828 88.4344 44.2064C88.4344 44.03 88.4589 43.8438 88.5079 43.6478C88.5667 43.4518 88.6108 43.2754 88.6402 43.1186L89.1253 41.0459C89.1743 40.8401 89.2233 40.6147 89.2723 40.3697C89.3311 40.1149 89.3605 39.8797 89.3605 39.6641C89.3605 39.2819 89.2821 38.9683 89.1253 38.7233C88.9783 38.4685 88.7774 38.2676 88.5226 38.1206C88.2678 37.9736 87.9738 37.8707 87.6406 37.8119C87.3074 37.7531 86.9546 37.7237 86.5822 37.7237C86.1804 37.7237 85.7933 37.7727 85.4209 37.8707C85.0485 37.9687 84.7153 38.1206 84.4213 38.3264C84.1273 38.5322 83.8774 38.7919 83.6716 39.1055C83.4756 39.4093 83.3482 39.7719 83.2894 40.1933ZM83.6128 43.5155C83.6226 43.1921 83.7059 42.9422 83.8627 42.7658C84.0195 42.5796 84.2204 42.4375 84.4654 42.3395C84.7104 42.2415 84.9848 42.1729 85.2886 42.1337C85.6022 42.0847 85.9109 42.0455 86.2147 42.0161C86.5185 41.9867 86.8027 41.9475 87.0673 41.8985C87.3417 41.8397 87.5671 41.7466 87.7435 41.6192H87.7729C87.6847 41.972 87.6014 42.315 87.523 42.6482C87.4544 42.9814 87.3172 43.2901 87.1114 43.5743C86.6802 44.2407 85.9697 44.5739 84.9799 44.5739C84.6271 44.5739 84.3086 44.4857 84.0244 44.3093C83.75 44.1329 83.6128 43.8683 83.6128 43.5155ZM96.8215 45.5L99.0412 35.0042H97.8064L96.9979 39.0614H96.9685C96.8901 38.8066 96.7676 38.5959 96.601 38.4293C96.4344 38.2529 96.2384 38.1157 96.013 38.0177C95.7974 37.9099 95.5671 37.8364 95.3221 37.7972C95.0771 37.7482 94.837 37.7237 94.6018 37.7237C93.9354 37.7237 93.3376 37.8707 92.8084 38.1647C92.289 38.4489 91.848 38.8213 91.4854 39.2819C91.1326 39.7425 90.8582 40.2619 90.6622 40.8401C90.476 41.4085 90.3829 41.9818 90.3829 42.56C90.3829 43.0206 90.4466 43.442 90.574 43.8242C90.7014 44.2064 90.8925 44.5347 91.1473 44.8091C91.4021 45.0737 91.7157 45.2844 92.0881 45.4412C92.4605 45.5882 92.8868 45.6617 93.367 45.6617C93.8766 45.6617 94.3274 45.5784 94.7194 45.4118C95.1212 45.2354 95.5083 44.9022 95.8807 44.4122H95.9101L95.6455 45.5H96.8215ZM91.6324 42.56C91.6324 42.1386 91.6961 41.7074 91.8235 41.2664C91.9509 40.8254 92.142 40.4236 92.3968 40.061C92.6516 39.6984 92.9652 39.4044 93.3376 39.179C93.71 38.9438 94.1461 38.8262 94.6459 38.8262C95.2633 38.8262 95.7337 39.0124 96.0571 39.3848C96.3903 39.7572 96.5569 40.2276 96.5569 40.796C96.5569 41.188 96.4883 41.6094 96.3511 42.0602C96.2237 42.5012 96.0326 42.9079 95.7778 43.2803C95.5328 43.6527 95.2241 43.9614 94.8517 44.2064C94.4793 44.4514 94.0579 44.5739 93.5875 44.5739C92.9015 44.5739 92.4017 44.3926 92.0881 44.03C91.7843 43.6674 91.6324 43.1774 91.6324 42.56ZM100.287 42.0749H106.006C106.025 41.9671 106.05 41.825 106.079 41.6486C106.109 41.4722 106.123 41.286 106.123 41.09C106.123 40.0218 105.864 39.1937 105.344 38.6057C104.835 38.0177 104.021 37.7237 102.904 37.7237C102.385 37.7237 101.885 37.8413 101.405 38.0765C100.934 38.3117 100.518 38.6449 100.155 39.0761C99.8023 39.5073 99.5181 40.0267 99.3025 40.6343C99.0967 41.2321 98.9938 41.8936 98.9938 42.6188C98.9938 42.952 99.0428 43.2999 99.1408 43.6625C99.2388 44.0153 99.4103 44.3436 99.6553 44.6474C99.9003 44.9414 100.229 45.1864 100.64 45.3824C101.062 45.5686 101.586 45.6617 102.213 45.6617C102.625 45.6617 103.017 45.6078 103.389 45.5C103.762 45.3922 104.1 45.2354 104.403 45.0296C104.707 44.814 104.967 44.5494 105.183 44.2358C105.398 43.9124 105.555 43.54 105.653 43.1186H104.403C104.227 43.589 103.958 43.9516 103.595 44.2064C103.232 44.4514 102.772 44.5739 102.213 44.5739C101.958 44.5739 101.713 44.5347 101.478 44.4563C101.243 44.3681 101.032 44.2505 100.846 44.1035C100.66 43.9467 100.513 43.7556 100.405 43.5302C100.297 43.295 100.243 43.0304 100.243 42.7364C100.243 42.511 100.258 42.2905 100.287 42.0749ZM104.874 40.9724H100.464C100.552 40.6784 100.67 40.404 100.817 40.1492C100.964 39.8846 101.145 39.6543 101.361 39.4583C101.576 39.2623 101.826 39.1104 102.11 39.0026C102.404 38.885 102.733 38.8262 103.095 38.8262C103.438 38.8262 103.727 38.8899 103.962 39.0173C104.198 39.1349 104.384 39.2966 104.521 39.5024C104.668 39.6984 104.766 39.9287 104.815 40.1933C104.874 40.4481 104.893 40.7078 104.874 40.9724ZM108.286 37.9001L106.684 45.5H107.918L108.771 41.5163C108.849 41.1439 108.938 40.8303 109.036 40.5755C109.134 40.3109 109.315 40.0512 109.579 39.7964C109.805 39.5416 110.084 39.3162 110.417 39.1202C110.76 38.9242 111.103 38.8262 111.446 38.8262C111.789 38.8262 112.049 38.9144 112.225 39.0908C112.412 39.2672 112.505 39.5122 112.505 39.8258C112.505 39.914 112.48 40.0855 112.431 40.3403C112.392 40.5951 112.338 40.8695 112.27 41.1635L111.358 45.5H112.608L113.446 41.5751C113.514 41.2517 113.597 40.943 113.695 40.649C113.793 40.355 113.945 40.0953 114.151 39.8699C114.259 39.7327 114.386 39.6004 114.533 39.473C114.68 39.3456 114.837 39.2378 115.004 39.1496C115.17 39.0516 115.342 38.9732 115.518 38.9144C115.704 38.8556 115.886 38.8262 116.062 38.8262C116.395 38.8262 116.67 38.9242 116.885 39.1202C117.111 39.3162 117.223 39.5612 117.223 39.8552C117.223 39.963 117.209 40.1002 117.179 40.2668C117.16 40.4236 117.135 40.5608 117.106 40.6784L116.047 45.5H117.297L118.252 40.943C118.301 40.7274 118.35 40.4775 118.399 40.1933C118.448 39.9091 118.473 39.6543 118.473 39.4289C118.473 39.1153 118.414 38.8507 118.297 38.6351C118.179 38.4195 118.017 38.248 117.811 38.1206C117.615 37.9834 117.39 37.8854 117.135 37.8266C116.88 37.758 116.621 37.7237 116.356 37.7237C115.847 37.7237 115.357 37.8511 114.886 38.1059C114.426 38.3509 114.048 38.6792 113.754 39.0908C113.646 38.591 113.421 38.2382 113.078 38.0324C112.735 37.8266 112.323 37.7237 111.843 37.7237C111.314 37.7237 110.819 37.8462 110.359 38.0912C109.908 38.3264 109.521 38.6498 109.197 39.0614L109.168 39.032L109.447 37.9001H108.286ZM121.656 46.7789L126.684 37.9001H125.317L122.127 43.9418H122.097L121.215 37.9001H119.878L121.215 45.5L120.451 46.7495C120.304 46.9945 120.142 47.1905 119.966 47.3375C119.789 47.4943 119.559 47.5727 119.275 47.5727C119.177 47.5727 119.059 47.5531 118.922 47.5139C118.785 47.4747 118.667 47.4257 118.569 47.3669L118.349 48.3812C118.466 48.44 118.604 48.4841 118.76 48.5135C118.917 48.5527 119.069 48.5723 119.216 48.5723C119.53 48.5723 119.804 48.5233 120.039 48.4253C120.275 48.3371 120.485 48.2097 120.671 48.0431C120.858 47.8863 121.029 47.6952 121.186 47.4698C121.343 47.2542 121.5 47.0239 121.656 46.7789Z" fill="#6F7689"/>
</svg>
