<svg width="111" height="53" viewBox="0 0 111 53" fill="none" xmlns="http://www.w3.org/2000/svg">
<path fill-rule="evenodd" clip-rule="evenodd" d="M75.7111 52.4247L67.2578 43.93V26.4551L93.5838 0H109.766L110.732 0.970828V8.73746L95.7575 24.028L97.2067 25.6056H109.524L110.732 26.9405V35.1926L93.5838 52.4247H75.7111ZM85.1305 9.70829V25.727L93.3423 33.979H109.766V26.5764H96.7236L92.8593 22.5718V13.1062L97.2067 8.61611H109.766V0.970828H93.8254L85.1305 9.70829ZM8.3791 52.5529V26.7122H0V17.5684L17.2439 0.256041H26.2302L27.6875 1.71906L29.6304 0.256041H43.4742V9.52181L35.0951 18.178V35.1246L17.4868 52.5529H8.3791ZM26.5945 8.91222V34.6369H34.245V9.52181L25.7445 0.987548H18.2154V8.91222H26.5945ZM42.7456 0.987548H31.3306L38.8596 8.54646H42.7456V0.987548Z" fill="#6F7689"/>
<path fill-rule="evenodd" clip-rule="evenodd" d="M34.7793 52.4247V43.4446V38.9545V30.5811L34.7935 26.3337H35.0208V17.4749L52.4105 0H78.2535V9.70829V17.4749L74.2683 22.3291L71.4908 25.2416V25.8483H78.2535V35.4353L61.3468 52.4247H34.7793ZM77.5289 26.6978H53.1351V33.979H53.1771V34.0185H77.5709V26.7373H77.5289V26.6978ZM73.1815 13.8343H52.8935V20.6301H52.9355V20.6696H73.2235V13.8738H73.1815V13.8343ZM77.5289 0.728121H53.1351V8.25205H53.1771V8.29151H77.5709V0.767578H77.5289V0.728121Z" fill="#6F7689"/>
</svg>
