<svg width="321" height="80" viewBox="0 0 321 80" fill="none" xmlns="http://www.w3.org/2000/svg">
<g clip-path="url(#clip0_2160_3872)">
<path fill-rule="evenodd" clip-rule="evenodd" d="M33.1165 4.62827L29.0617 0.214113C35.1656 -0.592776 51.2708 0.441939 66.8617 11.0359C67.0644 12.4991 67.0208 13.9576 67.0208 13.9576L67.4285 14.184C68.1732 15.2062 69.0284 17.1262 69.5388 19.5036C70.0475 21.8745 70.1897 24.5928 69.6013 27.1815C69.0063 29.7994 67.8762 31.9624 66.7691 33.5445C65.636 35.1639 64.5978 36.0776 64.2691 36.2747L64.1651 36.3372C62.2402 36.6962 59.5815 38.1078 58.5015 41.6608C55.3411 43.6289 50.0012 45.7841 42.7422 45.7841C36.3086 45.7841 29.7592 43.9219 24.8494 40.3352C19.9693 36.7702 16.7051 31.509 16.7051 24.5763C16.7051 19.077 19.1698 14.7753 22.3183 11.5969C25.4916 8.39327 29.8308 5.80183 32.315 4.95119L32.9304 4.7405L32.8937 4.7091L33.1165 4.62827ZM59.9503 13.278C58.723 14.6506 57.5753 15.3092 57.2477 15.4878C50.0801 13.8509 47.4979 9.86985 47.4979 9.86985C54.2586 9.82506 60.3606 11.5515 64.825 14.472C64.825 14.472 62.4082 13.6312 59.9503 13.278Z" fill="white"/>
<path d="M26.6561 5.37946C11.4525 9.00892 0 22.9242 0 39.6634C0 61.3701 18.3479 79.3059 40.981 79.3059C57.8819 79.3059 71.9501 68.9723 79.3061 55.1466C69.7371 57.4161 58.3525 53.5188 57.7898 44.9086C57.8072 44.8415 57.8243 44.7736 57.8415 44.705C54.2705 46.5225 49.1749 48.1139 42.745 48.1139C35.9017 48.1139 28.8499 46.1407 23.478 42.2165C18.0767 38.2707 14.3783 32.3457 14.3783 24.5764C14.3783 18.3139 17.203 13.4534 20.666 9.95744L20.6672 9.95619C22.2824 8.34107 24.3706 6.80028 26.29 5.60459C26.4127 5.52823 26.5347 5.45315 26.6561 5.37946Z" fill="white"/>
<path d="M14.748 24.5763C14.748 18.4356 17.5153 13.6643 20.928 10.2189C22.9028 8.24424 25.6101 6.37022 27.8339 5.12C25.6101 6.37022 22.9028 8.24424 20.928 10.2189C17.5153 13.6643 14.748 18.4356 14.748 24.5763Z" fill="white"/>
<path d="M67.3086 36.6171C68.0078 36.9031 68.4353 37.2789 68.6591 37.5161C69.1965 38.0856 70.5401 39.7942 68.9278 42.4997C72.2867 41.9302 77.5336 38.5127 77.9301 29.8268C78.1937 24.0527 75.175 19.8393 71.1923 16.7076C71.4327 17.4328 71.6451 18.2074 71.8185 19.0147C72.3802 21.6324 72.5554 24.7032 71.8747 27.6978C71.201 30.6629 69.9253 33.0999 68.6798 34.8801C68.2183 35.5397 67.751 36.1229 67.3086 36.6171Z" fill="white"/>
<path d="M228.54 20.3477C234.346 20.3477 237.994 21.9893 241.45 24.9346L237.705 29.4248C235.115 27.2039 232.524 25.8519 228.3 25.8519C222.158 25.8519 217.407 31.2594 217.407 37.7293L217.411 38.1315C217.541 44.9278 222.067 49.8964 228.829 49.8964C232.045 49.8964 234.875 48.8826 236.939 47.3374V41.0607L242.649 35.8463V50.0412C239.29 52.89 234.586 55.3041 228.636 55.3041C218.126 55.3041 211.217 47.7719 211.217 37.9225L211.219 37.5178C211.372 28.1893 218.478 20.3477 228.54 20.3477ZM266.545 20.3477C276.864 20.3477 284.062 28.2177 284.062 37.7293L284.058 38.1305C283.903 47.4605 276.656 55.3041 266.45 55.3041C256.133 55.3041 248.933 47.4341 248.933 37.9225L248.937 37.521C249.092 28.191 256.339 20.3477 266.545 20.3477ZM117.78 20.6857L132.561 54.7246L126.552 54.7244L114.949 27.7832L103.431 54.7244L97.5293 54.7246L112.31 20.6857H117.78ZM193.91 20.6857L208.691 54.7246L202.682 54.7244L191.079 27.7832L179.56 54.7244L173.659 54.7246L188.439 20.6857H193.91ZM295.901 20.9272L313.896 44.2956V20.9272H319.704V54.7246H314.761L296.237 30.6801V54.7246H290.431V20.9272H295.901ZM266.45 25.8519C259.779 25.8519 255.124 31.1629 255.124 37.7293L255.126 38.1149C255.262 44.5502 259.926 49.7999 266.545 49.7999C273.216 49.7999 277.87 44.4888 277.87 37.9225L277.868 37.5369C277.732 31.1016 273.068 25.8519 266.45 25.8519Z" fill="white"/>
<path d="M154.683 20.3477C158.914 20.3477 162.232 21.6237 164.396 23.7831C166.175 25.6972 167.184 28.2003 167.184 31.1939L167.183 31.4754C167.114 36.8879 163.959 40.19 159.505 41.6041L159.203 41.6967L168.29 54.7023H161.27L153 42.7273L148.659 42.7263L151.706 37.3768L154.25 37.3779C158.385 37.3779 161.051 35.2685 161.17 31.8746L161.174 31.6357L161.173 31.4065C161.114 27.7616 158.574 25.8445 154.202 25.8445H145.596L145.595 36.4644L145.59 36.4636V44.1249L145.595 44.1223L145.596 54.7023H139.682V20.3477H154.683Z" fill="white"/>
</g>
<defs>
<clipPath id="clip0_2160_3872">
<rect width="321.001" height="79.3061" fill="white"/>
</clipPath>
</defs>
</svg>
