<svg width="313" height="81" viewBox="0 0 313 81" fill="none" xmlns="http://www.w3.org/2000/svg">
<path fill-rule="evenodd" clip-rule="evenodd" d="M40.3871 72.7935C58.2312 72.7935 72.6968 58.3279 72.6968 40.4838C72.6968 22.6396 58.2312 8.1741 40.3871 8.1741C22.543 8.1741 8.07742 22.6396 8.07742 40.4838C8.07742 58.3279 22.543 72.7935 40.3871 72.7935ZM40.3871 80.8709C62.6923 80.8709 80.7742 62.789 80.7742 40.4838C80.7742 18.1786 62.6923 0.0966797 40.3871 0.0966797C18.0819 0.0966797 0 18.1786 0 40.4838C0 62.789 18.0819 80.8709 40.3871 80.8709Z" fill="white"/>
<path d="M41.1942 24.6343C31.5487 24.6343 23.7295 32.4535 23.7295 42.099H15.543C15.543 27.9322 27.0274 16.4478 41.1942 16.4478V24.6343Z" fill="white"/>
<path d="M116.191 42.6361C119.357 42.6361 121.367 44.2502 121.489 46.8209H130.562C130.136 40.723 124.594 35.6414 115.886 35.6414C106.935 35.6414 100.967 41.9187 100.967 49.4514C100.967 56.9841 106.569 63.2016 115.886 63.2016C124.046 63.2016 129.466 58.6581 130.379 52.7993H121.489C121.184 55.1906 118.992 56.3863 116.191 56.3863C111.928 56.3863 110.71 52.5601 110.71 49.5112C110.71 46.522 112.05 42.6361 116.191 42.6361Z" fill="white"/>
<path d="M145.223 63.1086V17.7661H136.089V63.1086H145.223Z" fill="white"/>
<path d="M167.665 42.8752C169.065 42.8752 170.405 43.2937 171.318 44.3698H171.44V36.2392C170.71 35.8805 169.492 35.6414 168.7 35.6414C165.351 35.6414 163.037 37.4947 161.636 39.4675V36.2392H152.502V63.1086H161.636V49.4514C161.636 46.2829 164.255 42.8752 167.665 42.8752Z" fill="white"/>
<path d="M175.207 58.0004C175.207 60.87 177.582 63.2016 180.566 63.2016C183.489 63.2016 185.925 60.87 185.925 58.0004C185.925 55.071 183.489 52.7395 180.566 52.7395C177.582 52.7395 175.207 55.071 175.207 58.0004Z" fill="white"/>
<path d="M203.418 17.7661C198.547 17.7661 194.771 20.7553 194.771 27.2717V36.2392H190.935V43.1741H194.771V63.1086H203.906V43.1741H210.178V36.2392H203.906V28.3478C203.906 25.7771 204.393 24.7608 206.28 24.7608H210.178V17.7661H203.418Z" fill="white"/>
<path d="M214.275 51.2449C214.275 58.3591 217.198 63.2016 224.384 63.2016C227.915 63.2016 230.778 61.6472 232.604 59.3755V63.1086H241.739V36.2392H232.604V49.4514C232.604 52.9786 230.351 56.0276 227.489 56.0276C224.627 56.0276 223.409 54.2939 223.409 51.2449V36.2392H214.275V51.2449Z" fill="white"/>
<path d="M276.482 47.6579C276.482 40.4839 273.559 35.6414 266.374 35.6414C262.842 35.6414 259.98 37.1958 258.153 39.4675V36.2392H249.019V63.1086H258.153V49.4514C258.153 45.8644 260.406 42.8752 263.268 42.8752C266.13 42.8752 267.348 44.5491 267.348 47.6579V63.1086H276.482V47.6579Z" fill="white"/>
<path d="M303.865 49.4514C303.865 52.9188 301.124 56.0276 297.471 56.0276C293.817 56.0276 291.077 52.9188 291.077 49.4514C291.077 45.9839 293.817 42.8752 297.471 42.8752C301.124 42.8752 303.865 45.9839 303.865 49.4514ZM312.999 17.7661H303.865V39.4675C301.49 36.5979 298.08 35.6414 294.67 35.6414C287.058 35.6414 281.333 42.1578 281.333 49.4514C281.333 56.745 287.058 63.2016 294.67 63.2016C298.08 63.2016 302.038 62.1255 303.865 59.4352V63.1086H312.999V17.7661Z" fill="white"/>
</svg>
