<svg width="195" height="89" viewBox="0 0 195 89" fill="none" xmlns="http://www.w3.org/2000/svg">
<path d="M28.261 6.0313V6.46868L28.6495 6.66307L29.0379 6.46868V6.0313L28.6495 5.83691L28.261 6.0313ZM34.3306 31.8365V32.9056L35.2532 33.4402L36.1758 32.9056V31.8365L35.2532 31.3019L34.3306 31.8365ZM27.4355 15.3134V14.5844L28.0668 14.1957L28.698 14.5844V15.3134L28.0668 15.7022L27.4355 15.3134ZM50.2572 58.9538V60.7519L51.811 61.6266L53.3648 60.7519V58.9538L51.811 58.079L50.2572 58.9538ZM46.1299 49.7203V48.1166L47.4895 47.339L48.849 48.1166V49.7203L47.4895 50.4979L46.1299 49.7203ZM39.9146 39.1261V40.4868L41.08 41.1672L42.2453 40.4868V39.1261L41.08 38.4457L39.9146 39.1261ZM29.5235 24.0609V23.089L30.349 22.603L31.1744 23.089V24.0609L30.349 24.5469L29.5235 24.0609ZM50.2572 69.9368V70.4714L50.6942 70.7143L51.1312 70.4714V69.9368L50.6942 69.6938L50.2572 69.9368Z" fill="#F2F2F2"/>
<path d="M46.7611 77.518V77.1778L47.0525 77.032L47.3438 77.1778V77.518L47.0525 77.6638L46.7611 77.518Z" fill="#F2F2F2"/>
<path d="M18.3066 16.5821V17.0195L18.695 17.2139L19.0835 17.0195V16.5821L18.695 16.3877L18.3066 16.5821ZM35.1558 74.7045V75.1419L35.5442 75.3363L35.9327 75.1419V74.7045L35.5442 74.5101L35.1558 74.7045ZM33.5048 67.8523V67.0261L34.2332 66.5887L34.9615 67.0261V67.8523L34.2332 68.2896L33.5048 67.8523ZM29.2319 58.6674V59.9309L30.3487 60.5627L31.4655 59.9309V58.6674L30.3487 58.0356L29.2319 58.6674ZM24.3276 52.2525V50.7946L25.5901 50.0656L26.8526 50.7946V52.2525L25.5901 52.9815L24.3276 52.2525ZM20.0061 42.6303V44.3312L21.4628 45.1573L22.9195 44.3312V42.6303L21.4628 41.8041L20.0061 42.6303ZM17.3355 35.0005V33.9313L18.258 33.3968L19.1806 33.9313V35.0005L18.258 35.535L17.3355 35.0005ZM16.8984 24.552V25.281L17.5297 25.6698L18.1609 25.281V24.552L17.5297 24.1633L16.8984 24.552Z" fill="#F2F2F2"/>
<path d="M6.26436 35.0494V35.4867L6.6528 35.6811L7.04125 35.4867V35.0494L6.6528 34.855L6.26436 35.0494ZM5.68164 42.1879V42.9168L6.3129 43.3056L6.94413 42.9168V42.1879L6.3129 41.7991L5.68164 42.1879ZM6.02157 51.0326V49.9634L6.94416 49.4289L7.86672 49.9634V51.0326L6.94416 51.5671L6.02157 51.0326ZM7.7696 56.8643V58.468L9.12919 59.2455L10.4888 58.468V56.8643L9.12919 56.0867L7.7696 56.8643ZM11.7513 64.7856V63.4249L12.9166 62.7445L14.082 63.4249V64.7856L12.9166 65.466L11.7513 64.7856ZM16.7526 69.6454V70.7145L17.6752 71.2491L18.5977 70.7145V69.6454L17.6752 69.1108L16.7526 69.6454ZM22.0938 75.4338V74.7048L22.7251 74.316L23.3563 74.7048V75.4338L22.7251 75.8225L22.0938 75.4338ZM26.7553 79.7589V80.0991L27.0466 80.2449L27.338 80.0991V79.7589L27.0466 79.6131L26.7553 79.7589Z" fill="#F2F2F2"/>
<path d="M36.2715 2.62994V3.06731L36.6599 3.2617L37.0484 3.06731V2.62994L36.6599 2.43555L36.2715 2.62994ZM38.3594 10.1193V10.8482L38.9906 11.237L39.6219 10.8482V10.1193L38.9906 9.73047L38.3594 10.1193ZM41.8069 18.2783V16.9175L42.9723 16.2372L44.1377 16.9175V18.2783L42.9723 18.9586L41.8069 18.2783ZM47.9736 23.7212V25.5193L49.5275 26.394L51.0813 25.5193V23.7212L49.5275 22.8464L47.9736 23.7212ZM55.3543 32.3229V31.1566L56.374 30.5734L57.3937 31.1566V32.3229L56.374 32.9061L55.3543 32.3229ZM60.9383 37.4256V37.9116L61.3753 38.1546L61.8123 37.9116V37.4256L61.3753 37.1826L60.9383 37.4256Z" fill="#F2F2F2"/>
<path d="M32.9224 0.00532423C32.5825 -0.0432731 32.2912 0.248311 32.2426 0.588492C29.3292 13.4668 30.4945 23.1377 46.5183 39.6607C68.8544 62.6959 50.2086 80.3367 40.4487 86.6544C40.303 86.7516 40.0602 87.0431 40.2059 87.4319C40.3516 87.8693 40.7886 87.8693 40.9342 87.8693C63.2703 82.4264 77.6431 55.8923 55.6469 36.2103C43.5078 25.3245 34.282 18.8125 33.5051 0.734284C33.5051 0.345506 33.2623 0.0539216 32.9224 0.00532423Z" fill="#F2F2F2"/>
<path d="M27.1427 1.95472C26.8513 1.76033 26.4629 1.90612 26.2686 2.19771C16.8486 17.0199 18.7423 32.571 27.7253 44.8176C43.7005 66.5406 38.8448 80.6771 35.106 87.1891C35.0088 87.3349 34.9117 87.7237 35.2031 87.9667C35.4944 88.2583 35.8829 88.1125 36.0286 88.0153C46.8567 79.2192 52.5378 61.4864 37.8737 41.9017C29.8618 31.2103 20.7817 22.2684 27.434 2.78088C27.5311 2.53789 27.434 2.14911 27.1427 1.95472Z" fill="#F2F2F2"/>
<path d="M19.7624 7.73754C19.471 7.54315 19.0826 7.68894 18.8884 7.93193C7.86599 23.6775 6.79775 40.341 11.5563 53.3218C18.2571 69.3104 31.0761 77.032 31.9501 87.3832C31.9987 87.6262 32.0958 88.0636 32.5814 88.0636C33.0669 88.0636 33.2126 87.6748 33.2612 87.4804C35.2034 71.6863 25.4921 61.2379 20.6364 52.4904C14.7125 40.827 11.0707 28.0512 20.0537 8.5151C20.1023 8.27211 20.0052 7.88333 19.7624 7.73754Z" fill="#F2F2F2"/>
<path d="M28.2135 85.625C28.7487 86.8412 27.6318 87.982 26.3335 87.6988C14.7757 85.1773 0 76.0422 0 54.9258C0 48.6567 1.4567 42.5335 3.15619 37.1877C3.2533 36.8476 3.59319 36.6046 3.93308 36.7018C4.22442 36.7504 4.46721 37.042 4.41865 37.3821C2.62205 49.6773 3.78742 63.7652 14.8098 72.6585C21.453 78.0019 26.3516 81.3939 28.2135 85.625Z" fill="#F2F2F2"/>
<path d="M49.0411 17.6517C43.9249 11.9117 41.1226 6.62793 40.0384 3.14204C39.8101 2.40804 40.5177 1.80578 41.2092 2.14159C50.0463 6.43347 58.3572 19.5369 63.1226 33.2028C63.1711 33.3 63.1711 33.6888 62.7827 33.786C62.4913 33.8832 62.2485 33.6402 62.2 33.543C59.5779 27.9543 54.4795 23.7263 49.0411 17.6517Z" fill="#F2F2F2"/>
<path d="M105.32 27.4676H103.571V17.2622H99.5898V15.6099H109.35V17.2622H105.368V27.4676H105.32Z" fill="#F2F2F2"/>
<path d="M119.11 27.4677H117.362V22.5594C117.362 21.6846 117.216 21.0528 116.925 20.6641C116.682 20.2753 116.293 20.1295 115.808 20.1295C115.565 20.1295 115.274 20.1781 115.031 20.2753C114.74 20.3725 114.497 20.5183 114.254 20.7127C114.011 20.9071 113.817 21.15 113.623 21.393C113.477 21.636 113.332 21.879 113.234 22.1706V27.4677H111.486V15.3184H113.234V19.7893C113.477 19.4977 113.769 19.2547 114.108 19.0604C114.74 18.6716 115.419 18.4772 116.148 18.4772C116.682 18.4772 117.119 18.5744 117.507 18.7688C117.896 18.9632 118.187 19.2547 118.43 19.5949C118.673 19.9351 118.818 20.3239 118.916 20.8099C119.013 21.2472 119.061 21.7818 119.061 22.3164V27.4677H119.11Z" fill="#F2F2F2"/>
<path d="M125.518 27.6624C124.887 27.6624 124.256 27.5652 123.721 27.3223C123.187 27.0793 122.702 26.7391 122.313 26.3017C121.925 25.8643 121.585 25.3784 121.391 24.8438C121.196 24.3092 121.051 23.6775 121.051 23.0457C121.051 22.4139 121.148 21.8308 121.391 21.2962C121.633 20.7616 121.925 20.2756 122.313 19.8383C122.702 19.4009 123.187 19.0607 123.721 18.8663C124.256 18.6233 124.838 18.4775 125.469 18.4775C126.101 18.4775 126.732 18.6233 127.266 18.8663C127.8 19.1093 128.286 19.4495 128.674 19.8383C129.063 20.2756 129.354 20.7616 129.597 21.2962C129.791 21.8308 129.937 22.4139 129.937 23.0457V23.2887C129.937 23.4345 129.937 23.4831 129.888 23.5803L129.791 23.8232H122.896C122.944 24.1148 123.042 24.3578 123.139 24.6008C123.284 24.941 123.527 25.2326 123.77 25.4756C124.013 25.7185 124.304 25.9129 124.595 26.0587C125.081 26.2531 125.712 26.3017 126.295 26.1559C126.538 26.1073 126.732 26.0101 126.926 25.8643C127.12 25.7671 127.315 25.6213 127.46 25.4756C127.606 25.3298 127.703 25.1354 127.8 24.941L127.897 24.698L129.451 25.1354L129.305 25.4756C129.16 25.8157 128.965 26.1073 128.723 26.3989C128.48 26.6419 128.189 26.8849 127.849 27.0793C127.509 27.2737 127.12 27.4194 126.732 27.5166C126.392 27.5652 125.955 27.6624 125.518 27.6624ZM122.896 22.2681H128.189C128.14 22.0251 128.043 21.7822 127.946 21.5392C127.8 21.199 127.606 20.9074 127.363 20.6644C127.12 20.4214 126.829 20.227 126.538 20.1298C125.906 19.8869 125.178 19.8869 124.547 20.1298C124.207 20.2756 123.964 20.47 123.721 20.6644C123.479 20.9074 123.284 21.199 123.139 21.4906C122.993 21.7822 122.944 22.0251 122.896 22.2681Z" fill="#F2F2F2"/>
<path d="M87.3046 50.7455C86.0907 50.7455 84.9253 50.4539 83.9056 49.9193C82.8859 49.3848 82.0119 48.6558 81.235 47.8296C80.5067 46.9549 79.924 45.9829 79.487 44.8652C79.0985 43.7475 78.9043 42.6297 78.9043 41.4634C78.9043 40.3943 79.0985 39.3251 79.4384 38.256C79.8269 37.1868 80.4096 36.2149 81.0893 35.3887C81.8177 34.5626 82.7403 33.8336 83.76 33.3476C84.8282 32.8131 86.0421 32.5215 87.4017 32.5215C89.0041 32.5215 90.4122 32.9103 91.529 33.6392C92.6944 34.3682 93.5684 35.3401 94.1025 36.5065L94.2482 36.798L92.3059 38.013L92.1117 37.6728C91.8689 37.1382 91.529 36.7009 91.1891 36.3607C90.8007 35.9719 90.4123 35.6803 90.0238 35.4859C89.5868 35.2429 89.1498 35.0971 88.7128 34.9999C88.2272 34.9028 87.7902 34.8542 87.3532 34.8542C86.382 34.8542 85.508 35.0485 84.7796 35.4373C84.0513 35.8261 83.3715 36.3607 82.886 36.9924C82.4004 37.6242 82.0119 38.3532 81.7206 39.1793C81.4778 40.0055 81.3321 40.8316 81.3321 41.6578C81.3321 42.5811 81.4778 43.4559 81.8177 44.282C82.1576 45.1082 82.5946 45.8857 83.1287 46.5175C83.6629 47.1493 84.3427 47.6353 85.071 48.024C86.1878 48.5586 87.4988 48.7044 88.8584 48.4128C89.344 48.3156 89.781 48.1212 90.2666 47.8782C90.7036 47.6353 91.1406 47.2951 91.529 46.9549C91.9175 46.5661 92.2088 46.1287 92.4516 45.5942L92.5973 45.254L94.6367 46.3231L94.491 46.6147C94.1997 47.2951 93.7627 47.9268 93.2285 48.4614C92.6944 48.996 92.1117 49.3848 91.4805 49.7735C90.8493 50.1137 90.1695 50.4053 89.4411 50.5997C88.7128 50.6483 87.9844 50.7455 87.3046 50.7455Z" fill="#F2F2F2"/>
<path d="M102.551 50.8427C101.58 50.8427 100.706 50.6483 99.8804 50.3081C99.0549 49.9193 98.3751 49.4333 97.7924 48.8016C97.2098 48.1698 96.7727 47.4408 96.4328 46.6147C96.0929 45.7885 95.9473 44.9138 95.9473 43.9904C95.9473 43.0671 96.0929 42.1437 96.4328 41.3176C96.7727 40.4914 97.2583 39.7625 97.7924 39.1307C98.3751 38.4989 99.1035 37.9644 99.8804 37.6242C100.706 37.2354 101.58 37.041 102.551 37.041C103.522 37.041 104.396 37.2354 105.222 37.6242C106.047 38.013 106.727 38.4989 107.31 39.1307C107.892 39.7625 108.378 40.4914 108.669 41.3176C109.009 42.1437 109.203 43.0185 109.203 43.9904C109.203 44.9138 109.058 45.7885 108.718 46.6147C108.378 47.4408 107.941 48.1698 107.31 48.8016C106.727 49.4333 106.047 49.9193 105.222 50.3081C104.445 50.6483 103.522 50.8427 102.551 50.8427ZM102.551 39.1793C101.968 39.1793 101.434 39.3251 100.949 39.5681C100.415 39.8111 99.9775 40.1512 99.589 40.5886C99.2006 41.026 98.9092 41.5606 98.6665 42.1437C98.4237 42.7269 98.3266 43.3587 98.3266 43.9904C98.3266 44.6708 98.4237 45.3026 98.6665 45.8371C98.9092 46.3717 99.2006 46.9063 99.589 47.3437C99.9775 47.7324 100.415 48.0726 100.949 48.3156C101.968 48.8016 103.231 48.8016 104.202 48.3156C104.736 48.0726 105.173 47.7324 105.562 47.2951C105.95 46.8577 106.241 46.3717 106.484 45.7885C106.727 45.2054 106.824 44.5736 106.824 43.9418C106.824 43.3101 106.727 42.6783 106.484 42.0951C106.241 41.512 105.95 40.9774 105.562 40.5886C105.173 40.1512 104.736 39.8111 104.202 39.5681C103.668 39.3251 103.134 39.1793 102.551 39.1793Z" fill="#F2F2F2"/>
<path d="M130.762 50.6004H128.382V43.165C128.382 41.7557 128.188 40.7352 127.751 40.1034C127.363 39.5202 126.78 39.2286 125.955 39.2286C125.518 39.2286 125.081 39.3258 124.692 39.4716C124.304 39.6174 123.964 39.8604 123.624 40.152C123.284 40.4436 122.993 40.8324 122.75 41.2211C122.507 41.6099 122.313 42.0473 122.167 42.5333V50.5518H119.788V43.165C119.788 41.7557 119.594 40.6866 119.157 40.1034C118.768 39.5202 118.186 39.2286 117.36 39.2286C116.486 39.2286 115.758 39.5202 115.029 40.152C114.35 40.7352 113.864 41.5613 113.573 42.5819V50.649H111.193V37.2362H113.427V39.2286C113.864 38.6941 114.35 38.2567 114.884 37.8679C115.758 37.2847 116.777 36.9932 117.894 36.9932C119.06 36.9932 119.982 37.3333 120.71 38.0137C121.196 38.4511 121.585 39.0343 121.779 39.7146C122.993 37.9165 124.546 37.0418 126.537 37.0418C127.314 37.0418 127.945 37.1876 128.528 37.4791C129.062 37.7707 129.548 38.2081 129.839 38.7427C130.179 39.2286 130.422 39.8604 130.519 40.5894C130.665 41.2697 130.762 42.0473 130.762 42.8734V50.6004Z" fill="#F2F2F2"/>
<path d="M153.1 50.6004H150.72V43.165C150.72 41.7557 150.526 40.7352 150.089 40.1034C149.701 39.5202 149.118 39.2286 148.292 39.2286C147.855 39.2286 147.418 39.3258 147.03 39.4716C146.642 39.6174 146.302 39.8604 145.962 40.152C145.622 40.4436 145.331 40.8324 145.088 41.2211C144.845 41.6099 144.651 42.0473 144.505 42.5333V50.5518H142.126V43.165C142.126 41.7557 141.932 40.6866 141.495 40.1034C141.106 39.5202 140.523 39.2286 139.698 39.2286C138.824 39.2286 138.096 39.5202 137.367 40.152C136.687 40.7352 136.202 41.5613 135.911 42.5819V50.649H133.531V37.2362H135.765V39.2286C136.202 38.6941 136.687 38.2567 137.222 37.8679C138.096 37.2847 139.115 36.9932 140.232 36.9932C141.397 36.9932 142.32 37.3333 143.048 38.0137C143.534 38.4511 143.922 39.0343 144.117 39.7146C145.331 37.9165 146.884 37.0418 148.875 37.0418C149.652 37.0418 150.283 37.1876 150.866 37.4791C151.4 37.7707 151.886 38.2081 152.177 38.7427C152.517 39.2286 152.76 39.8604 152.857 40.5894C153.003 41.2697 153.1 42.0473 153.1 42.8734V50.6004Z" fill="#F2F2F2"/>
<path d="M161.596 50.8427C160.625 50.8427 159.751 50.6483 158.925 50.3081C158.1 49.9193 157.42 49.4333 156.837 48.8016C156.255 48.1698 155.818 47.4408 155.478 46.6147C155.138 45.7885 154.992 44.9138 154.992 43.9904C154.992 43.0671 155.138 42.1437 155.478 41.3176C155.818 40.4914 156.303 39.7625 156.837 39.1307C157.42 38.4989 158.148 37.9644 158.925 37.6242C159.751 37.2354 160.625 37.041 161.596 37.041C162.567 37.041 163.441 37.2354 164.267 37.6242C165.092 38.013 165.772 38.4989 166.354 39.1307C166.937 39.7625 167.423 40.4914 167.714 41.3176C168.054 42.1437 168.248 43.0185 168.248 43.9904C168.248 44.9138 168.103 45.7885 167.763 46.6147C167.423 47.4408 166.986 48.1698 166.354 48.8016C165.772 49.4333 165.092 49.9193 164.267 50.3081C163.49 50.6483 162.567 50.8427 161.596 50.8427ZM161.596 39.1793C161.013 39.1793 160.479 39.3251 159.994 39.5681C159.459 39.8111 159.022 40.1512 158.634 40.5886C158.245 41.026 157.954 41.5606 157.711 42.1437C157.469 42.7269 157.371 43.3587 157.371 43.9904C157.371 44.6708 157.469 45.3026 157.711 45.8371C157.954 46.3717 158.245 46.9063 158.634 47.3437C159.022 47.7324 159.459 48.0726 159.994 48.3156C161.013 48.8016 162.276 48.8016 163.247 48.3156C163.781 48.0726 164.218 47.7324 164.606 47.2951C164.995 46.8577 165.286 46.3717 165.529 45.7885C165.772 45.2054 165.869 44.5736 165.869 43.9418C165.869 43.3101 165.772 42.6783 165.529 42.0951C165.286 41.512 164.995 40.9774 164.606 40.5886C164.218 40.1512 163.781 39.8111 163.247 39.5681C162.713 39.3251 162.179 39.1793 161.596 39.1793Z" fill="#F2F2F2"/>
<path d="M181.649 50.6004H179.27V43.165C179.27 41.7557 179.076 40.6866 178.639 40.1034C178.25 39.5202 177.716 39.2286 176.891 39.2286C176.454 39.2286 176.017 39.3258 175.58 39.4716C175.143 39.6174 174.706 39.8604 174.317 40.152C173.929 40.4436 173.589 40.8324 173.298 41.2211C173.006 41.6099 172.812 42.0473 172.666 42.4847V50.5518H170.287V37.2362H172.521V39.3258C172.958 38.7913 173.54 38.3053 174.172 37.9165C175.191 37.3333 176.308 36.9932 177.522 36.9932C178.299 36.9932 178.93 37.139 179.464 37.4305C179.998 37.7221 180.436 38.1109 180.775 38.6455C181.067 39.1314 181.309 39.7632 181.455 40.4922C181.601 41.1725 181.649 41.9987 181.649 42.8248V50.6004Z" fill="#F2F2F2"/>
<path d="M189.03 50.8434C188.01 50.8434 186.991 50.649 186.019 50.3574C185.048 50.0172 184.174 49.5313 183.446 48.8509L183.203 48.6565L184.368 46.9556L184.66 47.1986C185.34 47.7332 186.019 48.1705 186.748 48.4621C187.428 48.7537 188.204 48.8509 188.981 48.8509C189.904 48.8509 190.681 48.6565 191.215 48.3163C191.749 47.9762 191.992 47.4902 191.992 46.8584C191.992 46.5668 191.943 46.3724 191.798 46.1781C191.652 45.9837 191.458 45.7893 191.166 45.6435C190.875 45.4977 190.535 45.3519 190.05 45.2061C189.564 45.0603 189.03 44.9145 188.399 44.7687C187.67 44.5743 186.991 44.4286 186.456 44.2342C185.874 44.0398 185.437 43.8454 185.048 43.6024C184.66 43.3594 184.368 43.0192 184.126 42.6305C183.931 42.2417 183.834 41.7557 183.834 41.1725C183.834 40.4922 183.98 39.8604 184.223 39.3258C184.514 38.7913 184.903 38.3539 185.34 38.0137C185.825 37.6735 186.359 37.3819 186.942 37.2362C187.573 37.0418 188.204 36.9932 188.884 36.9932C189.904 36.9932 190.826 37.1876 191.652 37.5277C192.477 37.8679 193.157 38.3053 193.691 38.8399L193.934 39.0829L192.672 40.638L192.38 40.3464C191.943 39.909 191.409 39.5688 190.778 39.3258C190.147 39.0829 189.515 38.9857 188.836 38.9857C188.447 38.9857 188.059 39.0343 187.719 39.1314C187.379 39.2286 187.088 39.3258 186.845 39.4716C186.602 39.6174 186.456 39.8118 186.311 40.1034C186.165 40.3464 186.117 40.638 186.117 40.9781C186.117 41.2697 186.165 41.4641 186.262 41.6099C186.359 41.7557 186.505 41.9015 186.699 42.0473C186.942 42.1931 187.233 42.2903 187.573 42.4361C187.962 42.5333 188.447 42.6791 188.981 42.7762C189.807 42.9706 190.535 43.165 191.166 43.3594C191.798 43.5538 192.332 43.7968 192.769 44.0884C193.254 44.38 193.594 44.7201 193.837 45.1575C194.08 45.5949 194.177 46.0809 194.177 46.7126C194.177 47.9762 193.691 49.0453 192.72 49.7743C191.895 50.5032 190.584 50.8434 189.03 50.8434Z" fill="#F2F2F2"/>
<path d="M137.416 74.7044C134.648 74.7044 132.269 73.8297 130.278 72.1288L130.035 71.9344L131.298 69.8933L131.637 70.2335C131.929 70.525 132.269 70.8166 132.657 71.1082C133.046 71.3998 133.531 71.6428 134.017 71.8372C134.502 72.0316 135.085 72.1774 135.668 72.3231C136.25 72.4203 136.833 72.4689 137.464 72.4689C138.775 72.4689 139.795 72.2259 140.475 71.7886C141.155 71.3512 141.495 70.7194 141.495 69.8447C141.495 69.4073 141.397 69.0185 141.203 68.7269C141.009 68.3868 140.718 68.1438 140.378 67.9008C139.941 67.6578 139.455 67.4148 138.824 67.2204C138.193 67.026 137.416 66.8316 136.59 66.6373C135.668 66.4429 134.842 66.1999 134.162 65.9569C133.434 65.7139 132.851 65.4223 132.317 65.0821C131.783 64.6934 131.395 64.256 131.152 63.77C130.909 63.2354 130.764 62.6037 130.764 61.8747C130.764 61.0486 130.909 60.271 131.249 59.6392C131.589 58.9589 132.074 58.4243 132.657 57.9869C133.24 57.5496 133.92 57.2094 134.697 57.015C135.473 56.772 136.347 56.6748 137.27 56.6748C138.484 56.6748 139.552 56.8692 140.475 57.2094C141.397 57.5496 142.271 58.0841 143.048 58.7159L143.291 58.9103L142.029 60.9514L141.689 60.5626C141.252 60.0766 140.62 59.6392 139.892 59.3477C139.115 59.0561 138.241 58.8617 137.27 58.8617C135.862 58.8617 134.794 59.1047 134.162 59.6392C133.531 60.1252 133.24 60.8056 133.24 61.6803C133.24 62.1177 133.337 62.5065 133.483 62.7981C133.628 63.0411 133.871 63.284 134.211 63.4784C134.551 63.7214 135.036 63.9158 135.619 64.0616C136.202 64.256 136.93 64.4018 137.756 64.5962C138.678 64.7906 139.552 65.0335 140.281 65.2765C141.058 65.5195 141.737 65.8597 142.271 66.2485C142.806 66.6373 143.291 67.1232 143.582 67.6578C143.874 68.241 144.019 68.9213 144.019 69.7475C144.019 70.5736 143.874 71.3512 143.534 71.9344C143.194 72.5661 142.708 73.1007 142.126 73.4895C141.543 73.8783 140.863 74.2184 140.038 74.4128C139.212 74.6072 138.338 74.7044 137.416 74.7044Z" fill="#F2F2F2"/>
<path d="M149.36 74.7045C148.972 74.7045 148.583 74.6559 148.243 74.5587C147.855 74.4616 147.564 74.2672 147.272 74.0728C146.981 73.8298 146.738 73.5382 146.592 73.198C146.447 72.8578 146.35 72.4205 146.35 71.9831V63.3814H144.602V61.3889H146.35V57.1123H148.729V61.3403H151.642V63.3328H148.729V71.4485C148.729 71.7887 148.875 72.0317 149.069 72.1775C149.312 72.3233 149.554 72.4205 149.894 72.4205C150.331 72.4205 150.671 72.3719 151.011 72.2261C151.448 72.0317 151.594 71.9345 151.642 71.9345L152.031 71.6915L152.711 73.7326L152.419 73.8784C152.322 73.927 152.176 73.9756 151.982 74.0728C151.788 74.17 151.594 74.2186 151.302 74.3158C151.06 74.413 150.768 74.4616 150.428 74.5587C150.04 74.7045 149.7 74.7045 149.36 74.7045Z" fill="#F2F2F2"/>
<path d="M158.439 74.8018C157.808 74.8018 157.177 74.7046 156.643 74.5103C156.109 74.2673 155.623 73.9757 155.186 73.5869C154.798 73.1981 154.458 72.7608 154.215 72.2262C153.972 71.6916 153.875 71.157 153.875 70.5253C153.875 69.9421 154.021 69.3589 154.312 68.8244C154.603 68.3384 154.992 67.8524 155.526 67.5122C156.012 67.1721 156.643 66.8805 157.323 66.6861C158.536 66.3459 160.09 66.2973 161.596 66.5403C162.081 66.6375 162.518 66.7347 162.955 66.8805V66.3459C162.955 65.3254 162.664 64.5478 162.13 63.9646C161.547 63.3815 160.77 63.0899 159.75 63.0899C159.168 63.0899 158.536 63.1871 157.905 63.4301C157.274 63.6731 156.594 64.0132 155.914 64.4992L155.574 64.7422L154.652 63.0413L154.943 62.8469C156.643 61.7292 158.294 61.146 159.896 61.146C161.596 61.146 162.907 61.632 163.878 62.5553C164.849 63.4787 165.334 64.7908 165.334 66.4431V72.0804C165.334 72.372 165.431 72.372 165.577 72.372H165.966V74.4617L165.674 74.5103C165.383 74.5589 165.14 74.6075 164.995 74.6075C164.509 74.6075 164.072 74.4617 163.781 74.2187C163.489 73.9271 163.295 73.5869 163.295 73.1009V73.0037C162.809 73.4897 162.227 73.8785 161.547 74.1701C160.479 74.6075 159.508 74.8018 158.439 74.8018ZM159.75 68.1926C158.682 68.1926 157.76 68.4356 157.128 68.873C156.497 69.2617 156.206 69.7963 156.206 70.4767C156.206 70.8169 156.254 71.1084 156.4 71.4C156.546 71.6916 156.74 71.9346 156.934 72.1776C157.177 72.372 157.468 72.5664 157.76 72.6636C158.099 72.8094 158.439 72.8579 158.828 72.8579C159.653 72.8579 160.382 72.7122 161.013 72.4206C161.693 72.129 162.178 71.7402 162.518 71.2542L162.567 71.2056C162.664 71.1084 162.761 70.9627 162.809 70.8655C162.858 70.7197 162.907 70.6225 162.907 70.5253V68.7272C162.47 68.5814 161.984 68.4356 161.498 68.3384C160.916 68.2412 160.333 68.1926 159.75 68.1926Z" fill="#F2F2F2"/>
<path d="M174.464 74.8018C173.493 74.8018 172.57 74.6075 171.745 74.2673C170.92 73.8785 170.191 73.3925 169.609 72.7608C169.026 72.129 168.54 71.4 168.2 70.5739C167.861 69.7477 167.715 68.873 167.715 67.901C167.715 66.9777 167.861 66.1029 168.2 65.2768C168.54 64.4506 168.977 63.7216 169.56 63.1385C170.143 62.5067 170.871 62.0207 171.696 61.6806C172.522 61.3404 173.445 61.146 174.416 61.146C175.678 61.146 176.795 61.4376 177.718 62.0207C178.64 62.5553 179.368 63.3329 179.854 64.3048L180.048 64.6936L177.766 65.4226L177.62 65.1796C177.281 64.5964 176.843 64.159 176.261 63.8188C175.678 63.4787 175.047 63.3329 174.319 63.3329C173.736 63.3329 173.153 63.4301 172.668 63.6731C172.182 63.916 171.697 64.2562 171.308 64.645C170.92 65.0338 170.628 65.5198 170.385 66.1029C170.191 66.6375 170.094 67.2693 170.094 67.9496C170.094 68.5814 170.191 69.2132 170.434 69.7963C170.677 70.3795 170.968 70.8655 171.357 71.3028C171.745 71.6916 172.182 72.0318 172.716 72.3234C173.542 72.7122 174.513 72.7608 175.435 72.5178C175.824 72.4206 176.164 72.2748 176.455 72.0804C176.746 71.886 177.038 71.6916 177.232 71.4486C177.426 71.2542 177.572 71.0113 177.669 70.7683L177.766 70.4281L180.097 71.1084L179.951 71.4486C179.757 71.9346 179.466 72.372 179.126 72.8094C178.737 73.1981 178.349 73.5383 177.815 73.8785C177.329 74.1701 176.795 74.4131 176.164 74.5589C175.678 74.7046 175.095 74.8018 174.464 74.8018Z" fill="#F2F2F2"/>
<path d="M193.838 74.559H191.167L186.652 68.3385L184.369 70.4282V74.559H181.99V56.335H184.369V67.7553L190.973 61.3891H193.887L188.303 66.8806L193.838 74.559Z" fill="#F2F2F2"/>
</svg>
