<svg width="340" height="87" viewBox="0 0 340 87" fill="none" xmlns="http://www.w3.org/2000/svg">
<g clip-path="url(#clip0_2233_2879)">
<path d="M138.86 28.3555H136.171C135.246 28.3555 134.49 29.1096 134.49 30.0313V40.4212C132.137 38.3265 129.111 37.0696 125.665 37.0696C118.354 37.0696 112.471 42.9349 112.471 50.2247C112.471 57.5144 118.354 63.3797 125.665 63.3797C132.977 63.3797 138.86 57.5144 138.86 50.2247V28.3555ZM125.665 59.0226C120.791 59.0226 116.841 55.0845 116.841 50.2247C116.841 45.3649 120.791 41.4267 125.665 41.4267C130.54 41.4267 134.49 45.3649 134.49 50.2247C134.49 55.0845 130.54 59.0226 125.665 59.0226Z" fill="#C2C2C2"/>
<path d="M167.434 50.2249C167.434 42.9351 161.551 37.0698 154.24 37.0698C146.928 37.0698 141.045 42.9351 141.045 50.2249C141.045 57.5146 146.928 63.3799 154.24 63.3799C157.601 63.3799 160.711 62.1231 163.064 60.0283V62.1231C163.064 62.7934 163.652 63.3799 164.325 63.3799H167.434V50.2249ZM154.24 59.0228C149.365 59.0228 145.415 55.0847 145.415 50.2249C145.415 45.3651 149.365 41.4269 154.24 41.4269C159.114 41.4269 163.064 45.3651 163.064 50.2249C163.064 55.0847 159.03 59.0228 154.24 59.0228Z" fill="#C2C2C2"/>
<path d="M182.73 37.1533C175.418 37.1533 169.535 43.0186 169.535 50.3084V72.1776H172.645C173.317 72.1776 173.905 71.5911 173.905 70.9207V60.1118C176.259 62.2065 179.284 63.4634 182.73 63.4634C190.042 63.4634 195.925 57.5981 195.925 50.3084C195.925 43.0186 190.042 37.1533 182.73 37.1533ZM182.73 59.0225C177.855 59.0225 173.905 55.0844 173.905 50.2246C173.905 45.3648 177.855 41.4266 182.73 41.4266C187.604 41.4266 191.554 45.3648 191.554 50.2246C191.554 55.0844 187.604 59.0225 182.73 59.0225Z" fill="#C2C2C2"/>
<path d="M211.304 37.1533C203.992 37.1533 198.109 43.0186 198.109 50.3084V72.1776H201.219C201.891 72.1776 202.48 71.5911 202.48 70.9207V60.1118C204.833 62.2065 207.858 63.4634 211.304 63.4634C218.616 63.4634 224.499 57.5981 224.499 50.3084C224.499 43.0186 218.616 37.1533 211.304 37.1533ZM211.304 59.0225C206.43 59.0225 202.48 55.0844 202.48 50.2246C202.48 45.3648 206.43 41.4266 211.304 41.4266C216.179 41.4266 220.129 45.3648 220.129 50.2246C220.129 55.0844 216.179 59.0225 211.304 59.0225Z" fill="#C2C2C2"/>
<path d="M269.294 41.5104C274.169 41.5104 278.119 45.4485 278.119 50.3084C278.119 55.1682 274.169 59.1063 269.294 59.1063C264.42 59.1063 260.47 55.1682 260.47 50.3084C260.47 45.4485 264.42 41.5104 269.294 41.5104ZM269.294 37.1533C261.983 37.1533 256.1 43.0186 256.1 50.3084C256.1 57.5981 261.983 63.4634 269.294 63.4634C276.606 63.4634 282.489 57.5981 282.489 50.3084C282.489 43.0186 276.522 37.1533 269.294 37.1533Z" fill="white"/>
<path d="M310.979 28.3555H308.29C307.365 28.3555 306.609 29.1096 306.609 30.0313V40.4212C304.256 38.3265 301.23 37.0696 297.785 37.0696C290.473 37.0696 284.59 42.9349 284.59 50.2247C284.59 57.5144 290.473 63.3797 297.785 63.3797C305.096 63.3797 310.979 57.5144 310.979 50.2247V28.3555ZM297.785 59.0226C292.91 59.0226 288.96 55.0845 288.96 50.2247C288.96 45.3649 292.91 41.4267 297.785 41.4267C302.659 41.4267 306.609 45.3649 306.609 50.2247C306.609 55.0845 302.659 59.0226 297.785 59.0226Z" fill="white"/>
<path d="M253.915 50.2249C253.915 42.9351 248.032 37.0698 240.72 37.0698C233.408 37.0698 227.525 42.9351 227.525 50.2249V62.961C227.525 63.2123 227.693 63.3799 227.946 63.3799H230.635C231.307 63.3799 231.896 62.7934 231.896 62.1231V50.2249C231.896 45.3651 235.846 41.4269 240.72 41.4269C245.595 41.4269 249.545 45.3651 249.545 50.2249V62.0393C249.545 62.7096 250.133 63.2961 250.805 63.2961H253.495C253.747 63.2961 253.915 63.1286 253.915 62.8772V50.2249Z" fill="white"/>
<path d="M332.076 56.844C330.563 58.1846 328.546 59.0225 326.361 59.0225C324.68 59.0225 323.167 58.5198 321.822 57.7657C319.889 56.5926 318.461 54.7493 317.872 52.4869H325.52H334.849H339.387C339.471 51.7328 339.555 51.0625 339.555 50.3084C339.555 47.1243 338.463 44.2755 336.614 42.0132C334.177 39.0805 330.563 37.1533 326.445 37.1533C322.579 37.1533 319.133 38.8291 316.78 41.4266C314.595 43.7727 313.334 46.873 313.334 50.3084C313.334 54.4141 315.183 58.0171 318.124 60.447C320.394 62.2904 323.335 63.4634 326.529 63.4634C329.05 63.4634 331.487 62.7093 333.504 61.4524C335.353 60.2794 336.866 58.7712 337.958 56.844H332.076ZM326.361 41.5104C328.462 41.5104 330.395 42.2645 331.991 43.5214C333.42 44.6944 334.429 46.2864 334.849 48.046H317.872C318.292 46.5378 319.049 45.1972 320.057 44.1079C321.654 42.5159 323.923 41.5104 326.361 41.5104Z" fill="white"/>
<path fill-rule="evenodd" clip-rule="evenodd" d="M39.0581 7.00343C30.123 -1.90479 15.6364 -1.90479 6.70131 7.00343C4.29386 9.40364 2.53507 12.2057 1.42494 15.193C0.502917 17.6685 0 20.3448 0 23.1332V63.867C0 64.6543 0.040014 65.4324 0.118125 66.1992C1.28979 77.7018 11.0333 86.6779 22.8797 86.6779C31.3831 86.6779 38.7986 82.0538 42.7422 75.1955L47.5743 80.013C51.7134 84.1314 57.4265 86.6779 63.7363 86.6779C66.8392 86.6779 69.798 86.062 72.4961 84.9463C75.194 83.8331 77.7215 82.1833 79.9147 79.9967C82.108 77.81 83.763 75.2897 84.8795 72.5996C85.9984 69.9098 86.616 66.9603 86.616 63.867V23.1332C86.6159 10.5351 76.3724 0.322266 63.7363 0.322266C55.2328 0.322266 47.8173 4.94636 43.8737 11.8046L39.0581 7.00343ZM40.6998 66.2465C40.8032 65.4686 40.8566 64.6744 40.8566 63.867C40.8566 54.5871 33.7827 46.9545 24.7177 46.0366C24.1134 45.9755 23.5002 45.9441 22.8797 45.9441C22.1151 45.9441 21.3623 45.9916 20.624 46.0836C20.6071 46.0857 20.5903 46.0878 20.5735 46.09C20.5466 46.0934 20.5198 46.0969 20.4929 46.1004L40.6998 66.2465ZM11.517 44.0642L6.70131 39.2629C6.5617 39.1238 6.42427 38.9832 6.28902 38.8414C5.79822 38.3266 5.33614 37.7946 4.90279 37.2474V49.7553C6.71658 47.462 8.96224 45.5243 11.517 44.0642ZM4.90279 63.867C4.90279 64.4856 4.93423 65.097 4.9956 65.6995C5.9162 74.7372 13.5718 81.7898 22.8797 81.7898C30.036 81.7898 36.2207 77.6199 39.1133 71.5775L15.1459 47.6821C9.08532 50.566 4.90279 56.7322 4.90279 63.867ZM45.9161 20.7536L66.1228 40.8995C65.6772 40.9584 65.2265 41.0011 64.7713 41.0269C64.6284 41.035 64.485 41.0414 64.3411 41.0461L64.3074 41.0472C64.1178 41.0531 63.9274 41.056 63.7363 41.056C53.8079 41.056 45.7594 33.0317 45.7594 23.1332C45.7594 22.3258 45.8128 21.5315 45.9161 20.7536ZM63.7363 5.21032C73.6646 5.21032 81.7132 13.2347 81.7132 23.1332C81.7132 23.5793 81.6968 24.0217 81.6647 24.4596C81.5477 26.0544 81.2214 27.5912 80.713 29.0429C80.5233 29.5846 80.3083 30.1144 80.0693 30.631C78.3106 34.4328 75.2558 37.516 71.4696 39.3175L47.5026 15.4226C50.3952 9.38028 56.58 5.21032 63.7363 5.21032ZM75.0994 42.9364L79.9147 47.7372C80.5609 48.3815 81.1604 49.0548 81.7132 49.7528V37.2453C79.8997 39.5384 77.6544 41.4761 75.0994 42.9364Z" fill="white"/>
</g>
<defs>
<clipPath id="clip0_2233_2879">
<rect width="340" height="87" fill="white"/>
</clipPath>
</defs>
</svg>
