<svg width="223" height="101" viewBox="0 0 223 101" fill="none" xmlns="http://www.w3.org/2000/svg">
<path d="M141.36 72.7488V64.9758H122.25V55.1696H139.549V47.8151H122.25V38.1283H141.36V30.3553H113.631V72.7488H141.36Z" fill="white"/>
<path d="M184.854 72.7488V30.3553H176.235V58.3984L157.812 30.3553H147.07V72.7488H155.688V42.6727L175.798 72.7488H184.854Z" fill="white"/>
<path d="M222.375 40.4604C221.376 35.6768 217.254 29.4583 206.513 29.4583C198.144 29.4583 191.087 35.1985 191.087 42.7325C191.087 49.1304 195.646 53.4953 202.703 54.8706L208.885 56.0666C212.32 56.7243 214.257 58.6377 214.257 61.0892C214.257 64.0788 211.695 66.2911 207.074 66.2911C200.829 66.2911 197.769 62.5243 197.395 58.3386L189.401 60.3717C190.088 66.4109 195.271 73.6458 207.011 73.6458C217.317 73.6458 223 67.0686 223 60.551C223 54.5716 218.69 49.5489 210.635 48.0541L204.452 46.9181C201.204 46.3201 199.643 44.4665 199.643 42.1347C199.643 39.3243 202.391 36.7531 206.576 36.7531C212.196 36.7531 214.194 40.4006 214.631 42.7325L222.375 40.4604Z" fill="white"/>
<path d="M11.8162 23.8307C12.7599 22.0717 14.1219 20.5718 15.782 19.4639L43.6421 0L15.096 47.2249C15.096 47.2249 12.6018 43.0077 11.6291 40.8741C10.4169 38.1913 9.80557 35.2757 9.83788 32.3318C9.8702 29.3876 10.5454 26.4864 11.8162 23.8307ZM0.317938 56.4079C0.632498 60.9238 1.90786 65.3207 4.05861 69.3035C6.20939 73.2864 9.18591 76.7638 12.7889 79.5024L43.6047 101C43.6047 101 24.3245 73.2016 8.06241 45.5405C6.41603 42.618 5.30922 39.4228 4.795 36.1079C4.56737 34.6068 4.56737 33.08 4.795 31.5789C4.37099 32.365 3.54791 33.9745 3.54791 33.9745C1.89899 37.3391 0.776002 40.9368 0.21816 44.6422C-0.102917 48.5591 -0.0695254 52.4968 0.317938 56.4079ZM78.8849 60.1508C77.8873 58.0173 75.4179 53.8002 75.4179 53.8002L46.9219 101L74.7821 81.5487C76.4422 80.4406 77.804 78.941 78.7478 77.1817C80.0185 74.5262 80.6937 71.6248 80.7261 68.6808C80.7585 65.7367 80.147 62.8212 78.9349 60.1383L78.8849 60.1508ZM90.1961 44.6048C89.8815 40.0886 88.6061 35.6919 86.4553 31.709C84.3045 27.726 81.328 24.2488 77.7252 21.5101L46.9594 0C46.9594 0 66.227 27.7984 82.5016 55.4595C84.1436 58.3828 85.2461 61.5778 85.7564 64.8921C85.9842 66.3932 85.9842 67.92 85.7564 69.4211C86.1804 68.6352 87.0036 67.0255 87.0036 67.0255C88.6525 63.6611 89.7755 60.0632 90.3332 56.3578C90.6584 52.4413 90.6294 48.5036 90.246 44.5921L90.1961 44.6048Z" fill="white"/>
</svg>
