<svg width="231" height="57" viewBox="0 0 231 57" fill="none" xmlns="http://www.w3.org/2000/svg">
<path d="M96.1527 6.36377C96.2377 6.38175 96.3236 6.39516 96.41 6.40395C101.884 6.67789 106.605 8.73335 110.593 12.4891C110.685 12.5804 110.783 12.6717 110.857 12.7402L107.786 15.8138C107.659 15.696 107.499 15.5508 107.342 15.4029C105.486 13.682 103.281 12.3822 100.877 11.5924C99.8369 11.2543 98.768 11.0119 97.6837 10.8683C96.5475 10.7265 95.4004 10.6914 94.2576 10.7633C93.021 10.8343 91.7966 11.0463 90.608 11.3951C89.5918 11.6835 88.6041 12.0643 87.6573 12.5329C86.3577 13.1646 85.1466 13.9643 84.0551 14.9116C83.6336 15.2769 83.2175 15.6604 82.8234 16.0594C82.0374 16.8616 81.3343 17.7412 80.7248 18.6847C80.1391 19.5823 79.6373 20.532 79.2258 21.5218C78.6987 22.7711 78.3249 24.0797 78.1126 25.4191C78.0213 25.9869 77.9585 26.5589 77.9247 27.133C77.88 27.8175 77.8708 28.5039 77.8973 29.1894C77.9541 30.3756 78.1361 31.5525 78.4402 32.7004C79.3593 36.23 81.3539 39.3854 84.147 41.7286C86.94 44.0717 90.3928 45.4862 94.0259 45.7756C94.8698 45.8369 95.7168 45.843 96.5615 45.7938C97.9295 45.7131 99.2826 45.4653 100.591 45.056C101.489 44.7803 102.363 44.4312 103.205 44.0123C105.981 42.6325 108.344 40.5442 110.056 37.9582C111.017 36.5105 111.755 34.9265 112.246 33.2592C112.29 33.1077 112.337 32.9552 112.387 32.7643C111.807 32.7579 111.263 32.7643 110.719 32.7643H91.0268L95.4894 28.2982H117.305V28.6059C117.185 33.9432 115.403 38.6504 111.905 42.6837C108.784 46.2796 104.863 48.5807 100.227 49.6564C99.0095 49.9294 97.7715 50.0993 96.5259 50.1641C95.4835 50.225 94.4379 50.2027 93.3991 50.0974C88.6181 49.6235 84.4082 47.8146 80.8252 44.604C77.3417 41.4857 75.1017 37.6185 74.057 33.0611C73.7579 31.7637 73.5879 30.4399 73.5497 29.109C73.3827 23.3024 75.1811 18.1816 78.9977 13.8086C82.0798 10.2747 85.9475 8.00741 90.5095 6.93083C91.6263 6.67356 92.7614 6.50321 93.9045 6.4213C94.0715 6.40851 94.2403 6.41399 94.4082 6.40395C94.4939 6.39482 94.5788 6.38112 94.6637 6.36377H96.1527Z" fill="white"/>
<path d="M230.911 50.1945H226.548V32.7764H213.399V50.1543C213.226 50.2045 209.341 50.2191 209.043 50.1744V24.0058H213.388V28.2445C213.57 28.2938 226.12 28.3121 226.545 28.2655V15.2762C226.605 15.2646 226.666 15.2567 226.727 15.2524H230.8C230.837 15.2524 230.872 15.2588 230.909 15.2625L230.911 50.1945Z" fill="white"/>
<path d="M187.097 32.7548H169.676L165.222 28.2951H182.069C181.462 26.564 180.496 24.9808 179.235 23.6491C177.215 21.5205 174.754 20.1883 171.864 19.6979C169.002 19.2093 166.059 19.6813 163.493 21.0405C160.927 22.3996 158.882 24.5696 157.676 27.2127C156.47 29.8558 156.172 32.8238 156.826 35.6545C157.481 38.4852 159.052 41.02 161.296 42.8641C163.9 44.9954 166.908 45.9989 170.265 45.8455C173.623 45.6921 176.492 44.3927 178.895 42.0862L181.92 45.1141C177.603 49.6551 169.405 52.1334 161.819 48.3265C153.203 43.9891 149.733 33.4835 154.064 24.859C155.849 21.3073 158.792 18.4713 162.405 16.8189C166.019 15.1666 170.087 14.7968 173.939 15.7705C182.788 18.0296 187.256 26.0077 187.097 32.7548Z" fill="white"/>
<path d="M134.879 41.3474L149.925 15.2655H154.91C154.915 15.2719 154.919 15.2786 154.923 15.2856C154.923 15.292 154.93 15.3012 154.923 15.3066C154.913 15.3339 154.901 15.3605 154.888 15.3861L134.815 50.1856H130.471V15.3039C130.475 15.2959 130.481 15.2885 130.487 15.282C130.492 15.277 130.498 15.2736 130.505 15.2719C130.533 15.2643 130.562 15.2594 130.591 15.2573H134.708C134.745 15.2609 134.781 15.2667 134.817 15.2747V41.3383L134.879 41.3474Z" fill="white"/>
<path d="M195.878 50.1835H191.51V19.5131C191.213 19.4967 190.931 19.5076 190.65 19.5058C190.369 19.504 190.066 19.5058 189.774 19.5058H186.337L183.863 15.2625H213.374V19.503H195.878V50.1835Z" fill="white"/>
<path d="M126.052 50.1839H121.713V24.0034H126.031L126.042 24.0144C126.042 24.0199 126.055 24.0253 126.055 24.0308C126.059 32.708 126.062 41.3855 126.064 50.0634C126.063 50.0981 126.057 50.1337 126.052 50.1839Z" fill="white"/>
<path d="M123.888 15.2524C124.462 15.2568 125.011 15.4885 125.414 15.8969C125.818 16.3052 126.043 16.8569 126.041 17.4311C126.039 18.0053 125.809 18.5553 125.403 18.9606C124.996 19.3659 124.446 19.5934 123.872 19.5934C123.298 19.5934 122.748 19.3659 122.341 18.9606C121.935 18.5553 121.705 18.0053 121.703 17.4311C121.701 16.8569 121.926 16.3052 122.33 15.8969C122.733 15.4885 123.282 15.2568 123.855 15.2524H123.888Z" fill="white"/>
<path d="M56.3973 28.8985C56.342 29.6912 56.3225 30.4889 56.2255 31.2757C55.1968 39.6308 51.3001 46.3258 44.4598 51.2283C39.3501 54.8914 33.583 56.601 27.3015 56.3836C20.0376 56.1338 13.7753 53.4301 8.52408 48.4029C8.47576 48.3566 8.47693 48.1715 8.52408 48.122C15.0736 41.5615 21.6293 35.0077 28.1911 28.4605C28.3463 28.3184 28.547 28.2364 28.7573 28.229C37.9714 28.2176 47.1854 28.2143 56.3993 28.2193L56.3973 28.8985Z" fill="white"/>
<path d="M28.8848 0C29.6594 0.0588445 30.4356 0.0931379 31.2076 0.176533C35.7277 0.666514 39.8907 2.1588 43.6965 4.65339C43.7223 4.67278 43.747 4.6936 43.7705 4.71574L41.3647 7.11667C40.841 7.63926 40.3208 8.16535 39.7908 8.68131C39.7573 8.70298 39.719 8.71612 39.6793 8.71959C39.6396 8.72305 39.5996 8.71673 39.5629 8.70119C35.7314 6.49679 31.6071 5.48293 27.1901 5.65959C17.3077 6.05786 8.69248 13.0572 6.3229 22.6551C4.85618 28.6019 5.67215 34.2514 8.69248 39.5836C8.72131 39.6343 8.72287 39.7461 8.68819 39.7785C7.37708 41.0993 6.06143 42.4167 4.74123 43.7308C4.72837 43.7436 4.7124 43.7542 4.68239 43.7783C4.55809 43.5858 4.433 43.3995 4.31532 43.2094C1.05808 37.9438 -0.379803 32.2206 0.0854618 26.0432C1.05535 13.2014 10.6132 2.68074 23.3312 0.446594C24.6171 0.220959 25.9322 0.163673 27.2333 0.028448L27.4991 0L28.8848 0Z" fill="white"/>
<path d="M43.1777 17.0241C43.18 15.8513 43.5886 14.7156 44.3339 13.8102C45.0792 12.9048 46.1153 12.2857 47.2657 12.0582C48.4161 11.8308 49.6098 12.009 50.6435 12.5627C51.6773 13.1164 52.4873 14.0112 52.9356 15.0949C53.3839 16.1785 53.4428 17.3841 53.1024 18.5063C52.7619 19.6286 52.0431 20.5982 51.0683 21.2501C50.0935 21.9019 48.9229 22.1958 47.7558 22.0817C46.5887 21.9676 45.4972 21.4525 44.6671 20.6241C44.1943 20.1515 43.8194 19.5902 43.5639 18.9725C43.3083 18.3547 43.1771 17.6926 43.1777 17.0241Z" fill="white"/>
</svg>
