<svg width="303" height="100" viewBox="0 0 303 100" fill="none" xmlns="http://www.w3.org/2000/svg">
<mask id="mask0_2160_3844" style="mask-type:alpha" maskUnits="userSpaceOnUse" x="0" y="0" width="100" height="99">
<path d="M49.6309 99C76.9691 99 99.1309 76.8382 99.1309 49.5C99.1309 22.1619 76.9691 0 49.6309 0C22.2928 0 0.130859 22.1619 0.130859 49.5C0.130859 76.8382 22.2928 99 49.6309 99Z" fill="white"/>
</mask>
<g mask="url(#mask0_2160_3844)">
<path d="M-1.84961 -1.97998H101.11V100.98H-1.84961V-1.97998Z" fill="white"/>
</g>
<mask id="mask1_2160_3844" style="mask-type:alpha" maskUnits="userSpaceOnUse" x="24" y="15" width="52" height="26">
<path d="M75.6199 15.4688L24.2637 30.6023V40.8375L75.6199 25.7031V15.4688Z" fill="white"/>
</mask>
<g mask="url(#mask1_2160_3844)">
<path d="M22.2539 13.4868H77.6223V42.8194H22.2539V13.4868Z" fill="#051425"/>
</g>
<mask id="mask2_2160_3844" style="mask-type:alpha" maskUnits="userSpaceOnUse" x="45" y="36" width="30" height="21">
<path d="M45.3008 45.9443V56.9251L74.9995 47.4871L75.0008 36.5063L45.3008 45.9443Z" fill="white"/>
</mask>
<g mask="url(#mask2_2160_3844)">
<path d="M43.3477 34.4646H76.9556V58.9671H43.3477V34.4646Z" fill="#051425"/>
</g>
<mask id="mask3_2160_3844" style="mask-type:alpha" maskUnits="userSpaceOnUse" x="45" y="56" width="30" height="22">
<path d="M45.3008 66.362V77.3436L74.9995 67.9045L75.0008 56.9248L45.3008 66.362Z" fill="white"/>
</mask>
<g mask="url(#mask3_2160_3844)">
<path d="M43.3477 54.8833H76.9556V79.3858H43.3477V54.8833Z" fill="#051425"/>
</g>
<mask id="mask4_2160_3844" style="mask-type:alpha" maskUnits="userSpaceOnUse" x="24" y="48" width="11" height="35">
<path d="M24.2637 82.9126L34.7824 79.9414V48.8813L24.2653 51.8526L24.2637 82.9126Z" fill="white"/>
</mask>
<g mask="url(#mask4_2160_3844)">
<path d="M22.2402 46.9026H36.8046V84.8912H22.2402V46.9026Z" fill="#051425"/>
</g>
<path d="M139.067 10.7146L135.444 28H140.136L143.76 10.7146H150.116L150.947 6.7942H133.246L132.414 10.7146H139.067ZM150.175 21.7927C150.175 21.1393 150.264 20.4463 150.442 19.7137C150.62 18.9613 150.888 18.2683 151.244 17.6347C151.601 17.0011 152.056 16.4764 152.61 16.0606C153.185 15.625 153.858 15.4072 154.63 15.4072C155.759 15.4072 156.551 15.7141 157.006 16.3279C157.481 16.9417 157.719 17.7634 157.719 18.793C157.719 19.4464 157.63 20.1493 157.451 20.9017C157.273 21.6541 156.996 22.357 156.62 23.0104C156.263 23.644 155.798 24.1786 155.224 24.6142C154.67 25.03 153.996 25.2379 153.204 25.2379C152.709 25.2379 152.274 25.1488 151.898 24.9706C151.521 24.7726 151.205 24.5152 150.947 24.1984C150.69 23.8816 150.492 23.5153 150.353 23.0995C150.234 22.6837 150.175 22.2481 150.175 21.7927ZM145.958 21.7927C145.958 23.9905 146.591 25.6438 147.858 26.7526C149.145 27.8416 150.858 28.3861 152.996 28.3861C154.402 28.3861 155.65 28.1386 156.739 27.6436C157.847 27.1486 158.788 26.4655 159.56 25.5943C160.332 24.7231 160.916 23.7034 161.312 22.5352C161.728 21.3472 161.936 20.08 161.936 18.7336C161.936 17.6248 161.758 16.6645 161.402 15.8527C161.065 15.0409 160.58 14.3677 159.946 13.8331C159.313 13.2985 158.55 12.9025 157.659 12.6451C156.788 12.3679 155.828 12.2293 154.778 12.2293C153.412 12.2293 152.185 12.4867 151.096 13.0015C150.007 13.4965 149.076 14.1796 148.304 15.0508C147.551 15.922 146.967 16.9417 146.552 18.1099C146.156 19.2583 145.958 20.4859 145.958 21.7927ZM167.365 6.7942L162.939 28H167.127L168.166 23.0104L170.364 21.1393L172.889 28H177.522L173.572 18.4663L180.462 12.6451H175.265L169.206 18.3772L169.147 18.3178L171.582 6.7942H167.365ZM191.619 18.6742H184.581C184.739 18.2386 184.927 17.8228 185.145 17.4268C185.382 17.0308 185.67 16.6843 186.006 16.3873C186.343 16.0903 186.739 15.8527 187.194 15.6745C187.65 15.4963 188.174 15.4072 188.768 15.4072C189.382 15.4072 189.877 15.5062 190.253 15.7042C190.629 15.8824 190.917 16.1299 191.115 16.4467C191.313 16.7635 191.441 17.1199 191.501 17.5159C191.58 17.8921 191.619 18.2782 191.619 18.6742ZM184.135 21.3472H195.451C195.609 20.4958 195.688 19.6939 195.688 18.9415C195.688 17.8327 195.51 16.8625 195.154 16.0309C194.817 15.1795 194.332 14.4766 193.698 13.9222C193.085 13.348 192.332 12.9223 191.441 12.6451C190.57 12.3679 189.6 12.2293 188.531 12.2293C187.224 12.2293 186.046 12.4966 184.996 13.0312C183.947 13.546 183.056 14.2489 182.323 15.1399C181.611 16.0111 181.056 17.0209 180.66 18.1693C180.264 19.2979 180.066 20.476 180.066 21.7036C180.066 22.8124 180.225 23.7826 180.541 24.6142C180.878 25.4458 181.343 26.1487 181.937 26.7229C182.531 27.2773 183.244 27.6931 184.076 27.9703C184.927 28.2475 185.868 28.3861 186.897 28.3861C188.006 28.3861 188.976 28.2772 189.808 28.0594C190.659 27.8416 191.402 27.5149 192.035 27.0793C192.669 26.6239 193.213 26.0695 193.669 25.4161C194.124 24.7627 194.52 24.0004 194.857 23.1292H190.639C190.481 23.3668 190.303 23.6143 190.105 23.8717C189.927 24.1291 189.709 24.3568 189.451 24.5548C189.214 24.7528 188.927 24.9211 188.59 25.0597C188.273 25.1785 187.907 25.2379 187.491 25.2379C186.343 25.2379 185.491 24.9607 184.937 24.4063C184.383 23.8519 184.105 23.1292 184.105 22.2382V21.8521C184.105 21.7729 184.105 21.6937 184.105 21.6145C184.105 21.5353 184.115 21.4462 184.135 21.3472ZM199.675 12.6451L196.497 28H200.684L202.407 19.8325C202.526 19.2979 202.694 18.7732 202.912 18.2584C203.15 17.7436 203.437 17.2882 203.773 16.8922C204.13 16.4962 204.545 16.1794 205.021 15.9418C205.516 15.6844 206.08 15.5557 206.714 15.5557C207.209 15.5557 207.664 15.7042 208.08 16.0012C208.515 16.2982 208.733 16.6744 208.733 17.1298C208.733 17.3476 208.694 17.6545 208.614 18.0505C208.555 18.4465 208.505 18.7633 208.466 19.0009L206.595 28H210.812L212.713 19.0009C212.733 18.8623 212.762 18.6841 212.802 18.4663C212.861 18.2287 212.911 17.9812 212.951 17.7238C213.01 17.4664 213.059 17.2189 213.099 16.9813C213.139 16.7239 213.158 16.516 213.158 16.3576C213.158 13.6054 211.664 12.2293 208.674 12.2293C206.456 12.2293 204.664 13.0807 203.298 14.7835H203.239L203.714 12.6451H199.675ZM135.147 39.7942L130.721 61H147.056L147.888 57.0796H136.186L137.285 51.8821H147.947L148.72 48.2587H138.057L139.008 43.7146H150.531L151.333 39.7942H135.147ZM153.471 45.6451L150.294 61H154.481L156.204 52.8325C156.323 52.2979 156.491 51.7732 156.709 51.2584C156.946 50.7436 157.233 50.2882 157.57 49.8922C157.926 49.4962 158.342 49.1794 158.817 48.9418C159.312 48.6844 159.877 48.5557 160.51 48.5557C161.005 48.5557 161.461 48.7042 161.877 49.0012C162.312 49.2982 162.53 49.6744 162.53 50.1298C162.53 50.3476 162.49 50.6545 162.411 51.0505C162.352 51.4465 162.302 51.7633 162.263 52.0009L160.392 61H164.609L166.51 52.0009C166.53 51.8623 166.559 51.6841 166.599 51.4663C166.658 51.2287 166.708 50.9812 166.747 50.7238C166.807 50.4664 166.856 50.2189 166.896 49.9813C166.935 49.7239 166.955 49.516 166.955 49.3576C166.955 46.6054 165.46 45.2293 162.471 45.2293C160.253 45.2293 158.461 46.0807 157.095 47.7835H157.035L157.511 45.6451H153.471ZM183.241 60.1981L186.3 45.6451H182.26L181.785 47.9914H181.726C181.29 46.9816 180.667 46.2688 179.855 45.853C179.043 45.4372 178.102 45.2293 177.033 45.2293C175.806 45.2293 174.707 45.5065 173.737 46.0609C172.786 46.5955 171.974 47.3083 171.301 48.1993C170.648 49.0705 170.143 50.0605 169.786 51.1693C169.45 52.2583 169.282 53.3671 169.282 54.4957C169.282 55.4461 169.42 56.3074 169.697 57.0796C169.975 57.832 170.361 58.4854 170.856 59.0398C171.37 59.5942 171.994 60.0199 172.727 60.3169C173.459 60.6139 174.281 60.7624 175.192 60.7624C176.914 60.7624 178.32 60.0397 179.409 58.5943L179.469 58.6537C179.251 59.3863 179.033 60.0793 178.815 60.7327C178.597 61.3861 178.33 61.9504 178.013 62.4256C177.697 62.9008 177.31 63.277 176.855 63.5542C176.419 63.8314 175.865 63.97 175.192 63.97C174.855 63.97 174.519 63.9304 174.182 63.8512C173.845 63.772 173.539 63.6433 173.261 63.4651C173.004 63.2869 172.796 63.0592 172.638 62.782C172.479 62.5048 172.41 62.1682 172.43 61.7722H168.242C168.242 62.7028 168.43 63.4849 168.806 64.1185C169.202 64.7521 169.707 65.2669 170.321 65.6629C170.955 66.0589 171.658 66.346 172.43 66.5242C173.222 66.7024 174.004 66.7915 174.776 66.7915C176.043 66.7915 177.142 66.6628 178.073 66.4054C179.023 66.148 179.835 65.752 180.508 65.2174C181.201 64.6828 181.765 63.9997 182.201 63.1681C182.637 62.3365 182.983 61.3465 183.241 60.1981ZM177.805 48.4072C178.835 48.4072 179.597 48.724 180.092 49.3576C180.587 49.9714 180.835 50.7634 180.835 51.7336C180.835 52.387 180.736 53.0602 180.538 53.7532C180.36 54.4462 180.082 55.0798 179.706 55.654C179.35 56.2084 178.885 56.6737 178.31 57.0499C177.756 57.4063 177.103 57.5845 176.35 57.5845C175.855 57.5845 175.429 57.4954 175.073 57.3172C174.717 57.139 174.42 56.8915 174.182 56.5747C173.944 56.2579 173.766 55.9015 173.647 55.5055C173.548 55.0897 173.499 54.6541 173.499 54.1987C173.499 53.5849 173.588 52.9414 173.766 52.2682C173.964 51.5752 174.241 50.9515 174.598 50.3971C174.954 49.8229 175.4 49.3477 175.934 48.9715C176.469 48.5953 177.093 48.4072 177.805 48.4072ZM194.566 43.2691L195.338 39.7942H191.091L190.319 43.2691H194.566ZM189.844 45.6451L186.606 61H190.824L194.091 45.6451H189.844ZM197.47 45.6451L194.292 61H198.48L200.203 52.8325C200.322 52.2979 200.49 51.7732 200.708 51.2584C200.945 50.7436 201.232 50.2882 201.569 49.8922C201.925 49.4962 202.341 49.1794 202.816 48.9418C203.311 48.6844 203.876 48.5557 204.509 48.5557C205.004 48.5557 205.46 48.7042 205.875 49.0012C206.311 49.2982 206.529 49.6744 206.529 50.1298C206.529 50.3476 206.489 50.6545 206.41 51.0505C206.351 51.4465 206.301 51.7633 206.262 52.0009L204.39 61H208.608L210.509 52.0009C210.528 51.8623 210.558 51.6841 210.598 51.4663C210.657 51.2287 210.707 50.9812 210.746 50.7238C210.806 50.4664 210.855 50.2189 210.895 49.9813C210.934 49.7239 210.954 49.516 210.954 49.3576C210.954 46.6054 209.459 45.2293 206.469 45.2293C204.252 45.2293 202.46 46.0807 201.094 47.7835H201.034L201.51 45.6451H197.47ZM224.626 51.6742H217.587C217.745 51.2386 217.933 50.8228 218.151 50.4268C218.389 50.0308 218.676 49.6843 219.013 49.3873C219.349 49.0903 219.745 48.8527 220.201 48.6745C220.656 48.4963 221.181 48.4072 221.775 48.4072C222.388 48.4072 222.883 48.5062 223.26 48.7042C223.636 48.8824 223.923 49.1299 224.121 49.4467C224.319 49.7635 224.448 50.1199 224.507 50.5159C224.586 50.8921 224.626 51.2782 224.626 51.6742ZM217.141 54.3472H228.457C228.616 53.4958 228.695 52.6939 228.695 51.9415C228.695 50.8327 228.517 49.8625 228.16 49.0309C227.824 48.1795 227.338 47.4766 226.705 46.9222C226.091 46.348 225.339 45.9223 224.448 45.6451C223.576 45.3679 222.606 45.2293 221.537 45.2293C220.23 45.2293 219.052 45.4966 218.003 46.0312C216.953 46.546 216.062 47.2489 215.33 48.1399C214.617 49.0111 214.063 50.0209 213.667 51.1693C213.271 52.2979 213.073 53.476 213.073 54.7036C213.073 55.8124 213.231 56.7826 213.548 57.6142C213.884 58.4458 214.35 59.1487 214.944 59.7229C215.538 60.2773 216.25 60.6931 217.082 60.9703C217.933 61.2475 218.874 61.3861 219.904 61.3861C221.012 61.3861 221.983 61.2772 222.814 61.0594C223.666 60.8416 224.408 60.5149 225.042 60.0793C225.675 59.6239 226.22 59.0695 226.675 58.4161C227.131 57.7627 227.527 57.0004 227.863 56.1292H223.646C223.487 56.3668 223.309 56.6143 223.111 56.8717C222.933 57.1291 222.715 57.3568 222.458 57.5548C222.22 57.7528 221.933 57.9211 221.596 58.0597C221.28 58.1785 220.913 58.2379 220.498 58.2379C219.349 58.2379 218.498 57.9607 217.943 57.4063C217.389 56.8519 217.112 56.1292 217.112 55.2382V54.8521C217.112 54.7729 217.112 54.6937 217.112 54.6145C217.112 54.5353 217.122 54.4462 217.141 54.3472ZM241.68 51.6742H234.641C234.8 51.2386 234.988 50.8228 235.206 50.4268C235.443 50.0308 235.73 49.6843 236.067 49.3873C236.403 49.0903 236.799 48.8527 237.255 48.6745C237.71 48.4963 238.235 48.4072 238.829 48.4072C239.443 48.4072 239.938 48.5062 240.314 48.7042C240.69 48.8824 240.977 49.1299 241.175 49.4467C241.373 49.7635 241.502 50.1199 241.561 50.5159C241.641 50.8921 241.68 51.2782 241.68 51.6742ZM234.196 54.3472H245.511C245.67 53.4958 245.749 52.6939 245.749 51.9415C245.749 50.8327 245.571 49.8625 245.214 49.0309C244.878 48.1795 244.393 47.4766 243.759 46.9222C243.145 46.348 242.393 45.9223 241.502 45.6451C240.631 45.3679 239.661 45.2293 238.591 45.2293C237.285 45.2293 236.106 45.4966 235.057 46.0312C234.008 46.546 233.117 47.2489 232.384 48.1399C231.671 49.0111 231.117 50.0209 230.721 51.1693C230.325 52.2979 230.127 53.476 230.127 54.7036C230.127 55.8124 230.285 56.7826 230.602 57.6142C230.939 58.4458 231.404 59.1487 231.998 59.7229C232.592 60.2773 233.305 60.6931 234.136 60.9703C234.988 61.2475 235.928 61.3861 236.958 61.3861C238.067 61.3861 239.037 61.2772 239.868 61.0594C240.72 60.8416 241.462 60.5149 242.096 60.0793C242.73 59.6239 243.274 59.0695 243.729 58.4161C244.185 57.7627 244.581 57.0004 244.917 56.1292H240.7C240.542 56.3668 240.363 56.6143 240.165 56.8717C239.987 57.1291 239.769 57.3568 239.512 57.5548C239.274 57.7528 238.987 57.9211 238.651 58.0597C238.334 58.1785 237.968 58.2379 237.552 58.2379C236.403 58.2379 235.552 57.9607 234.998 57.4063C234.443 56.8519 234.166 56.1292 234.166 55.2382V54.8521C234.166 54.7729 234.166 54.6937 234.166 54.6145C234.166 54.5353 234.176 54.4462 234.196 54.3472ZM249.735 45.6451L246.557 61H250.745L252.171 54.1987C252.309 53.5453 252.488 52.9216 252.705 52.3276C252.943 51.7138 253.25 51.1693 253.626 50.6941C254.022 50.2189 254.497 49.8427 255.052 49.5655C255.626 49.2883 256.319 49.1497 257.131 49.1497C257.428 49.1497 257.725 49.1794 258.022 49.2388C258.319 49.2982 258.616 49.3576 258.913 49.417L259.774 45.3184C259.338 45.259 258.903 45.2293 258.467 45.2293C257.339 45.2293 256.289 45.5065 255.319 46.0609C254.369 46.5955 253.656 47.3974 253.181 48.4666L253.121 48.4072L253.745 45.6451H249.735ZM266.061 43.2691L266.833 39.7942H262.586L261.814 43.2691H266.061ZM261.338 45.6451L258.101 61H262.318L265.585 45.6451H261.338ZM268.965 45.6451L265.787 61H269.975L271.697 52.8325C271.816 52.2979 271.984 51.7732 272.202 51.2584C272.44 50.7436 272.727 50.2882 273.064 49.8922C273.42 49.4962 273.836 49.1794 274.311 48.9418C274.806 48.6844 275.37 48.5557 276.004 48.5557C276.499 48.5557 276.954 48.7042 277.37 49.0012C277.806 49.2982 278.023 49.6744 278.023 50.1298C278.023 50.3476 277.984 50.6545 277.905 51.0505C277.845 51.4465 277.796 51.7633 277.756 52.0009L275.885 61H280.102L282.003 52.0009C282.023 51.8623 282.053 51.6841 282.092 51.4663C282.152 51.2287 282.201 50.9812 282.241 50.7238C282.3 50.4664 282.35 50.2189 282.389 49.9813C282.429 49.7239 282.449 49.516 282.449 49.3576C282.449 46.6054 280.954 45.2293 277.964 45.2293C275.746 45.2293 273.955 46.0807 272.588 47.7835H272.529L273.004 45.6451H268.965ZM298.734 60.1981L301.793 45.6451H297.754L297.279 47.9914H297.219C296.784 46.9816 296.16 46.2688 295.348 45.853C294.537 45.4372 293.596 45.2293 292.527 45.2293C291.299 45.2293 290.2 45.5065 289.23 46.0609C288.28 46.5955 287.468 47.3083 286.795 48.1993C286.141 49.0705 285.636 50.0605 285.28 51.1693C284.943 52.2583 284.775 53.3671 284.775 54.4957C284.775 55.4461 284.914 56.3074 285.191 57.0796C285.468 57.832 285.854 58.4854 286.349 59.0398C286.864 59.5942 287.488 60.0199 288.22 60.3169C288.953 60.6139 289.775 60.7624 290.685 60.7624C292.408 60.7624 293.814 60.0397 294.903 58.5943L294.962 58.6537C294.744 59.3863 294.527 60.0793 294.309 60.7327C294.091 61.3861 293.824 61.9504 293.507 62.4256C293.19 62.9008 292.804 63.277 292.349 63.5542C291.913 63.8314 291.359 63.97 290.685 63.97C290.349 63.97 290.012 63.9304 289.676 63.8512C289.339 63.772 289.032 63.6433 288.755 63.4651C288.498 63.2869 288.29 63.0592 288.131 62.782C287.973 62.5048 287.904 62.1682 287.923 61.7722H283.736C283.736 62.7028 283.924 63.4849 284.3 64.1185C284.696 64.7521 285.201 65.2669 285.815 65.6629C286.448 66.0589 287.151 66.346 287.923 66.5242C288.715 66.7024 289.497 66.7915 290.27 66.7915C291.537 66.7915 292.636 66.6628 293.566 66.4054C294.517 66.148 295.329 65.752 296.002 65.2174C296.695 64.6828 297.259 63.9997 297.695 63.1681C298.13 62.3365 298.477 61.3465 298.734 60.1981ZM293.299 48.4072C294.329 48.4072 295.091 48.724 295.586 49.3576C296.081 49.9714 296.328 50.7634 296.328 51.7336C296.328 52.387 296.229 53.0602 296.031 53.7532C295.853 54.4462 295.576 55.0798 295.2 55.654C294.843 56.2084 294.378 56.6737 293.804 57.0499C293.25 57.4063 292.596 57.5845 291.844 57.5845C291.349 57.5845 290.923 57.4954 290.567 57.3172C290.21 57.139 289.913 56.8915 289.676 56.5747C289.438 56.2579 289.26 55.9015 289.141 55.5055C289.042 55.0897 288.993 54.6541 288.993 54.1987C288.993 53.5849 289.082 52.9414 289.26 52.2682C289.458 51.5752 289.735 50.9515 290.091 50.3971C290.448 49.8229 290.893 49.3477 291.428 48.9715C291.963 48.5953 292.586 48.4072 293.299 48.4072ZM141.948 71.7942L129.207 93H132.325L136.038 86.6145H144.977L145.958 93H148.868L145.037 71.7942H141.948ZM137.315 84.2385L142.988 74.289H143.047L144.621 84.2385H137.315ZM162.975 82.5159H165.5C165.441 80.7141 164.896 79.3974 163.866 78.5658C162.857 77.7144 161.481 77.2887 159.738 77.2887C158.372 77.2887 157.154 77.556 156.085 78.0906C155.036 78.6054 154.145 79.3083 153.412 80.1993C152.699 81.0705 152.155 82.0704 151.779 83.199C151.422 84.3276 151.244 85.5057 151.244 86.7333C151.244 88.8321 151.769 90.4557 152.818 91.6041C153.887 92.7525 155.471 93.3267 157.57 93.3267C159.372 93.3267 160.877 92.8713 162.084 91.9605C163.292 91.0497 164.124 89.7231 164.579 87.9807H162.055C161.698 88.9311 161.134 89.6934 160.362 90.2676C159.59 90.8418 158.659 91.1289 157.57 91.1289C156.857 91.1289 156.253 91.0101 155.758 90.7725C155.283 90.5349 154.897 90.2181 154.6 89.8221C154.303 89.4261 154.085 88.9608 153.947 88.4262C153.828 87.8916 153.768 87.3273 153.768 86.7333C153.768 85.9017 153.897 85.0602 154.155 84.2088C154.412 83.3376 154.788 82.5555 155.283 81.8625C155.798 81.1695 156.422 80.6052 157.154 80.1696C157.907 79.734 158.768 79.5162 159.738 79.5162C160.748 79.5162 161.54 79.7835 162.114 80.3181C162.688 80.8329 162.975 81.5655 162.975 82.5159ZM168.146 82.2783H170.671C170.75 81.7833 170.918 81.3675 171.176 81.0309C171.433 80.6745 171.75 80.3874 172.126 80.1696C172.502 79.932 172.918 79.7637 173.374 79.6647C173.849 79.5657 174.324 79.5162 174.799 79.5162C175.136 79.5162 175.482 79.5459 175.839 79.6053C176.215 79.6647 176.552 79.7736 176.849 79.932C177.146 80.0706 177.393 80.2686 177.591 80.526C177.789 80.7834 177.888 81.12 177.888 81.5358C177.888 82.0506 177.809 82.4565 177.65 82.7535C177.512 83.0505 177.284 83.2782 176.967 83.4366C176.651 83.595 176.245 83.7138 175.75 83.793C175.274 83.8524 174.7 83.9118 174.027 83.9712C173.176 84.0504 172.295 84.1494 171.384 84.2682C170.473 84.387 169.641 84.6147 168.889 84.9513C168.137 85.2681 167.513 85.7433 167.018 86.3769C166.543 87.0105 166.305 87.8916 166.305 89.0202C166.305 89.8122 166.424 90.4854 166.661 91.0398C166.919 91.5744 167.255 92.0199 167.671 92.3763C168.087 92.7129 168.572 92.9505 169.127 93.0891C169.701 93.2475 170.315 93.3267 170.968 93.3267C172.275 93.3267 173.324 93.1386 174.116 92.7624C174.908 92.3862 175.571 91.8417 176.106 91.1289L176.165 91.1883C176.086 91.8615 176.225 92.3862 176.581 92.7624C176.938 93.1386 177.462 93.3267 178.155 93.3267C178.373 93.3267 178.631 93.2871 178.928 93.2079C179.244 93.1485 179.502 93.0792 179.7 93L180.086 91.1289C179.967 91.1685 179.828 91.218 179.67 91.2774C179.531 91.317 179.403 91.3368 179.284 91.3368C179.066 91.3368 178.888 91.2675 178.749 91.1289C178.611 90.9903 178.541 90.7428 178.541 90.3864C178.541 90.03 178.591 89.6538 178.69 89.2578C178.809 88.8618 178.898 88.5054 178.957 88.1886L179.937 84.0009C180.036 83.5851 180.135 83.1297 180.234 82.6347C180.353 82.1199 180.413 81.6447 180.413 81.2091C180.413 80.4369 180.254 79.8033 179.937 79.3083C179.64 78.7935 179.234 78.3876 178.72 78.0906C178.205 77.7936 177.611 77.5857 176.938 77.4669C176.264 77.3481 175.552 77.2887 174.799 77.2887C173.987 77.2887 173.205 77.3877 172.453 77.5857C171.701 77.7837 171.027 78.0906 170.433 78.5064C169.839 78.9222 169.334 79.4469 168.919 80.0805C168.523 80.6943 168.265 81.4269 168.146 82.2783ZM168.8 88.9905C168.82 88.3371 168.988 87.8322 169.305 87.4758C169.622 87.0996 170.027 86.8125 170.522 86.6145C171.017 86.4165 171.572 86.2779 172.186 86.1987C172.819 86.0997 173.443 86.0205 174.057 85.9611C174.671 85.9017 175.245 85.8225 175.779 85.7235C176.334 85.6047 176.789 85.4166 177.146 85.1592H177.205C177.027 85.872 176.858 86.565 176.7 87.2382C176.561 87.9114 176.284 88.5351 175.868 89.1093C174.997 90.4557 173.562 91.1289 171.562 91.1289C170.849 91.1289 170.206 90.9507 169.631 90.5943C169.077 90.2379 168.8 89.7033 168.8 88.9905ZM195.487 93L199.972 71.7942H197.477L195.843 79.9914H195.784C195.626 79.4766 195.378 79.0509 195.041 78.7143C194.705 78.3579 194.309 78.0807 193.853 77.8827C193.418 77.6649 192.953 77.5164 192.458 77.4372C191.963 77.3382 191.477 77.2887 191.002 77.2887C189.656 77.2887 188.448 77.5857 187.379 78.1797C186.329 78.7539 185.438 79.5063 184.706 80.4369C183.993 81.3675 183.439 82.4169 183.043 83.5851C182.666 84.7335 182.478 85.8918 182.478 87.06C182.478 87.9906 182.607 88.842 182.864 89.6142C183.122 90.3864 183.508 91.0497 184.023 91.6041C184.538 92.1387 185.171 92.5644 185.924 92.8812C186.676 93.1782 187.537 93.3267 188.507 93.3267C189.537 93.3267 190.448 93.1584 191.24 92.8218C192.052 92.4654 192.834 91.7922 193.586 90.8022H193.646L193.111 93H195.487ZM185.003 87.06C185.003 86.2086 185.132 85.3374 185.389 84.4464C185.646 83.5554 186.032 82.7436 186.547 82.011C187.062 81.2784 187.696 80.6844 188.448 80.229C189.2 79.7538 190.082 79.5162 191.091 79.5162C192.339 79.5162 193.289 79.8924 193.943 80.6448C194.616 81.3972 194.952 82.3476 194.952 83.496C194.952 84.288 194.814 85.1394 194.537 86.0502C194.279 86.9412 193.893 87.7629 193.378 88.5153C192.883 89.2677 192.26 89.8914 191.507 90.3864C190.755 90.8814 189.903 91.1289 188.953 91.1289C187.567 91.1289 186.557 90.7626 185.924 90.03C185.31 89.2974 185.003 88.3074 185.003 87.06ZM202.489 86.0799H214.043C214.082 85.8621 214.132 85.575 214.191 85.2186C214.251 84.8622 214.28 84.486 214.28 84.09C214.28 81.9318 213.756 80.2587 212.706 79.0707C211.677 77.8827 210.033 77.2887 207.776 77.2887C206.727 77.2887 205.717 77.5263 204.747 78.0015C203.796 78.4767 202.955 79.1499 202.222 80.0211C201.509 80.8923 200.935 81.9417 200.5 83.1693C200.084 84.3771 199.876 85.7136 199.876 87.1788C199.876 87.852 199.975 88.5549 200.173 89.2875C200.371 90.0003 200.717 90.6636 201.212 91.2774C201.707 91.8714 202.371 92.3664 203.202 92.7624C204.054 93.1386 205.113 93.3267 206.38 93.3267C207.212 93.3267 208.004 93.2178 208.756 93C209.509 92.7822 210.192 92.4654 210.805 92.0496C211.419 91.614 211.944 91.0794 212.38 90.4458C212.815 89.7924 213.132 89.04 213.33 88.1886H210.805C210.449 89.139 209.905 89.8716 209.172 90.3864C208.439 90.8814 207.509 91.1289 206.38 91.1289C205.865 91.1289 205.37 91.0497 204.895 90.8913C204.42 90.7131 203.994 90.4755 203.618 90.1785C203.242 89.8617 202.945 89.4756 202.727 89.0202C202.509 88.545 202.4 88.0104 202.4 87.4164C202.4 86.961 202.43 86.5155 202.489 86.0799ZM211.756 83.8524H202.846C203.024 83.2584 203.262 82.704 203.559 82.1892C203.856 81.6546 204.222 81.1893 204.658 80.7933C205.093 80.3973 205.598 80.0904 206.172 79.8726C206.766 79.635 207.43 79.5162 208.162 79.5162C208.855 79.5162 209.439 79.6449 209.914 79.9023C210.39 80.1399 210.766 80.4666 211.043 80.8824C211.34 81.2784 211.538 81.7437 211.637 82.2783C211.756 82.7931 211.795 83.3178 211.756 83.8524ZM218.649 77.6451L215.412 93H217.907L219.63 84.9513C219.788 84.1989 219.966 83.5653 220.164 83.0505C220.362 82.5159 220.728 81.9912 221.263 81.4764C221.718 80.9616 222.283 80.5062 222.956 80.1102C223.649 79.7142 224.342 79.5162 225.035 79.5162C225.728 79.5162 226.253 79.6944 226.609 80.0508C226.985 80.4072 227.173 80.9022 227.173 81.5358C227.173 81.714 227.124 82.0605 227.025 82.5753C226.946 83.0901 226.837 83.6445 226.698 84.2385L224.857 93H227.381L229.074 85.0701C229.213 84.4167 229.381 83.793 229.579 83.199C229.777 82.605 230.084 82.0803 230.5 81.6249C230.718 81.3477 230.975 81.0804 231.272 80.823C231.569 80.5656 231.886 80.3478 232.222 80.1696C232.559 79.9716 232.905 79.8132 233.262 79.6944C233.638 79.5756 234.004 79.5162 234.361 79.5162C235.034 79.5162 235.588 79.7142 236.024 80.1102C236.479 80.5062 236.707 81.0012 236.707 81.5952C236.707 81.813 236.677 82.0902 236.618 82.4268C236.578 82.7436 236.529 83.0208 236.469 83.2584L234.331 93H236.856L238.786 83.793C238.885 83.3574 238.984 82.8525 239.083 82.2783C239.182 81.7041 239.232 81.1893 239.232 80.7339C239.232 80.1003 239.113 79.5657 238.875 79.1301C238.638 78.6945 238.311 78.348 237.895 78.0906C237.499 77.8134 237.044 77.6154 236.529 77.4966C236.014 77.358 235.489 77.2887 234.955 77.2887C233.925 77.2887 232.935 77.5461 231.985 78.0609C231.054 78.5559 230.292 79.2192 229.698 80.0508C229.48 79.041 229.025 78.3282 228.332 77.9124C227.639 77.4966 226.807 77.2887 225.837 77.2887C224.768 77.2887 223.768 77.5362 222.837 78.0312C221.926 78.5064 221.144 79.1598 220.491 79.9914L220.431 79.932L220.996 77.6451H218.649ZM245.663 95.5839L255.821 77.6451H253.059L246.614 89.8518H246.554L244.772 77.6451H242.07L244.772 93L243.228 95.5245C242.931 96.0195 242.604 96.4155 242.248 96.7125C241.892 97.0293 241.426 97.1877 240.852 97.1877C240.654 97.1877 240.416 97.1481 240.139 97.0689C239.862 96.9897 239.624 96.8907 239.426 96.7719L238.981 98.8212C239.219 98.94 239.496 99.0291 239.813 99.0885C240.129 99.1677 240.436 99.2073 240.733 99.2073C241.367 99.2073 241.921 99.1083 242.396 98.9103C242.872 98.7321 243.297 98.4747 243.674 98.1381C244.05 97.8213 244.396 97.4352 244.713 96.9798C245.03 96.5442 245.347 96.0789 245.663 95.5839Z" fill="white"/>
</svg>
