<svg width="175" height="83" viewBox="0 0 175 83" fill="none" xmlns="http://www.w3.org/2000/svg">
<path fill-rule="evenodd" clip-rule="evenodd" d="M119.576 82.7976L106.225 69.3813V41.7821L147.804 0H173.361L174.887 1.53329V13.7996L151.237 37.9489L153.525 40.4405H172.979L174.887 42.5488V55.5817L147.804 82.7976H119.576ZM134.453 15.3329V40.6322L147.422 53.6651H173.361V41.9738H152.762L146.659 35.649V20.6994L153.525 13.608H173.361V1.53329H148.185L134.453 15.3329ZM13.2336 83V42.1883H0V27.7469L27.2344 0.404402H41.427L43.7285 2.71503L46.7972 0.404402H68.6614V15.0384L55.4278 28.7096V55.4744L27.618 83H13.2336ZM42.0024 14.0756V54.7042H54.0853V15.0384L40.6598 1.55972H28.7688V14.0756H42.0024ZM67.5107 1.55972H49.4823L61.3733 13.498H67.5107V1.55972Z" fill="white"/>
<path fill-rule="evenodd" clip-rule="evenodd" d="M54.9277 82.7981V68.6152V61.5237V48.2991L54.9502 41.591H55.3092V27.5997L82.7737 0.000488281H123.589V15.3334V27.5997L117.295 35.2662L112.908 39.866V40.8243H123.589V55.9656L96.8875 82.7981H54.9277ZM122.445 42.1659H83.9181V53.6656H83.9851V53.728H122.512V42.2283H122.445V42.1659ZM115.579 21.8499H83.5367V32.5829H83.6037V32.6453H115.646V21.9122H115.579V21.8499ZM122.445 1.15045H83.9181V13.0335H83.9851V13.0958H122.512V1.21282H122.445V1.15045Z" fill="white"/>
</svg>
