<svg width="61" height="45" viewBox="0 0 61 45" fill="none" xmlns="http://www.w3.org/2000/svg">
<path d="M61 0.44375L59.4606 9.81536C56.3817 9.59614 53.8801 10.0346 51.9558 11.1307C50.0315 12.172 48.6845 13.7065 47.9148 15.7343C47.2093 17.7072 47.081 20.009 47.53 22.6397H61V45H34.8297V22.6397C34.8297 14.7478 36.9784 8.77407 41.276 4.71852C45.5736 0.608166 52.1483 -0.816759 61 0.44375ZM26.1703 0.44375L24.6309 9.81536C21.552 9.59614 19.0505 10.0346 17.1262 11.1307C15.2019 12.172 13.8549 13.7065 13.0852 15.7343C12.3796 17.7072 12.2513 20.009 12.7003 22.6397H26.1703V45H0V22.6397C0 14.7478 2.14879 8.77407 6.44637 4.71852C10.744 0.608166 17.3186 -0.816759 26.1703 0.44375Z" fill="#FF913E"/>
</svg>
