<svg width="217" height="217" viewBox="0 0 217 217" fill="none" xmlns="http://www.w3.org/2000/svg">
<g clip-path="url(#clip0_1745_3163)">
<path d="M21.9654 68.4704L9.20264 64.0966L9.95274 62.6536L21.6855 66.7925L21.8086 66.5576L12.1246 58.593L13.4793 56.0874L25.4695 59.7452L25.5927 59.5103L15.64 52.038L16.4013 50.6397L27.1152 58.8391L25.7718 61.3448L13.7032 57.6758L13.58 57.9107L23.32 65.9088L21.9654 68.4704Z" fill="#A569FF"/>
<path d="M29.6117 55.1365L18.9089 47.2279L23.7901 40.6393L24.9096 41.4894L20.9801 46.8028L24.5626 49.4428L28.1675 44.5656L29.287 45.4269L25.7605 50.3488L29.399 53.0447L33.3846 47.653L34.5041 48.5143L29.6117 55.1365Z" fill="#A569FF"/>
<path d="M38.8257 43.4917L32.6011 31.0304L34.6386 29.084L46.808 35.8852L45.6101 37.0038L42.5425 35.2811L38.4451 39.1627L40.0236 42.306L38.8257 43.4917ZM37.7062 37.8987L41.2215 34.5428L34.3699 30.6612L34.1796 30.8514L37.7062 37.8987Z" fill="#A569FF"/>
<path d="M48.476 34.5764L40.572 23.8601L44.9046 20.672C45.4992 20.2125 46.1869 19.888 46.9198 19.7212C47.5506 19.5704 48.2116 19.6054 48.823 19.8218C49.4534 20.0557 49.9966 20.4774 50.3791 21.03L50.5023 21.1977C50.9756 21.7749 51.2329 22.4987 51.23 23.2448C51.2024 23.8572 50.9962 24.4483 50.6367 24.9451L50.7934 25.1576C50.9702 25.0228 51.1737 24.9271 51.3904 24.877C51.6071 24.8268 51.832 24.8233 52.0502 24.8667C52.2683 24.9101 52.4747 24.9994 52.6557 25.1286C52.8366 25.2578 52.988 25.4241 53.0997 25.6163L55.7529 29.2182L54.4767 30.1579L51.9353 26.7125C51.8521 26.5744 51.7399 26.456 51.6066 26.3652C51.4733 26.2745 51.3219 26.2136 51.1628 26.1868C50.8212 26.1698 50.4856 26.2816 50.2224 26.5L46.5168 29.2294L49.7634 33.6255L48.476 34.5764ZM45.6659 28.066L48.5879 25.9183C49.2006 25.5195 49.6465 24.9109 49.8418 24.2068C49.9044 23.881 49.8936 23.5454 49.8104 23.2242C49.7271 22.903 49.5734 22.6044 49.3604 22.3499L49.282 22.238C49.1025 21.961 48.8639 21.727 48.5832 21.553C48.3026 21.3789 47.9868 21.2691 47.6587 21.2313C46.9235 21.2007 46.2039 21.4484 45.6435 21.9248L42.7103 24.0726L45.6659 28.066Z" fill="#A569FF"/>
<path d="M58.4175 27.5403L51.8682 15.9515L59.0108 11.9244L59.7273 13.1773L53.9729 16.4213L56.212 20.3029L61.4962 17.3162L62.2127 18.5802L56.9173 21.5557L59.1564 25.4932L64.9891 22.2045L65.7056 23.4685L58.4175 27.5403Z" fill="#A569FF"/>
<path d="M72.6467 20.1462L68.5269 7.48352L71.4265 6.54389L78.5915 17.1484L78.8266 17.0812L78.4012 4.2843L81.2896 3.34467L85.4095 16.0074L83.9429 16.4772L80.1477 4.81005L79.9014 4.89952L80.338 17.6517L77.7183 18.5019L70.5756 7.91979L70.3181 7.99811L74.1133 19.6652L72.6467 20.1462Z" fill="#A569FF"/>
<path d="M87.4695 15.5934L89.3615 1.78975L92.138 1.33112L98.3962 13.8037L96.7616 14.0722L95.1943 10.9176L89.5966 11.8349L89.1376 15.325L87.4695 15.5934ZM89.7086 10.3471L94.489 9.56414L91.0184 2.49448H90.7498L89.7086 10.3471Z" fill="#A569FF"/>
<path d="M100.512 13.6694L100.008 0.369134L101.609 0.30202L101.822 6.09643H102.091L107.498 0.0894806L109.592 0.0111694L103.356 6.83472L110.319 13.3003L108.08 13.3898L102.057 7.69604H101.788L102.012 13.6023L100.512 13.6694Z" fill="#A569FF"/>
<path d="M112.379 13.5129L113.029 0.212524L114.629 0.290836L113.98 13.5912L112.379 13.5129Z" fill="#A569FF"/>
<path d="M117.249 13.7142L119.13 0.536926L122.198 0.973168L125.064 13.8037H125.31L127.045 1.62198L128.613 1.84572L126.732 15.023L123.664 14.5867L120.787 1.77857H120.518L118.783 13.9827L117.249 13.7142Z" fill="#A569FF"/>
<path d="M134.221 17.249C133.341 17.022 132.535 16.5711 131.881 15.9402C131.262 15.3331 130.841 14.5533 130.672 13.703C130.485 12.6923 130.55 11.651 130.863 10.6716L131.691 7.74081C131.842 7.02485 132.137 6.34708 132.558 5.74893C132.98 5.15077 133.519 4.64477 134.143 4.2619C134.758 3.94474 135.431 3.75458 136.122 3.7027C136.812 3.65081 137.506 3.73827 138.162 3.95989C138.808 4.0954 139.419 4.36444 139.955 4.74972C140.491 5.13501 140.94 5.62802 141.274 6.19712C141.84 7.33927 141.928 8.65883 141.521 9.86617V9.95568L139.998 9.5194V9.39637C140.168 8.83876 140.214 8.25084 140.132 7.67369C140.046 7.14309 139.8 6.65135 139.427 6.26423C138.969 5.81321 138.396 5.49601 137.77 5.34696C137.306 5.18352 136.812 5.12385 136.323 5.17217C135.833 5.2205 135.361 5.37563 134.938 5.62661C134.068 6.22084 133.459 7.12556 133.236 8.15469L132.385 11.1526C132.029 12.148 132.073 13.2428 132.508 14.2064C132.734 14.6388 133.051 15.017 133.438 15.3145C133.824 15.612 134.271 15.8217 134.747 15.9291C135.176 16.0906 135.635 16.1524 136.091 16.1097C136.547 16.0671 136.987 15.9211 137.378 15.683C138.114 15.1339 138.63 14.3407 138.834 13.4457L138.923 13.1325L135.038 12.0139L135.408 10.6939L140.938 12.3159L139.214 18.4124L137.826 18.0097L138.218 16.6226L137.961 16.5555C137.727 16.8008 137.459 17.0118 137.166 17.1819C136.821 17.3728 136.439 17.4873 136.046 17.5175C135.426 17.5458 134.807 17.4547 134.221 17.249Z" fill="#A569FF"/>
<path d="M146.85 21.2649L153.063 9.49707L155.761 10.9177L153.142 23.4462L153.366 23.558L162.243 14.3295L164.93 15.7501L158.717 27.5179L157.351 26.802L163.083 15.9515L162.848 15.8284L154.004 25.0346L151.563 23.7482L154.172 11.1974L153.936 11.0743L148.216 21.9249L146.85 21.2649Z" fill="#A569FF"/>
<path d="M160.452 28.6701L171.648 20.3923L173.887 22.0591L169.285 35.214L167.953 34.2296L169.129 30.8737L164.561 27.5179L161.74 29.6209L160.452 28.6701ZM165.792 26.623L169.7 29.4978L172.33 22.0926L172.118 21.9248L165.792 26.623Z" fill="#A569FF"/>
<path d="M173.965 39.901C173.294 39.292 172.789 38.522 172.498 37.6637C172.246 36.836 172.246 35.9522 172.498 35.1245C172.807 34.1455 173.353 33.2578 174.088 32.5405L176.193 30.3032C176.663 29.7409 177.243 29.2803 177.898 28.9495C178.552 28.6187 179.267 28.4246 179.999 28.3792C180.69 28.3853 181.373 28.5311 182.006 28.808C182.639 29.0848 183.209 29.4869 183.682 29.99C184.191 30.4099 184.606 30.9313 184.901 31.5208C185.196 32.1102 185.364 32.7547 185.395 33.413C185.356 34.6851 184.817 35.8906 183.895 36.7688L183.828 36.836L182.708 35.7174L182.798 35.6278C183.209 35.2113 183.526 34.7116 183.727 34.1625C183.884 33.6484 183.884 33.0993 183.727 32.5852C183.527 31.9732 183.167 31.4251 182.686 30.9968C182.353 30.6332 181.946 30.3451 181.492 30.1522C181.038 29.9592 180.548 29.8658 180.055 29.8782C179.007 29.9946 178.044 30.5117 177.368 31.3212L175.208 33.5584C174.432 34.2733 173.959 35.258 173.887 36.3102C173.894 36.8034 174.006 37.2893 174.215 37.7364C174.423 38.1836 174.723 38.5819 175.096 38.9054C175.398 39.2487 175.776 39.5181 176.199 39.6926C176.622 39.8672 177.079 39.9423 177.536 39.9122C178.437 39.7786 179.259 39.326 179.854 38.6369L180.078 38.402L177.167 35.6166L178.118 34.6211L182.16 38.4915L177.783 43.0666L176.73 42.0711L177.727 41.0196L177.536 40.8406C177.219 40.9491 176.887 41.0094 176.551 41.0196C176.139 41.0288 175.731 40.9487 175.353 40.7847C174.843 40.5717 174.374 40.2728 173.965 39.901Z" fill="#A569FF"/>
<path d="M179.809 45.5835L189.885 36.8472L190.937 38.0553L180.861 46.7917L179.809 45.5835Z" fill="#A569FF"/>
<path d="M185.642 53.3243C185.204 52.7856 184.879 52.1643 184.687 51.4974C184.494 50.8305 184.438 50.1317 184.522 49.4428C184.67 48.7257 184.963 48.0464 185.382 47.4463C185.802 46.8462 186.34 46.3379 186.963 45.9527L189.437 44.1741C190.004 43.7012 190.662 43.3498 191.371 43.142C192.08 42.9342 192.824 42.8742 193.557 42.966C194.238 43.0949 194.887 43.3594 195.464 43.7437C196.041 44.1281 196.534 44.6244 196.915 45.2032C197.336 45.7151 197.646 46.308 197.827 46.945C198.009 47.5821 198.056 48.2495 197.968 48.9058C197.83 49.5464 197.566 50.1532 197.191 50.6909C196.816 51.2285 196.338 51.6865 195.785 52.0379L195.718 52.0939L194.788 50.8187L194.912 50.7292C195.658 50.2362 196.199 49.4886 196.434 48.6262C196.525 48.1719 196.51 47.703 196.392 47.2552C196.273 46.8074 196.054 46.3925 195.751 46.0422C195.488 45.6289 195.139 45.2771 194.727 45.0107C194.316 44.7444 193.852 44.5696 193.367 44.4985C192.313 44.4249 191.272 44.7571 190.456 45.4269L187.926 47.2503C187.033 47.8115 186.389 48.6916 186.123 49.7112C186.032 50.1935 186.048 50.6899 186.17 51.1654C186.292 51.6408 186.517 52.0838 186.828 52.463C187.067 52.8605 187.392 53.1988 187.78 53.4526C188.167 53.7064 188.608 53.8691 189.067 53.9284C189.957 53.9795 190.834 53.7006 191.53 53.1454L191.788 52.9664L192.706 54.2528L192.504 54.3982C191.481 55.2411 190.164 55.6435 188.844 55.5168C188.187 55.3928 187.563 55.1339 187.012 54.7565C186.461 54.3791 185.994 53.8914 185.642 53.3243Z" fill="#A569FF"/>
<path d="M192.695 63.9624L204.763 58.3693L205.435 59.8123L200.084 62.318L202.726 67.9111L208.088 65.4054L208.76 66.8484L196.703 72.4974L196.02 71.0544L201.416 68.5263L198.774 62.8773L193.378 65.4054L192.695 63.9624Z" fill="#A569FF"/>
<path d="M197.52 74.4662L211.458 74.3543L212.309 77.039L200.856 85.0259L200.364 83.4486L203.263 81.4463L201.539 76.0434L198.035 76.077L197.52 74.4662ZM203.039 75.9428L204.506 80.5626L210.999 76.0882L210.921 75.8421L203.039 75.9428Z" fill="#A569FF"/>
<path d="M201.304 87.0841L214.403 84.6791L215.332 89.6905C215.477 90.4324 215.45 91.1978 215.253 91.9277C215.074 92.5788 214.718 93.1674 214.223 93.628C213.683 94.1183 213.009 94.4375 212.287 94.5453H212.04C211.329 94.6994 210.588 94.6371 209.913 94.3663C209.279 94.1118 208.731 93.6809 208.335 93.1246C207.909 92.5332 207.626 91.8519 207.506 91.1335L206.868 87.6882L201.595 88.6613L201.304 87.0841ZM208.29 87.4309L208.894 90.6972C208.984 91.4216 209.339 92.087 209.891 92.5653C210.157 92.7711 210.467 92.9143 210.796 92.984C211.126 93.0537 211.467 93.0482 211.794 92.968H211.973C212.306 92.928 212.626 92.8138 212.909 92.6337C213.192 92.4536 213.431 92.2124 213.608 91.9277C213.956 91.2806 214.052 90.5272 213.876 89.8135L213.272 86.5471L208.29 87.4309Z" fill="#A569FF"/>
<path d="M203.207 98.5052L216.507 97.6998L216.81 102.789C216.864 103.529 216.749 104.271 216.474 104.96C216.21 105.612 215.758 106.173 215.177 106.571C214.595 106.969 213.909 107.187 213.205 107.197H212.958C212.233 107.257 211.506 107.106 210.865 106.761C210.266 106.429 209.777 105.932 209.454 105.329C209.102 104.689 208.903 103.977 208.872 103.248L208.659 99.758L203.297 100.082L203.207 98.5052ZM210.104 99.6909L210.305 103.047C210.306 103.776 210.573 104.48 211.055 105.027C211.298 105.26 211.59 105.438 211.909 105.546C212.228 105.654 212.567 105.691 212.903 105.653H213.093C213.428 105.653 213.759 105.577 214.062 105.432C214.364 105.287 214.63 105.076 214.839 104.814C215.258 104.215 215.442 103.482 215.354 102.756L215.153 99.4001L210.104 99.6909Z" fill="#A569FF"/>
<path d="M203.7 110.116L217 110.866L216.541 119.043L215.097 118.965L215.466 112.376L210.988 112.13L210.641 118.182L209.197 118.103L209.544 112.052L205.066 111.794L204.685 118.506L203.241 118.428L203.7 110.116Z" fill="#A569FF"/>
<path d="M202.95 120.922L216.059 123.305L215.5 126.359L202.513 128.719V128.965L214.627 131.202L214.347 132.757L201.237 130.375L201.797 127.321L214.761 124.983V124.714L202.625 122.477L202.95 120.922Z" fill="#A569FF"/>
<path d="M202.983 139.391L204.293 139.86L202.39 145.163L201.08 144.693L202.983 139.391Z" fill="#A569FF"/>
<path d="M193.557 151.606L206.163 156.427L205.357 157.814L193.725 153.261L193.591 153.496L202.983 161.796L201.539 164.268L189.694 160.186L189.56 160.409L199.233 168.24L198.427 169.615L187.959 161.013L189.403 158.552L201.394 162.658L201.528 162.423L192.079 154.089L193.557 151.606Z" fill="#A569FF"/>
<path d="M185.373 164.671L195.796 172.96L190.691 179.37L189.571 178.475L193.68 173.307L190.198 170.533L186.414 175.287L185.295 174.381L189.079 169.638L185.53 166.819L181.354 172.054L180.234 171.159L185.373 164.671Z" fill="#A569FF"/>
<path d="M175.756 175.98L181.533 188.654L179.428 190.522L167.505 183.296L168.748 182.178L171.748 184.012L175.991 180.254L174.525 177.077L175.756 175.98ZM176.652 181.573L173.024 184.795L179.742 188.912L179.943 188.733L176.652 181.573Z" fill="#A569FF"/>
<path d="M165.792 184.583L173.304 195.578L168.826 198.61C168.221 199.049 167.524 199.347 166.789 199.482C166.151 199.612 165.49 199.554 164.886 199.315C164.267 199.054 163.74 198.614 163.374 198.051L163.251 197.883C162.826 197.349 162.595 196.686 162.595 196.004C162.595 195.321 162.826 194.659 163.251 194.124L163.094 193.912C162.748 194.151 162.323 194.247 161.908 194.18C161.674 194.133 161.454 194.037 161.261 193.898C161.068 193.759 160.907 193.581 160.788 193.375L158.258 189.683L159.568 188.789L161.986 192.323C162.064 192.463 162.172 192.584 162.301 192.679C162.431 192.773 162.579 192.839 162.736 192.871C163.077 192.904 163.418 192.804 163.688 192.592L167.483 189.997L164.404 185.522L165.792 184.583ZM168.367 191.182L165.367 193.241C164.735 193.611 164.267 194.206 164.057 194.907C163.984 195.23 163.983 195.565 164.054 195.888C164.126 196.211 164.268 196.514 164.471 196.775L164.55 196.887C164.719 197.169 164.947 197.411 165.22 197.595C165.493 197.778 165.803 197.9 166.128 197.95C166.861 198.013 167.59 197.793 168.166 197.335L171.177 195.288L168.367 191.182Z" fill="#A569FF"/>
<path d="M155.616 191.216L161.751 203.04L154.463 206.809L153.802 205.523L159.657 202.492L157.609 198.543L152.224 201.362L151.552 200.087L156.948 197.29L154.866 193.274L148.91 196.35L148.249 195.064L155.616 191.216Z" fill="#A569FF"/>
<path d="M141.118 198.107L144.779 210.915L141.845 211.742L135.061 200.892L134.826 200.959V213.756L131.893 214.595L128.232 201.798L129.743 201.362L133.102 213.152L133.359 213.085V200.333L136.013 199.572L142.73 210.4L142.987 210.333L139.629 198.532L141.118 198.107Z" fill="#A569FF"/>
<path d="M126.138 202.122L123.754 215.904L120.955 216.262L115.189 203.521L116.835 203.319L118.279 206.519L123.877 205.803L124.47 202.335L126.138 202.122ZM123.698 207.29L118.884 207.906L122.097 215.087H122.365L123.698 207.29Z" fill="#A569FF"/>
<path d="M113.017 203.532L113.241 216.843H111.64L111.551 211.049H111.282L105.684 216.944H103.557L109.939 210.232L103.109 203.61H105.348L111.248 209.427H111.517L111.428 203.51L113.017 203.532Z" fill="#A569FF"/>
<path d="M101.195 203.331L100.076 216.597L98.4858 216.463L99.6054 203.196L101.195 203.331Z" fill="#A569FF"/>
<path d="M96.3139 202.95L93.9181 216.06L90.8617 215.512L88.4659 202.581H88.2196L86.0813 214.651L84.5251 214.371L86.8762 201.272L89.9325 201.809L92.3172 214.785H92.5858L94.7577 202.648L96.3139 202.95Z" fill="#A569FF"/>
<path d="M79.4535 198.823C80.329 199.079 81.1235 199.556 81.7598 200.21C82.3425 200.831 82.7315 201.608 82.8794 202.447C83.0252 203.463 82.9214 204.5 82.5771 205.467L81.6367 208.364C81.459 209.069 81.1389 209.731 80.6961 210.308C80.2533 210.885 79.6971 211.366 79.0617 211.72C78.4345 212.014 77.7547 212.179 77.0624 212.206C76.3702 212.233 75.6796 212.121 75.0314 211.877C74.3944 211.718 73.7971 211.429 73.277 211.029C72.7569 210.628 72.325 210.125 72.0086 209.55C71.4855 208.386 71.4452 207.063 71.8967 205.87V205.78L73.4081 206.261V206.396C73.2215 206.946 73.1566 207.529 73.2177 208.107C73.2822 208.643 73.5087 209.146 73.8671 209.55C74.3144 210.01 74.8739 210.345 75.4904 210.523C75.9496 210.698 76.4411 210.773 76.9316 210.742C77.4222 210.711 77.9004 210.575 78.334 210.344C79.2245 209.778 79.8652 208.894 80.1253 207.872L81.0881 204.908C81.4777 203.927 81.4777 202.835 81.0881 201.854C80.8677 201.41 80.5534 201.018 80.1668 200.707C79.7801 200.397 79.3305 200.173 78.849 200.053C78.4262 199.876 77.9689 199.798 77.5113 199.823C77.0537 199.848 76.6077 199.976 76.2069 200.198C75.4589 200.72 74.9196 201.488 74.6843 202.369L74.5836 202.671L78.4236 203.912L78.0094 205.21L72.6468 203.599L74.5836 197.57L75.9606 198.017L75.524 199.393L75.7815 199.471C76.0152 199.23 76.2876 199.03 76.5875 198.878C76.9341 198.697 77.3163 198.594 77.7071 198.576C78.2995 198.549 78.8919 198.632 79.4535 198.823Z" fill="#A569FF"/>
<path d="M66.982 194.37L60.3319 205.926L57.6898 204.404L60.7461 191.977L60.5334 191.854L51.3308 200.802L48.6887 199.292L55.3276 187.748L56.6598 188.509L50.5695 199.125L50.8046 199.259L59.9736 190.377L62.3695 191.742L59.3019 204.136L59.537 204.27L65.6497 193.632L66.982 194.37Z" fill="#A569FF"/>
<path d="M53.6818 186.462L42.1729 194.292L39.9338 192.536L45.0053 179.56L46.2928 180.589L45.0053 183.867L49.4835 187.379L52.3831 185.388L53.6818 186.462ZM48.2744 188.307L44.468 185.298L41.5684 192.614L41.7811 192.782L48.2744 188.307Z" fill="#A569FF"/>
<path d="M40.572 174.761C41.2233 175.399 41.7011 176.192 41.9602 177.065C42.195 177.895 42.1716 178.777 41.893 179.594C41.547 180.56 40.9706 181.428 40.2137 182.122L38.0306 184.247C37.5421 184.792 36.948 185.233 36.2841 185.543C35.6202 185.852 34.9004 186.024 34.1682 186.048C33.475 186.014 32.7956 185.84 32.1706 185.539C31.5456 185.237 30.9876 184.813 30.5297 184.292C30.0394 183.855 29.6457 183.322 29.3739 182.724C29.102 182.127 28.9581 181.48 28.9512 180.824C29.0307 179.554 29.6103 178.368 30.5633 177.524L30.6305 177.457L31.75 178.576L31.6493 178.665C31.2282 179.069 30.8965 179.557 30.6753 180.097C30.4828 180.601 30.4515 181.152 30.5857 181.674C30.7619 182.29 31.1024 182.847 31.5709 183.285C31.8951 183.647 32.2943 183.935 32.7409 184.128C33.1874 184.322 33.6706 184.415 34.157 184.404C35.2106 184.327 36.1936 183.846 36.8999 183.061L39.139 180.88C39.9337 180.192 40.4378 179.229 40.5496 178.184C40.5635 177.691 40.4706 177.201 40.2774 176.747C40.0842 176.294 39.7951 175.887 39.43 175.555C39.1433 175.198 38.7781 174.911 38.3627 174.717C37.9472 174.523 37.4927 174.427 37.0342 174.437C36.13 174.544 35.293 174.968 34.672 175.634L34.4369 175.869L37.247 178.755L36.273 179.705L32.3434 175.779L36.8775 171.361L37.8963 172.401L36.8551 173.408L37.0454 173.598C37.3672 173.495 37.7039 173.445 38.0418 173.452C38.431 173.462 38.8132 173.558 39.1614 173.732C39.6946 173.979 40.1739 174.329 40.572 174.761Z" fill="#A569FF"/>
<path d="M34.9295 168.922L24.5737 177.289L23.5662 176.048L33.9331 167.68L34.9295 168.922Z" fill="#A569FF"/>
<path d="M29.3768 160.924C29.79 161.48 30.0879 162.112 30.2532 162.784C30.4186 163.457 30.4479 164.155 30.3396 164.839C30.1583 165.543 29.8368 166.202 29.3944 166.779C28.9519 167.356 28.3976 167.837 27.7647 168.195L25.2345 169.884C24.6593 170.343 23.9958 170.68 23.2852 170.872C22.5746 171.064 21.8319 171.109 21.1034 171.003C20.4302 170.843 19.7961 170.549 19.2384 170.14C18.6807 169.731 18.2109 169.214 17.8567 168.62C17.4534 168.094 17.1637 167.491 17.0056 166.848C16.8476 166.205 16.8248 165.536 16.9387 164.884C17.0936 164.255 17.3711 163.662 17.7553 163.14C18.1395 162.618 18.6229 162.177 19.1778 161.841L19.2562 161.785L20.1294 163.094L20.0063 163.183C19.2434 163.646 18.6745 164.369 18.4053 165.219C18.3015 165.672 18.3009 166.143 18.4036 166.596C18.5063 167.049 18.7097 167.473 18.9987 167.837C19.2482 168.258 19.5852 168.62 19.9869 168.9C20.3886 169.18 20.8457 169.371 21.3273 169.459C22.3787 169.571 23.4329 169.274 24.2717 168.631L26.869 166.908C27.7774 166.373 28.4494 165.514 28.7499 164.503C28.8581 164.025 28.8601 163.529 28.7557 163.049C28.6512 162.57 28.4429 162.119 28.1453 161.729C27.916 161.317 27.5947 160.964 27.2064 160.696C26.818 160.428 26.3731 160.254 25.9062 160.186C25.0135 160.102 24.1212 160.349 23.3985 160.879L23.1522 161.047L22.2677 159.738L22.4804 159.593C23.5391 158.804 24.8675 158.466 26.1749 158.653C26.8393 158.783 27.4685 159.052 28.0206 159.444C28.5727 159.835 29.035 160.34 29.3768 160.924Z" fill="#A569FF"/>
<path d="M22.7266 150.062L10.4117 155.275L9.78478 153.81L15.2257 151.494L12.7851 145.755L7.33299 148.071L6.70605 146.606L19.021 141.382L19.6479 142.858L14.1734 145.185L16.614 150.923L22.0997 148.597L22.7266 150.062Z" fill="#A569FF"/>
<path d="M18.2598 139.368L4.35509 138.977L3.60498 136.27L15.3377 128.741L15.7856 130.33L12.8076 132.231L14.3302 137.69L17.8567 137.769L18.2598 139.368ZM12.7964 137.69L11.4977 133.014L4.84769 137.232L4.91485 137.489L12.7964 137.69Z" fill="#A569FF"/>
<path d="M14.9458 126.627L1.75763 128.562L1.01873 123.529C0.89394 122.782 0.943757 122.016 1.16427 121.291C1.37425 120.619 1.7765 120.022 2.32153 119.575C2.86656 119.128 3.53059 118.849 4.23183 118.774H4.4781C5.17202 118.647 5.88817 118.727 6.53719 119.003C7.1862 119.28 7.73939 119.741 8.1278 120.329C8.52867 120.939 8.7887 121.631 8.88908 122.354L9.39288 125.822L14.7107 125.039L14.9458 126.627ZM7.97108 126.045L7.47848 122.746C7.42973 122.018 7.11497 121.333 6.59404 120.822C6.33452 120.606 6.02955 120.451 5.70191 120.37C5.37426 120.289 5.03243 120.282 4.70202 120.352H4.51171C4.17668 120.382 3.85272 120.487 3.56393 120.659C3.27514 120.832 3.02892 121.067 2.84358 121.347C2.47957 121.98 2.36011 122.724 2.50773 123.439L2.98912 126.728L7.97108 126.045Z" fill="#A569FF"/>
<path d="M13.4456 115.139L0.134327 115.475L-4.57405e-05 110.385C-0.0317398 109.646 0.110155 108.911 0.414212 108.237C0.689381 107.615 1.13587 107.083 1.70167 106.705C2.31502 106.308 3.03082 106.098 3.76162 106.101H4.00792C4.73286 106.061 5.45343 106.236 6.07907 106.604C6.66461 106.958 7.13811 107.469 7.44491 108.08C7.77538 108.732 7.94793 109.453 7.94868 110.183L8.03826 113.685L13.412 113.551L13.4456 115.139ZM6.59405 113.718L6.51567 110.362C6.53323 109.637 6.2866 108.929 5.82156 108.371C5.59076 108.127 5.30787 107.938 4.9939 107.818C4.67993 107.698 4.34294 107.65 4.00792 107.678H3.81758C3.48193 107.665 3.14766 107.727 2.83952 107.861C2.53139 107.995 2.25728 108.196 2.03752 108.45C1.59945 109.038 1.39235 109.766 1.45537 110.497L1.53375 113.853L6.59405 113.718Z" fill="#A569FF"/>
<path d="M13.3673 103.55L0.0895996 102.331L0.839671 94.1761L2.28388 94.2992L1.67932 100.877L6.15747 101.279L6.71724 95.2388L8.15028 95.3731L7.60169 101.414L12.0798 101.827L12.6956 95.1158L14.1286 95.25L13.3673 103.55Z" fill="#A569FF"/>
<path d="M14.498 92.7331L1.47778 89.8807L2.14951 86.8492L15.1697 84.9588V84.7127L3.23547 82.0839L3.57131 80.5402L16.5915 83.3927L15.9198 86.4129L2.88841 88.2922V88.5495L14.9346 91.1895L14.498 92.7331Z" fill="#A569FF"/>
<path d="M13.5352 78.963L12.2253 78.5156L14.0502 73.191L15.3712 73.6384L13.5352 78.963Z" fill="#A569FF"/>
</g>
<defs>
<clipPath id="clip0_1745_3163">
<rect width="217" height="217" fill="white"/>
</clipPath>
</defs>
</svg>
