<svg width="411" height="496" viewBox="0 0 411 496" fill="none" xmlns="http://www.w3.org/2000/svg">
<g filter="url(#filter0_d_1745_3025)">
<rect x="7" y="2.24438" width="397" height="481.755" rx="26.5404" fill="#161718" shape-rendering="crispEdges"/>
<path d="M92.0722 59.1207C96.9162 59.1207 100.668 56.2647 101.452 51.9527H97.7282C97.0562 54.2207 94.9282 55.6767 92.1562 55.6767C88.4042 55.6767 85.9962 52.8767 85.9962 48.5367C85.9962 44.1687 88.3762 41.4247 92.1562 41.4247C94.8722 41.4247 96.9162 42.8247 97.6162 45.2047H101.396C100.696 40.8087 97.0842 37.9807 92.2402 37.9807C86.2482 37.9807 82.2442 42.2087 82.2442 48.5647C82.2442 54.9767 86.1082 59.1207 92.0722 59.1207ZM112.562 44.8967C112.002 44.7567 111.526 44.7007 111.05 44.7007C109.202 44.7007 107.886 45.6247 107.298 46.9967L107.102 44.9807H103.882V58.7847H107.298V52.0647C107.298 49.3767 108.838 48.0607 111.302 48.0607H112.562V44.8967ZM120.318 59.1487C123.93 59.1487 126.45 57.3287 127.038 54.3047H123.874C123.482 55.6207 122.25 56.3487 120.374 56.3487C118.106 56.3487 116.818 55.1167 116.566 52.6807L126.982 52.6527V51.6167C126.982 47.3047 124.35 44.5327 120.206 44.5327C116.146 44.5327 113.318 47.5287 113.318 51.8687C113.318 56.1527 116.202 59.1487 120.318 59.1487ZM120.234 47.3327C122.278 47.3327 123.594 48.5927 123.594 50.4967H116.65C116.986 48.4247 118.218 47.3327 120.234 47.3327ZM140.16 44.9527L139.964 47.0807C139.124 45.4287 137.192 44.5327 135.12 44.5327C131.228 44.5327 128.624 47.3607 128.624 51.7007C128.624 56.0127 130.976 59.1487 135.092 59.1487C137.332 59.1487 138.984 58.0567 139.852 56.6287L140.076 58.7847H143.268V44.9527H140.16ZM139.796 51.8687C139.796 54.3607 138.256 56.0687 135.876 56.0687C133.496 56.0687 132.04 54.3327 132.04 51.8687C132.04 49.4047 133.524 47.6407 135.904 47.6407C138.284 47.6407 139.796 49.3767 139.796 51.8687ZM153.799 55.8167C153.295 55.9847 152.819 56.0687 152.427 56.0687C151.391 56.0687 150.663 55.5087 150.663 53.8567V47.8087H153.827V44.9527H150.663V40.6407H147.275V44.9527H145.147V47.8087H147.275V54.4447C147.275 57.7487 148.927 59.0927 151.559 59.0927C152.539 59.0927 153.435 58.9247 154.191 58.5887L153.799 55.8167ZM162.255 65.1967C163.011 65.3927 163.851 65.5047 164.803 65.5047C167.071 65.5047 168.527 64.4407 169.563 61.8647L176.339 44.9527H172.811L169.059 55.0327L165.503 44.9527H161.891L167.463 59.3727L167.071 60.4087C166.483 62.0327 165.643 62.3407 164.299 62.3407H162.255V65.1967ZM176.558 51.8407C176.558 56.1527 179.666 59.1207 183.95 59.1207C188.234 59.1207 191.342 56.1527 191.342 51.8407C191.342 47.5287 188.234 44.5607 183.95 44.5607C179.666 44.5607 176.558 47.5287 176.558 51.8407ZM179.974 51.8407C179.974 49.3207 181.598 47.6127 183.95 47.6127C186.302 47.6127 187.926 49.3207 187.926 51.8407C187.926 54.3607 186.302 56.0687 183.95 56.0687C181.598 56.0687 179.974 54.3607 179.974 51.8407ZM202.822 44.9527V52.2047C202.822 54.8367 201.786 56.0967 199.63 56.0967C197.726 56.0967 196.69 55.0327 196.69 52.4007V44.9527H193.274V53.6047C193.274 56.9927 195.15 59.1487 198.342 59.1487C200.19 59.1487 201.982 58.2527 202.822 56.9367L203.074 58.7847H206.238V44.9527H202.822ZM218.166 44.8967C217.606 44.7567 217.13 44.7007 216.654 44.7007C214.806 44.7007 213.49 45.6247 212.902 46.9967L212.706 44.9807H209.486V58.7847H212.902V52.0647C212.902 49.3767 214.442 48.0607 216.906 48.0607H218.166V44.8967ZM231.441 58.7847V51.4487C231.441 48.9007 231.413 46.9687 231.217 45.7367L236.397 58.7847H239.701L244.909 45.7087C244.713 47.1647 244.713 48.3687 244.713 52.4847V58.7847H248.185V38.3167H244.657L238.049 54.6127L231.441 38.3167H227.969V58.7847H231.441ZM251.119 51.8407C251.119 56.1527 254.227 59.1207 258.511 59.1207C262.795 59.1207 265.903 56.1527 265.903 51.8407C265.903 47.5287 262.795 44.5607 258.511 44.5607C254.227 44.5607 251.119 47.5287 251.119 51.8407ZM254.535 51.8407C254.535 49.3207 256.159 47.6127 258.511 47.6127C260.863 47.6127 262.487 49.3207 262.487 51.8407C262.487 54.3607 260.863 56.0687 258.511 56.0687C256.159 56.0687 254.535 54.3607 254.535 51.8407ZM267.519 51.8407C267.519 56.2367 270.263 59.1487 274.463 59.1487C278.075 59.1487 280.763 56.9367 281.183 53.7167H277.739C277.375 55.2287 276.171 56.0687 274.463 56.0687C272.279 56.0687 270.935 54.4447 270.935 51.8407C270.935 49.2367 272.391 47.5847 274.575 47.5847C276.199 47.5847 277.347 48.3967 277.739 49.9647H281.155C280.791 46.6327 278.215 44.5327 274.435 44.5327C270.347 44.5327 267.519 47.5567 267.519 51.8407ZM286.889 58.7847V55.0607L288.905 52.9607L292.517 58.7847H296.437L291.285 50.4407L296.549 44.9527H292.265L286.889 50.7487V37.9527H283.501V58.7847H286.889ZM307.612 44.9527V52.2047C307.612 54.8367 306.576 56.0967 304.42 56.0967C302.516 56.0967 301.48 55.0327 301.48 52.4007V44.9527H298.064V53.6047C298.064 56.9927 299.94 59.1487 303.132 59.1487C304.98 59.1487 306.772 58.2527 307.612 56.9367L307.864 58.7847H311.028V44.9527H307.612ZM314.276 65.1967H317.692V56.9367C318.56 58.3367 320.352 59.1487 322.424 59.1487C326.54 59.1487 328.892 56.0127 328.892 51.7007C328.892 47.3607 326.316 44.5327 322.424 44.5327C320.324 44.5327 318.504 45.4567 317.664 47.0527L317.44 44.9527H314.276V65.1967ZM317.72 51.8687C317.72 49.3767 319.26 47.6407 321.612 47.6407C324.02 47.6407 325.448 49.4047 325.448 51.8687C325.448 54.3327 324.02 56.0687 321.612 56.0687C319.26 56.0687 317.72 54.3607 317.72 51.8687Z" fill="white"/>
<path d="M69.961 114.347V109.623L65.5553 101.962H67.2539L70.5803 107.907H70.828L74.1544 101.962H75.853L71.4473 109.623V114.347H69.961ZM80.0364 114.595C79.1635 114.595 78.3909 114.412 77.7186 114.047C77.058 113.681 76.539 113.168 76.1615 112.507C75.7959 111.835 75.613 111.045 75.613 110.136V109.906C75.613 109.01 75.7959 108.225 76.1615 107.553C76.539 106.881 77.058 106.362 77.7186 105.996C78.3909 105.63 79.1635 105.448 80.0364 105.448C80.9093 105.448 81.676 105.63 82.3366 105.996C83.009 106.362 83.528 106.881 83.8936 107.553C84.2711 108.225 84.4598 109.01 84.4598 109.906V110.136C84.4598 111.045 84.2711 111.835 83.8936 112.507C83.528 113.168 83.009 113.681 82.3366 114.047C81.676 114.412 80.9093 114.595 80.0364 114.595ZM80.0364 113.339C80.9565 113.339 81.6878 113.05 82.2304 112.472C82.7848 111.882 83.062 111.092 83.062 110.101V109.942C83.062 108.951 82.7848 108.166 82.2304 107.588C81.6878 106.999 80.9565 106.704 80.0364 106.704C79.1282 106.704 78.3968 106.999 77.8424 107.588C77.288 108.166 77.0108 108.951 77.0108 109.942V110.101C77.0108 111.092 77.288 111.882 77.8424 112.472C78.3968 113.05 79.1282 113.339 80.0364 113.339ZM90.2839 114.507C89.6587 114.507 89.0808 114.371 88.5499 114.1C88.0309 113.828 87.6181 113.427 87.3114 112.897C87.0165 112.354 86.8691 111.699 86.8691 110.933V105.695H88.2668V110.826C88.2668 111.687 88.4792 112.313 88.9038 112.702C89.3403 113.091 89.9241 113.286 90.6555 113.286C91.4812 113.286 92.1594 113.014 92.6902 112.472C93.2211 111.929 93.4865 111.121 93.4865 110.048V105.695H94.8843V114.347H93.5218V112.879H93.2741C93.0854 113.292 92.761 113.669 92.301 114.011C91.841 114.342 91.1686 114.507 90.2839 114.507ZM97.6675 106.067V105.182H98.1807C98.6053 105.182 98.8176 104.97 98.8176 104.545V103.979H98.5699C98.2278 103.979 97.9388 103.873 97.7029 103.66C97.4788 103.448 97.3667 103.183 97.3667 102.864C97.3667 102.522 97.4788 102.245 97.7029 102.033C97.9388 101.82 98.2278 101.714 98.5699 101.714C98.912 101.714 99.1951 101.826 99.4192 102.05C99.6433 102.274 99.7554 102.558 99.7554 102.9V104.545C99.7554 105.56 99.2482 106.067 98.2337 106.067H97.6675ZM102.25 114.347V105.695H103.612V106.757H103.86C104.013 106.379 104.249 106.102 104.568 105.925C104.886 105.748 105.305 105.66 105.824 105.66H106.85V106.934H105.735C105.11 106.934 104.603 107.111 104.214 107.465C103.836 107.807 103.648 108.343 103.648 109.075V114.347H102.25ZM112.572 114.595C111.699 114.595 110.932 114.412 110.272 114.047C109.611 113.669 109.098 113.144 108.732 112.472C108.367 111.8 108.184 111.021 108.184 110.136V109.924C108.184 109.028 108.367 108.243 108.732 107.571C109.098 106.898 109.605 106.379 110.254 106.014C110.903 105.636 111.646 105.448 112.483 105.448C113.297 105.448 114.017 105.624 114.642 105.978C115.267 106.32 115.757 106.816 116.11 107.465C116.464 108.113 116.641 108.874 116.641 109.747V110.384H109.582C109.617 111.316 109.918 112.047 110.484 112.578C111.05 113.097 111.758 113.357 112.607 113.357C113.35 113.357 113.922 113.186 114.323 112.843C114.724 112.501 115.031 112.094 115.243 111.623L116.447 112.206C116.27 112.572 116.022 112.938 115.704 113.303C115.397 113.669 114.99 113.976 114.483 114.224C113.987 114.471 113.35 114.595 112.572 114.595ZM109.599 109.234H115.226C115.179 108.432 114.901 107.807 114.394 107.358C113.899 106.91 113.262 106.686 112.483 106.686C111.693 106.686 111.044 106.91 110.537 107.358C110.03 107.807 109.717 108.432 109.599 109.234ZM127.286 114.595C126.531 114.595 125.841 114.418 125.216 114.064C124.603 113.71 124.113 113.197 123.748 112.525C123.382 111.853 123.199 111.056 123.199 110.136V109.906C123.199 108.974 123.382 108.178 123.748 107.518C124.113 106.857 124.609 106.35 125.234 105.996C125.859 105.63 126.543 105.448 127.286 105.448C128.183 105.448 128.879 105.619 129.374 105.961C129.87 106.303 130.235 106.692 130.471 107.128H130.719V105.695H132.081V112.631C132.081 112.985 132.246 113.162 132.577 113.162H133.373V114.347H132.046C131.657 114.347 131.344 114.235 131.108 114.011C130.872 113.775 130.754 113.451 130.754 113.038V112.843H130.524C130.288 113.303 129.917 113.71 129.41 114.064C128.914 114.418 128.206 114.595 127.286 114.595ZM127.658 113.357C128.554 113.357 129.28 113.073 129.834 112.507C130.4 111.929 130.684 111.127 130.684 110.101V109.942C130.684 108.915 130.4 108.119 129.834 107.553C129.28 106.975 128.554 106.686 127.658 106.686C126.773 106.686 126.042 106.975 125.464 107.553C124.898 108.119 124.615 108.915 124.615 109.942V110.101C124.615 111.127 124.898 111.929 125.464 112.507C126.042 113.073 126.773 113.357 127.658 113.357ZM140.151 114.595C139.255 114.595 138.553 114.424 138.046 114.082C137.55 113.74 137.19 113.351 136.966 112.914H136.719V114.347H135.356V101.962H136.754V107.058H137.002C137.143 106.786 137.344 106.533 137.603 106.297C137.863 106.049 138.199 105.849 138.612 105.695C139.036 105.53 139.55 105.448 140.151 105.448C140.906 105.448 141.59 105.63 142.204 105.996C142.829 106.35 143.324 106.863 143.69 107.535C144.055 108.196 144.238 108.986 144.238 109.906V110.136C144.238 111.056 144.05 111.853 143.672 112.525C143.306 113.197 142.811 113.71 142.186 114.064C141.572 114.418 140.894 114.595 140.151 114.595ZM139.78 113.357C140.676 113.357 141.401 113.073 141.956 112.507C142.522 111.929 142.805 111.127 142.805 110.101V109.942C142.805 108.915 142.522 108.119 141.956 107.553C141.401 106.975 140.676 106.686 139.78 106.686C138.895 106.686 138.164 106.975 137.586 107.553C137.019 108.119 136.736 108.915 136.736 109.942V110.101C136.736 111.127 137.019 111.929 137.586 112.507C138.164 113.073 138.895 113.357 139.78 113.357ZM150.742 114.595C149.869 114.595 149.096 114.412 148.424 114.047C147.763 113.681 147.244 113.168 146.867 112.507C146.501 111.835 146.318 111.045 146.318 110.136V109.906C146.318 109.01 146.501 108.225 146.867 107.553C147.244 106.881 147.763 106.362 148.424 105.996C149.096 105.63 149.869 105.448 150.742 105.448C151.615 105.448 152.381 105.63 153.042 105.996C153.714 106.362 154.233 106.881 154.599 107.553C154.976 108.225 155.165 109.01 155.165 109.906V110.136C155.165 111.045 154.976 111.835 154.599 112.507C154.233 113.168 153.714 113.681 153.042 114.047C152.381 114.412 151.615 114.595 150.742 114.595ZM150.742 113.339C151.662 113.339 152.393 113.05 152.936 112.472C153.49 111.882 153.767 111.092 153.767 110.101V109.942C153.767 108.951 153.49 108.166 152.936 107.588C152.393 106.999 151.662 106.704 150.742 106.704C149.833 106.704 149.102 106.999 148.548 107.588C147.993 108.166 147.716 108.951 147.716 109.942V110.101C147.716 111.092 147.993 111.882 148.548 112.472C149.102 113.05 149.833 113.339 150.742 113.339ZM160.989 114.507C160.364 114.507 159.786 114.371 159.255 114.1C158.736 113.828 158.323 113.427 158.017 112.897C157.722 112.354 157.574 111.699 157.574 110.933V105.695H158.972V110.826C158.972 111.687 159.184 112.313 159.609 112.702C160.046 113.091 160.629 113.286 161.361 113.286C162.186 113.286 162.865 113.014 163.395 112.472C163.926 111.929 164.192 111.121 164.192 110.048V105.695H165.59V114.347H164.227V112.879H163.979C163.791 113.292 163.466 113.669 163.006 114.011C162.546 114.342 161.874 114.507 160.989 114.507ZM171.699 114.347C171.204 114.347 170.82 114.212 170.549 113.94C170.29 113.669 170.16 113.298 170.16 112.826V106.916H167.559V105.695H170.16V102.617H171.558V105.695H174.389V106.916H171.558V112.613C171.558 112.967 171.729 113.144 172.071 113.144H173.999V114.347H171.699ZM184.382 114.347C183.886 114.347 183.503 114.212 183.232 113.94C182.972 113.669 182.843 113.298 182.843 112.826V106.916H180.242V105.695H182.843V102.617H184.24V105.695H187.071V106.916H184.24V112.613C184.24 112.967 184.411 113.144 184.753 113.144H186.682V114.347H184.382ZM193.023 114.595C192.15 114.595 191.378 114.412 190.705 114.047C190.045 113.681 189.526 113.168 189.148 112.507C188.783 111.835 188.6 111.045 188.6 110.136V109.906C188.6 109.01 188.783 108.225 189.148 107.553C189.526 106.881 190.045 106.362 190.705 105.996C191.378 105.63 192.15 105.448 193.023 105.448C193.896 105.448 194.663 105.63 195.323 105.996C195.996 106.362 196.515 106.881 196.88 107.553C197.258 108.225 197.447 109.01 197.447 109.906V110.136C197.447 111.045 197.258 111.835 196.88 112.507C196.515 113.168 195.996 113.681 195.323 114.047C194.663 114.412 193.896 114.595 193.023 114.595ZM193.023 113.339C193.943 113.339 194.675 113.05 195.217 112.472C195.772 111.882 196.049 111.092 196.049 110.101V109.942C196.049 108.951 195.772 108.166 195.217 107.588C194.675 106.999 193.943 106.704 193.023 106.704C192.115 106.704 191.384 106.999 190.829 107.588C190.275 108.166 189.998 108.951 189.998 109.942V110.101C189.998 111.092 190.275 111.882 190.829 112.472C191.384 113.05 192.115 113.339 193.023 113.339ZM208.487 114.595C207.65 114.595 206.895 114.418 206.223 114.064C205.562 113.699 205.037 113.18 204.648 112.507C204.27 111.835 204.082 111.039 204.082 110.119V109.924C204.082 108.992 204.27 108.196 204.648 107.535C205.037 106.863 205.562 106.35 206.223 105.996C206.895 105.63 207.65 105.448 208.487 105.448C209.313 105.448 210.015 105.601 210.593 105.908C211.183 106.214 211.643 106.621 211.973 107.128C212.315 107.636 212.533 108.178 212.628 108.756L211.265 109.039C211.206 108.615 211.065 108.225 210.841 107.872C210.628 107.518 210.327 107.235 209.938 107.022C209.549 106.81 209.071 106.704 208.505 106.704C207.927 106.704 207.408 106.834 206.948 107.093C206.5 107.353 206.14 107.724 205.869 108.208C205.609 108.691 205.479 109.269 205.479 109.942V110.101C205.479 110.773 205.609 111.351 205.869 111.835C206.14 112.319 206.5 112.69 206.948 112.95C207.408 113.209 207.927 113.339 208.505 113.339C209.366 113.339 210.021 113.115 210.469 112.667C210.929 112.218 211.212 111.664 211.318 111.003L212.698 111.304C212.569 111.87 212.333 112.407 211.991 112.914C211.649 113.421 211.183 113.828 210.593 114.135C210.015 114.442 209.313 114.595 208.487 114.595ZM215.081 114.347V105.695H216.443V106.757H216.691C216.844 106.379 217.08 106.102 217.399 105.925C217.717 105.748 218.136 105.66 218.655 105.66H219.681V106.934H218.567C217.941 106.934 217.434 107.111 217.045 107.465C216.667 107.807 216.479 108.343 216.479 109.075V114.347H215.081ZM225.403 114.595C224.53 114.595 223.763 114.412 223.103 114.047C222.442 113.669 221.929 113.144 221.563 112.472C221.198 111.8 221.015 111.021 221.015 110.136V109.924C221.015 109.028 221.198 108.243 221.563 107.571C221.929 106.898 222.436 106.379 223.085 106.014C223.734 105.636 224.477 105.448 225.315 105.448C226.128 105.448 226.848 105.624 227.473 105.978C228.098 106.32 228.588 106.816 228.942 107.465C229.296 108.113 229.472 108.874 229.472 109.747V110.384H222.413C222.448 111.316 222.749 112.047 223.315 112.578C223.881 113.097 224.589 113.357 225.438 113.357C226.181 113.357 226.754 113.186 227.155 112.843C227.556 112.501 227.862 112.094 228.075 111.623L229.278 112.206C229.101 112.572 228.853 112.938 228.535 113.303C228.228 113.669 227.821 113.976 227.314 114.224C226.818 114.471 226.181 114.595 225.403 114.595ZM222.43 109.234H228.057C228.01 108.432 227.733 107.807 227.225 107.358C226.73 106.91 226.093 106.686 225.315 106.686C224.524 106.686 223.875 106.91 223.368 107.358C222.861 107.807 222.548 108.432 222.43 109.234ZM235.573 114.595C234.818 114.595 234.128 114.418 233.503 114.064C232.89 113.71 232.4 113.197 232.034 112.525C231.669 111.853 231.486 111.056 231.486 110.136V109.906C231.486 108.974 231.669 108.178 232.034 107.518C232.4 106.857 232.896 106.35 233.521 105.996C234.146 105.63 234.83 105.448 235.573 105.448C236.47 105.448 237.166 105.619 237.661 105.961C238.156 106.303 238.522 106.692 238.758 107.128H239.006V105.695H240.368V112.631C240.368 112.985 240.533 113.162 240.864 113.162H241.66V114.347H240.333C239.944 114.347 239.631 114.235 239.395 114.011C239.159 113.775 239.041 113.451 239.041 113.038V112.843H238.811C238.575 113.303 238.204 113.71 237.696 114.064C237.201 114.418 236.493 114.595 235.573 114.595ZM235.945 113.357C236.841 113.357 237.567 113.073 238.121 112.507C238.687 111.929 238.97 111.127 238.97 110.101V109.942C238.97 108.915 238.687 108.119 238.121 107.553C237.567 106.975 236.841 106.686 235.945 106.686C235.06 106.686 234.329 106.975 233.751 107.553C233.185 108.119 232.901 108.915 232.901 109.942V110.101C232.901 111.127 233.185 111.929 233.751 112.507C234.329 113.073 235.06 113.357 235.945 113.357ZM246.69 114.347C246.194 114.347 245.811 114.212 245.54 113.94C245.28 113.669 245.15 113.298 245.15 112.826V106.916H242.549V105.695H245.15V102.617H246.548V105.695H249.379V106.916H246.548V112.613C246.548 112.967 246.719 113.144 247.061 113.144H248.99V114.347H246.69ZM255.295 114.595C254.423 114.595 253.656 114.412 252.995 114.047C252.335 113.669 251.822 113.144 251.456 112.472C251.09 111.8 250.907 111.021 250.907 110.136V109.924C250.907 109.028 251.09 108.243 251.456 107.571C251.822 106.898 252.329 106.379 252.978 106.014C253.626 105.636 254.369 105.448 255.207 105.448C256.021 105.448 256.74 105.624 257.366 105.978C257.991 106.32 258.48 106.816 258.834 107.465C259.188 108.113 259.365 108.874 259.365 109.747V110.384H252.305C252.341 111.316 252.641 112.047 253.208 112.578C253.774 113.097 254.482 113.357 255.331 113.357C256.074 113.357 256.646 113.186 257.047 112.843C257.448 112.501 257.755 112.094 257.967 111.623L259.17 112.206C258.993 112.572 258.746 112.938 258.427 113.303C258.121 113.669 257.714 113.976 257.206 114.224C256.711 114.471 256.074 114.595 255.295 114.595ZM252.323 109.234H257.949C257.902 108.432 257.625 107.807 257.118 107.358C256.622 106.91 255.986 106.686 255.207 106.686C254.417 106.686 253.768 106.91 253.261 107.358C252.753 107.807 252.441 108.432 252.323 109.234ZM270.01 114.595C269.255 114.595 268.565 114.418 267.94 114.064C267.327 113.71 266.837 113.197 266.471 112.525C266.106 111.853 265.923 111.056 265.923 110.136V109.906C265.923 108.974 266.106 108.178 266.471 107.518C266.837 106.857 267.332 106.35 267.958 105.996C268.583 105.63 269.267 105.448 270.01 105.448C270.907 105.448 271.602 105.619 272.098 105.961C272.593 106.303 272.959 106.692 273.195 107.128H273.443V105.695H274.805V112.631C274.805 112.985 274.97 113.162 275.3 113.162H276.097V114.347H274.77C274.38 114.347 274.068 114.235 273.832 114.011C273.596 113.775 273.478 113.451 273.478 113.038V112.843H273.248C273.012 113.303 272.64 113.71 272.133 114.064C271.638 114.418 270.93 114.595 270.01 114.595ZM270.382 113.357C271.278 113.357 272.004 113.073 272.558 112.507C273.124 111.929 273.407 111.127 273.407 110.101V109.942C273.407 108.915 273.124 108.119 272.558 107.553C272.004 106.975 271.278 106.686 270.382 106.686C269.497 106.686 268.766 106.975 268.188 107.553C267.621 108.119 267.338 108.915 267.338 109.942V110.101C267.338 111.127 267.621 111.929 268.188 112.507C268.766 113.073 269.497 113.357 270.382 113.357ZM286.605 114.595C285.768 114.595 285.013 114.418 284.34 114.064C283.68 113.699 283.155 113.18 282.766 112.507C282.388 111.835 282.2 111.039 282.2 110.119V109.924C282.2 108.992 282.388 108.196 282.766 107.535C283.155 106.863 283.68 106.35 284.34 105.996C285.013 105.63 285.768 105.448 286.605 105.448C287.431 105.448 288.133 105.601 288.711 105.908C289.301 106.214 289.761 106.621 290.091 107.128C290.433 107.636 290.651 108.178 290.746 108.756L289.383 109.039C289.324 108.615 289.183 108.225 288.958 107.872C288.746 107.518 288.445 107.235 288.056 107.022C287.667 106.81 287.189 106.704 286.623 106.704C286.045 106.704 285.526 106.834 285.066 107.093C284.618 107.353 284.258 107.724 283.987 108.208C283.727 108.691 283.597 109.269 283.597 109.942V110.101C283.597 110.773 283.727 111.351 283.987 111.835C284.258 112.319 284.618 112.69 285.066 112.95C285.526 113.209 286.045 113.339 286.623 113.339C287.484 113.339 288.139 113.115 288.587 112.667C289.047 112.218 289.33 111.664 289.436 111.003L290.816 111.304C290.687 111.87 290.451 112.407 290.109 112.914C289.766 113.421 289.301 113.828 288.711 114.135C288.133 114.442 287.431 114.595 286.605 114.595ZM296.508 114.507C295.882 114.507 295.304 114.371 294.774 114.1C294.255 113.828 293.842 113.427 293.535 112.897C293.24 112.354 293.093 111.699 293.093 110.933V105.695H294.491V110.826C294.491 111.687 294.703 112.313 295.127 112.702C295.564 113.091 296.148 113.286 296.879 113.286C297.705 113.286 298.383 113.014 298.914 112.472C299.445 111.929 299.71 111.121 299.71 110.048V105.695H301.108V114.347H299.745V112.879H299.498C299.309 113.292 298.985 113.669 298.525 114.011C298.065 114.342 297.392 114.507 296.508 114.507ZM307.518 114.595C306.445 114.595 305.537 114.347 304.794 113.852C304.062 113.357 303.62 112.572 303.467 111.499L304.794 111.198C304.888 111.764 305.065 112.212 305.324 112.543C305.584 112.861 305.902 113.091 306.28 113.233C306.669 113.362 307.082 113.427 307.518 113.427C308.167 113.427 308.68 113.298 309.058 113.038C309.435 112.779 309.624 112.431 309.624 111.994C309.624 111.546 309.441 111.233 309.075 111.056C308.722 110.868 308.232 110.714 307.607 110.596L306.881 110.473C306.327 110.378 305.82 110.231 305.36 110.03C304.9 109.83 304.534 109.558 304.263 109.216C303.991 108.874 303.856 108.444 303.856 107.925C303.856 107.146 304.157 106.539 304.758 106.102C305.36 105.666 306.156 105.448 307.147 105.448C308.126 105.448 308.916 105.672 309.518 106.12C310.131 106.556 310.526 107.176 310.703 107.978L309.394 108.314C309.288 107.689 309.034 107.252 308.633 107.005C308.232 106.745 307.737 106.615 307.147 106.615C306.557 106.615 306.091 106.727 305.749 106.951C305.407 107.164 305.236 107.482 305.236 107.907C305.236 108.32 305.395 108.626 305.714 108.827C306.044 109.016 306.48 109.157 307.023 109.252L307.748 109.376C308.362 109.482 308.91 109.629 309.394 109.818C309.889 109.995 310.279 110.254 310.562 110.596C310.857 110.938 311.004 111.387 311.004 111.941C311.004 112.79 310.686 113.445 310.049 113.905C309.423 114.365 308.58 114.595 307.518 114.595ZM316.358 114.347C315.863 114.347 315.479 114.212 315.208 113.94C314.949 113.669 314.819 113.298 314.819 112.826V106.916H312.218V105.695H314.819V102.617H316.217V105.695H319.048V106.916H316.217V112.613C316.217 112.967 316.388 113.144 316.73 113.144H318.658V114.347H316.358ZM324.999 114.595C324.126 114.595 323.354 114.412 322.682 114.047C322.021 113.681 321.502 113.168 321.124 112.507C320.759 111.835 320.576 111.045 320.576 110.136V109.906C320.576 109.01 320.759 108.225 321.124 107.553C321.502 106.881 322.021 106.362 322.682 105.996C323.354 105.63 324.126 105.448 324.999 105.448C325.872 105.448 326.639 105.63 327.3 105.996C327.972 106.362 328.491 106.881 328.857 107.553C329.234 108.225 329.423 109.01 329.423 109.906V110.136C329.423 111.045 329.234 111.835 328.857 112.507C328.491 113.168 327.972 113.681 327.3 114.047C326.639 114.412 325.872 114.595 324.999 114.595ZM324.999 113.339C325.919 113.339 326.651 113.05 327.193 112.472C327.748 111.882 328.025 111.092 328.025 110.101V109.942C328.025 108.951 327.748 108.166 327.193 107.588C326.651 106.999 325.919 106.704 324.999 106.704C324.091 106.704 323.36 106.999 322.805 107.588C322.251 108.166 321.974 108.951 321.974 109.942V110.101C321.974 111.092 322.251 111.882 322.805 112.472C323.36 113.05 324.091 113.339 324.999 113.339ZM331.938 114.347V105.695H333.301V106.775H333.548C333.713 106.468 333.985 106.185 334.362 105.925C334.74 105.666 335.27 105.536 335.955 105.536C336.627 105.536 337.17 105.683 337.582 105.978C338.007 106.273 338.314 106.633 338.502 107.058H338.75C338.951 106.633 339.252 106.273 339.653 105.978C340.065 105.683 340.638 105.536 341.369 105.536C341.947 105.536 342.454 105.654 342.891 105.89C343.327 106.126 343.669 106.468 343.917 106.916C344.176 107.353 344.306 107.877 344.306 108.491V114.347H342.908V108.615C342.908 108.037 342.737 107.583 342.395 107.252C342.065 106.91 341.599 106.739 340.997 106.739C340.36 106.739 339.835 106.946 339.423 107.358C339.022 107.771 338.821 108.367 338.821 109.145V114.347H337.423V108.615C337.423 108.037 337.252 107.583 336.91 107.252C336.58 106.91 336.114 106.739 335.512 106.739C334.875 106.739 334.35 106.946 333.938 107.358C333.536 107.771 333.336 108.367 333.336 109.145V114.347H331.938ZM70.2579 136.347V127.695H71.6203V128.775H71.868C72.0331 128.468 72.3044 128.185 72.6819 127.925C73.0594 127.666 73.5902 127.536 74.2743 127.536C74.9467 127.536 75.4893 127.683 75.9021 127.978C76.3268 128.273 76.6335 128.633 76.8222 129.058H77.0699C77.2704 128.633 77.5712 128.273 77.9723 127.978C78.3851 127.683 78.9572 127.536 79.6886 127.536C80.2666 127.536 80.7738 127.654 81.2102 127.89C81.6467 128.126 81.9887 128.468 82.2364 128.916C82.4959 129.353 82.6257 129.877 82.6257 130.491V136.347H81.2279V130.615C81.2279 130.037 81.0569 129.583 80.7148 129.252C80.3845 128.91 79.9186 128.739 79.317 128.739C78.68 128.739 78.1551 128.946 77.7423 129.358C77.3412 129.771 77.1407 130.367 77.1407 131.145V136.347H75.7429V130.615C75.7429 130.037 75.5719 129.583 75.2298 129.252C74.8995 128.91 74.4336 128.739 73.832 128.739C73.195 128.739 72.6701 128.946 72.2573 129.358C71.8562 129.771 71.6557 130.367 71.6557 131.145V136.347H70.2579ZM89.4793 136.595C88.6065 136.595 87.8338 136.412 87.1615 136.047C86.5009 135.681 85.9819 135.168 85.6044 134.507C85.2388 133.835 85.0559 133.045 85.0559 132.136V131.906C85.0559 131.01 85.2388 130.225 85.6044 129.553C85.9819 128.881 86.5009 128.362 87.1615 127.996C87.8338 127.63 88.6065 127.448 89.4793 127.448C90.3522 127.448 91.1189 127.63 91.7795 127.996C92.4519 128.362 92.9709 128.881 93.3365 129.553C93.714 130.225 93.9027 131.01 93.9027 131.906V132.136C93.9027 133.045 93.714 133.835 93.3365 134.507C92.9709 135.168 92.4519 135.681 91.7795 136.047C91.1189 136.412 90.3522 136.595 89.4793 136.595ZM89.4793 135.339C90.3994 135.339 91.1307 135.05 91.6733 134.472C92.2277 133.882 92.5049 133.092 92.5049 132.101V131.942C92.5049 130.951 92.2277 130.166 91.6733 129.588C91.1307 128.999 90.3994 128.704 89.4793 128.704C88.5711 128.704 87.8397 128.999 87.2853 129.588C86.7309 130.166 86.4537 130.951 86.4537 131.942V132.101C86.4537 133.092 86.7309 133.882 87.2853 134.472C87.8397 135.05 88.5711 135.339 89.4793 135.339ZM100.399 136.595C99.5617 136.595 98.8068 136.418 98.1344 136.064C97.4738 135.699 96.9489 135.18 96.5597 134.507C96.1822 133.835 95.9935 133.039 95.9935 132.119V131.924C95.9935 130.992 96.1822 130.196 96.5597 129.535C96.9489 128.863 97.4738 128.35 98.1344 127.996C98.8068 127.63 99.5617 127.448 100.399 127.448C101.225 127.448 101.927 127.601 102.505 127.908C103.095 128.214 103.555 128.621 103.885 129.128C104.227 129.636 104.445 130.178 104.539 130.756L103.177 131.039C103.118 130.615 102.977 130.225 102.752 129.872C102.54 129.518 102.239 129.235 101.85 129.022C101.461 128.81 100.983 128.704 100.417 128.704C99.8389 128.704 99.3199 128.834 98.8598 129.093C98.4116 129.353 98.0518 129.724 97.7805 130.208C97.521 130.691 97.3913 131.269 97.3913 131.942V132.101C97.3913 132.773 97.521 133.351 97.7805 133.835C98.0518 134.319 98.4116 134.69 98.8598 134.95C99.3199 135.209 99.8389 135.339 100.417 135.339C101.278 135.339 101.933 135.115 102.381 134.667C102.841 134.218 103.124 133.664 103.23 133.003L104.61 133.304C104.481 133.87 104.245 134.407 103.903 134.914C103.56 135.421 103.095 135.828 102.505 136.135C101.927 136.442 101.225 136.595 100.399 136.595ZM106.993 136.347V123.962H108.391V131.252H108.638L112.602 127.695H114.548L109.753 131.906L114.69 136.347H112.761L108.638 132.579H108.391V136.347H106.993ZM119.822 136.507C119.197 136.507 118.619 136.371 118.088 136.1C117.569 135.828 117.156 135.427 116.85 134.897C116.555 134.354 116.407 133.699 116.407 132.933V127.695H117.805V132.826C117.805 133.687 118.017 134.313 118.442 134.702C118.879 135.091 119.462 135.286 120.194 135.286C121.019 135.286 121.698 135.014 122.229 134.472C122.759 133.929 123.025 133.121 123.025 132.048V127.695H124.423V136.347H123.06V134.879H122.812C122.624 135.292 122.299 135.669 121.839 136.011C121.379 136.342 120.707 136.507 119.822 136.507ZM127.347 139.886V127.695H128.71V129.128H128.957C129.182 128.692 129.541 128.303 130.037 127.961C130.544 127.619 131.246 127.448 132.142 127.448C132.885 127.448 133.564 127.63 134.177 127.996C134.802 128.35 135.298 128.857 135.663 129.518C136.041 130.178 136.23 130.974 136.23 131.906V132.136C136.23 133.056 136.047 133.853 135.681 134.525C135.315 135.197 134.82 135.71 134.195 136.064C133.581 136.418 132.897 136.595 132.142 136.595C131.541 136.595 131.028 136.513 130.603 136.347C130.19 136.194 129.854 135.994 129.594 135.746C129.335 135.498 129.134 135.245 128.993 134.985H128.745V139.886H127.347ZM131.771 135.357C132.667 135.357 133.393 135.073 133.947 134.507C134.513 133.929 134.796 133.127 134.796 132.101V131.942C134.796 130.915 134.513 130.119 133.947 129.553C133.393 128.975 132.667 128.686 131.771 128.686C130.886 128.686 130.155 128.975 129.577 129.553C129.011 130.119 128.727 130.915 128.727 131.942V132.101C128.727 133.127 129.011 133.929 129.577 134.507C130.155 135.073 130.886 135.357 131.771 135.357ZM139.374 136.595C139.032 136.595 138.743 136.483 138.507 136.259C138.283 136.035 138.171 135.746 138.171 135.392C138.171 135.038 138.283 134.749 138.507 134.525C138.743 134.301 139.032 134.189 139.374 134.189C139.728 134.189 140.017 134.301 140.241 134.525C140.465 134.749 140.577 135.038 140.577 135.392C140.577 135.746 140.465 136.035 140.241 136.259C140.017 136.483 139.728 136.595 139.374 136.595Z" fill="white"/>
<path d="M146.992 136.347V123.962H148.478V135.003H154.742V136.347H146.992ZM160.598 136.595C159.726 136.595 158.959 136.412 158.298 136.047C157.638 135.669 157.125 135.144 156.759 134.472C156.393 133.8 156.21 133.021 156.21 132.136V131.924C156.21 131.028 156.393 130.243 156.759 129.571C157.125 128.898 157.632 128.379 158.281 128.014C158.929 127.636 159.672 127.448 160.51 127.448C161.324 127.448 162.043 127.624 162.669 127.978C163.294 128.32 163.783 128.816 164.137 129.465C164.491 130.113 164.668 130.874 164.668 131.747V132.384H157.608C157.644 133.316 157.944 134.047 158.511 134.578C159.077 135.097 159.785 135.357 160.634 135.357C161.377 135.357 161.949 135.186 162.35 134.843C162.751 134.501 163.058 134.094 163.27 133.623L164.473 134.206C164.296 134.572 164.049 134.938 163.73 135.303C163.424 135.669 163.017 135.976 162.509 136.224C162.014 136.471 161.377 136.595 160.598 136.595ZM157.626 131.234H163.252C163.205 130.432 162.928 129.807 162.421 129.358C161.925 128.91 161.289 128.686 160.51 128.686C159.72 128.686 159.071 128.91 158.564 129.358C158.056 129.807 157.744 130.432 157.626 131.234ZM170.769 136.595C170.014 136.595 169.324 136.418 168.699 136.064C168.085 135.71 167.596 135.197 167.23 134.525C166.864 133.853 166.681 133.056 166.681 132.136V131.906C166.681 130.974 166.864 130.178 167.23 129.518C167.596 128.857 168.091 128.35 168.716 127.996C169.341 127.63 170.026 127.448 170.769 127.448C171.665 127.448 172.361 127.619 172.857 127.961C173.352 128.303 173.718 128.692 173.954 129.128H174.201V127.695H175.564V134.631C175.564 134.985 175.729 135.162 176.059 135.162H176.855V136.347H175.528C175.139 136.347 174.826 136.235 174.59 136.011C174.355 135.775 174.237 135.451 174.237 135.038V134.843H174.007C173.771 135.303 173.399 135.71 172.892 136.064C172.396 136.418 171.689 136.595 170.769 136.595ZM171.14 135.357C172.037 135.357 172.762 135.073 173.317 134.507C173.883 133.929 174.166 133.127 174.166 132.101V131.942C174.166 130.915 173.883 130.119 173.317 129.553C172.762 128.975 172.037 128.686 171.14 128.686C170.256 128.686 169.524 128.975 168.946 129.553C168.38 130.119 168.097 130.915 168.097 131.942V132.101C168.097 133.127 168.38 133.929 168.946 134.507C169.524 135.073 170.256 135.357 171.14 135.357ZM178.838 136.347V127.695H180.201V128.757H180.449C180.602 128.379 180.838 128.102 181.156 127.925C181.475 127.748 181.894 127.66 182.413 127.66H183.439V128.934H182.324C181.699 128.934 181.192 129.111 180.802 129.465C180.425 129.807 180.236 130.343 180.236 131.075V136.347H178.838ZM185.508 136.347V127.695H186.871V129.164H187.118C187.307 128.751 187.625 128.379 188.074 128.049C188.534 127.707 189.206 127.536 190.091 127.536C190.74 127.536 191.318 127.672 191.825 127.943C192.344 128.214 192.757 128.615 193.063 129.146C193.37 129.677 193.523 130.332 193.523 131.11V136.347H192.126V131.216C192.126 130.355 191.907 129.73 191.471 129.341C191.046 128.951 190.468 128.757 189.737 128.757C188.899 128.757 188.215 129.028 187.684 129.571C187.165 130.113 186.906 130.921 186.906 131.995V136.347H185.508ZM200.904 136.347V127.695H202.266V128.775H202.514C202.679 128.468 202.95 128.185 203.328 127.925C203.705 127.666 204.236 127.536 204.92 127.536C205.592 127.536 206.135 127.683 206.548 127.978C206.973 128.273 207.279 128.633 207.468 129.058H207.716C207.916 128.633 208.217 128.273 208.618 127.978C209.031 127.683 209.603 127.536 210.334 127.536C210.912 127.536 211.42 127.654 211.856 127.89C212.292 128.126 212.634 128.468 212.882 128.916C213.142 129.353 213.271 129.877 213.271 130.491V136.347H211.874V130.615C211.874 130.037 211.703 129.583 211.361 129.252C211.03 128.91 210.564 128.739 209.963 128.739C209.326 128.739 208.801 128.946 208.388 129.358C207.987 129.771 207.786 130.367 207.786 131.145V136.347H206.389V130.615C206.389 130.037 206.218 129.583 205.876 129.252C205.545 128.91 205.079 128.739 204.478 128.739C203.841 128.739 203.316 128.946 202.903 129.358C202.502 129.771 202.301 130.367 202.301 131.145V136.347H200.904ZM220.125 136.595C219.252 136.595 218.48 136.412 217.807 136.047C217.147 135.681 216.628 135.168 216.25 134.507C215.885 133.835 215.702 133.045 215.702 132.136V131.906C215.702 131.01 215.885 130.225 216.25 129.553C216.628 128.881 217.147 128.362 217.807 127.996C218.48 127.63 219.252 127.448 220.125 127.448C220.998 127.448 221.765 127.63 222.425 127.996C223.098 128.362 223.617 128.881 223.982 129.553C224.36 130.225 224.548 131.01 224.548 131.906V132.136C224.548 133.045 224.36 133.835 223.982 134.507C223.617 135.168 223.098 135.681 222.425 136.047C221.765 136.412 220.998 136.595 220.125 136.595ZM220.125 135.339C221.045 135.339 221.776 135.05 222.319 134.472C222.873 133.882 223.151 133.092 223.151 132.101V131.942C223.151 130.951 222.873 130.166 222.319 129.588C221.776 128.999 221.045 128.704 220.125 128.704C219.217 128.704 218.485 128.999 217.931 129.588C217.377 130.166 217.099 130.951 217.099 131.942V132.101C217.099 133.092 217.377 133.882 217.931 134.472C218.485 135.05 219.217 135.339 220.125 135.339ZM227.064 136.347V127.695H228.426V128.757H228.674C228.827 128.379 229.063 128.102 229.382 127.925C229.7 127.748 230.119 127.66 230.638 127.66H231.664V128.934H230.55C229.924 128.934 229.417 129.111 229.028 129.465C228.65 129.807 228.462 130.343 228.462 131.075V136.347H227.064ZM237.386 136.595C236.513 136.595 235.746 136.412 235.086 136.047C234.425 135.669 233.912 135.144 233.546 134.472C233.181 133.8 232.998 133.021 232.998 132.136V131.924C232.998 131.028 233.181 130.243 233.546 129.571C233.912 128.898 234.419 128.379 235.068 128.014C235.717 127.636 236.46 127.448 237.297 127.448C238.111 127.448 238.831 127.624 239.456 127.978C240.081 128.32 240.571 128.816 240.925 129.465C241.278 130.113 241.455 130.874 241.455 131.747V132.384H234.396C234.431 133.316 234.732 134.047 235.298 134.578C235.864 135.097 236.572 135.357 237.421 135.357C238.164 135.357 238.736 135.186 239.138 134.843C239.539 134.501 239.845 134.094 240.058 133.623L241.261 134.206C241.084 134.572 240.836 134.938 240.518 135.303C240.211 135.669 239.804 135.976 239.297 136.224C238.801 136.471 238.164 136.595 237.386 136.595ZM234.413 131.234H240.04C239.993 130.432 239.716 129.807 239.208 129.358C238.713 128.91 238.076 128.686 237.297 128.686C236.507 128.686 235.858 128.91 235.351 129.358C234.844 129.807 234.531 130.432 234.413 131.234ZM252.1 136.595C251.346 136.595 250.655 136.418 250.03 136.064C249.417 135.71 248.927 135.197 248.562 134.525C248.196 133.853 248.013 133.056 248.013 132.136V131.906C248.013 130.974 248.196 130.178 248.562 129.518C248.927 128.857 249.423 128.35 250.048 127.996C250.673 127.63 251.357 127.448 252.1 127.448C252.997 127.448 253.693 127.619 254.188 127.961C254.684 128.303 255.049 128.692 255.285 129.128H255.533V127.695H256.895V134.631C256.895 134.985 257.061 135.162 257.391 135.162H258.187V136.347H256.86C256.471 136.347 256.158 136.235 255.922 136.011C255.686 135.775 255.568 135.451 255.568 135.038V134.843H255.338C255.102 135.303 254.731 135.71 254.224 136.064C253.728 136.418 253.021 136.595 252.1 136.595ZM252.472 135.357C253.368 135.357 254.094 135.073 254.648 134.507C255.215 133.929 255.498 133.127 255.498 132.101V131.942C255.498 130.915 255.215 130.119 254.648 129.553C254.094 128.975 253.368 128.686 252.472 128.686C251.587 128.686 250.856 128.975 250.278 129.553C249.712 130.119 249.429 130.915 249.429 131.942V132.101C249.429 133.127 249.712 133.929 250.278 134.507C250.856 135.073 251.587 135.357 252.472 135.357ZM264.965 136.595C264.069 136.595 263.367 136.424 262.86 136.082C262.364 135.74 262.004 135.351 261.78 134.914H261.533V136.347H260.17V123.962H261.568V129.058H261.816C261.957 128.786 262.158 128.533 262.417 128.297C262.677 128.049 263.013 127.849 263.426 127.695C263.851 127.53 264.364 127.448 264.965 127.448C265.72 127.448 266.404 127.63 267.018 127.996C267.643 128.35 268.138 128.863 268.504 129.535C268.87 130.196 269.052 130.986 269.052 131.906V132.136C269.052 133.056 268.864 133.853 268.486 134.525C268.121 135.197 267.625 135.71 267 136.064C266.387 136.418 265.708 136.595 264.965 136.595ZM264.594 135.357C265.49 135.357 266.216 135.073 266.77 134.507C267.336 133.929 267.619 133.127 267.619 132.101V131.942C267.619 130.915 267.336 130.119 266.77 129.553C266.216 128.975 265.49 128.686 264.594 128.686C263.709 128.686 262.978 128.975 262.4 129.553C261.833 130.119 261.55 130.915 261.55 131.942V132.101C261.55 133.127 261.833 133.929 262.4 134.507C262.978 135.073 263.709 135.357 264.594 135.357ZM275.556 136.595C274.683 136.595 273.91 136.412 273.238 136.047C272.577 135.681 272.058 135.168 271.681 134.507C271.315 133.835 271.132 133.045 271.132 132.136V131.906C271.132 131.01 271.315 130.225 271.681 129.553C272.058 128.881 272.577 128.362 273.238 127.996C273.91 127.63 274.683 127.448 275.556 127.448C276.429 127.448 277.195 127.63 277.856 127.996C278.528 128.362 279.047 128.881 279.413 129.553C279.79 130.225 279.979 131.01 279.979 131.906V132.136C279.979 133.045 279.79 133.835 279.413 134.507C279.047 135.168 278.528 135.681 277.856 136.047C277.195 136.412 276.429 136.595 275.556 136.595ZM275.556 135.339C276.476 135.339 277.207 135.05 277.75 134.472C278.304 133.882 278.581 133.092 278.581 132.101V131.942C278.581 130.951 278.304 130.166 277.75 129.588C277.207 128.999 276.476 128.704 275.556 128.704C274.648 128.704 273.916 128.999 273.362 129.588C272.807 130.166 272.53 130.951 272.53 131.942V132.101C272.53 133.092 272.807 133.882 273.362 134.472C273.916 135.05 274.648 135.339 275.556 135.339ZM285.803 136.507C285.178 136.507 284.6 136.371 284.069 136.1C283.55 135.828 283.137 135.427 282.831 134.897C282.536 134.354 282.388 133.699 282.388 132.933V127.695H283.786V132.826C283.786 133.687 283.999 134.313 284.423 134.702C284.86 135.091 285.444 135.286 286.175 135.286C287.001 135.286 287.679 135.014 288.21 134.472C288.74 133.929 289.006 133.121 289.006 132.048V127.695H290.404V136.347H289.041V134.879H288.794C288.605 135.292 288.28 135.669 287.82 136.011C287.36 136.342 286.688 136.507 285.803 136.507ZM296.513 136.347C296.018 136.347 295.635 136.212 295.363 135.94C295.104 135.669 294.974 135.298 294.974 134.826V128.916H292.373V127.695H294.974V124.617H296.372V127.695H299.203V128.916H296.372V134.613C296.372 134.967 296.543 135.144 296.885 135.144H298.813V136.347H296.513ZM307.71 136.347V128.916H305.056V127.695H307.71V125.484C307.71 125.012 307.84 124.64 308.099 124.369C308.37 124.098 308.754 123.962 309.249 123.962H311.425V125.165H309.638C309.284 125.165 309.108 125.342 309.108 125.696V127.695H311.832V128.916H309.108V136.347H307.71ZM317.37 136.595C316.497 136.595 315.73 136.412 315.07 136.047C314.409 135.669 313.896 135.144 313.53 134.472C313.165 133.8 312.982 133.021 312.982 132.136V131.924C312.982 131.028 313.165 130.243 313.53 129.571C313.896 128.898 314.403 128.379 315.052 128.014C315.701 127.636 316.444 127.448 317.281 127.448C318.095 127.448 318.815 127.624 319.44 127.978C320.065 128.32 320.555 128.816 320.909 129.465C321.262 130.113 321.439 130.874 321.439 131.747V132.384H314.38C314.415 133.316 314.716 134.047 315.282 134.578C315.848 135.097 316.556 135.357 317.405 135.357C318.148 135.357 318.721 135.186 319.122 134.843C319.523 134.501 319.829 134.094 320.042 133.623L321.245 134.206C321.068 134.572 320.82 134.938 320.502 135.303C320.195 135.669 319.788 135.976 319.281 136.224C318.785 136.471 318.148 136.595 317.37 136.595ZM314.397 131.234H320.024C319.977 130.432 319.7 129.807 319.192 129.358C318.697 128.91 318.06 128.686 317.281 128.686C316.491 128.686 315.842 128.91 315.335 129.358C314.828 129.807 314.515 130.432 314.397 131.234ZM327.841 136.595C326.968 136.595 326.201 136.412 325.541 136.047C324.88 135.669 324.367 135.144 324.001 134.472C323.636 133.8 323.453 133.021 323.453 132.136V131.924C323.453 131.028 323.636 130.243 324.001 129.571C324.367 128.898 324.874 128.379 325.523 128.014C326.172 127.636 326.915 127.448 327.752 127.448C328.566 127.448 329.286 127.624 329.911 127.978C330.536 128.32 331.026 128.816 331.38 129.465C331.734 130.113 331.91 130.874 331.91 131.747V132.384H324.851C324.886 133.316 325.187 134.047 325.753 134.578C326.319 135.097 327.027 135.357 327.876 135.357C328.619 135.357 329.192 135.186 329.593 134.843C329.994 134.501 330.3 134.094 330.513 133.623L331.716 134.206C331.539 134.572 331.291 134.938 330.973 135.303C330.666 135.669 330.259 135.976 329.752 136.224C329.256 136.471 328.619 136.595 327.841 136.595ZM324.868 131.234H330.495C330.448 130.432 330.171 129.807 329.663 129.358C329.168 128.91 328.531 128.686 327.752 128.686C326.962 128.686 326.313 128.91 325.806 129.358C325.299 129.807 324.986 130.432 324.868 131.234ZM337.834 136.595C336.761 136.595 335.852 136.347 335.109 135.852C334.378 135.357 333.936 134.572 333.782 133.499L335.109 133.198C335.204 133.764 335.381 134.212 335.64 134.543C335.9 134.861 336.218 135.091 336.596 135.233C336.985 135.362 337.398 135.427 337.834 135.427C338.483 135.427 338.996 135.298 339.374 135.038C339.751 134.779 339.94 134.431 339.94 133.994C339.94 133.546 339.757 133.233 339.391 133.056C339.037 132.868 338.548 132.714 337.923 132.596L337.197 132.473C336.643 132.378 336.136 132.231 335.676 132.03C335.216 131.83 334.85 131.558 334.579 131.216C334.307 130.874 334.172 130.444 334.172 129.925C334.172 129.146 334.472 128.539 335.074 128.102C335.676 127.666 336.472 127.448 337.463 127.448C338.442 127.448 339.232 127.672 339.834 128.12C340.447 128.556 340.842 129.176 341.019 129.978L339.71 130.314C339.604 129.689 339.35 129.252 338.949 129.005C338.548 128.745 338.052 128.615 337.463 128.615C336.873 128.615 336.407 128.727 336.065 128.951C335.723 129.164 335.552 129.482 335.552 129.907C335.552 130.32 335.711 130.626 336.029 130.827C336.36 131.016 336.796 131.157 337.339 131.252L338.064 131.376C338.678 131.482 339.226 131.629 339.71 131.818C340.205 131.995 340.594 132.254 340.877 132.596C341.172 132.938 341.32 133.387 341.32 133.941C341.32 134.79 341.001 135.445 340.364 135.905C339.739 136.365 338.896 136.595 337.834 136.595Z" fill="#5298FF"/>
<path d="M73.696 180.104V178.264H69.344V175.08H74.528V173.192H67.296V184.888H69.344V180.104H73.696ZM79.0128 185.096C81.0768 185.096 82.5168 184.056 82.8528 182.328H81.0448C80.8208 183.08 80.1168 183.496 79.0448 183.496C77.7488 183.496 77.0128 182.792 76.8688 181.4L82.8208 181.384V180.792C82.8208 178.328 81.3168 176.744 78.9488 176.744C76.6288 176.744 75.0128 178.456 75.0128 180.936C75.0128 183.384 76.6608 185.096 79.0128 185.096ZM78.9648 178.344C80.1328 178.344 80.8848 179.064 80.8848 180.152H76.9168C77.1088 178.968 77.8128 178.344 78.9648 178.344ZM87.919 185.096C89.983 185.096 91.423 184.056 91.759 182.328H89.951C89.727 183.08 89.023 183.496 87.951 183.496C86.655 183.496 85.919 182.792 85.775 181.4L91.727 181.384V180.792C91.727 178.328 90.223 176.744 87.855 176.744C85.535 176.744 83.919 178.456 83.919 180.936C83.919 183.384 85.567 185.096 87.919 185.096ZM87.871 178.344C89.039 178.344 89.791 179.064 89.791 180.152H85.823C86.015 178.968 86.719 178.344 87.871 178.344ZM92.6813 182.488C92.6813 184.04 93.9293 185.096 95.8973 185.096C97.8493 185.096 99.2093 184.104 99.2093 182.504C99.2093 181.288 98.5373 180.68 97.2093 180.376L95.7853 180.04C95.1133 179.88 94.7613 179.592 94.7613 179.144C94.7613 178.552 95.2093 178.2 95.9773 178.2C96.7293 178.2 97.1773 178.632 97.1933 179.304H99.0493C99.0333 177.768 97.8333 176.744 96.0573 176.744C94.2333 176.744 92.9213 177.672 92.9213 179.224C92.9213 180.488 93.6093 181.16 95.0333 181.48L96.4573 181.816C97.1613 181.976 97.3693 182.264 97.3693 182.664C97.3693 183.24 96.8733 183.608 95.9613 183.608C95.0653 183.608 94.5533 183.176 94.5373 182.488H92.6813Z" fill="#9B9BA7"/>
<rect x="51.234" y="197.735" width="308.532" height="46.5404" rx="8.8468" fill="#F6F6F6"/>
<path d="M74.784 221.229C74.784 224.829 76.56 227.213 79.552 227.213C82.528 227.213 84.304 224.829 84.304 221.229C84.304 217.645 82.448 215.213 79.552 215.213C76.64 215.213 74.784 217.645 74.784 221.229ZM76.336 221.229C76.336 218.349 77.52 216.621 79.552 216.621C81.584 216.621 82.752 218.349 82.752 221.229C82.752 224.077 81.584 225.805 79.552 225.805C77.52 225.805 76.336 224.077 76.336 221.229ZM87.7815 226.381C87.7815 225.501 87.2375 224.941 86.5655 224.941C85.9255 224.941 85.4935 225.405 85.4935 226.045C85.4935 226.637 85.9415 227.021 86.4695 227.021C86.6615 227.021 86.7895 226.989 86.9015 226.925C86.9015 227.421 86.4375 227.853 85.7815 227.965V228.637C86.9175 228.493 87.7815 227.533 87.7815 226.381ZM88.9871 221.229C88.9871 224.829 90.7631 227.213 93.7551 227.213C96.7311 227.213 98.5071 224.829 98.5071 221.229C98.5071 217.645 96.6511 215.213 93.7551 215.213C90.8431 215.213 88.9871 217.645 88.9871 221.229ZM90.5391 221.229C90.5391 218.349 91.7231 216.621 93.7551 216.621C95.7871 216.621 96.9551 218.349 96.9551 221.229C96.9551 224.077 95.7871 225.805 93.7551 225.805C91.7231 225.805 90.5391 224.077 90.5391 221.229ZM102.289 216.845V227.005H103.793V215.437H99.8569V216.845H102.289ZM117.9 227.005V225.549H112.412V221.885H117.356V220.493H112.412V216.877H117.9V215.437H110.844V227.005H117.9ZM121.74 227.005V218.061L127.66 227.005H129.228V215.437H127.66V224.381L121.74 215.437H120.172V227.005H121.74ZM131.125 218.557C131.125 220.221 132.101 221.309 133.989 221.741L135.893 222.173C136.997 222.429 137.493 223.005 137.493 223.917C137.493 225.069 136.517 225.789 134.981 225.789C133.525 225.789 132.597 225.085 132.565 223.981H130.965C131.061 225.965 132.629 227.197 134.981 227.197C137.445 227.197 139.061 225.869 139.061 223.789C139.061 222.157 138.101 221.133 136.213 220.701L134.309 220.253C133.221 219.997 132.693 219.437 132.693 218.509C132.693 217.373 133.637 216.637 135.093 216.637C136.389 216.637 137.205 217.309 137.285 218.461H138.869C138.741 216.461 137.317 215.229 135.109 215.229C132.725 215.229 131.125 216.573 131.125 218.557Z" fill="#333333"/>
<rect x="51.234" y="253.122" width="308.532" height="59.7159" rx="8.8468" fill="#F6F6F6"/>
<rect x="68.9276" y="269.71" width="26.5404" height="26.5404" rx="13.2702" fill="url(#paint0_linear_1745_3025)"/>
<path d="M107.627 278.969V270.681L113.131 278.969H115.147V267.273H113.131V275.561L107.643 267.273H105.611V278.969H107.627ZM118.424 269.481C119.064 269.481 119.592 268.953 119.592 268.297C119.592 267.641 119.064 267.129 118.424 267.129C117.752 267.129 117.224 267.641 117.224 268.297C117.224 268.953 117.752 269.481 118.424 269.481ZM117.448 278.969H119.4V271.065H117.448V278.969ZM120.953 275.001C120.953 277.513 122.521 279.177 124.921 279.177C126.985 279.177 128.521 277.913 128.761 276.073H126.793C126.585 276.937 125.897 277.417 124.921 277.417C123.673 277.417 122.905 276.489 122.905 275.001C122.905 273.513 123.737 272.569 124.985 272.569C125.913 272.569 126.569 273.033 126.793 273.929H128.745C128.537 272.025 127.065 270.825 124.905 270.825C122.569 270.825 120.953 272.553 120.953 275.001ZM132.181 278.969V276.841L133.333 275.641L135.397 278.969H137.637L134.693 274.201L137.701 271.065H135.253L132.181 274.377V267.065H130.245V278.969H132.181ZM140.135 279.161C140.839 279.161 141.431 278.585 141.431 277.897C141.431 277.193 140.839 276.617 140.135 276.617C139.431 276.617 138.839 277.193 138.839 277.897C138.839 278.585 139.431 279.161 140.135 279.161ZM146.531 279.177C148.595 279.177 150.035 278.137 150.371 276.409H148.563C148.339 277.161 147.635 277.577 146.563 277.577C145.267 277.577 144.531 276.873 144.387 275.481L150.339 275.465V274.873C150.339 272.409 148.835 270.825 146.467 270.825C144.147 270.825 142.531 272.537 142.531 275.017C142.531 277.465 144.179 279.177 146.531 279.177ZM146.483 272.425C147.651 272.425 148.403 273.145 148.403 274.233H144.435C144.627 273.049 145.331 272.425 146.483 272.425ZM155.983 277.273C155.695 277.369 155.423 277.417 155.199 277.417C154.607 277.417 154.191 277.097 154.191 276.153V272.697H155.999V271.065H154.191V268.601H152.255V271.065H151.039V272.697H152.255V276.489C152.255 278.377 153.199 279.145 154.703 279.145C155.263 279.145 155.775 279.049 156.207 278.857L155.983 277.273ZM159.462 278.969V274.649C159.462 273.465 160.182 272.601 161.414 272.601C162.406 272.601 163.062 273.241 163.062 274.569V278.969H165.014V274.105C165.014 272.057 163.99 270.825 162.038 270.825C160.902 270.825 159.974 271.321 159.478 272.089V267.065H157.51V278.969H159.462Z" fill="#333333"/>
<path d="M105.001 292.82C105.001 295.97 106.555 298.056 109.173 298.056C111.777 298.056 113.331 295.97 113.331 292.82C113.331 289.684 111.707 287.556 109.173 287.556C106.625 287.556 105.001 289.684 105.001 292.82ZM106.359 292.82C106.359 290.3 107.395 288.788 109.173 288.788C110.951 288.788 111.973 290.3 111.973 292.82C111.973 295.312 110.951 296.824 109.173 296.824C107.395 296.824 106.359 295.312 106.359 292.82ZM115.674 297.874L117.354 295.368L119.062 297.874H120.588L118.25 294.486L120.63 291.028H119.132L117.438 293.576L115.702 291.028H114.176L116.556 294.486L114.162 297.874H115.674ZM123.394 288.984V297.874H124.71V287.752H121.266V288.984H123.394ZM126.22 287.752V289.012H131.904L128.026 297.874H129.454L133.29 289.012V287.752H126.22ZM137.02 292.638C138.63 292.638 139.47 293.45 139.47 294.668C139.47 295.97 138.616 296.81 137.3 296.81C136.026 296.81 135.214 296.04 135.214 294.724H133.856C133.856 296.824 135.284 298.042 137.272 298.042C139.33 298.042 140.87 296.74 140.87 294.696C140.87 292.876 139.568 291.714 137.846 291.504L140.618 288.858V287.752H134.332V288.97H138.882L136.012 291.728V292.638H137.02ZM143.093 298.042C143.625 298.042 144.087 297.594 144.087 297.062C144.087 296.516 143.625 296.068 143.093 296.068C142.547 296.068 142.085 296.516 142.085 297.062C142.085 297.594 142.547 298.042 143.093 298.042ZM146.962 298.042C147.494 298.042 147.956 297.594 147.956 297.062C147.956 296.516 147.494 296.068 146.962 296.068C146.416 296.068 145.954 296.516 145.954 297.062C145.954 297.594 146.416 298.042 146.962 298.042ZM150.831 298.042C151.363 298.042 151.825 297.594 151.825 297.062C151.825 296.516 151.363 296.068 150.831 296.068C150.285 296.068 149.823 296.516 149.823 297.062C149.823 297.594 150.285 298.042 150.831 298.042ZM152.456 287.752V289.012H158.14L154.262 297.874H155.69L159.526 289.012V287.752H152.456ZM161.222 290.958C160.186 292.372 159.822 293.212 159.822 294.416C159.822 296.46 161.446 298.042 163.546 298.042C165.632 298.042 167.228 296.53 167.228 294.416C167.228 292.414 165.814 290.902 163.714 290.902C163.364 290.902 163 290.972 162.65 291.112L165.184 287.752H163.588L161.222 290.958ZM161.222 294.43C161.222 293.044 162.174 292.064 163.546 292.064C164.89 292.064 165.842 293.044 165.842 294.43C165.842 295.816 164.89 296.81 163.546 296.81C162.174 296.81 161.222 295.816 161.222 294.43ZM167.14 287.752V289.012H172.824L168.946 297.874H170.374L174.21 289.012V287.752H167.14ZM174.525 291.028V292.134H175.533V297.874H176.849V292.134H178.473V291.028H176.849V289.936C176.849 289.194 177.073 288.76 177.927 288.76H178.515V287.626C178.249 287.584 177.955 287.57 177.703 287.57C176.457 287.57 175.533 288.256 175.533 289.936V291.028H174.525ZM183.267 297.874C186.263 297.874 188.279 295.83 188.279 292.82C188.279 289.796 186.235 287.752 183.211 287.752H179.921V297.874H183.267ZM183.113 289.012C185.423 289.012 186.851 290.468 186.851 292.82C186.851 295.144 185.423 296.6 183.169 296.6H181.293V289.012H183.113ZM190.822 290.958C189.786 292.372 189.422 293.212 189.422 294.416C189.422 296.46 191.046 298.042 193.146 298.042C195.232 298.042 196.828 296.53 196.828 294.416C196.828 292.414 195.414 290.902 193.314 290.902C192.964 290.902 192.6 290.972 192.25 291.112L194.784 287.752H193.188L190.822 290.958ZM190.822 294.43C190.822 293.044 191.774 292.064 193.146 292.064C194.49 292.064 195.442 293.044 195.442 294.43C195.442 295.816 194.49 296.81 193.146 296.81C191.774 296.81 190.822 295.816 190.822 294.43Z" fill="#9B9BA7"/>
<rect x="51.234" y="344.184" width="35.3872" height="35.3872" rx="17.6936" fill="#5298FF"/>
<path fill-rule="evenodd" clip-rule="evenodd" d="M68.9277 353.031C69.5384 353.031 70.0335 353.526 70.0335 354.137V354.144C70.0335 354.755 69.5384 355.25 68.9277 355.25C68.3169 355.25 67.8218 354.755 67.8218 354.144V354.137C67.8218 353.526 68.3169 353.031 68.9277 353.031ZM65.6101 359.666C65.6101 359.056 66.1052 358.56 66.716 358.56H68.9277C69.5384 358.56 70.0335 359.056 70.0335 359.666L70.0335 369.619C70.0335 370.23 69.5384 370.725 68.9277 370.725C68.3169 370.725 67.8218 370.23 67.8218 369.619L67.8218 360.772H66.716C66.1052 360.772 65.6101 360.277 65.6101 359.666Z" fill="white"/>
<path d="M115.275 356.378V351.654L110.869 343.993H112.568L115.894 349.938H116.142L119.468 343.993H121.167L116.761 351.654V356.378H115.275ZM125.35 356.626C124.477 356.626 123.705 356.443 123.032 356.077C122.372 355.712 121.853 355.198 121.475 354.538C121.109 353.866 120.927 353.075 120.927 352.167V351.937C120.927 351.04 121.109 350.256 121.475 349.584C121.853 348.911 122.372 348.392 123.032 348.027C123.705 347.661 124.477 347.478 125.35 347.478C126.223 347.478 126.99 347.661 127.65 348.027C128.323 348.392 128.842 348.911 129.207 349.584C129.585 350.256 129.773 351.04 129.773 351.937V352.167C129.773 353.075 129.585 353.866 129.207 354.538C128.842 355.198 128.323 355.712 127.65 356.077C126.99 356.443 126.223 356.626 125.35 356.626ZM125.35 355.37C126.27 355.37 127.001 355.081 127.544 354.503C128.098 353.913 128.376 353.122 128.376 352.132V351.972C128.376 350.982 128.098 350.197 127.544 349.619C127.001 349.029 126.27 348.734 125.35 348.734C124.442 348.734 123.71 349.029 123.156 349.619C122.602 350.197 122.324 350.982 122.324 351.972V352.132C122.324 353.122 122.602 353.913 123.156 354.503C123.71 355.081 124.442 355.37 125.35 355.37ZM135.598 356.537C134.972 356.537 134.394 356.402 133.864 356.13C133.345 355.859 132.932 355.458 132.625 354.927C132.33 354.385 132.183 353.73 132.183 352.963V347.726H133.58V352.857C133.58 353.718 133.793 354.343 134.217 354.733C134.654 355.122 135.238 355.316 135.969 355.316C136.795 355.316 137.473 355.045 138.004 354.503C138.535 353.96 138.8 353.152 138.8 352.079V347.726H140.198V356.378H138.835V354.909H138.588C138.399 355.322 138.075 355.7 137.615 356.042C137.155 356.372 136.482 356.537 135.598 356.537ZM148.87 356.378L147.136 347.726H148.552L149.985 355.44H150.233L152.126 347.726H154.444L156.337 355.44H156.585L158.018 347.726H159.433L157.699 356.378H155.311L153.4 348.664H153.17L151.259 356.378H148.87ZM161.836 356.378V347.726H163.234V356.378H161.836ZM162.543 346.381C162.237 346.381 161.977 346.281 161.765 346.08C161.564 345.88 161.464 345.626 161.464 345.32C161.464 345.001 161.564 344.742 161.765 344.541C161.977 344.341 162.237 344.24 162.543 344.24C162.85 344.24 163.104 344.341 163.304 344.541C163.505 344.742 163.605 345.001 163.605 345.32C163.605 345.626 163.505 345.88 163.304 346.08C163.104 346.281 162.85 346.381 162.543 346.381ZM166.173 356.378V343.993H167.571V356.378H166.173ZM170.51 356.378V343.993H171.908V356.378H170.51ZM184.186 356.626C183.29 356.626 182.588 356.455 182.081 356.113C181.585 355.771 181.225 355.381 181.001 354.945H180.753V356.378H179.391V343.993H180.789V349.088H181.037C181.178 348.817 181.379 348.563 181.638 348.327C181.898 348.08 182.234 347.879 182.647 347.726C183.071 347.561 183.584 347.478 184.186 347.478C184.941 347.478 185.625 347.661 186.239 348.027C186.864 348.381 187.359 348.894 187.725 349.566C188.09 350.227 188.273 351.017 188.273 351.937V352.167C188.273 353.087 188.085 353.883 187.707 354.556C187.341 355.228 186.846 355.741 186.221 356.095C185.607 356.449 184.929 356.626 184.186 356.626ZM183.814 355.387C184.711 355.387 185.436 355.104 185.991 354.538C186.557 353.96 186.84 353.158 186.84 352.132V351.972C186.84 350.946 186.557 350.15 185.991 349.584C185.436 349.006 184.711 348.717 183.814 348.717C182.93 348.717 182.198 349.006 181.62 349.584C181.054 350.15 180.771 350.946 180.771 351.972V352.132C180.771 353.158 181.054 353.96 181.62 354.538C182.198 355.104 182.93 355.387 183.814 355.387ZM194.741 356.626C193.868 356.626 193.102 356.443 192.441 356.077C191.781 355.7 191.267 355.175 190.902 354.503C190.536 353.83 190.353 353.052 190.353 352.167V351.955C190.353 351.058 190.536 350.274 190.902 349.601C191.267 348.929 191.775 348.41 192.423 348.044C193.072 347.667 193.815 347.478 194.653 347.478C195.467 347.478 196.186 347.655 196.811 348.009C197.437 348.351 197.926 348.846 198.28 349.495C198.634 350.144 198.811 350.905 198.811 351.778V352.415H191.751C191.786 353.347 192.087 354.078 192.653 354.609C193.22 355.128 193.927 355.387 194.777 355.387C195.52 355.387 196.092 355.216 196.493 354.874C196.894 354.532 197.201 354.125 197.413 353.653L198.616 354.237C198.439 354.603 198.192 354.968 197.873 355.334C197.566 355.7 197.159 356.006 196.652 356.254C196.157 356.502 195.52 356.626 194.741 356.626ZM191.769 351.265H197.395C197.348 350.462 197.071 349.837 196.564 349.389C196.068 348.941 195.431 348.717 194.653 348.717C193.862 348.717 193.214 348.941 192.706 349.389C192.199 349.837 191.887 350.462 191.769 351.265ZM209.774 356.626C208.937 356.626 208.182 356.449 207.51 356.095C206.849 355.729 206.324 355.21 205.935 354.538C205.557 353.866 205.369 353.069 205.369 352.149V351.955C205.369 351.023 205.557 350.227 205.935 349.566C206.324 348.894 206.849 348.381 207.51 348.027C208.182 347.661 208.937 347.478 209.774 347.478C210.6 347.478 211.302 347.632 211.88 347.938C212.47 348.245 212.93 348.652 213.26 349.159C213.602 349.666 213.82 350.209 213.915 350.787L212.552 351.07C212.493 350.645 212.352 350.256 212.128 349.902C211.915 349.548 211.614 349.265 211.225 349.053C210.836 348.841 210.358 348.734 209.792 348.734C209.214 348.734 208.695 348.864 208.235 349.124C207.787 349.383 207.427 349.755 207.156 350.238C206.896 350.722 206.766 351.3 206.766 351.972V352.132C206.766 352.804 206.896 353.382 207.156 353.866C207.427 354.349 207.787 354.721 208.235 354.98C208.695 355.24 209.214 355.37 209.792 355.37C210.653 355.37 211.308 355.145 211.756 354.697C212.216 354.249 212.499 353.695 212.605 353.034L213.985 353.335C213.856 353.901 213.62 354.438 213.278 354.945C212.936 355.452 212.47 355.859 211.88 356.166C211.302 356.472 210.6 356.626 209.774 356.626ZM216.368 356.378V343.993H217.766V349.106H218.013C218.131 348.846 218.308 348.605 218.544 348.381C218.792 348.145 219.105 347.95 219.482 347.797C219.871 347.643 220.361 347.567 220.951 347.567C221.599 347.567 222.177 347.708 222.685 347.991C223.204 348.263 223.616 348.664 223.923 349.194C224.23 349.713 224.383 350.362 224.383 351.141V356.378H222.985V351.247C222.985 350.386 222.767 349.761 222.331 349.371C221.906 348.982 221.328 348.788 220.597 348.788C219.759 348.788 219.075 349.059 218.544 349.601C218.025 350.144 217.766 350.952 217.766 352.025V356.378H216.368ZM230.882 356.626C230.127 356.626 229.437 356.449 228.812 356.095C228.198 355.741 227.709 355.228 227.343 354.556C226.977 353.883 226.794 353.087 226.794 352.167V351.937C226.794 351.005 226.977 350.209 227.343 349.548C227.709 348.888 228.204 348.381 228.829 348.027C229.454 347.661 230.139 347.478 230.882 347.478C231.778 347.478 232.474 347.649 232.97 347.991C233.465 348.333 233.831 348.723 234.067 349.159H234.314V347.726H235.677V354.662C235.677 355.016 235.842 355.193 236.172 355.193H236.968V356.378H235.641C235.252 356.378 234.939 356.266 234.703 356.042C234.468 355.806 234.35 355.482 234.35 355.069V354.874H234.12C233.884 355.334 233.512 355.741 233.005 356.095C232.509 356.449 231.802 356.626 230.882 356.626ZM231.253 355.387C232.15 355.387 232.875 355.104 233.43 354.538C233.996 353.96 234.279 353.158 234.279 352.132V351.972C234.279 350.946 233.996 350.15 233.43 349.584C232.875 349.006 232.15 348.717 231.253 348.717C230.369 348.717 229.637 349.006 229.059 349.584C228.493 350.15 228.21 350.946 228.21 351.972V352.132C228.21 353.158 228.493 353.96 229.059 354.538C229.637 355.104 230.369 355.387 231.253 355.387ZM238.951 356.378V347.726H240.314V348.788H240.562C240.715 348.41 240.951 348.133 241.269 347.956C241.588 347.779 242.007 347.69 242.526 347.69H243.552V348.964H242.437C241.812 348.964 241.305 349.141 240.915 349.495C240.538 349.837 240.349 350.374 240.349 351.105V356.378H238.951ZM244.885 352.096V351.848C244.885 350.94 245.068 350.162 245.434 349.513C245.8 348.864 246.295 348.363 246.92 348.009C247.545 347.655 248.23 347.478 248.973 347.478C249.881 347.478 250.577 347.655 251.061 348.009C251.556 348.351 251.922 348.734 252.158 349.159H252.405V347.726H253.732V358.395C253.732 358.867 253.602 359.239 253.343 359.51C253.083 359.781 252.706 359.917 252.211 359.917H246.336V358.678H251.839C252.193 358.678 252.37 358.501 252.37 358.147V354.856H252.122C251.981 355.116 251.78 355.37 251.521 355.617C251.261 355.865 250.925 356.071 250.512 356.237C250.099 356.39 249.586 356.467 248.973 356.467C248.23 356.467 247.545 356.29 246.92 355.936C246.295 355.582 245.8 355.081 245.434 354.432C245.068 353.771 244.885 352.993 244.885 352.096ZM249.344 355.228C250.241 355.228 250.966 354.945 251.521 354.379C252.087 353.812 252.37 353.034 252.37 352.043V351.902C252.37 350.899 252.087 350.12 251.521 349.566C250.966 349 250.241 348.717 249.344 348.717C248.46 348.717 247.728 349 247.15 349.566C246.584 350.12 246.301 350.899 246.301 351.902V352.043C246.301 353.034 246.584 353.812 247.15 354.379C247.728 354.945 248.46 355.228 249.344 355.228ZM260.626 356.626C259.753 356.626 258.986 356.443 258.326 356.077C257.665 355.7 257.152 355.175 256.786 354.503C256.421 353.83 256.238 353.052 256.238 352.167V351.955C256.238 351.058 256.421 350.274 256.786 349.601C257.152 348.929 257.659 348.41 258.308 348.044C258.957 347.667 259.7 347.478 260.537 347.478C261.351 347.478 262.071 347.655 262.696 348.009C263.321 348.351 263.811 348.846 264.164 349.495C264.518 350.144 264.695 350.905 264.695 351.778V352.415H257.635C257.671 353.347 257.972 354.078 258.538 354.609C259.104 355.128 259.812 355.387 260.661 355.387C261.404 355.387 261.976 355.216 262.377 354.874C262.778 354.532 263.085 354.125 263.297 353.653L264.501 354.237C264.324 354.603 264.076 354.968 263.757 355.334C263.451 355.7 263.044 356.006 262.537 356.254C262.041 356.502 261.404 356.626 260.626 356.626ZM257.653 351.265H263.28C263.233 350.462 262.955 349.837 262.448 349.389C261.953 348.941 261.316 348.717 260.537 348.717C259.747 348.717 259.098 348.941 258.591 349.389C258.084 349.837 257.771 350.462 257.653 351.265ZM270.796 356.626C270.053 356.626 269.369 356.449 268.743 356.095C268.118 355.741 267.623 355.228 267.257 354.556C266.892 353.883 266.709 353.087 266.709 352.167V351.937C266.709 351.017 266.892 350.227 267.257 349.566C267.623 348.894 268.112 348.381 268.726 348.027C269.351 347.661 270.041 347.478 270.796 347.478C271.397 347.478 271.905 347.561 272.318 347.726C272.742 347.879 273.084 348.08 273.344 348.327C273.603 348.563 273.804 348.817 273.945 349.088H274.193V343.993H275.591V356.378H274.228V354.945H273.981C273.745 355.381 273.379 355.771 272.884 356.113C272.388 356.455 271.692 356.626 270.796 356.626ZM271.167 355.387C272.064 355.387 272.789 355.104 273.344 354.538C273.91 353.96 274.193 353.158 274.193 352.132V351.972C274.193 350.946 273.91 350.15 273.344 349.584C272.789 349.006 272.064 348.717 271.167 348.717C270.283 348.717 269.551 349.006 268.973 349.584C268.407 350.15 268.124 350.946 268.124 351.972V352.132C268.124 353.158 268.407 353.96 268.973 354.538C269.551 355.104 270.283 355.387 271.167 355.387ZM287.258 356.626C285.854 356.626 284.734 356.213 283.896 355.387C283.07 354.55 282.658 353.299 282.658 351.636V348.734C282.658 347.083 283.07 345.839 283.896 345.001C284.734 344.164 285.854 343.745 287.258 343.745C288.673 343.745 289.794 344.164 290.62 345.001C291.457 345.839 291.876 347.083 291.876 348.734V351.636C291.876 353.299 291.457 354.55 290.62 355.387C289.794 356.213 288.673 356.626 287.258 356.626ZM287.258 355.334C288.319 355.334 289.116 355.016 289.647 354.379C290.177 353.742 290.443 352.851 290.443 351.707V348.646C290.443 347.502 290.171 346.617 289.629 345.992C289.086 345.355 288.296 345.036 287.258 345.036C286.22 345.036 285.43 345.355 284.887 345.992C284.356 346.629 284.091 347.514 284.091 348.646V351.707C284.091 352.863 284.356 353.759 284.887 354.396C285.418 355.022 286.208 355.334 287.258 355.334ZM294.884 356.626C294.542 356.626 294.253 356.514 294.017 356.29C293.793 356.065 293.681 355.776 293.681 355.423C293.681 355.069 293.793 354.78 294.017 354.556C294.253 354.331 294.542 354.219 294.884 354.219C295.238 354.219 295.527 354.331 295.751 354.556C295.975 354.78 296.087 355.069 296.087 355.423C296.087 355.776 295.975 356.065 295.751 356.29C295.527 356.514 295.238 356.626 294.884 356.626ZM302.515 356.626C301.111 356.626 299.991 356.213 299.153 355.387C298.328 354.55 297.915 353.299 297.915 351.636V348.734C297.915 347.083 298.328 345.839 299.153 345.001C299.991 344.164 301.111 343.745 302.515 343.745C303.931 343.745 305.051 344.164 305.877 345.001C306.714 345.839 307.133 347.083 307.133 348.734V351.636C307.133 353.299 306.714 354.55 305.877 355.387C305.051 356.213 303.931 356.626 302.515 356.626ZM302.515 355.334C303.577 355.334 304.373 355.016 304.904 354.379C305.435 353.742 305.7 352.851 305.7 351.707V348.646C305.7 347.502 305.429 346.617 304.886 345.992C304.343 345.355 303.553 345.036 302.515 345.036C301.477 345.036 300.687 345.355 300.144 345.992C299.613 346.629 299.348 347.514 299.348 348.646V351.707C299.348 352.863 299.613 353.759 300.144 354.396C300.675 355.022 301.465 355.334 302.515 355.334ZM312.735 356.378V344.948H312.47L310.064 349.354H308.507L311.461 343.993H314.169V356.378H312.735ZM321.543 356.378V343.993H329.169V345.337H323.03V349.478H328.674V350.822H323.03V355.033H329.258V356.378H321.543ZM331.513 356.378V343.993H334.397L338.715 355.44H338.945V343.993H340.413V356.378H337.529L333.23 344.913H332.982V356.378H331.513ZM347.386 356.626C346.489 356.626 345.687 356.467 344.979 356.148C344.271 355.83 343.711 355.352 343.298 354.715C342.897 354.066 342.697 353.258 342.697 352.291V351.919H344.165V352.291C344.165 353.317 344.466 354.084 345.068 354.591C345.669 355.086 346.442 355.334 347.386 355.334C348.353 355.334 349.09 355.116 349.597 354.679C350.104 354.243 350.358 353.695 350.358 353.034C350.358 352.574 350.24 352.208 350.004 351.937C349.78 351.666 349.462 351.447 349.049 351.282C348.636 351.105 348.152 350.952 347.598 350.822L346.678 350.592C345.958 350.404 345.321 350.173 344.767 349.902C344.212 349.631 343.776 349.277 343.458 348.841C343.151 348.392 342.998 347.82 342.998 347.124C342.998 346.428 343.169 345.827 343.511 345.32C343.864 344.812 344.354 344.423 344.979 344.152C345.616 343.88 346.347 343.745 347.173 343.745C348.011 343.745 348.76 343.892 349.42 344.187C350.093 344.47 350.618 344.895 350.995 345.461C351.384 346.016 351.579 346.717 351.579 347.567V348.31H350.11V347.567C350.11 346.965 349.981 346.481 349.721 346.116C349.473 345.75 349.125 345.479 348.677 345.302C348.241 345.125 347.739 345.036 347.173 345.036C346.359 345.036 345.705 345.219 345.209 345.585C344.714 345.939 344.466 346.446 344.466 347.107C344.466 347.543 344.572 347.897 344.785 348.168C344.997 348.44 345.298 348.664 345.687 348.841C346.076 349.006 346.542 349.153 347.085 349.283L348.005 349.513C348.724 349.666 349.367 349.879 349.933 350.15C350.511 350.409 350.971 350.769 351.313 351.229C351.656 351.677 351.827 352.267 351.827 352.999C351.827 353.73 351.644 354.367 351.278 354.909C350.912 355.452 350.393 355.877 349.721 356.183C349.061 356.478 348.282 356.626 347.386 356.626ZM115.275 378.378C114.779 378.378 114.396 378.242 114.125 377.971C113.865 377.7 113.735 377.328 113.735 376.856V370.947H111.134V369.726H113.735V366.647H115.133V369.726H117.964V370.947H115.133V376.644C115.133 376.998 115.304 377.175 115.646 377.175H117.575V378.378H115.275ZM123.916 378.626C123.043 378.626 122.27 378.443 121.598 378.077C120.937 377.712 120.418 377.198 120.041 376.538C119.675 375.866 119.492 375.075 119.492 374.167V373.937C119.492 373.04 119.675 372.256 120.041 371.584C120.418 370.911 120.937 370.392 121.598 370.027C122.27 369.661 123.043 369.478 123.916 369.478C124.789 369.478 125.555 369.661 126.216 370.027C126.888 370.392 127.407 370.911 127.773 371.584C128.151 372.256 128.339 373.04 128.339 373.937V374.167C128.339 375.075 128.151 375.866 127.773 376.538C127.407 377.198 126.888 377.712 126.216 378.077C125.555 378.443 124.789 378.626 123.916 378.626ZM123.916 377.37C124.836 377.37 125.567 377.081 126.11 376.503C126.664 375.913 126.941 375.122 126.941 374.132V373.972C126.941 372.982 126.664 372.197 126.11 371.619C125.567 371.029 124.836 370.734 123.916 370.734C123.008 370.734 122.276 371.029 121.722 371.619C121.167 372.197 120.89 372.982 120.89 373.972V374.132C120.89 375.122 121.167 375.913 121.722 376.503C122.276 377.081 123.008 377.37 123.916 377.37ZM139.38 378.626C138.543 378.626 137.788 378.449 137.115 378.095C136.455 377.729 135.93 377.21 135.541 376.538C135.163 375.866 134.974 375.069 134.974 374.149V373.955C134.974 373.023 135.163 372.227 135.541 371.566C135.93 370.894 136.455 370.381 137.115 370.027C137.788 369.661 138.543 369.478 139.38 369.478C140.206 369.478 140.908 369.632 141.486 369.938C142.075 370.245 142.535 370.652 142.866 371.159C143.208 371.666 143.426 372.209 143.52 372.787L142.158 373.07C142.099 372.645 141.957 372.256 141.733 371.902C141.521 371.548 141.22 371.265 140.831 371.053C140.442 370.841 139.964 370.734 139.398 370.734C138.82 370.734 138.301 370.864 137.841 371.124C137.392 371.383 137.033 371.755 136.761 372.238C136.502 372.722 136.372 373.3 136.372 373.972V374.132C136.372 374.804 136.502 375.382 136.761 375.866C137.033 376.349 137.392 376.721 137.841 376.98C138.301 377.24 138.82 377.37 139.398 377.37C140.259 377.37 140.914 377.145 141.362 376.697C141.822 376.249 142.105 375.695 142.211 375.034L143.591 375.335C143.461 375.901 143.225 376.438 142.883 376.945C142.541 377.452 142.075 377.859 141.486 378.166C140.908 378.472 140.206 378.626 139.38 378.626ZM149.972 378.626C149.1 378.626 148.327 378.443 147.655 378.077C146.994 377.712 146.475 377.198 146.098 376.538C145.732 375.866 145.549 375.075 145.549 374.167V373.937C145.549 373.04 145.732 372.256 146.098 371.584C146.475 370.911 146.994 370.392 147.655 370.027C148.327 369.661 149.1 369.478 149.972 369.478C150.845 369.478 151.612 369.661 152.273 370.027C152.945 370.392 153.464 370.911 153.83 371.584C154.207 372.256 154.396 373.04 154.396 373.937V374.167C154.396 375.075 154.207 375.866 153.83 376.538C153.464 377.198 152.945 377.712 152.273 378.077C151.612 378.443 150.845 378.626 149.972 378.626ZM149.972 377.37C150.893 377.37 151.624 377.081 152.166 376.503C152.721 375.913 152.998 375.122 152.998 374.132V373.972C152.998 372.982 152.721 372.197 152.166 371.619C151.624 371.029 150.893 370.734 149.972 370.734C149.064 370.734 148.333 371.029 147.778 371.619C147.224 372.197 146.947 372.982 146.947 373.972V374.132C146.947 375.122 147.224 375.913 147.778 376.503C148.333 377.081 149.064 377.37 149.972 377.37ZM156.911 378.378V369.726H158.274V370.805H158.521C158.687 370.499 158.958 370.215 159.335 369.956C159.713 369.696 160.244 369.567 160.928 369.567C161.6 369.567 162.143 369.714 162.556 370.009C162.98 370.304 163.287 370.664 163.476 371.088H163.723C163.924 370.664 164.225 370.304 164.626 370.009C165.039 369.714 165.611 369.567 166.342 369.567C166.92 369.567 167.427 369.685 167.864 369.921C168.3 370.156 168.642 370.499 168.89 370.947C169.149 371.383 169.279 371.908 169.279 372.521V378.378H167.881V372.645C167.881 372.067 167.71 371.613 167.368 371.283C167.038 370.941 166.572 370.77 165.97 370.77C165.333 370.77 164.808 370.976 164.396 371.389C163.995 371.802 163.794 372.398 163.794 373.176V378.378H162.396V372.645C162.396 372.067 162.225 371.613 161.883 371.283C161.553 370.941 161.087 370.77 160.485 370.77C159.848 370.77 159.323 370.976 158.911 371.389C158.51 371.802 158.309 372.398 158.309 373.176V378.378H156.911ZM172.134 381.917V369.726H173.496V371.159H173.744C173.968 370.723 174.328 370.333 174.823 369.991C175.331 369.649 176.032 369.478 176.929 369.478C177.672 369.478 178.35 369.661 178.964 370.027C179.589 370.381 180.084 370.888 180.45 371.548C180.827 372.209 181.016 373.005 181.016 373.937V374.167C181.016 375.087 180.833 375.883 180.468 376.556C180.102 377.228 179.607 377.741 178.981 378.095C178.368 378.449 177.684 378.626 176.929 378.626C176.327 378.626 175.814 378.543 175.39 378.378C174.977 378.225 174.641 378.024 174.381 377.776C174.122 377.529 173.921 377.275 173.779 377.016H173.532V381.917H172.134ZM176.557 377.387C177.454 377.387 178.179 377.104 178.734 376.538C179.3 375.96 179.583 375.158 179.583 374.132V373.972C179.583 372.946 179.3 372.15 178.734 371.584C178.179 371.006 177.454 370.717 176.557 370.717C175.673 370.717 174.941 371.006 174.363 371.584C173.797 372.15 173.514 372.946 173.514 373.972V374.132C173.514 375.158 173.797 375.96 174.363 376.538C174.941 377.104 175.673 377.387 176.557 377.387ZM183.521 378.378V365.993H184.919V378.378H183.521ZM191.821 378.626C190.948 378.626 190.182 378.443 189.521 378.077C188.86 377.7 188.347 377.175 187.982 376.503C187.616 375.83 187.433 375.052 187.433 374.167V373.955C187.433 373.058 187.616 372.274 187.982 371.601C188.347 370.929 188.854 370.41 189.503 370.044C190.152 369.667 190.895 369.478 191.733 369.478C192.547 369.478 193.266 369.655 193.891 370.009C194.516 370.351 195.006 370.846 195.36 371.495C195.714 372.144 195.891 372.905 195.891 373.778V374.415H188.831C188.866 375.347 189.167 376.078 189.733 376.609C190.299 377.128 191.007 377.387 191.857 377.387C192.6 377.387 193.172 377.216 193.573 376.874C193.974 376.532 194.281 376.125 194.493 375.653L195.696 376.237C195.519 376.603 195.271 376.968 194.953 377.334C194.646 377.7 194.239 378.006 193.732 378.254C193.237 378.502 192.6 378.626 191.821 378.626ZM188.849 373.265H194.475C194.428 372.462 194.151 371.837 193.644 371.389C193.148 370.941 192.511 370.717 191.733 370.717C190.942 370.717 190.294 370.941 189.786 371.389C189.279 371.837 188.967 372.462 188.849 373.265ZM201.151 378.378C200.655 378.378 200.272 378.242 200.001 377.971C199.741 377.7 199.611 377.328 199.611 376.856V370.947H197.01V369.726H199.611V366.647H201.009V369.726H203.84V370.947H201.009V376.644C201.009 376.998 201.18 377.175 201.522 377.175H203.451V378.378H201.151ZM209.757 378.626C208.884 378.626 208.117 378.443 207.456 378.077C206.796 377.7 206.283 377.175 205.917 376.503C205.551 375.83 205.369 375.052 205.369 374.167V373.955C205.369 373.058 205.551 372.274 205.917 371.601C206.283 370.929 206.79 370.41 207.439 370.044C208.088 369.667 208.831 369.478 209.668 369.478C210.482 369.478 211.202 369.655 211.827 370.009C212.452 370.351 212.941 370.846 213.295 371.495C213.649 372.144 213.826 372.905 213.826 373.778V374.415H206.766C206.802 375.347 207.103 376.078 207.669 376.609C208.235 377.128 208.943 377.387 209.792 377.387C210.535 377.387 211.107 377.216 211.508 376.874C211.909 376.532 212.216 376.125 212.428 375.653L213.632 376.237C213.455 376.603 213.207 376.968 212.888 377.334C212.582 377.7 212.175 378.006 211.668 378.254C211.172 378.502 210.535 378.626 209.757 378.626ZM206.784 373.265H212.411C212.363 372.462 212.086 371.837 211.579 371.389C211.084 370.941 210.447 370.717 209.668 370.717C208.878 370.717 208.229 370.941 207.722 371.389C207.215 371.837 206.902 372.462 206.784 373.265ZM223.993 378.378C223.498 378.378 223.115 378.242 222.843 377.971C222.584 377.7 222.454 377.328 222.454 376.856V370.947H219.853V369.726H222.454V366.647H223.852V369.726H226.683V370.947H223.852V376.644C223.852 376.998 224.023 377.175 224.365 377.175H226.294V378.378H223.993ZM228.947 378.378V365.993H230.345V371.106H230.592C230.71 370.846 230.887 370.605 231.123 370.381C231.371 370.145 231.684 369.95 232.061 369.797C232.45 369.643 232.94 369.567 233.53 369.567C234.178 369.567 234.756 369.708 235.264 369.991C235.783 370.263 236.195 370.664 236.502 371.194C236.809 371.713 236.962 372.362 236.962 373.141V378.378H235.564V373.247C235.564 372.386 235.346 371.761 234.91 371.371C234.485 370.982 233.907 370.788 233.176 370.788C232.338 370.788 231.654 371.059 231.123 371.601C230.604 372.144 230.345 372.952 230.345 374.025V378.378H228.947ZM239.798 378.378V369.726H241.196V378.378H239.798ZM240.506 368.381C240.199 368.381 239.94 368.281 239.727 368.08C239.527 367.88 239.427 367.626 239.427 367.32C239.427 367.001 239.527 366.742 239.727 366.541C239.94 366.341 240.199 366.24 240.506 366.24C240.813 366.24 241.066 366.341 241.267 366.541C241.467 366.742 241.567 367.001 241.567 367.32C241.567 367.626 241.467 367.88 241.267 368.08C241.066 368.281 240.813 368.381 240.506 368.381ZM247.621 378.626C246.547 378.626 245.639 378.378 244.896 377.883C244.165 377.387 243.722 376.603 243.569 375.529L244.896 375.229C244.99 375.795 245.167 376.243 245.427 376.573C245.686 376.892 246.005 377.122 246.382 377.263C246.771 377.393 247.184 377.458 247.621 377.458C248.27 377.458 248.783 377.328 249.16 377.069C249.538 376.809 249.726 376.461 249.726 376.025C249.726 375.577 249.543 375.264 249.178 375.087C248.824 374.898 248.334 374.745 247.709 374.627L246.984 374.503C246.429 374.409 245.922 374.261 245.462 374.061C245.002 373.86 244.636 373.589 244.365 373.247C244.094 372.905 243.958 372.474 243.958 371.955C243.958 371.177 244.259 370.569 244.861 370.133C245.462 369.696 246.258 369.478 247.249 369.478C248.228 369.478 249.019 369.702 249.62 370.151C250.234 370.587 250.629 371.206 250.806 372.008L249.496 372.345C249.39 371.719 249.137 371.283 248.735 371.035C248.334 370.776 247.839 370.646 247.249 370.646C246.659 370.646 246.193 370.758 245.851 370.982C245.509 371.194 245.338 371.513 245.338 371.938C245.338 372.35 245.498 372.657 245.816 372.858C246.146 373.046 246.583 373.188 247.125 373.282L247.851 373.406C248.464 373.512 249.013 373.66 249.496 373.848C249.992 374.025 250.381 374.285 250.664 374.627C250.959 374.969 251.106 375.417 251.106 375.972C251.106 376.821 250.788 377.476 250.151 377.936C249.526 378.396 248.682 378.626 247.621 378.626ZM261.195 378.378C260.7 378.378 260.316 378.242 260.045 377.971C259.785 377.7 259.656 377.328 259.656 376.856V370.947H257.055V369.726H259.656V366.647H261.053V369.726H263.884V370.947H261.053V376.644C261.053 376.998 261.224 377.175 261.566 377.175H263.495V378.378H261.195ZM266.148 378.378V369.726H267.511V370.788H267.759C267.912 370.41 268.148 370.133 268.466 369.956C268.785 369.779 269.204 369.69 269.723 369.69H270.749V370.964H269.634C269.009 370.964 268.502 371.141 268.112 371.495C267.735 371.837 267.546 372.374 267.546 373.105V378.378H266.148ZM276.17 378.626C275.415 378.626 274.725 378.449 274.1 378.095C273.486 377.741 272.997 377.228 272.631 376.556C272.265 375.883 272.082 375.087 272.082 374.167V373.937C272.082 373.005 272.265 372.209 272.631 371.548C272.997 370.888 273.492 370.381 274.117 370.027C274.742 369.661 275.427 369.478 276.17 369.478C277.066 369.478 277.762 369.649 278.257 369.991C278.753 370.333 279.119 370.723 279.355 371.159H279.602V369.726H280.965V376.662C280.965 377.016 281.13 377.193 281.46 377.193H282.256V378.378H280.929C280.54 378.378 280.227 378.266 279.991 378.042C279.756 377.806 279.638 377.482 279.638 377.069V376.874H279.408C279.172 377.334 278.8 377.741 278.293 378.095C277.797 378.449 277.09 378.626 276.17 378.626ZM276.541 377.387C277.438 377.387 278.163 377.104 278.718 376.538C279.284 375.96 279.567 375.158 279.567 374.132V373.972C279.567 372.946 279.284 372.15 278.718 371.584C278.163 371.006 277.438 370.717 276.541 370.717C275.657 370.717 274.925 371.006 274.347 371.584C273.781 372.15 273.498 372.946 273.498 373.972V374.132C273.498 375.158 273.781 375.96 274.347 376.538C274.925 377.104 275.657 377.387 276.541 377.387ZM284.239 378.378V369.726H285.602V371.194H285.85C286.038 370.782 286.357 370.41 286.805 370.08C287.265 369.738 287.937 369.567 288.822 369.567C289.471 369.567 290.049 369.702 290.556 369.974C291.075 370.245 291.488 370.646 291.795 371.177C292.101 371.708 292.255 372.362 292.255 373.141V378.378H290.857V373.247C290.857 372.386 290.639 371.761 290.202 371.371C289.778 370.982 289.2 370.788 288.468 370.788C287.631 370.788 286.947 371.059 286.416 371.601C285.897 372.144 285.637 372.952 285.637 374.025V378.378H284.239ZM298.576 378.626C297.503 378.626 296.595 378.378 295.851 377.883C295.12 377.387 294.678 376.603 294.524 375.529L295.851 375.229C295.946 375.795 296.123 376.243 296.382 376.573C296.642 376.892 296.96 377.122 297.338 377.263C297.727 377.393 298.14 377.458 298.576 377.458C299.225 377.458 299.738 377.328 300.116 377.069C300.493 376.809 300.682 376.461 300.682 376.025C300.682 375.577 300.499 375.264 300.133 375.087C299.779 374.898 299.29 374.745 298.665 374.627L297.939 374.503C297.385 374.409 296.878 374.261 296.418 374.061C295.958 373.86 295.592 373.589 295.321 373.247C295.049 372.905 294.914 372.474 294.914 371.955C294.914 371.177 295.214 370.569 295.816 370.133C296.418 369.696 297.214 369.478 298.205 369.478C299.184 369.478 299.974 369.702 300.576 370.151C301.189 370.587 301.584 371.206 301.761 372.008L300.452 372.345C300.346 371.719 300.092 371.283 299.691 371.035C299.29 370.776 298.794 370.646 298.205 370.646C297.615 370.646 297.149 370.758 296.807 370.982C296.465 371.194 296.294 371.513 296.294 371.938C296.294 372.35 296.453 372.657 296.771 372.858C297.102 373.046 297.538 373.188 298.081 373.282L298.806 373.406C299.42 373.512 299.968 373.66 300.452 373.848C300.947 374.025 301.336 374.285 301.62 374.627C301.914 374.969 302.062 375.417 302.062 375.972C302.062 376.821 301.743 377.476 301.106 377.936C300.481 378.396 299.638 378.626 298.576 378.626ZM308.084 378.626C307.329 378.626 306.639 378.449 306.014 378.095C305.4 377.741 304.911 377.228 304.545 376.556C304.179 375.883 303.997 375.087 303.997 374.167V373.937C303.997 373.005 304.179 372.209 304.545 371.548C304.911 370.888 305.406 370.381 306.031 370.027C306.656 369.661 307.341 369.478 308.084 369.478C308.98 369.478 309.676 369.649 310.172 369.991C310.667 370.333 311.033 370.723 311.269 371.159H311.516V369.726H312.879V376.662C312.879 377.016 313.044 377.193 313.374 377.193H314.17V378.378H312.843C312.454 378.378 312.142 378.266 311.906 378.042C311.67 377.806 311.552 377.482 311.552 377.069V376.874H311.322C311.086 377.334 310.714 377.741 310.207 378.095C309.712 378.449 309.004 378.626 308.084 378.626ZM308.455 377.387C309.352 377.387 310.077 377.104 310.632 376.538C311.198 375.96 311.481 375.158 311.481 374.132V373.972C311.481 372.946 311.198 372.15 310.632 371.584C310.077 371.006 309.352 370.717 308.455 370.717C307.571 370.717 306.839 371.006 306.261 371.584C305.695 372.15 305.412 372.946 305.412 373.972V374.132C305.412 375.158 305.695 375.96 306.261 376.538C306.839 377.104 307.571 377.387 308.455 377.387ZM320.135 378.626C319.297 378.626 318.542 378.449 317.87 378.095C317.209 377.729 316.684 377.21 316.295 376.538C315.918 375.866 315.729 375.069 315.729 374.149V373.955C315.729 373.023 315.918 372.227 316.295 371.566C316.684 370.894 317.209 370.381 317.87 370.027C318.542 369.661 319.297 369.478 320.135 369.478C320.96 369.478 321.662 369.632 322.24 369.938C322.83 370.245 323.29 370.652 323.62 371.159C323.962 371.666 324.181 372.209 324.275 372.787L322.913 373.07C322.854 372.645 322.712 372.256 322.488 371.902C322.276 371.548 321.975 371.265 321.586 371.053C321.196 370.841 320.719 370.734 320.152 370.734C319.574 370.734 319.055 370.864 318.595 371.124C318.147 371.383 317.787 371.755 317.516 372.238C317.256 372.722 317.127 373.3 317.127 373.972V374.132C317.127 374.804 317.256 375.382 317.516 375.866C317.787 376.349 318.147 376.721 318.595 376.98C319.055 377.24 319.574 377.37 320.152 377.37C321.013 377.37 321.668 377.145 322.116 376.697C322.576 376.249 322.859 375.695 322.966 375.034L324.346 375.335C324.216 375.901 323.98 376.438 323.638 376.945C323.296 377.452 322.83 377.859 322.24 378.166C321.662 378.472 320.96 378.626 320.135 378.626ZM329.55 378.378C329.055 378.378 328.671 378.242 328.4 377.971C328.141 377.7 328.011 377.328 328.011 376.856V370.947H325.41V369.726H328.011V366.647H329.409V369.726H332.24V370.947H329.409V376.644C329.409 376.998 329.58 377.175 329.922 377.175H331.85V378.378H329.55ZM334.504 378.378V369.726H335.902V378.378H334.504ZM335.212 368.381C334.905 368.381 334.645 368.281 334.433 368.08C334.232 367.88 334.132 367.626 334.132 367.32C334.132 367.001 334.232 366.742 334.433 366.541C334.645 366.341 334.905 366.24 335.212 366.24C335.518 366.24 335.772 366.341 335.972 366.541C336.173 366.742 336.273 367.001 336.273 367.32C336.273 367.626 336.173 367.88 335.972 368.08C335.772 368.281 335.518 368.381 335.212 368.381ZM342.84 378.626C341.967 378.626 341.194 378.443 340.522 378.077C339.861 377.712 339.342 377.198 338.965 376.538C338.599 375.866 338.416 375.075 338.416 374.167V373.937C338.416 373.04 338.599 372.256 338.965 371.584C339.342 370.911 339.861 370.392 340.522 370.027C341.194 369.661 341.967 369.478 342.84 369.478C343.712 369.478 344.479 369.661 345.14 370.027C345.812 370.392 346.331 370.911 346.697 371.584C347.074 372.256 347.263 373.04 347.263 373.937V374.167C347.263 375.075 347.074 375.866 346.697 376.538C346.331 377.198 345.812 377.712 345.14 378.077C344.479 378.443 343.712 378.626 342.84 378.626ZM342.84 377.37C343.76 377.37 344.491 377.081 345.034 376.503C345.588 375.913 345.865 375.122 345.865 374.132V373.972C345.865 372.982 345.588 372.197 345.034 371.619C344.491 371.029 343.76 370.734 342.84 370.734C341.931 370.734 341.2 371.029 340.646 371.619C340.091 372.197 339.814 372.982 339.814 373.972V374.132C339.814 375.122 340.091 375.913 340.646 376.503C341.2 377.081 341.931 377.37 342.84 377.37ZM349.778 378.378V369.726H351.141V371.194H351.388C351.577 370.782 351.896 370.41 352.344 370.08C352.804 369.738 353.476 369.567 354.361 369.567C355.01 369.567 355.588 369.702 356.095 369.974C356.614 370.245 357.027 370.646 357.333 371.177C357.64 371.708 357.794 372.362 357.794 373.141V378.378H356.396V373.247C356.396 372.386 356.177 371.761 355.741 371.371C355.316 370.982 354.738 370.788 354.007 370.788C353.17 370.788 352.485 371.059 351.955 371.601C351.436 372.144 351.176 372.952 351.176 374.025V378.378H349.778Z" fill="white"/>
<rect x="33.5404" y="410.918" width="167.536" height="46.5404" rx="8" fill="#F6F6F6"/>
<path d="M96.9469 440.381C99.7149 440.381 101.859 438.749 102.307 436.285H100.179C99.7949 437.581 98.5789 438.413 96.9949 438.413C94.8509 438.413 93.4749 436.813 93.4749 434.333C93.4749 431.837 94.8349 430.269 96.9949 430.269C98.5469 430.269 99.7149 431.069 100.115 432.429H102.275C101.875 429.917 99.8109 428.301 97.0429 428.301C93.6189 428.301 91.3309 430.717 91.3309 434.349C91.3309 438.013 93.5389 440.381 96.9469 440.381ZM109.984 432.285L109.872 433.501C109.392 432.557 108.288 432.045 107.104 432.045C104.88 432.045 103.392 433.661 103.392 436.141C103.392 438.605 104.736 440.397 107.088 440.397C108.368 440.397 109.312 439.773 109.808 438.957L109.936 440.189H111.76V432.285H109.984ZM109.776 436.237C109.776 437.661 108.896 438.637 107.536 438.637C106.176 438.637 105.344 437.645 105.344 436.237C105.344 434.829 106.192 433.821 107.552 433.821C108.912 433.821 109.776 434.813 109.776 436.237ZM115.729 440.189V435.933C115.729 434.653 116.465 433.821 117.665 433.821C118.673 433.821 119.329 434.461 119.329 435.789V440.189H121.281V435.325C121.281 433.277 120.257 432.045 118.273 432.045C117.201 432.045 116.241 432.509 115.745 433.309L115.585 432.285H113.777V440.189H115.729ZM122.735 436.221C122.735 438.733 124.303 440.397 126.703 440.397C128.767 440.397 130.303 439.133 130.543 437.293H128.575C128.367 438.157 127.679 438.637 126.703 438.637C125.455 438.637 124.687 437.709 124.687 436.221C124.687 434.733 125.519 433.789 126.767 433.789C127.695 433.789 128.351 434.253 128.575 435.149H130.527C130.319 433.245 128.847 432.045 126.687 432.045C124.351 432.045 122.735 433.773 122.735 436.221ZM135.532 440.397C137.596 440.397 139.036 439.357 139.372 437.629H137.564C137.34 438.381 136.636 438.797 135.564 438.797C134.268 438.797 133.532 438.093 133.388 436.701L139.34 436.685V436.093C139.34 433.629 137.836 432.045 135.468 432.045C133.148 432.045 131.532 433.757 131.532 436.237C131.532 438.685 133.18 440.397 135.532 440.397ZM135.484 433.645C136.652 433.645 137.404 434.365 137.404 435.453H133.436C133.628 434.269 134.332 433.645 135.484 433.645ZM142.87 440.189V428.285H140.934V440.189H142.87Z" fill="#9B9BA7"/>
<rect x="209.923" y="410.918" width="167.536" height="46.5404" rx="8" fill="#5298FF"/>
<path d="M269.424 440.381C272.192 440.381 274.336 438.749 274.784 436.285H272.656C272.272 437.581 271.056 438.413 269.472 438.413C267.328 438.413 265.952 436.813 265.952 434.333C265.952 431.837 267.312 430.269 269.472 430.269C271.024 430.269 272.192 431.069 272.592 432.429H274.752C274.352 429.917 272.288 428.301 269.52 428.301C266.096 428.301 263.808 430.717 263.808 434.349C263.808 438.013 266.016 440.381 269.424 440.381ZM275.868 436.221C275.868 438.685 277.644 440.381 280.092 440.381C282.54 440.381 284.316 438.685 284.316 436.221C284.316 433.757 282.54 432.061 280.092 432.061C277.644 432.061 275.868 433.757 275.868 436.221ZM277.82 436.221C277.82 434.781 278.748 433.805 280.092 433.805C281.436 433.805 282.364 434.781 282.364 436.221C282.364 437.661 281.436 438.637 280.092 438.637C278.748 438.637 277.82 437.661 277.82 436.221ZM287.815 440.189V435.933C287.815 434.653 288.551 433.821 289.751 433.821C290.759 433.821 291.415 434.461 291.415 435.789V440.189H293.367V435.325C293.367 433.277 292.343 432.045 290.359 432.045C289.287 432.045 288.327 432.509 287.831 433.309L287.671 432.285H285.863V440.189H287.815ZM300.805 440.189H302.757V432.285H297.573V431.325C297.573 430.541 297.797 430.029 298.677 430.029H299.365V428.365C299.029 428.301 298.661 428.285 298.357 428.285C296.757 428.285 295.637 429.181 295.637 431.325V432.285H294.501V433.917H295.637V440.189H297.573V433.917H300.805V440.189ZM301.781 430.669C302.421 430.669 302.933 430.157 302.933 429.501C302.933 428.861 302.421 428.349 301.781 428.349C301.125 428.349 300.613 428.861 300.613 429.501C300.613 430.157 301.125 430.669 301.781 430.669ZM309.73 432.253C309.41 432.173 309.138 432.141 308.866 432.141C307.81 432.141 307.058 432.669 306.722 433.453L306.61 432.301H304.77V440.189H306.722V436.349C306.722 434.813 307.602 434.061 309.01 434.061H309.73V432.253ZM313.003 440.189V435.709C313.003 434.429 313.755 433.821 314.683 433.821C315.611 433.821 316.203 434.413 316.203 435.517V440.189H318.155V435.709C318.155 434.413 318.875 433.805 319.819 433.805C320.747 433.805 321.355 434.397 321.355 435.533V440.189H323.291V435.021C323.291 433.197 322.235 432.045 320.315 432.045C319.115 432.045 318.187 432.637 317.787 433.549C317.371 432.637 316.539 432.045 315.339 432.045C314.203 432.045 313.403 432.557 313.003 433.213L312.843 432.285H311.051V440.189H313.003Z" fill="white"/>
</g>
<defs>
<filter id="filter0_d_1745_3025" x="0.364903" y="0.0326858" width="410.27" height="495.025" filterUnits="userSpaceOnUse" color-interpolation-filters="sRGB">
<feFlood flood-opacity="0" result="BackgroundImageFix"/>
<feColorMatrix in="SourceAlpha" type="matrix" values="0 0 0 0 0 0 0 0 0 0 0 0 0 0 0 0 0 0 127 0" result="hardAlpha"/>
<feOffset dy="4.4234"/>
<feGaussianBlur stdDeviation="3.31755"/>
<feComposite in2="hardAlpha" operator="out"/>
<feColorMatrix type="matrix" values="0 0 0 0 0.491667 0 0 0 0 0.471181 0 0 0 0 0.471181 0 0 0 0.18 0"/>
<feBlend mode="normal" in2="BackgroundImageFix" result="effect1_dropShadow_1745_3025"/>
<feBlend mode="normal" in="SourceGraphic" in2="effect1_dropShadow_1745_3025" result="shape"/>
</filter>
<linearGradient id="paint0_linear_1745_3025" x1="93.5306" y1="304.902" x2="66.0145" y2="267.978" gradientUnits="userSpaceOnUse">
<stop stop-color="#73A6F2"/>
<stop offset="1" stop-color="#42C2AB"/>
</linearGradient>
</defs>
</svg>
